<?xml version="1.0" encoding="UTF-8" standalone="no"?>
<svg xmlns:ffdec="https://www.free-decompiler.com/flash" xmlns:xlink="http://www.w3.org/1999/xlink" ffdec:objectType="shape" height="8.0px" width="8.0px" xmlns="http://www.w3.org/2000/svg">
  <g transform="matrix(1.0, 0.0, 0.0, 1.0, 4.0, 4.0)">
    <path d="M2.25 -2.25 Q1.3 -3.2 0.0 -3.2 -1.35 -3.2 -2.25 -2.25 -3.2 -1.35 -3.2 0.0 -3.2 1.3 -2.25 2.25 -1.35 3.2 0.0 3.2 1.3 3.2 2.25 2.25 3.2 1.3 3.2 0.0 3.2 -1.35 2.25 -2.25 M2.85 -2.85 Q4.0 -1.65 4.0 0.0 4.0 1.65 2.85 2.85 1.65 4.0 0.0 4.0 -1.65 4.0 -2.85 2.85 -4.0 1.65 -4.0 0.0 -4.0 -1.65 -2.85 -2.85 -1.65 -4.0 0.0 -4.0 1.65 -4.0 2.85 -2.85" fill="#00b1d7" fill-opacity="0.4" fill-rule="evenodd" stroke="none"/>
  </g>
</svg>
