<?xml version="1.0" encoding="UTF-8" standalone="no"?>
<svg xmlns:ffdec="https://www.free-decompiler.com/flash" xmlns:xlink="http://www.w3.org/1999/xlink" ffdec:objectType="shape" height="60.0px" width="60.0px" xmlns="http://www.w3.org/2000/svg">
  <g transform="matrix(1.0, 0.0, 0.0, 1.0, 30.05, 30.0)">
    <path d="M-0.05 -25.0 Q10.3 -25.0 17.6 -17.7 24.95 -10.35 24.95 0.0 24.95 10.35 17.6 17.7 10.3 25.0 -0.05 25.0 -10.4 25.0 -17.75 17.7 -25.05 10.35 -25.05 0.0 -25.05 -10.35 -17.75 -17.7 -10.4 -25.0 -0.05 -25.0" fill="#33ccff" fill-rule="evenodd" stroke="none"/>
    <path d="M-0.05 -25.0 Q10.3 -25.0 17.6 -17.7 24.95 -10.35 24.95 0.0 24.95 10.35 17.6 17.7 10.3 25.0 -0.05 25.0 -10.4 25.0 -17.75 17.7 -25.05 10.35 -25.05 0.0 -25.05 -10.35 -17.75 -17.7 -10.4 -25.0 -0.05 -25.0 Z" fill="none" stroke="#33ccff" stroke-linecap="round" stroke-linejoin="round" stroke-width="10.0"/>
  </g>
</svg>
