<?xml version="1.0" encoding="UTF-8" standalone="no"?>
<svg xmlns:ffdec="https://www.free-decompiler.com/flash" xmlns:xlink="http://www.w3.org/1999/xlink" ffdec:objectType="shape" height="27.5px" width="27.5px" xmlns="http://www.w3.org/2000/svg">
  <g transform="matrix(1.0, 0.0, 0.0, 1.0, 13.8, 13.75)">
    <path d="M0.25 -13.0 Q5.4 -12.9 9.1 -9.15 12.9 -5.4 12.95 0.0 12.9 5.4 9.1 9.2 5.3 13.0 -0.05 13.0 -5.5 13.0 -9.3 9.2 -12.55 5.95 -13.0 1.55 L-13.05 0.3" fill="none" stroke="#ffffff" stroke-linecap="round" stroke-linejoin="round" stroke-opacity="0.011764706" stroke-width="1.5"/>
    <path d="M0.25 -13.0 Q5.4 -12.9 9.1 -9.15 12.9 -5.4 12.95 0.0 12.9 5.4 9.1 9.2 5.3 13.0 -0.05 13.0 -5.5 13.0 -9.3 9.2 -12.55 5.95 -13.0 1.55 L-13.05 0.3" ffdec:has-small-stroke="true" ffdec:original-stroke-width="0.8" fill="none" stroke="#ffffff" stroke-linecap="round" stroke-linejoin="round" stroke-opacity="0.011764706" stroke-width="1.0"/>
  </g>
</svg>
