<?xml version="1.0" encoding="UTF-8" standalone="no"?>
<svg xmlns:ffdec="https://www.free-decompiler.com/flash" xmlns:xlink="http://www.w3.org/1999/xlink" ffdec:objectType="shape" height="21.35px" width="21.6px" xmlns="http://www.w3.org/2000/svg">
  <g transform="matrix(1.0, 0.0, 0.0, 1.0, 10.5, 11.0)">
    <path d="M-4.05 -3.55 L-3.5 -3.05 -3.3 -2.65 -5.85 -2.65 -5.7 -2.7 -6.1 -3.55 -4.05 -3.55" fill="#181818" fill-opacity="0.2" fill-rule="evenodd" stroke="none"/>
    <path d="M6.7 -6.5 Q6.85 -7.2 6.0 -8.15 L5.55 -8.6 4.25 -9.5 3.55 -9.85 3.15 -10.0 0.6 -10.45 -0.35 -10.35 -1.5 -10.15 -2.6 -9.7 -3.8 -9.0 -4.5 -8.45 Q-5.9 -7.25 -5.7 -6.6 L-5.75 -6.6 -5.75 -8.1 -3.8 -9.6 -2.6 -10.3 Q-1.45 -10.85 0.0 -11.0 L3.55 -10.25 4.25 -9.9 Q5.5 -9.2 6.75 -8.0 L6.75 -6.5 6.7 -6.5 M-4.95 -6.05 L-4.75 -6.25 -4.45 -6.5 -4.35 -6.6 -4.1 -6.8 -3.65 -7.15 -3.55 -7.25 -2.9 -7.7 -2.6 -7.85 -1.5 -8.4 -0.35 -8.75 1.3 -8.8 Q2.25 -8.65 3.15 -8.15 L3.55 -7.95 3.95 -7.65 4.25 -7.45 5.3 -6.5 6.0 -5.7 6.0 -5.65 5.5 -5.65 4.95 -6.5 4.25 -7.15 3.95 -7.35 3.55 -7.6 3.15 -7.8 1.3 -8.3 0.65 -8.35 -0.35 -8.3 -1.5 -8.0 Q-2.1 -7.8 -2.6 -7.4 L-2.75 -7.25 -2.9 -7.15 -3.25 -6.8 -3.45 -6.6 -3.5 -6.5 -3.8 -6.15 -3.9 -6.0 -4.95 -6.0 -4.95 -6.05 M-3.3 -2.65 L-2.8 -1.55 -3.7 -0.4 -5.1 -0.2 -10.5 -0.35 -5.85 -2.65 -3.3 -2.65 M7.75 -3.0 L11.1 -0.65 6.05 -0.65 Q3.85 -0.5 3.65 -2.05 L4.45 -3.0 7.75 -3.0" fill="#ffffff" fill-opacity="0.15294118" fill-rule="evenodd" stroke="none"/>
    <path d="M6.7 -6.5 L6.75 -6.5 6.75 -8.0 8.55 -6.05 7.45 -3.45 7.75 -3.0 4.45 -3.0 Q6.15 -4.15 5.85 -4.7 L5.5 -5.65 6.0 -5.65 6.0 -5.7 Q6.55 -6.05 6.7 -6.5 M-5.75 -8.1 L-5.75 -6.6 -5.7 -6.6 -5.65 -6.5 Q-5.55 -6.2 -4.95 -6.05 L-4.95 -6.0 -3.9 -6.0 -4.45 -5.0 Q-4.8 -4.4 -4.05 -3.55 L-6.1 -3.55 -7.5 -6.4 -5.95 -7.9 -5.75 -8.1" fill="#181818" fill-opacity="0.7529412" fill-rule="evenodd" stroke="none"/>
    <path d="M4.0 2.1 L3.4 0.95 4.3 -0.25 5.7 -0.45 11.1 -0.3 6.35 2.1 4.0 2.1 M6.25 7.55 L5.35 8.3 3.8 9.35 2.9 9.9 1.3 10.25 -0.75 10.3 -1.9 10.05 -3.0 9.6 -3.95 9.1 -5.05 8.35 -6.1 7.45 -6.1 6.3 Q-6.0 7.0 -5.05 7.85 L-4.9 7.95 -3.95 8.7 -3.0 9.2 -1.6 9.65 0.05 9.8 1.3 9.7 2.65 9.3 3.8 8.75 5.1 7.8 5.35 7.6 6.25 6.45 6.25 7.55 M-7.1 2.4 L-10.5 0.0 -5.45 0.0 Q-3.25 -0.15 -3.0 1.4 L-3.85 2.4 -7.1 2.4 M-4.8 5.1 L-4.0 6.2 -3.95 6.25 -3.75 6.4 -3.0 6.95 -2.55 7.15 -1.6 7.5 -0.05 7.7 1.3 7.6 2.65 7.1 3.5 6.5 3.7 6.3 3.8 6.2 3.95 6.05 4.45 5.45 5.5 5.45 4.85 6.05 4.55 6.3 4.3 6.5 3.8 6.85 2.65 7.55 1.3 8.05 -1.6 7.95 -3.0 7.25 -3.15 7.15 -3.95 6.55 -4.1 6.4 -4.35 6.2 -5.35 5.1 -4.8 5.1" fill="#ffffff" fill-opacity="0.15294118" fill-rule="evenodd" stroke="none"/>
    <path d="M6.35 2.1 L8.1 5.75 6.25 7.55 6.25 6.45 Q6.6 5.65 5.55 5.4 L5.5 5.45 4.45 5.45 5.1 4.4 Q5.35 3.85 4.9 3.2 L4.15 2.4 4.0 2.1 6.35 2.1 M-6.1 7.45 L-7.95 5.4 -6.85 2.85 -7.1 2.4 -3.85 2.4 Q-5.55 3.5 -5.25 4.1 L-4.8 5.1 -5.35 5.1 -5.4 5.05 Q-6.25 5.55 -6.1 6.3 L-6.1 7.45" fill="#181818" fill-opacity="0.7529412" fill-rule="evenodd" stroke="none"/>
  </g>
</svg>
