<?xml version="1.0" encoding="UTF-8" standalone="no"?>
<svg xmlns:ffdec="https://www.free-decompiler.com/flash" xmlns:xlink="http://www.w3.org/1999/xlink" ffdec:objectType="shape" height="90.3px" width="90.3px" xmlns="http://www.w3.org/2000/svg">
  <g transform="matrix(1.0, 0.0, 0.0, 1.0, -0.05, -0.05)">
    <path d="M81.95 81.25 L81.25 81.95 M84.75 84.05 L84.05 84.75 M87.55 86.85 L86.85 87.55 M90.35 89.65 L89.65 90.35 M42.75 42.05 L42.05 42.75 M45.55 44.85 L44.85 45.55 M48.35 47.65 L47.65 48.35 M23.15 22.45 L22.45 23.15 M0.75 0.05 L0.05 0.75 M3.55 2.85 L2.85 3.55 M6.35 5.65 L5.65 6.35 M9.15 8.45 L8.45 9.15 M11.95 11.25 L11.25 11.95 M14.75 14.05 L14.05 14.75 M17.55 16.85 L16.85 17.55 M39.95 39.25 L39.25 39.95 M37.15 36.45 L36.45 37.15 M34.35 33.65 L33.65 34.35 M31.55 30.85 L30.85 31.55 M28.75 28.05 L28.05 28.75 M25.95 25.25 L25.25 25.95 M20.35 19.65 L19.65 20.35 M73.55 72.85 L72.85 73.55 M70.75 70.05 L70.05 70.75 M67.95 67.25 L67.25 67.95 M65.15 64.45 L64.45 65.15 M62.35 61.65 L61.65 62.35 M51.15 50.45 L50.45 51.15 M53.95 53.25 L53.25 53.95 M59.55 58.85 L58.85 59.55 M56.75 56.05 L56.05 56.75 M79.15 78.45 L78.45 79.15 M76.35 75.65 L75.65 76.35" ffdec:has-small-stroke="true" ffdec:original-stroke-width="0.05" fill="none" stroke="#404040" stroke-linecap="round" stroke-linejoin="round" stroke-width="1.0"/>
  </g>
</svg>
