<?xml version="1.0" encoding="UTF-8" standalone="no"?>
<svg xmlns:ffdec="https://www.free-decompiler.com/flash" xmlns:xlink="http://www.w3.org/1999/xlink" ffdec:objectType="shape" height="2000.0px" width="2000.0px" xmlns="http://www.w3.org/2000/svg">
  <g transform="matrix(1.0, 0.0, 0.0, 1.0, 1000.0, 1000.0)">
    <path d="M160.0 1000.0 L159.0 1000.0 159.0 999.0 159.0 996.0 160.0 996.0 160.0 999.0 160.0 1000.0 M160.0 982.0 L159.45 981.9 Q159.0 980.0 159.0 978.0 L160.0 978.0 160.0 981.0 160.0 982.0 M171.0 599.0 Q170.5 599.0 170.4 598.8 170.0 598.0 170.0 597.0 L171.0 597.0 171.0 598.0 171.0 599.0 M186.0 494.0 Q185.5 494.0 185.4 493.8 185.0 493.0 185.0 492.0 L186.0 492.0 186.0 493.0 186.0 494.0 M177.0 -548.0 Q176.5 -548.0 176.4 -548.2 176.0 -549.0 176.0 -550.0 L177.0 -550.0 177.0 -549.0 177.0 -548.0 M175.0 -563.0 Q174.5 -563.0 174.4 -563.2 174.0 -564.0 174.0 -565.0 L175.0 -565.0 175.0 -564.0 175.0 -563.0 M173.0 -579.0 L172.4 -579.2 Q172.0 -580.0 172.0 -581.0 L173.0 -581.0 173.0 -580.0 173.0 -579.0 M166.0 -657.0 Q165.5 -657.0 165.4 -657.2 165.0 -658.0 165.0 -659.0 L166.0 -659.0 166.0 -658.0 166.0 -657.0 M159.0 -924.0 Q158.5 -924.0 158.45 -924.15 158.0 -925.55 158.0 -927.0 L159.0 -927.0 159.0 -925.0 159.0 -924.0 M160.0 -980.0 L159.45 -980.1 Q159.0 -982.0 159.0 -984.0 L160.0 -984.0 160.0 -981.0 160.0 -980.0 M160.0 -996.0 L159.45 -996.1 Q159.0 -998.0 159.0 -1000.0 L160.0 -1000.0 160.0 -997.0 160.0 -996.0 M2.0 -1000.0 L2.0 -941.0 Q2.0 -911.5 2.65 -882.0 2.75 -877.25 1.0 -875.0 L1.0 -882.0 1.0 -941.0 1.0 -1000.0 2.0 -1000.0 M158.0 -967.0 Q160.4 -965.5 158.0 -965.0 L158.0 -966.0 158.0 -967.0 M158.0 -976.0 L158.0 -977.0 Q160.4 -975.5 158.0 -975.0 L158.0 -976.0 M158.25 -943.25 Q158.0 -943.5 158.0 -944.0 159.95 -941.6 158.25 -943.25 M157.25 -950.25 Q157.0 -950.5 157.0 -951.0 158.95 -948.6 157.25 -950.25 M158.0 -935.0 Q159.95 -932.6 158.25 -934.25 158.0 -934.5 158.0 -935.0 M157.0 -929.0 Q158.95 -926.6 157.25 -928.25 157.0 -928.5 157.0 -929.0 M157.0 -938.0 Q158.95 -935.6 157.25 -937.25 157.0 -937.5 157.0 -938.0 M157.0 -919.0 L157.0 -920.0 157.0 -921.0 Q159.4 -919.5 157.0 -919.0 M156.25 -913.25 Q156.0 -913.5 156.0 -914.0 157.95 -911.6 156.25 -913.25 M1.65 -793.0 Q1.0 -763.5 1.0 -734.0 L1.0 -675.0 1.0 -625.0 Q-0.75 -627.25 -0.65 -632.0 0.0 -661.5 0.0 -691.0 L0.0 -750.0 0.0 -800.0 Q1.75 -797.75 1.65 -793.0 M0.0 -941.0 Q0.0 -911.5 0.65 -882.0 0.75 -877.25 -1.0 -875.0 L-1.0 -882.0 -1.0 -941.0 -1.0 -1000.0 0.0 -1000.0 0.0 -941.0 M162.0 -692.0 L162.0 -693.0 Q164.4 -691.5 162.0 -691.0 L162.0 -692.0 M163.25 -672.25 Q163.0 -672.5 163.0 -673.0 164.95 -670.6 163.25 -672.25 M164.25 -676.25 Q164.0 -676.5 164.0 -677.0 165.95 -674.6 164.25 -676.25 M164.0 -655.0 Q165.95 -652.6 164.25 -654.25 164.0 -654.5 164.0 -655.0 M165.0 -642.0 Q167.4 -640.5 165.0 -640.0 L165.0 -641.0 165.0 -642.0 M166.0 -628.0 L166.0 -630.0 Q168.45 -628.0 166.0 -627.0 L166.0 -628.0 M167.0 -617.0 Q169.4 -615.5 167.0 -615.0 L167.0 -616.0 167.0 -617.0 M168.0 -606.0 Q170.4 -604.5 168.0 -604.0 L168.0 -605.0 168.0 -606.0 M159.0 -741.0 Q160.95 -738.6 159.25 -740.25 159.0 -740.5 159.0 -741.0 M170.0 -585.0 Q172.4 -583.5 170.0 -583.0 L170.0 -584.0 170.0 -585.0 M169.0 -594.0 L169.0 -595.0 Q171.4 -593.5 169.0 -593.0 L169.0 -594.0 M173.25 -561.25 Q173.0 -561.5 173.0 -562.0 174.95 -559.6 173.25 -561.25 M175.25 -555.25 Q175.0 -555.5 175.0 -556.0 176.95 -553.6 175.25 -555.25 M174.25 -552.25 Q174.0 -552.5 174.0 -553.0 175.95 -550.6 174.25 -552.25 M175.0 -547.0 Q176.95 -544.6 175.25 -546.25 175.0 -546.5 175.0 -547.0 M172.0 -568.0 Q173.95 -565.6 172.25 -567.25 172.0 -567.5 172.0 -568.0 M174.0 -544.0 Q175.95 -541.6 174.25 -543.25 174.0 -543.5 174.0 -544.0 M176.0 -538.0 Q177.95 -535.6 176.25 -537.25 176.0 -537.5 176.0 -538.0 M177.25 -540.25 Q177.0 -540.5 177.0 -541.0 178.95 -538.6 177.25 -540.25 M180.0 -522.0 Q181.95 -519.6 180.25 -521.25 180.0 -521.5 180.0 -522.0 M178.0 -525.0 Q179.95 -522.6 178.25 -524.25 178.0 -524.5 178.0 -525.0 M179.0 -528.0 Q180.95 -525.6 179.25 -527.25 179.0 -527.5 179.0 -528.0 M181.25 -506.25 Q181.0 -506.5 181.0 -507.0 182.95 -504.6 181.25 -506.25 M181.25 -514.25 Q181.0 -514.5 181.0 -515.0 182.95 -512.6 181.25 -514.25 M180.25 -511.25 Q180.0 -511.5 180.0 -512.0 181.95 -509.6 180.25 -511.25 M179.25 -518.25 Q179.0 -518.5 179.0 -519.0 180.95 -516.6 179.25 -518.25 M183.25 -504.25 Q183.0 -504.5 183.0 -505.0 184.95 -502.6 183.25 -504.25 M182.25 -501.25 Q182.0 -501.5 182.0 -502.0 183.95 -499.6 182.25 -501.25 M182.25 -509.25 Q182.0 -509.5 182.0 -510.0 183.95 -507.6 182.25 -509.25 M183.25 -478.25 Q183.0 -478.5 183.0 -479.0 184.95 -476.6 183.25 -478.25 M184.25 -472.25 Q184.0 -472.5 184.0 -473.0 185.95 -470.6 184.25 -472.25 M183.25 478.75 L183.0 478.0 Q184.95 480.45 183.25 478.75 M184.0 473.0 Q185.95 475.45 184.25 473.75 184.0 473.5 184.0 473.0 M183.25 487.75 L183.0 487.0 Q184.95 489.45 183.25 487.75 M184.25 497.75 Q184.0 497.5 184.0 497.0 185.95 499.45 184.25 497.75 M179.25 518.75 Q179.0 518.5 179.0 518.0 180.95 520.45 179.25 518.75 M178.25 525.75 Q178.0 525.5 178.0 525.0 179.95 527.45 178.25 525.75 M180.25 521.75 L180.0 521.0 Q181.95 523.45 180.25 521.75 M179.0 528.0 Q180.95 530.45 179.25 528.75 179.0 528.5 179.0 528.0 M177.0 531.0 Q178.95 533.45 177.25 531.75 L177.0 531.0 M177.25 540.75 L177.0 540.0 Q178.95 542.45 177.25 540.75 M176.0 537.0 Q177.95 539.45 176.25 537.75 176.0 537.5 176.0 537.0 M178.25 534.75 Q178.0 534.5 178.0 534.0 179.95 536.45 178.25 534.75 M175.0 545.0 Q176.95 547.45 175.25 545.75 175.0 545.5 175.0 545.0 M176.25 548.75 Q176.0 548.5 176.0 548.0 177.95 550.45 176.25 548.75 M175.25 554.75 Q175.0 554.5 175.0 554.0 176.95 556.45 175.25 554.75 M174.0 551.0 Q175.95 553.45 174.25 551.75 L174.0 551.0 M174.0 563.0 Q175.95 565.45 174.25 563.75 L174.0 563.0 M173.0 560.0 Q174.95 562.45 173.25 560.75 173.0 560.5 173.0 560.0 M173.0 570.0 Q174.95 572.45 173.25 570.75 173.0 570.5 173.0 570.0 M171.25 576.75 L171.0 576.0 Q172.95 578.45 171.25 576.75 M170.0 586.0 L170.0 585.0 Q172.4 586.5 170.0 587.0 L170.0 586.0 M169.0 593.0 Q170.95 595.45 169.25 593.75 169.0 593.5 169.0 593.0 M1.65 632.0 Q1.0 661.5 1.0 691.0 L1.0 750.0 1.0 800.0 Q-0.75 797.75 -0.65 793.0 0.0 763.5 0.0 734.0 L0.0 675.0 0.0 625.0 Q1.75 627.25 1.65 632.0 M160.0 706.0 Q161.95 708.45 160.25 706.75 160.0 706.5 160.0 706.0 M157.0 754.0 Q158.95 756.45 157.25 754.75 157.0 754.5 157.0 754.0 M168.0 604.0 L168.0 603.0 Q170.4 604.5 168.0 605.0 L168.0 604.0 M167.0 616.0 L167.0 615.0 Q169.4 616.5 167.0 617.0 L167.0 616.0 M166.0 627.0 Q168.4 628.5 166.0 629.0 L166.0 628.0 166.0 627.0 M165.0 642.0 L165.0 641.0 165.0 639.0 Q167.45 641.0 165.0 642.0 M164.0 653.0 Q165.95 655.45 164.25 653.75 164.0 653.5 164.0 653.0 M165.0 657.0 Q166.95 659.45 165.25 657.75 L165.0 657.0 M164.25 675.75 Q164.0 675.5 164.0 675.0 165.95 677.45 164.25 675.75 M163.0 671.0 Q164.95 673.45 163.25 671.75 163.0 671.5 163.0 671.0 M162.0 689.0 Q164.45 691.0 162.0 692.0 L162.0 691.0 162.0 689.0 M157.25 848.75 Q157.0 848.5 157.0 848.0 158.95 850.45 157.25 848.75 M156.25 843.75 L156.0 843.0 Q157.95 845.45 156.25 843.75 M156.0 865.0 Q157.95 867.45 156.25 865.75 L156.0 865.0 M156.0 874.0 L156.0 873.0 Q158.4 874.5 156.0 875.0 L156.0 874.0 M157.25 871.75 Q157.0 871.5 157.0 871.0 158.95 873.45 157.25 871.75 M156.0 890.0 Q157.95 892.45 156.25 890.75 L156.0 890.0 M156.0 882.0 Q157.95 884.45 156.25 882.75 L156.0 882.0 M157.0 879.0 Q158.95 881.45 157.25 879.75 157.0 879.5 157.0 879.0 M2.65 882.0 Q2.0 911.5 2.0 941.0 L2.0 1000.0 1.0 1000.0 1.0 993.0 1.0 934.0 1.0 875.0 Q2.75 877.25 2.65 882.0 M157.0 896.0 Q158.95 898.45 157.25 896.75 157.0 896.5 157.0 896.0 M158.25 933.75 Q158.0 933.5 158.0 933.0 159.95 935.45 158.25 933.75 M158.25 963.75 Q158.0 963.5 158.0 963.0 159.95 965.45 158.25 963.75 M158.0 974.0 L158.0 973.0 158.0 972.0 Q160.4 973.5 158.0 974.0 M159.0 971.0 L159.0 970.0 159.0 969.0 Q161.4 970.5 159.0 971.0 M159.25 988.75 L159.0 988.0 Q160.95 990.45 159.25 988.75 M0.65 882.0 Q0.0 911.5 0.0 941.0 L0.0 1000.0 -1.0 1000.0 -1.0 993.0 -1.0 934.0 -1.0 875.0 Q0.75 877.25 0.65 882.0 M158.0 994.0 L158.0 993.0 Q160.4 994.5 158.0 995.0 L158.0 994.0 M-159.0 -981.0 Q-157.3 -980.2 -158.45 -977.15 -158.5 -977.0 -159.0 -977.0 L-159.0 -978.0 -159.0 -981.0 M-159.0 -988.0 L-159.0 -989.0 -159.0 -990.0 Q-156.6 -988.5 -159.0 -988.0 M-157.75 -982.25 L-158.0 -983.0 Q-156.1 -980.6 -157.75 -982.25 M-158.0 -974.0 Q-155.6 -972.5 -158.0 -972.0 L-158.0 -973.0 -158.0 -974.0 M-159.0 -971.0 Q-157.3 -970.2 -158.45 -967.15 -158.5 -967.0 -159.0 -967.0 L-159.0 -968.0 -159.0 -971.0 M-158.0 -962.0 L-158.0 -963.0 -158.0 -964.0 Q-155.6 -962.5 -158.0 -962.0 M-157.75 -942.25 L-158.0 -943.0 Q-156.1 -940.6 -157.75 -942.25 M-158.0 -934.0 Q-156.1 -931.6 -157.75 -933.25 L-158.0 -934.0 M-156.75 -896.25 L-157.0 -897.0 Q-155.1 -894.6 -156.75 -896.25 M-157.0 -880.0 Q-155.1 -877.6 -156.75 -879.25 L-157.0 -880.0 M-155.75 -890.25 L-156.0 -891.0 Q-154.1 -888.6 -155.75 -890.25 M-156.75 -871.25 L-157.0 -872.0 Q-155.1 -869.6 -156.75 -871.25 M-156.0 -874.0 Q-154.1 -871.6 -155.75 -873.25 L-156.0 -874.0 M-156.0 -866.0 Q-154.1 -863.6 -155.75 -865.25 L-156.0 -866.0 M-155.75 -850.25 L-156.0 -851.0 Q-154.1 -848.6 -155.75 -850.25 M-155.75 -843.25 L-156.0 -844.0 Q-154.1 -841.6 -155.75 -843.25 M-157.0 -849.0 Q-155.1 -846.6 -156.75 -848.25 L-157.0 -849.0 M-160.0 -707.0 Q-158.1 -704.6 -159.75 -706.25 L-160.0 -707.0 M-162.0 -690.0 L-162.0 -692.0 Q-159.55 -690.0 -162.0 -689.0 L-162.0 -690.0 M-163.0 -672.0 Q-161.1 -669.6 -162.75 -671.25 L-163.0 -672.0 M-163.75 -675.25 L-164.0 -676.0 Q-162.1 -673.6 -163.75 -675.25 M-165.0 -655.0 L-165.0 -656.0 -165.0 -658.0 Q-163.3 -657.7 -164.4 -655.2 -164.5 -655.0 -165.0 -655.0 M-164.0 -654.0 Q-161.6 -652.5 -164.0 -652.0 L-164.0 -653.0 -164.0 -654.0 M-165.0 -640.0 L-165.0 -641.0 Q-162.6 -639.5 -165.0 -639.0 L-165.0 -640.0 M-166.0 -628.0 L-166.0 -629.0 Q-163.6 -627.5 -166.0 -627.0 L-166.0 -628.0 M-167.0 -615.0 L-167.0 -616.0 -167.0 -617.0 Q-164.6 -615.5 -167.0 -615.0 M-168.0 -605.0 Q-165.6 -603.5 -168.0 -603.0 L-168.0 -604.0 -168.0 -605.0 M-170.0 -598.0 Q-168.4 -598.15 -169.4 -596.2 L-170.0 -596.0 -170.0 -597.0 -170.0 -598.0 M-170.0 -586.0 L-170.0 -587.0 Q-167.6 -585.5 -170.0 -585.0 L-170.0 -586.0 M-168.75 -593.25 L-169.0 -594.0 Q-167.1 -591.6 -168.75 -593.25 M-173.0 -571.0 Q-171.1 -568.6 -172.75 -570.25 L-173.0 -571.0 M-170.75 -576.25 L-171.0 -577.0 Q-169.1 -574.6 -170.75 -576.25 M-174.0 -564.0 Q-172.1 -561.6 -173.75 -563.25 L-174.0 -564.0 M-173.0 -561.0 Q-171.1 -558.6 -172.75 -560.25 L-173.0 -561.0 M-175.75 -548.25 L-176.0 -549.0 Q-174.1 -546.6 -175.75 -548.25 M-175.0 -546.0 Q-173.1 -543.6 -174.75 -545.25 L-175.0 -546.0 M-174.0 -552.0 Q-172.1 -549.6 -173.75 -551.25 L-174.0 -552.0 M-174.75 -554.25 L-175.0 -555.0 Q-173.1 -552.6 -174.75 -554.25 M-177.0 -541.0 Q-175.1 -538.6 -176.75 -540.25 L-177.0 -541.0 M-177.75 -534.25 L-178.0 -535.0 Q-176.1 -532.6 -177.75 -534.25 M-175.75 -537.25 L-176.0 -538.0 Q-174.1 -535.6 -175.75 -537.25 M-178.0 -526.0 Q-176.1 -523.6 -177.75 -525.25 L-178.0 -526.0 M-179.75 -521.25 L-180.0 -522.0 Q-178.1 -519.6 -179.75 -521.25 M-179.0 -529.0 Q-177.1 -526.6 -178.75 -528.25 L-179.0 -529.0 M-177.0 -532.0 Q-175.1 -529.6 -176.75 -531.25 L-177.0 -532.0 M-183.75 -497.25 L-184.0 -498.0 Q-182.1 -495.6 -183.75 -497.25 M-178.75 -518.25 L-179.0 -519.0 Q-177.1 -516.6 -178.75 -518.25 M-185.0 -491.0 L-185.0 -492.0 -185.0 -493.0 Q-183.4 -493.15 -184.4 -491.2 L-185.0 -491.0 M-183.0 -488.0 Q-181.1 -485.6 -182.75 -487.25 L-183.0 -488.0 M-183.0 -479.0 Q-181.1 -476.6 -182.75 -478.25 L-183.0 -479.0 M-183.75 -473.25 L-184.0 -474.0 Q-182.1 -471.6 -183.75 -473.25 M-183.0 478.0 Q-181.1 480.45 -182.75 478.75 L-183.0 478.0 M-183.75 472.75 L-184.0 472.0 Q-182.1 474.45 -183.75 472.75 M-182.0 501.0 Q-180.1 503.45 -181.75 501.75 L-182.0 501.0 M-181.0 506.0 Q-179.1 508.45 -180.75 506.75 L-181.0 506.0 M-178.75 518.75 L-179.0 518.0 Q-177.1 520.45 -178.75 518.75 M-181.0 514.0 Q-179.1 516.45 -180.75 514.75 L-181.0 514.0 M-182.0 509.0 Q-180.1 511.45 -181.75 509.75 L-182.0 509.0 M-180.0 511.0 Q-178.1 513.45 -179.75 511.75 L-180.0 511.0 M-183.0 504.0 Q-181.1 506.45 -182.75 504.75 L-183.0 504.0 M-177.75 524.75 L-178.0 524.0 Q-176.1 526.45 -177.75 524.75 M-180.0 521.0 Q-178.1 523.45 -179.75 521.75 L-180.0 521.0 M-178.75 527.75 L-179.0 527.0 Q-177.1 529.45 -178.75 527.75 M-174.0 543.0 Q-172.1 545.45 -173.75 543.75 L-174.0 543.0 M-176.75 540.75 L-177.0 540.0 Q-175.1 542.45 -176.75 540.75 M-175.75 537.75 L-176.0 537.0 Q-174.1 539.45 -175.75 537.75 M-174.75 546.75 L-175.0 546.0 Q-173.1 548.45 -174.75 546.75 M-176.0 551.0 L-176.0 550.0 -176.0 549.0 Q-174.4 548.9 -175.4 550.8 L-176.0 551.0 M-175.0 555.0 Q-173.1 557.45 -174.75 555.75 L-175.0 555.0 M-173.75 552.75 L-174.0 552.0 Q-172.1 554.45 -173.75 552.75 M-173.0 561.0 Q-171.1 563.45 -172.75 561.75 L-173.0 561.0 M-174.0 564.0 Q-172.4 563.9 -173.4 565.8 -173.5 566.0 -174.0 566.0 L-174.0 565.0 -174.0 564.0 M-171.75 567.75 L-172.0 567.0 Q-170.1 569.45 -171.75 567.75 M-172.0 582.0 L-172.0 581.0 -172.0 580.0 Q-170.4 579.9 -171.4 581.8 -171.5 582.0 -172.0 582.0 M-170.0 584.0 L-170.0 583.0 Q-167.6 584.5 -170.0 585.0 L-170.0 584.0 M-168.0 605.0 L-168.0 604.0 Q-165.6 605.5 -168.0 606.0 L-168.0 605.0 M-169.0 594.0 L-169.0 593.0 Q-166.6 594.5 -169.0 595.0 L-169.0 594.0 M-167.0 615.0 Q-164.6 616.5 -167.0 617.0 L-167.0 616.0 -167.0 615.0 M-166.0 627.0 Q-163.55 629.0 -166.0 630.0 L-166.0 629.0 -166.0 627.0 M-165.0 640.0 Q-162.6 641.5 -165.0 642.0 L-165.0 641.0 -165.0 640.0 M-164.0 654.0 Q-162.1 656.45 -163.75 654.75 L-164.0 654.0 M-165.0 658.0 Q-163.1 660.45 -164.75 658.75 L-165.0 658.0 M-163.75 676.75 L-164.0 676.0 Q-162.1 678.45 -163.75 676.75 M-163.0 672.0 Q-161.1 674.45 -162.75 672.75 L-163.0 672.0 M-162.0 690.0 Q-159.55 692.0 -162.0 693.0 L-162.0 692.0 -162.0 690.0 M-159.0 740.0 Q-157.1 742.45 -158.75 740.75 L-159.0 740.0 M-157.0 920.0 L-157.0 919.0 Q-154.6 920.5 -157.0 921.0 L-157.0 920.0 M-158.0 925.0 Q-156.3 925.3 -157.4 927.8 L-158.0 928.0 -158.0 927.0 -158.0 925.0 M-158.0 934.0 Q-156.1 936.45 -157.75 934.75 L-158.0 934.0 M-157.0 937.0 Q-155.1 939.45 -156.75 937.75 L-157.0 937.0 M-156.75 928.75 L-157.0 928.0 Q-155.1 930.45 -156.75 928.75 M-157.75 943.75 L-158.0 943.0 Q-156.1 945.45 -157.75 943.75 M-156.75 950.75 L-157.0 950.0 Q-155.1 952.45 -156.75 950.75 M-156.75 960.75 L-157.0 960.0 Q-155.1 962.45 -156.75 960.75 M-158.0 976.0 L-158.0 975.0 Q-155.6 976.5 -158.0 977.0 L-158.0 976.0 M-158.0 966.0 L-158.0 965.0 Q-155.6 966.5 -158.0 967.0 L-158.0 966.0 M-159.0 981.0 Q-157.3 981.8 -158.45 984.85 L-159.0 985.0 -159.0 984.0 -159.0 981.0 M-157.0 984.0 Q-155.1 986.45 -156.75 984.75 L-157.0 984.0 M-158.0 990.0 Q-156.1 992.45 -157.75 990.75 L-158.0 990.0 M-159.0 1000.0 L-159.0 999.0 -159.0 996.0 Q-157.3 996.3 -157.9 999.0 L-158.0 1000.0 -159.0 1000.0" fill="#202020" fill-rule="evenodd" stroke="none"/>
    <path d="M161.0 1000.0 L160.0 1000.0 160.0 999.0 160.0 996.0 Q161.7 996.3 161.1 999.0 L161.0 1000.0 M160.0 -1000.0 L161.0 -1000.0 161.1 -999.0 Q161.7 -996.3 160.0 -996.0 L160.0 -997.0 160.0 -1000.0 M160.0 -980.0 L160.0 -981.0 160.0 -984.0 Q161.7 -983.2 160.55 -980.15 L160.0 -980.0 M159.0 -953.0 L159.0 -954.0 159.0 -955.0 Q161.4 -953.5 159.0 -953.0 M159.0 -927.0 Q160.7 -926.7 159.6 -924.2 L159.0 -924.0 159.0 -925.0 159.0 -927.0 M163.0 -699.0 L163.0 -700.0 Q165.4 -698.5 163.0 -698.0 L163.0 -699.0 M166.0 -659.0 Q167.65 -659.15 166.6 -657.2 L166.0 -657.0 166.0 -658.0 166.0 -659.0 M167.25 -644.25 Q167.0 -644.5 167.0 -645.0 168.95 -642.6 167.25 -644.25 M168.0 -632.0 Q169.95 -629.6 168.25 -631.25 168.0 -631.5 168.0 -632.0 M170.0 -609.0 Q171.95 -606.6 170.25 -608.25 170.0 -608.5 170.0 -609.0 M173.0 -579.0 L173.0 -580.0 173.0 -581.0 Q174.65 -581.15 173.6 -579.2 173.5 -579.0 173.0 -579.0 M175.0 -565.0 Q176.65 -565.15 175.6 -563.2 L175.0 -563.0 175.0 -564.0 175.0 -565.0 M177.0 -548.0 L177.0 -549.0 177.0 -550.0 Q178.65 -550.15 177.6 -548.2 L177.0 -548.0 M186.0 494.0 L186.0 493.0 186.0 492.0 Q187.65 491.9 186.6 493.8 L186.0 494.0 M171.0 597.0 Q172.65 596.9 171.6 598.8 L171.0 599.0 171.0 598.0 171.0 597.0 M169.0 619.0 Q170.95 621.45 169.25 619.75 169.0 619.5 169.0 619.0 M168.25 631.75 L168.0 631.0 Q169.95 633.45 168.25 631.75 M167.25 643.75 Q167.0 643.5 167.0 643.0 168.95 645.45 167.25 643.75 M164.0 693.0 Q166.4 694.5 164.0 695.0 L164.0 694.0 164.0 693.0 M163.0 698.0 L163.0 697.0 Q165.4 698.5 163.0 699.0 L163.0 698.0 M160.0 978.0 Q161.7 978.8 160.55 981.85 L160.0 982.0 160.0 981.0 160.0 978.0 M-160.0 1000.0 L-160.0 999.0 -160.0 996.0 -159.0 996.0 -159.0 999.0 -159.0 1000.0 -160.0 1000.0 M-159.0 985.0 L-159.55 984.9 Q-160.0 983.0 -160.0 981.0 L-159.0 981.0 -159.0 984.0 -159.0 985.0 M-158.0 928.0 L-158.55 927.85 -159.0 925.0 -158.0 925.0 -158.0 927.0 -158.0 928.0 M-172.0 582.0 L-172.6 581.8 Q-173.0 581.0 -173.0 580.0 L-172.0 580.0 -172.0 581.0 -172.0 582.0 M-174.0 566.0 L-174.6 565.8 Q-175.0 565.0 -175.0 564.0 L-174.0 564.0 -174.0 565.0 -174.0 566.0 M-176.0 551.0 Q-176.5 551.0 -176.6 550.8 -177.0 550.0 -177.0 549.0 L-176.0 549.0 -176.0 550.0 -176.0 551.0 M-185.0 -491.0 Q-185.5 -491.0 -185.6 -491.2 -186.0 -492.0 -186.0 -493.0 L-185.0 -493.0 -185.0 -492.0 -185.0 -491.0 M-170.0 -596.0 Q-170.5 -596.0 -170.6 -596.2 -171.0 -597.0 -171.0 -598.0 L-170.0 -598.0 -170.0 -597.0 -170.0 -596.0 M-165.0 -655.0 L-165.55 -655.15 Q-166.0 -656.5 -166.0 -658.0 L-165.0 -658.0 -165.0 -656.0 -165.0 -655.0 M-159.0 -967.0 L-159.55 -967.1 Q-160.0 -969.0 -160.0 -971.0 L-159.0 -971.0 -159.0 -968.0 -159.0 -967.0 M-159.0 -977.0 L-159.55 -977.1 Q-160.0 -979.0 -160.0 -981.0 L-159.0 -981.0 -159.0 -978.0 -159.0 -977.0 M-163.0 -698.0 L-163.0 -699.0 Q-160.6 -697.5 -163.0 -697.0 L-163.0 -698.0 M-164.0 -695.0 Q-161.6 -693.5 -164.0 -693.0 L-164.0 -694.0 -164.0 -695.0 M-168.0 -632.0 Q-166.1 -629.6 -167.75 -631.25 L-168.0 -632.0 M-169.0 -620.0 Q-167.1 -617.6 -168.75 -619.25 L-169.0 -620.0 M-166.75 -643.25 L-167.0 -644.0 Q-165.1 -641.6 -166.75 -643.25 M-170.0 608.0 Q-168.1 610.45 -169.75 608.75 L-170.0 608.0 M-167.75 631.75 L-168.0 631.0 Q-166.1 633.45 -167.75 631.75 M-166.75 644.75 L-167.0 644.0 Q-165.1 646.45 -166.75 644.75 M-164.0 695.0 L-164.0 694.0 Q-161.6 695.5 -164.0 696.0 L-164.0 695.0 M-163.0 698.0 Q-160.6 699.5 -163.0 700.0 L-163.0 699.0 -163.0 698.0 M-159.0 953.0 Q-156.6 954.5 -159.0 955.0 L-159.0 954.0 -159.0 953.0" fill="#000000" fill-rule="evenodd" stroke="none"/>
    <path d="M272.0 -290.0 L272.0 -291.0 273.0 -291.0 273.5 -290.95 Q273.7 -289.3 272.0 -289.0 L272.0 -290.0" fill="#0a0a0a" fill-rule="evenodd" stroke="none"/>
    <path d="M270.0 -287.0 Q269.5 -287.0 269.25 -287.25 269.0 -287.5 269.0 -288.0 270.7 -288.3 271.4 -289.8 L272.0 -290.0 272.0 -289.0 271.75 -288.25 270.0 -287.0" fill="#131313" fill-rule="evenodd" stroke="none"/>
    <path d="M277.0 266.0 L276.5 266.0 Q277.45 264.5 276.0 263.0 277.5 261.55 278.75 263.2 L279.0 264.0 278.75 264.75 277.0 266.0" fill="#141414" fill-rule="evenodd" stroke="none"/>
    <path d="M246.0 340.0 L245.25 339.75 Q245.0 339.5 245.0 339.0 246.0 338.5 247.0 338.5 L247.0 339.0 246.75 339.75 246.0 340.0 M255.0 327.0 L254.25 326.75 253.0 325.0 Q254.5 323.55 255.75 325.2 L256.0 326.0 255.75 326.75 255.0 327.0 M288.0 266.0 L287.25 265.75 284.0 262.0 Q286.5 260.85 288.75 264.15 L289.0 265.0 288.75 265.75 288.0 266.0 M-235.0 340.0 L-235.75 339.75 -236.0 339.0 -236.0 338.0 Q-234.3 338.3 -234.5 339.95 L-235.0 340.0 M-237.0 337.0 L-237.75 336.75 -238.0 336.0 -238.0 335.0 Q-236.3 335.3 -236.5 336.95 L-237.0 337.0 M-252.0 330.0 L-252.75 329.75 -253.0 329.0 -253.0 328.0 Q-251.3 328.3 -251.5 329.95 L-252.0 330.0 M-270.0 289.0 L-270.0 288.0 -269.0 288.0 -268.5 288.05 Q-268.3 289.7 -270.0 290.0 L-270.0 289.0 M-278.0 -263.0 L-278.0 -264.0 -277.0 -264.0 -276.0 -264.0 -275.8 -263.1 -275.55 -262.4 Q-277.15 -260.1 -278.0 -263.0 M-255.0 -325.0 L-255.0 -326.0 -254.0 -326.0 -253.1 -325.8 Q-252.5 -325.5 -252.6 -325.15 -253.5 -321.5 -255.0 -325.0 M-246.0 -338.0 L-246.0 -339.0 -245.0 -339.0 -244.5 -339.0 Q-245.0 -336.1 -246.0 -338.0" fill="#151515" fill-rule="evenodd" stroke="none"/>
    <path d="M161.0 -1000.0 L220.0 -1000.0 279.0 -1000.0 338.0 -1000.0 397.0 -1000.0 456.0 -1000.0 515.0 -1000.0 574.0 -1000.0 633.0 -1000.0 692.0 -1000.0 751.0 -1000.0 810.0 -1000.0 869.0 -1000.0 928.0 -1000.0 987.0 -1000.0 1000.0 -1000.0 1000.0 -999.0 1000.0 -998.0 1000.0 -997.0 1000.0 -996.0 1000.0 -995.0 1000.0 -994.0 1000.0 -993.0 1000.0 -992.0 1000.0 -991.0 1000.0 -990.0 1000.0 -989.0 1000.0 -988.0 1000.0 -987.0 1000.0 -986.0 1000.0 -985.0 1000.0 -984.0 1000.0 -983.0 1000.0 -982.0 1000.0 -981.0 1000.0 -980.0 1000.0 -979.0 1000.0 -978.0 1000.0 -977.0 1000.0 -976.0 1000.0 -975.0 1000.0 -974.0 1000.0 -973.0 1000.0 -972.0 1000.0 -971.0 1000.0 -970.0 1000.0 -969.0 1000.0 -968.0 1000.0 -967.0 1000.0 -966.0 1000.0 -965.0 1000.0 -964.0 1000.0 -963.0 1000.0 -962.0 1000.0 -961.0 1000.0 -960.0 1000.0 -959.0 1000.0 -958.0 1000.0 -957.0 1000.0 -956.0 1000.0 -955.0 1000.0 -954.0 1000.0 -953.0 1000.0 -952.0 1000.0 -951.0 1000.0 -950.0 1000.0 -949.0 1000.0 -948.0 1000.0 -947.0 1000.0 -946.0 1000.0 -945.0 1000.0 -944.0 1000.0 -943.0 1000.0 -942.0 1000.0 -941.0 1000.0 -940.0 1000.0 -939.0 1000.0 -938.0 1000.0 -937.0 1000.0 -936.0 1000.0 -935.0 1000.0 -934.0 1000.0 -933.0 1000.0 -932.0 1000.0 -931.0 1000.0 -930.0 1000.0 -929.0 1000.0 -928.0 1000.0 -927.0 1000.0 -926.0 1000.0 -925.0 1000.0 -924.0 1000.0 -923.0 1000.0 -922.0 1000.0 -921.0 1000.0 -920.0 1000.0 -919.0 1000.0 -918.0 1000.0 -917.0 1000.0 -916.0 1000.0 -915.0 1000.0 -914.0 1000.0 -913.0 1000.0 -912.0 1000.0 -911.0 1000.0 -910.0 1000.0 -909.0 1000.0 -908.0 1000.0 -907.0 1000.0 -906.0 1000.0 -905.0 1000.0 -904.0 1000.0 -903.0 1000.0 -902.0 1000.0 -901.0 1000.0 -900.0 1000.0 -899.0 1000.0 -898.0 1000.0 -897.0 1000.0 -896.0 1000.0 -895.0 1000.0 -894.0 1000.0 -893.0 1000.0 -892.0 1000.0 -891.0 1000.0 -890.0 1000.0 -889.0 1000.0 -888.0 1000.0 -887.0 1000.0 -886.0 1000.0 -885.0 1000.0 -884.0 1000.0 -883.0 1000.0 -882.0 1000.0 -881.0 1000.0 -880.0 1000.0 -879.0 1000.0 -878.0 1000.0 -877.0 1000.0 -876.0 1000.0 -875.0 1000.0 -874.0 1000.0 -873.0 1000.0 -872.0 1000.0 -871.0 1000.0 -870.0 1000.0 -869.0 1000.0 -868.0 1000.0 -867.0 1000.0 -866.0 1000.0 -865.0 1000.0 -864.0 1000.0 -863.0 1000.0 -862.0 1000.0 -861.0 1000.0 -860.0 1000.0 -859.0 1000.0 -858.0 1000.0 -857.0 1000.0 -856.0 1000.0 -855.0 1000.0 -854.0 1000.0 -853.0 1000.0 -852.0 1000.0 -851.0 1000.0 -850.0 1000.0 -849.0 1000.0 -848.0 1000.0 -847.0 1000.0 -846.0 1000.0 -845.0 1000.0 -844.0 1000.0 -843.0 1000.0 -842.0 1000.0 -841.0 1000.0 -840.0 1000.0 -839.0 1000.0 -838.0 1000.0 -837.0 1000.0 -836.0 1000.0 -835.0 1000.0 -834.0 1000.0 -833.0 1000.0 -832.0 1000.0 -831.0 1000.0 -830.0 1000.0 -829.0 1000.0 -828.0 1000.0 -827.0 1000.0 -826.0 1000.0 -825.0 1000.0 -824.0 1000.0 -823.0 1000.0 -822.0 1000.0 -821.0 1000.0 -820.0 1000.0 -819.0 1000.0 -818.0 1000.0 -817.0 1000.0 -816.0 1000.0 -815.0 1000.0 -814.0 1000.0 -813.0 1000.0 -812.0 1000.0 -811.0 1000.0 -810.0 1000.0 -809.0 1000.0 -808.0 1000.0 -807.0 1000.0 -806.0 1000.0 -805.0 1000.0 -804.0 1000.0 -803.0 1000.0 -802.0 1000.0 -801.0 1000.0 -800.0 1000.0 -799.0 1000.0 -798.0 1000.0 -797.0 1000.0 -796.0 1000.0 -795.0 1000.0 -794.0 1000.0 -793.0 1000.0 -792.0 1000.0 -791.0 1000.0 -790.0 1000.0 -789.0 1000.0 -788.0 1000.0 -787.0 1000.0 -786.0 1000.0 -785.0 1000.0 -784.0 1000.0 -783.0 1000.0 -782.0 1000.0 -781.0 1000.0 -780.0 1000.0 -779.0 1000.0 -778.0 1000.0 -777.0 1000.0 -776.0 1000.0 -775.0 1000.0 -774.0 1000.0 -773.0 1000.0 -772.0 1000.0 -771.0 1000.0 -770.0 1000.0 -769.0 1000.0 -768.0 1000.0 -767.0 1000.0 -766.0 1000.0 -765.0 1000.0 -764.0 1000.0 -763.0 1000.0 -762.0 1000.0 -761.0 1000.0 -760.0 1000.0 -759.0 1000.0 -758.0 1000.0 -757.0 1000.0 -756.0 1000.0 -755.0 1000.0 -754.0 1000.0 -753.0 1000.0 -752.0 1000.0 -751.0 1000.0 -750.0 1000.0 -749.0 1000.0 -748.0 1000.0 -747.0 1000.0 -746.0 1000.0 -745.0 1000.0 -744.0 1000.0 -743.0 1000.0 -742.0 1000.0 -741.0 1000.0 -740.0 1000.0 -739.0 1000.0 -738.0 1000.0 -737.0 1000.0 -736.0 1000.0 -735.0 1000.0 -734.0 1000.0 -733.0 1000.0 -732.0 1000.0 -731.0 1000.0 -730.0 1000.0 -729.0 1000.0 -728.0 1000.0 -727.0 1000.0 -726.0 1000.0 -725.0 1000.0 -724.0 1000.0 -723.0 1000.0 -722.0 1000.0 -721.0 1000.0 -720.0 1000.0 -719.0 1000.0 -718.0 1000.0 -717.0 1000.0 -716.0 1000.0 -715.0 1000.0 -714.0 1000.0 -713.0 1000.0 -712.0 1000.0 -711.0 1000.0 -710.0 1000.0 -709.0 1000.0 -708.0 1000.0 -707.0 1000.0 -706.0 1000.0 -705.0 1000.0 -704.0 1000.0 -703.0 1000.0 -702.0 1000.0 -701.0 1000.0 -700.0 1000.0 -699.0 1000.0 -698.0 1000.0 -697.0 1000.0 -696.0 1000.0 -695.0 1000.0 -694.0 1000.0 -693.0 1000.0 -692.0 1000.0 -691.0 1000.0 -690.0 1000.0 -689.0 1000.0 -688.0 1000.0 -687.0 1000.0 -686.0 1000.0 -685.0 1000.0 -684.0 1000.0 -683.0 1000.0 -682.0 1000.0 -681.0 1000.0 -680.0 1000.0 -679.0 1000.0 -678.0 1000.0 -677.0 1000.0 -676.0 1000.0 -675.0 1000.0 -674.0 1000.0 -673.0 1000.0 -672.0 1000.0 -671.0 1000.0 -670.0 1000.0 -669.0 1000.0 -668.0 1000.0 -667.0 1000.0 -666.0 1000.0 -665.0 1000.0 -664.0 1000.0 -663.0 1000.0 -662.0 1000.0 -661.0 1000.0 -660.0 1000.0 -659.0 1000.0 -658.0 1000.0 -657.0 1000.0 -656.0 1000.0 -655.0 1000.0 -654.0 1000.0 -653.0 1000.0 -652.0 1000.0 -651.0 1000.0 -650.0 1000.0 -649.0 1000.0 -648.0 1000.0 -647.0 1000.0 -646.0 1000.0 -645.0 1000.0 -644.0 1000.0 -643.0 1000.0 -642.0 1000.0 -641.0 1000.0 -640.0 1000.0 -639.0 1000.0 -638.0 1000.0 -637.0 1000.0 -636.0 1000.0 -635.0 1000.0 -634.0 1000.0 -633.0 1000.0 -632.0 1000.0 -631.0 1000.0 -630.0 1000.0 -629.0 1000.0 -628.0 1000.0 -627.0 1000.0 -626.0 1000.0 -625.0 1000.0 -624.0 1000.0 -623.0 1000.0 -622.0 1000.0 -621.0 1000.0 -620.0 1000.0 -619.0 1000.0 -618.0 1000.0 -617.0 1000.0 -616.0 1000.0 -615.0 1000.0 -614.0 1000.0 -613.0 1000.0 -612.0 1000.0 -611.0 1000.0 -610.0 1000.0 -609.0 1000.0 -608.0 1000.0 -607.0 1000.0 -606.0 1000.0 -605.0 1000.0 -604.0 1000.0 -603.0 1000.0 -602.0 1000.0 -601.0 1000.0 -600.0 1000.0 -599.0 1000.0 -598.0 1000.0 -597.0 1000.0 -596.0 1000.0 -595.0 1000.0 -594.0 1000.0 -593.0 1000.0 -592.0 1000.0 -591.0 1000.0 -590.0 1000.0 -589.0 1000.0 -588.0 1000.0 -587.0 1000.0 -586.0 1000.0 -585.0 1000.0 -584.0 1000.0 -583.0 1000.0 -582.0 1000.0 -581.0 1000.0 -580.0 1000.0 -579.0 1000.0 -578.0 1000.0 -577.0 1000.0 -576.0 1000.0 -575.0 1000.0 -574.0 1000.0 -573.0 1000.0 -572.0 1000.0 -571.0 1000.0 -570.0 1000.0 -569.0 1000.0 -568.0 1000.0 -567.0 1000.0 -566.0 1000.0 -565.0 1000.0 -564.0 1000.0 -563.0 1000.0 -562.0 1000.0 -561.0 1000.0 -560.0 1000.0 -559.0 1000.0 -558.0 1000.0 -557.0 1000.0 -556.0 1000.0 -555.0 1000.0 -554.0 1000.0 -553.0 1000.0 -552.0 1000.0 -551.0 1000.0 -550.0 1000.0 -549.0 1000.0 -548.0 1000.0 -547.0 1000.0 -546.0 1000.0 -545.0 1000.0 -544.0 1000.0 -543.0 1000.0 -542.0 1000.0 -541.0 1000.0 -540.0 1000.0 -539.0 1000.0 -538.0 1000.0 -537.0 1000.0 -536.0 1000.0 -535.0 1000.0 -534.0 1000.0 -533.0 1000.0 -532.0 1000.0 -531.0 1000.0 -530.0 1000.0 -529.0 1000.0 -528.0 1000.0 -527.0 1000.0 -526.0 1000.0 -525.0 1000.0 -524.0 1000.0 -523.0 1000.0 -522.0 1000.0 -521.0 1000.0 -520.0 1000.0 -519.0 1000.0 -518.0 1000.0 -517.0 1000.0 -516.0 1000.0 -515.0 1000.0 -514.0 1000.0 -513.0 1000.0 -512.0 1000.0 -511.0 1000.0 -510.0 1000.0 -509.0 1000.0 -508.0 1000.0 -507.0 1000.0 -506.0 1000.0 -505.0 1000.0 -504.0 1000.0 -503.0 1000.0 -502.0 1000.0 -501.0 1000.0 -500.0 1000.0 -499.0 1000.0 -498.0 1000.0 -497.0 1000.0 -496.0 1000.0 -495.0 1000.0 -494.0 1000.0 -493.0 1000.0 -492.0 1000.0 -491.0 1000.0 -490.0 1000.0 -489.0 1000.0 -488.0 1000.0 -487.0 1000.0 -486.0 1000.0 -485.0 1000.0 -484.0 1000.0 -483.0 1000.0 -482.0 1000.0 -481.0 1000.0 -480.0 1000.0 -479.0 1000.0 -478.0 1000.0 -477.0 1000.0 -476.0 1000.0 -475.0 1000.0 -474.0 1000.0 -473.0 1000.0 -472.0 1000.0 -471.0 1000.0 -470.0 1000.0 -469.0 1000.0 -468.0 1000.0 -467.0 1000.0 -466.0 1000.0 -465.0 1000.0 -464.0 1000.0 -463.0 1000.0 -462.0 1000.0 -461.0 1000.0 -460.0 1000.0 -459.0 1000.0 -458.0 1000.0 -457.0 1000.0 -456.0 1000.0 -455.0 1000.0 -454.0 1000.0 -453.0 1000.0 -452.0 1000.0 -451.0 1000.0 -450.0 1000.0 -449.0 1000.0 -448.0 1000.0 -447.0 1000.0 -446.0 1000.0 -445.0 1000.0 -444.0 1000.0 -443.0 1000.0 -442.0 1000.0 -441.0 1000.0 -440.0 1000.0 -439.0 1000.0 -438.0 1000.0 -437.0 1000.0 -436.0 1000.0 -435.0 1000.0 -434.0 1000.0 -433.0 1000.0 -432.0 1000.0 -431.0 1000.0 -430.0 1000.0 -429.0 1000.0 -428.0 1000.0 -427.0 1000.0 -426.0 1000.0 -425.0 1000.0 -424.0 1000.0 -423.0 1000.0 -422.0 1000.0 -421.0 1000.0 -420.0 1000.0 -419.0 1000.0 -418.0 1000.0 -417.0 1000.0 -416.0 1000.0 -415.0 1000.0 -414.0 1000.0 -413.0 1000.0 -412.0 1000.0 -411.0 1000.0 -410.0 1000.0 -409.0 1000.0 -408.0 1000.0 -407.0 1000.0 -406.0 1000.0 -405.0 1000.0 -404.0 1000.0 -403.0 1000.0 -402.0 1000.0 -401.0 1000.0 -400.0 1000.0 -399.0 1000.0 -398.0 1000.0 -397.0 1000.0 -396.0 1000.0 -395.0 1000.0 -394.0 1000.0 -393.0 1000.0 -392.0 1000.0 -391.0 1000.0 -390.0 1000.0 -389.0 1000.0 -388.0 1000.0 -387.0 1000.0 -386.0 1000.0 -385.0 1000.0 -384.0 1000.0 -383.0 1000.0 -382.0 1000.0 -381.0 1000.0 -380.0 1000.0 -379.0 1000.0 -378.0 1000.0 -377.0 1000.0 -376.0 1000.0 -375.0 1000.0 -374.0 1000.0 -373.0 1000.0 -372.0 1000.0 -371.0 1000.0 -370.0 1000.0 -369.0 1000.0 -368.0 1000.0 -367.0 1000.0 -366.0 1000.0 -365.0 1000.0 -364.0 1000.0 -363.0 1000.0 -362.0 1000.0 -361.0 1000.0 -360.0 1000.0 -359.0 1000.0 -358.0 1000.0 -357.0 1000.0 -356.0 1000.0 -355.0 1000.0 -354.0 1000.0 -353.0 1000.0 -352.0 1000.0 -351.0 1000.0 -350.0 1000.0 -349.0 1000.0 -348.0 1000.0 -347.0 1000.0 -346.0 1000.0 -345.0 1000.0 -344.0 1000.0 -343.0 1000.0 -342.0 1000.0 -341.0 1000.0 -340.0 1000.0 -339.0 1000.0 -338.0 1000.0 -337.0 1000.0 -336.0 1000.0 -335.0 1000.0 -334.0 1000.0 -333.0 1000.0 -332.0 1000.0 -331.0 1000.0 -330.0 1000.0 -329.0 1000.0 -328.0 1000.0 -327.0 1000.0 -326.0 1000.0 -325.0 1000.0 -324.0 1000.0 -323.0 1000.0 -322.0 1000.0 -321.0 1000.0 -320.0 1000.0 -319.0 1000.0 -318.0 1000.0 -317.0 1000.0 -316.0 1000.0 -315.0 1000.0 -314.0 1000.0 -313.0 1000.0 -312.0 1000.0 -311.0 1000.0 -310.0 1000.0 -309.0 1000.0 -308.0 1000.0 -307.0 1000.0 -306.0 1000.0 -305.0 1000.0 -304.0 1000.0 -303.0 1000.0 -302.0 1000.0 -301.0 1000.0 -300.0 1000.0 -299.0 1000.0 -298.0 1000.0 -297.0 1000.0 -296.0 1000.0 -295.0 1000.0 -294.0 1000.0 -293.0 1000.0 -292.0 1000.0 -291.0 1000.0 -290.0 1000.0 -289.0 1000.0 -288.0 1000.0 -287.0 1000.0 -286.0 1000.0 -285.0 1000.0 -284.0 1000.0 -283.0 1000.0 -282.0 1000.0 -281.0 1000.0 -280.0 1000.0 -279.0 1000.0 -278.0 1000.0 -277.0 1000.0 -276.0 1000.0 -275.0 1000.0 -274.0 1000.0 -273.0 1000.0 -272.0 1000.0 -271.0 1000.0 -270.0 1000.0 -269.0 1000.0 -268.0 1000.0 -267.0 1000.0 -266.0 1000.0 -265.0 1000.0 -264.0 1000.0 -263.0 1000.0 -262.0 1000.0 -261.0 1000.0 -260.0 1000.0 -259.0 1000.0 -258.0 1000.0 -257.0 1000.0 -256.0 1000.0 -255.0 1000.0 -254.0 1000.0 -253.0 1000.0 -252.0 1000.0 -251.0 1000.0 -250.0 1000.0 -249.0 1000.0 -248.0 1000.0 -247.0 1000.0 -246.0 1000.0 -245.0 1000.0 -244.0 1000.0 -243.0 1000.0 -242.0 1000.0 -241.0 1000.0 -240.0 1000.0 -239.0 1000.0 -238.0 1000.0 -237.0 1000.0 -236.0 1000.0 -235.0 1000.0 -234.0 1000.0 -233.0 1000.0 -232.0 1000.0 -231.0 1000.0 -230.0 1000.0 -229.0 1000.0 -228.0 1000.0 -227.0 1000.0 -226.0 1000.0 -225.0 1000.0 -224.0 1000.0 -223.0 1000.0 -222.0 1000.0 -221.0 1000.0 -220.0 1000.0 -219.0 1000.0 -218.0 1000.0 -217.0 1000.0 -216.0 1000.0 -215.0 1000.0 -214.0 1000.0 -213.0 1000.0 -212.0 1000.0 -211.0 1000.0 -210.0 1000.0 -209.0 1000.0 -208.0 1000.0 -207.0 1000.0 -206.0 1000.0 -205.0 1000.0 -204.0 1000.0 -203.0 1000.0 -202.0 1000.0 -201.0 1000.0 -200.0 1000.0 -199.0 1000.0 -198.0 1000.0 -197.0 1000.0 -196.0 1000.0 -195.0 1000.0 -194.0 1000.0 -193.0 1000.0 -192.0 1000.0 -191.0 1000.0 -190.0 1000.0 -189.0 1000.0 -188.0 1000.0 -187.0 1000.0 -186.0 1000.0 -185.0 1000.0 -184.0 1000.0 -183.0 1000.0 -182.0 1000.0 -181.0 1000.0 -180.0 1000.0 -179.0 1000.0 -178.0 1000.0 -177.0 1000.0 -176.0 1000.0 -175.0 1000.0 -174.0 1000.0 -173.0 1000.0 -172.0 1000.0 -171.0 1000.0 -170.0 1000.0 -169.0 1000.0 -168.0 1000.0 -167.0 1000.0 -166.0 1000.0 -165.0 1000.0 -164.0 1000.0 -163.0 1000.0 -162.0 1000.0 -161.0 1000.0 -160.0 1000.0 -159.0 1000.0 -158.0 1000.0 -157.0 1000.0 -156.0 1000.0 -155.0 1000.0 -154.0 1000.0 -153.0 1000.0 -152.0 1000.0 -151.0 1000.0 -150.0 1000.0 -149.0 1000.0 -148.0 1000.0 -147.0 1000.0 -146.0 1000.0 -145.0 1000.0 -144.0 1000.0 -143.0 1000.0 -142.0 1000.0 -141.0 1000.0 -140.0 1000.0 -139.0 1000.0 -138.0 1000.0 -137.0 1000.0 -136.0 1000.0 -135.0 1000.0 -134.0 1000.0 -133.0 1000.0 -132.0 1000.0 -131.0 1000.0 -130.0 1000.0 -129.0 1000.0 -128.0 1000.0 -127.0 1000.0 -126.0 1000.0 -125.0 1000.0 -124.0 1000.0 -123.0 1000.0 -122.0 1000.0 -121.0 1000.0 -120.0 1000.0 -119.0 1000.0 -118.0 1000.0 -117.0 1000.0 -116.0 1000.0 -115.0 1000.0 -114.0 1000.0 -113.0 1000.0 -112.0 1000.0 -111.0 1000.0 -110.0 1000.0 -109.0 1000.0 -108.0 1000.0 -107.0 1000.0 -106.0 1000.0 -105.0 1000.0 -104.0 1000.0 -103.0 1000.0 -102.0 1000.0 -101.0 1000.0 -100.0 1000.0 -99.0 1000.0 -98.0 1000.0 -97.0 1000.0 -96.0 1000.0 -95.0 1000.0 -94.0 1000.0 -93.0 1000.0 -92.0 1000.0 -91.0 1000.0 -90.0 1000.0 -89.0 1000.0 -88.0 1000.0 -87.0 1000.0 -86.0 1000.0 -85.0 1000.0 -84.0 1000.0 -83.0 1000.0 -82.0 1000.0 -81.0 1000.0 -80.0 1000.0 -79.0 1000.0 -78.0 1000.0 -77.0 1000.0 -76.0 1000.0 -75.0 1000.0 -74.0 1000.0 -73.0 1000.0 -72.0 1000.0 -71.0 1000.0 -70.0 1000.0 -69.0 1000.0 -68.0 1000.0 -67.0 1000.0 -66.0 1000.0 -65.0 1000.0 -64.0 1000.0 -63.0 1000.0 -62.0 1000.0 -61.0 1000.0 -60.0 1000.0 -59.0 1000.0 -58.0 1000.0 -57.0 1000.0 -56.0 1000.0 -55.0 1000.0 -54.0 1000.0 -53.0 1000.0 -52.0 1000.0 -51.0 1000.0 -50.0 1000.0 -49.0 1000.0 -48.0 1000.0 -47.0 1000.0 -46.0 1000.0 -45.0 1000.0 -44.0 1000.0 -43.0 1000.0 -42.0 1000.0 -41.0 1000.0 -40.0 1000.0 -39.0 1000.0 -38.0 1000.0 -37.0 1000.0 -36.0 1000.0 -35.0 1000.0 -34.0 1000.0 -33.0 1000.0 -32.0 1000.0 -31.0 1000.0 -30.0 1000.0 -29.0 1000.0 -28.0 1000.0 -27.0 1000.0 -26.0 1000.0 -25.0 1000.0 -24.0 1000.0 -23.0 1000.0 -22.0 1000.0 -21.0 1000.0 -20.0 1000.0 -19.0 1000.0 -18.0 1000.0 -17.0 1000.0 -16.0 1000.0 -15.0 1000.0 -14.0 1000.0 -13.0 1000.0 -12.0 1000.0 -11.0 1000.0 -10.0 1000.0 -9.0 1000.0 -8.0 1000.0 -7.0 1000.0 -6.0 1000.0 -5.0 1000.0 -4.0 1000.0 -3.0 1000.0 -2.0 1000.0 -1.0 1000.0 0.0 1000.0 1.0 1000.0 2.0 1000.0 3.0 1000.0 4.0 1000.0 5.0 1000.0 6.0 1000.0 7.0 1000.0 8.0 1000.0 9.0 1000.0 10.0 1000.0 11.0 1000.0 12.0 1000.0 13.0 1000.0 14.0 1000.0 15.0 1000.0 16.0 1000.0 17.0 1000.0 18.0 1000.0 19.0 1000.0 20.0 1000.0 21.0 1000.0 22.0 1000.0 23.0 1000.0 24.0 1000.0 25.0 1000.0 26.0 1000.0 27.0 1000.0 28.0 1000.0 29.0 1000.0 30.0 1000.0 31.0 1000.0 32.0 1000.0 33.0 1000.0 34.0 1000.0 35.0 1000.0 36.0 1000.0 37.0 1000.0 38.0 1000.0 39.0 1000.0 40.0 1000.0 41.0 1000.0 42.0 1000.0 43.0 1000.0 44.0 1000.0 45.0 1000.0 46.0 1000.0 47.0 1000.0 48.0 1000.0 49.0 1000.0 50.0 1000.0 51.0 1000.0 52.0 1000.0 53.0 1000.0 54.0 1000.0 55.0 1000.0 56.0 1000.0 57.0 1000.0 58.0 1000.0 59.0 1000.0 60.0 1000.0 61.0 1000.0 62.0 1000.0 63.0 1000.0 64.0 1000.0 65.0 1000.0 66.0 1000.0 67.0 1000.0 68.0 1000.0 69.0 1000.0 70.0 1000.0 71.0 1000.0 72.0 1000.0 73.0 1000.0 74.0 1000.0 75.0 1000.0 76.0 1000.0 77.0 1000.0 78.0 1000.0 79.0 1000.0 80.0 1000.0 81.0 1000.0 82.0 1000.0 83.0 1000.0 84.0 1000.0 85.0 1000.0 86.0 1000.0 87.0 1000.0 88.0 1000.0 89.0 1000.0 90.0 1000.0 91.0 1000.0 92.0 1000.0 93.0 1000.0 94.0 1000.0 95.0 1000.0 96.0 1000.0 97.0 1000.0 98.0 1000.0 99.0 1000.0 100.0 1000.0 101.0 1000.0 102.0 1000.0 103.0 1000.0 104.0 1000.0 105.0 1000.0 106.0 1000.0 107.0 1000.0 108.0 1000.0 109.0 1000.0 110.0 1000.0 111.0 1000.0 112.0 1000.0 113.0 1000.0 114.0 1000.0 115.0 1000.0 116.0 1000.0 117.0 1000.0 118.0 1000.0 119.0 1000.0 120.0 1000.0 121.0 1000.0 122.0 1000.0 123.0 1000.0 124.0 1000.0 125.0 1000.0 126.0 1000.0 127.0 1000.0 128.0 1000.0 129.0 1000.0 130.0 1000.0 131.0 1000.0 132.0 1000.0 133.0 1000.0 134.0 1000.0 135.0 1000.0 136.0 1000.0 137.0 1000.0 138.0 1000.0 139.0 1000.0 140.0 1000.0 141.0 1000.0 142.0 1000.0 143.0 1000.0 144.0 1000.0 145.0 1000.0 146.0 1000.0 147.0 1000.0 148.0 1000.0 149.0 1000.0 150.0 1000.0 151.0 1000.0 152.0 1000.0 153.0 1000.0 154.0 1000.0 155.0 1000.0 156.0 1000.0 157.0 1000.0 158.0 1000.0 159.0 1000.0 160.0 1000.0 161.0 1000.0 162.0 1000.0 163.0 1000.0 164.0 1000.0 165.0 1000.0 166.0 1000.0 167.0 1000.0 168.0 1000.0 169.0 1000.0 170.0 1000.0 171.0 1000.0 172.0 1000.0 173.0 1000.0 174.0 1000.0 175.0 1000.0 176.0 1000.0 177.0 1000.0 178.0 1000.0 179.0 1000.0 180.0 1000.0 181.0 1000.0 182.0 1000.0 183.0 1000.0 184.0 1000.0 185.0 1000.0 186.0 1000.0 187.0 1000.0 188.0 1000.0 189.0 1000.0 190.0 1000.0 191.0 1000.0 192.0 1000.0 193.0 1000.0 194.0 1000.0 195.0 1000.0 196.0 1000.0 197.0 1000.0 198.0 1000.0 199.0 1000.0 200.0 1000.0 201.0 1000.0 202.0 1000.0 203.0 1000.0 204.0 1000.0 205.0 1000.0 206.0 1000.0 207.0 1000.0 208.0 1000.0 209.0 1000.0 210.0 1000.0 211.0 1000.0 212.0 1000.0 213.0 1000.0 214.0 1000.0 215.0 1000.0 216.0 1000.0 217.0 1000.0 218.0 1000.0 219.0 1000.0 220.0 1000.0 221.0 1000.0 222.0 1000.0 223.0 1000.0 224.0 1000.0 225.0 1000.0 226.0 1000.0 227.0 1000.0 228.0 1000.0 229.0 1000.0 230.0 1000.0 231.0 1000.0 232.0 1000.0 233.0 1000.0 234.0 1000.0 235.0 1000.0 236.0 1000.0 237.0 1000.0 238.0 1000.0 239.0 1000.0 240.0 1000.0 241.0 1000.0 242.0 1000.0 243.0 1000.0 244.0 1000.0 245.0 1000.0 246.0 1000.0 247.0 1000.0 248.0 1000.0 249.0 1000.0 250.0 1000.0 251.0 1000.0 252.0 1000.0 253.0 1000.0 254.0 1000.0 255.0 1000.0 256.0 1000.0 257.0 1000.0 258.0 1000.0 259.0 1000.0 260.0 1000.0 261.0 1000.0 262.0 1000.0 263.0 1000.0 264.0 1000.0 265.0 1000.0 266.0 1000.0 267.0 1000.0 268.0 1000.0 269.0 1000.0 270.0 1000.0 271.0 1000.0 272.0 1000.0 273.0 1000.0 274.0 1000.0 275.0 1000.0 276.0 1000.0 277.0 1000.0 278.0 1000.0 279.0 1000.0 280.0 1000.0 281.0 1000.0 282.0 1000.0 283.0 1000.0 284.0 1000.0 285.0 1000.0 286.0 1000.0 287.0 1000.0 288.0 1000.0 289.0 1000.0 290.0 1000.0 291.0 1000.0 292.0 1000.0 293.0 1000.0 294.0 1000.0 295.0 1000.0 296.0 1000.0 297.0 1000.0 298.0 1000.0 299.0 1000.0 300.0 1000.0 301.0 1000.0 302.0 1000.0 303.0 1000.0 304.0 1000.0 305.0 1000.0 306.0 1000.0 307.0 1000.0 308.0 1000.0 309.0 1000.0 310.0 1000.0 311.0 1000.0 312.0 1000.0 313.0 1000.0 314.0 1000.0 315.0 1000.0 316.0 1000.0 317.0 1000.0 318.0 1000.0 319.0 1000.0 320.0 1000.0 321.0 1000.0 322.0 1000.0 323.0 1000.0 324.0 1000.0 325.0 1000.0 326.0 1000.0 327.0 1000.0 328.0 1000.0 329.0 1000.0 330.0 1000.0 331.0 1000.0 332.0 1000.0 333.0 1000.0 334.0 1000.0 335.0 1000.0 336.0 1000.0 337.0 1000.0 338.0 1000.0 339.0 1000.0 340.0 1000.0 341.0 1000.0 342.0 1000.0 343.0 1000.0 344.0 1000.0 345.0 1000.0 346.0 1000.0 347.0 1000.0 348.0 1000.0 349.0 1000.0 350.0 1000.0 351.0 1000.0 352.0 1000.0 353.0 1000.0 354.0 1000.0 355.0 1000.0 356.0 1000.0 357.0 1000.0 358.0 1000.0 359.0 1000.0 360.0 1000.0 361.0 1000.0 362.0 1000.0 363.0 1000.0 364.0 1000.0 365.0 1000.0 366.0 1000.0 367.0 1000.0 368.0 1000.0 369.0 1000.0 370.0 1000.0 371.0 1000.0 372.0 1000.0 373.0 1000.0 374.0 1000.0 375.0 1000.0 376.0 1000.0 377.0 1000.0 378.0 1000.0 379.0 1000.0 380.0 1000.0 381.0 1000.0 382.0 1000.0 383.0 1000.0 384.0 1000.0 385.0 1000.0 386.0 1000.0 387.0 1000.0 388.0 1000.0 389.0 1000.0 390.0 1000.0 391.0 1000.0 392.0 1000.0 393.0 1000.0 394.0 1000.0 395.0 1000.0 396.0 1000.0 397.0 1000.0 398.0 1000.0 399.0 1000.0 400.0 1000.0 401.0 1000.0 402.0 1000.0 403.0 1000.0 404.0 1000.0 405.0 1000.0 406.0 1000.0 407.0 1000.0 408.0 1000.0 409.0 1000.0 410.0 1000.0 411.0 1000.0 412.0 1000.0 413.0 1000.0 414.0 1000.0 415.0 1000.0 416.0 1000.0 417.0 1000.0 418.0 1000.0 419.0 1000.0 420.0 1000.0 421.0 1000.0 422.0 1000.0 423.0 1000.0 424.0 1000.0 425.0 1000.0 426.0 1000.0 427.0 1000.0 428.0 1000.0 429.0 1000.0 430.0 1000.0 431.0 1000.0 432.0 1000.0 433.0 1000.0 434.0 1000.0 435.0 1000.0 436.0 1000.0 437.0 1000.0 438.0 1000.0 439.0 1000.0 440.0 1000.0 441.0 1000.0 442.0 1000.0 443.0 1000.0 444.0 1000.0 445.0 1000.0 446.0 1000.0 447.0 1000.0 448.0 1000.0 449.0 1000.0 450.0 1000.0 451.0 1000.0 452.0 1000.0 453.0 1000.0 454.0 1000.0 455.0 1000.0 456.0 1000.0 457.0 1000.0 458.0 1000.0 459.0 1000.0 460.0 1000.0 461.0 1000.0 462.0 1000.0 463.0 1000.0 464.0 1000.0 465.0 1000.0 466.0 1000.0 467.0 1000.0 468.0 1000.0 469.0 1000.0 470.0 1000.0 471.0 1000.0 472.0 1000.0 473.0 1000.0 474.0 1000.0 475.0 1000.0 476.0 1000.0 477.0 1000.0 478.0 1000.0 479.0 1000.0 480.0 1000.0 481.0 1000.0 482.0 1000.0 483.0 1000.0 484.0 1000.0 485.0 1000.0 486.0 1000.0 487.0 1000.0 488.0 1000.0 489.0 1000.0 490.0 1000.0 491.0 1000.0 492.0 1000.0 493.0 1000.0 494.0 1000.0 495.0 1000.0 496.0 1000.0 497.0 1000.0 498.0 1000.0 499.0 1000.0 500.0 1000.0 501.0 1000.0 502.0 1000.0 503.0 1000.0 504.0 1000.0 505.0 1000.0 506.0 1000.0 507.0 1000.0 508.0 1000.0 509.0 1000.0 510.0 1000.0 511.0 1000.0 512.0 1000.0 513.0 1000.0 514.0 1000.0 515.0 1000.0 516.0 1000.0 517.0 1000.0 518.0 1000.0 519.0 1000.0 520.0 1000.0 521.0 1000.0 522.0 1000.0 523.0 1000.0 524.0 1000.0 525.0 1000.0 526.0 1000.0 527.0 1000.0 528.0 1000.0 529.0 1000.0 530.0 1000.0 531.0 1000.0 532.0 1000.0 533.0 1000.0 534.0 1000.0 535.0 1000.0 536.0 1000.0 537.0 1000.0 538.0 1000.0 539.0 1000.0 540.0 1000.0 541.0 1000.0 542.0 1000.0 543.0 1000.0 544.0 1000.0 545.0 1000.0 546.0 1000.0 547.0 1000.0 548.0 1000.0 549.0 1000.0 550.0 1000.0 551.0 1000.0 552.0 1000.0 553.0 1000.0 554.0 1000.0 555.0 1000.0 556.0 1000.0 557.0 1000.0 558.0 1000.0 559.0 1000.0 560.0 1000.0 561.0 1000.0 562.0 1000.0 563.0 1000.0 564.0 1000.0 565.0 1000.0 566.0 1000.0 567.0 1000.0 568.0 1000.0 569.0 1000.0 570.0 1000.0 571.0 1000.0 572.0 1000.0 573.0 1000.0 574.0 1000.0 575.0 1000.0 576.0 1000.0 577.0 1000.0 578.0 1000.0 579.0 1000.0 580.0 1000.0 581.0 1000.0 582.0 1000.0 583.0 1000.0 584.0 1000.0 585.0 1000.0 586.0 1000.0 587.0 1000.0 588.0 1000.0 589.0 1000.0 590.0 1000.0 591.0 1000.0 592.0 1000.0 593.0 1000.0 594.0 1000.0 595.0 1000.0 596.0 1000.0 597.0 1000.0 598.0 1000.0 599.0 1000.0 600.0 1000.0 601.0 1000.0 602.0 1000.0 603.0 1000.0 604.0 1000.0 605.0 1000.0 606.0 1000.0 607.0 1000.0 608.0 1000.0 609.0 1000.0 610.0 1000.0 611.0 1000.0 612.0 1000.0 613.0 1000.0 614.0 1000.0 615.0 1000.0 616.0 1000.0 617.0 1000.0 618.0 1000.0 619.0 1000.0 620.0 1000.0 621.0 1000.0 622.0 1000.0 623.0 1000.0 624.0 1000.0 625.0 1000.0 626.0 1000.0 627.0 1000.0 628.0 1000.0 629.0 1000.0 630.0 1000.0 631.0 1000.0 632.0 1000.0 633.0 1000.0 634.0 1000.0 635.0 1000.0 636.0 1000.0 637.0 1000.0 638.0 1000.0 639.0 1000.0 640.0 1000.0 641.0 1000.0 642.0 1000.0 643.0 1000.0 644.0 1000.0 645.0 1000.0 646.0 1000.0 647.0 1000.0 648.0 1000.0 649.0 1000.0 650.0 1000.0 651.0 1000.0 652.0 1000.0 653.0 1000.0 654.0 1000.0 655.0 1000.0 656.0 1000.0 657.0 1000.0 658.0 1000.0 659.0 1000.0 660.0 1000.0 661.0 1000.0 662.0 1000.0 663.0 1000.0 664.0 1000.0 665.0 1000.0 666.0 1000.0 667.0 1000.0 668.0 1000.0 669.0 1000.0 670.0 1000.0 671.0 1000.0 672.0 1000.0 673.0 1000.0 674.0 1000.0 675.0 1000.0 676.0 1000.0 677.0 1000.0 678.0 1000.0 679.0 1000.0 680.0 1000.0 681.0 1000.0 682.0 1000.0 683.0 1000.0 684.0 1000.0 685.0 1000.0 686.0 1000.0 687.0 1000.0 688.0 1000.0 689.0 1000.0 690.0 1000.0 691.0 1000.0 692.0 1000.0 693.0 1000.0 694.0 1000.0 695.0 1000.0 696.0 1000.0 697.0 1000.0 698.0 1000.0 699.0 1000.0 700.0 1000.0 701.0 1000.0 702.0 1000.0 703.0 1000.0 704.0 1000.0 705.0 1000.0 706.0 1000.0 707.0 1000.0 708.0 1000.0 709.0 1000.0 710.0 1000.0 711.0 1000.0 712.0 1000.0 713.0 1000.0 714.0 1000.0 715.0 1000.0 716.0 1000.0 717.0 1000.0 718.0 1000.0 719.0 1000.0 720.0 1000.0 721.0 1000.0 722.0 1000.0 723.0 1000.0 724.0 1000.0 725.0 1000.0 726.0 1000.0 727.0 1000.0 728.0 1000.0 729.0 1000.0 730.0 1000.0 731.0 1000.0 732.0 1000.0 733.0 1000.0 734.0 1000.0 735.0 1000.0 736.0 1000.0 737.0 1000.0 738.0 1000.0 739.0 1000.0 740.0 1000.0 741.0 1000.0 742.0 1000.0 743.0 1000.0 744.0 1000.0 745.0 1000.0 746.0 1000.0 747.0 1000.0 748.0 1000.0 749.0 1000.0 750.0 1000.0 751.0 1000.0 752.0 1000.0 753.0 1000.0 754.0 1000.0 755.0 1000.0 756.0 1000.0 757.0 1000.0 758.0 1000.0 759.0 1000.0 760.0 1000.0 761.0 1000.0 762.0 1000.0 763.0 1000.0 764.0 1000.0 765.0 1000.0 766.0 1000.0 767.0 1000.0 768.0 1000.0 769.0 1000.0 770.0 1000.0 771.0 1000.0 772.0 1000.0 773.0 1000.0 774.0 1000.0 775.0 1000.0 776.0 1000.0 777.0 1000.0 778.0 1000.0 779.0 1000.0 780.0 1000.0 781.0 1000.0 782.0 1000.0 783.0 1000.0 784.0 1000.0 785.0 1000.0 786.0 1000.0 787.0 1000.0 788.0 1000.0 789.0 1000.0 790.0 1000.0 791.0 1000.0 792.0 1000.0 793.0 1000.0 794.0 1000.0 795.0 1000.0 796.0 1000.0 797.0 1000.0 798.0 1000.0 799.0 1000.0 800.0 1000.0 801.0 1000.0 802.0 1000.0 803.0 1000.0 804.0 1000.0 805.0 1000.0 806.0 1000.0 807.0 1000.0 808.0 1000.0 809.0 1000.0 810.0 1000.0 811.0 1000.0 812.0 1000.0 813.0 1000.0 814.0 1000.0 815.0 1000.0 816.0 1000.0 817.0 1000.0 818.0 1000.0 819.0 1000.0 820.0 1000.0 821.0 1000.0 822.0 1000.0 823.0 1000.0 824.0 1000.0 825.0 1000.0 826.0 1000.0 827.0 1000.0 828.0 1000.0 829.0 1000.0 830.0 1000.0 831.0 1000.0 832.0 1000.0 833.0 1000.0 834.0 1000.0 835.0 1000.0 836.0 1000.0 837.0 1000.0 838.0 1000.0 839.0 1000.0 840.0 1000.0 841.0 1000.0 842.0 1000.0 843.0 1000.0 844.0 1000.0 845.0 1000.0 846.0 1000.0 847.0 1000.0 848.0 1000.0 849.0 1000.0 850.0 1000.0 851.0 1000.0 852.0 1000.0 853.0 1000.0 854.0 1000.0 855.0 1000.0 856.0 1000.0 857.0 1000.0 858.0 1000.0 859.0 1000.0 860.0 1000.0 861.0 1000.0 862.0 1000.0 863.0 1000.0 864.0 1000.0 865.0 1000.0 866.0 1000.0 867.0 1000.0 868.0 1000.0 869.0 1000.0 870.0 1000.0 871.0 1000.0 872.0 1000.0 873.0 1000.0 874.0 1000.0 875.0 1000.0 876.0 1000.0 877.0 1000.0 878.0 1000.0 879.0 1000.0 880.0 1000.0 881.0 1000.0 882.0 1000.0 883.0 1000.0 884.0 1000.0 885.0 1000.0 886.0 1000.0 887.0 1000.0 888.0 1000.0 889.0 1000.0 890.0 1000.0 891.0 1000.0 892.0 1000.0 893.0 1000.0 894.0 1000.0 895.0 1000.0 896.0 1000.0 897.0 1000.0 898.0 1000.0 899.0 1000.0 900.0 1000.0 901.0 1000.0 902.0 1000.0 903.0 1000.0 904.0 1000.0 905.0 1000.0 906.0 1000.0 907.0 1000.0 908.0 1000.0 909.0 1000.0 910.0 1000.0 911.0 1000.0 912.0 1000.0 913.0 1000.0 914.0 1000.0 915.0 1000.0 916.0 1000.0 917.0 1000.0 918.0 1000.0 919.0 1000.0 920.0 1000.0 921.0 1000.0 922.0 1000.0 923.0 1000.0 924.0 1000.0 925.0 1000.0 926.0 1000.0 927.0 1000.0 928.0 1000.0 929.0 1000.0 930.0 1000.0 931.0 1000.0 932.0 1000.0 933.0 1000.0 934.0 1000.0 935.0 1000.0 936.0 1000.0 937.0 1000.0 938.0 1000.0 939.0 1000.0 940.0 1000.0 941.0 1000.0 942.0 1000.0 943.0 1000.0 944.0 1000.0 945.0 1000.0 946.0 1000.0 947.0 1000.0 948.0 1000.0 949.0 1000.0 950.0 1000.0 951.0 1000.0 952.0 1000.0 953.0 1000.0 954.0 1000.0 955.0 1000.0 956.0 1000.0 957.0 1000.0 958.0 1000.0 959.0 1000.0 960.0 1000.0 961.0 1000.0 962.0 1000.0 963.0 1000.0 964.0 1000.0 965.0 1000.0 966.0 1000.0 967.0 1000.0 968.0 1000.0 969.0 1000.0 970.0 1000.0 971.0 1000.0 972.0 1000.0 973.0 1000.0 974.0 1000.0 975.0 1000.0 976.0 1000.0 977.0 1000.0 978.0 1000.0 979.0 1000.0 980.0 1000.0 981.0 1000.0 982.0 1000.0 983.0 1000.0 984.0 1000.0 985.0 1000.0 986.0 1000.0 987.0 1000.0 988.0 1000.0 989.0 1000.0 990.0 1000.0 991.0 1000.0 992.0 1000.0 993.0 1000.0 994.0 1000.0 995.0 1000.0 996.0 1000.0 997.0 1000.0 998.0 1000.0 999.0 1000.0 1000.0 941.0 1000.0 882.0 1000.0 823.0 1000.0 764.0 1000.0 705.0 1000.0 646.0 1000.0 587.0 1000.0 528.0 1000.0 469.0 1000.0 410.0 1000.0 351.0 1000.0 292.0 1000.0 233.0 1000.0 174.0 1000.0 161.0 1000.0 161.1 999.0 Q161.7 996.3 160.0 996.0 L160.1 995.0 Q161.15 989.2 160.0 982.0 L160.55 981.85 Q161.7 978.8 160.0 978.0 161.1 971.6 160.5 967.9 L158.6 956.05 158.45 954.95 Q158.2 950.0 159.0 954.0 159.5 953.5 159.4 953.1 158.85 950.15 158.55 946.05 L158.45 944.95 Q158.2 940.0 159.0 944.0 160.65 944.15 159.75 942.1 L159.4 940.95 Q159.0 938.5 159.55 936.15 160.3 932.95 158.65 928.15 156.9 923.2 160.0 925.0 158.65 919.35 158.5 912.0 L158.5 911.0 158.5 905.0 158.4 903.9 Q158.0 902.0 158.65 900.25 159.2 898.75 158.35 896.25 157.8 894.75 158.6 892.2 158.95 890.95 158.55 889.1 157.95 886.5 158.45 883.05 L158.45 882.05 Q158.25 878.75 158.45 875.05 L158.45 874.05 Q158.25 870.75 158.45 867.05 L158.45 866.05 Q158.25 862.75 158.45 859.05 L158.4 858.1 Q157.85 855.15 158.4 851.05 L158.45 850.05 Q158.2 847.8 158.45 845.05 L158.45 844.05 Q158.25 840.75 158.45 837.05 L158.5 836.0 158.5 832.0 158.5 828.0 158.55 827.05 Q158.75 823.75 158.55 820.05 L158.55 819.05 Q158.85 813.35 158.55 807.0 158.5 806.5 158.6 806.2 159.9 802.45 158.4 799.75 158.0 799.0 158.4 798.25 159.9 795.55 158.0 792.0 161.3 790.25 159.6 785.75 159.5 785.5 159.55 784.95 159.8 782.2 159.55 779.95 L159.65 778.9 Q160.2 776.3 159.6 774.75 L159.45 774.05 Q159.0 769.55 159.5 767.85 160.2 765.3 159.65 763.75 159.05 762.05 159.4 760.8 159.95 759.05 159.7 757.85 L159.5 756.0 159.5 752.0 159.55 750.95 Q160.0 746.05 159.0 741.0 162.45 742.45 160.6 737.75 L160.5 737.0 Q160.7 731.8 160.5 727.0 L160.5 726.0 160.5 722.0 160.5 721.0 Q160.6 716.7 161.45 709.05 L161.6 707.95 Q161.95 706.05 161.6 704.8 L161.65 703.9 Q162.2 701.3 161.0 700.0 162.35 698.35 162.65 695.95 163.05 692.5 165.0 691.0 164.1 688.45 164.45 684.95 L164.55 684.4 Q166.1 682.35 164.0 680.0 165.7 679.7 165.5 677.0 L166.0 677.0 Q165.05 673.5 165.5 671.85 165.95 670.05 165.6 668.8 L165.6 667.9 Q166.45 664.0 165.0 662.0 166.7 661.7 166.5 659.0 L167.0 659.0 Q166.1 655.45 166.55 654.75 167.65 652.9 166.5 652.5 L166.6 651.95 Q166.95 650.05 166.6 648.8 L166.5 648.0 166.3 645.95 Q166.0 644.5 166.0 643.0 169.2 641.75 167.6 638.7 L167.5 638.0 167.0 631.0 Q170.2 629.75 168.6 626.7 L168.5 626.0 168.0 619.0 Q171.2 617.75 169.6 614.7 L169.5 614.0 169.5 612.0 169.5 611.0 Q169.5 610.0 169.1 608.95 168.4 606.9 170.0 607.0 170.8 611.0 170.55 606.0 L170.5 604.0 170.5 603.0 170.5 601.0 Q170.5 600.5 170.8 599.9 L171.0 599.0 171.6 598.8 Q172.65 596.9 171.0 597.0 L171.2 596.1 Q172.65 593.35 171.0 589.0 172.5 591.45 172.4 590.05 172.1 586.45 172.4 585.75 173.7 582.8 172.5 581.55 172.0 581.0 172.3 580.1 172.5 579.5 173.0 579.0 174.0 582.9 173.4 577.05 173.3 576.25 174.35 572.1 L174.65 570.9 Q175.2 568.3 174.0 567.0 176.65 565.15 175.7 560.05 L175.0 558.0 Q177.65 556.15 177.5 551.0 L177.55 549.95 Q178.25 542.75 179.4 536.05 L179.6 534.95 Q181.15 524.15 183.15 514.05 185.05 504.55 186.0 494.0 L186.6 493.8 Q187.65 491.9 186.0 492.0 L185.9 491.05 Q185.35 488.65 184.0 487.0 L184.0 486.0 184.0 480.0 Q185.7 478.7 185.5 474.95 L185.65 473.9 Q186.85 469.35 187.65 464.1 L188.45 459.9 Q189.0 457.5 189.0 455.0 191.3 450.3 193.0 445.0 194.2 441.2 195.65 437.85 196.0 437.0 196.5 436.5 197.0 436.0 198.0 436.0 198.65 439.9 201.0 441.5 L201.0 441.0 Q203.8 432.8 207.6 425.8 L208.3 424.1 Q210.05 418.55 212.6 413.8 L213.4 412.15 Q218.0 402.0 222.25 391.1 L226.35 380.75 228.55 375.2 229.5 372.8 Q230.0 371.5 230.0 370.0 L229.25 369.75 Q229.0 369.5 229.0 369.0 L230.0 369.0 229.75 368.15 Q227.7 364.8 226.0 361.0 229.95 353.45 232.85 344.95 L233.0 344.0 Q237.4 341.4 239.45 336.15 239.5 336.0 240.0 336.0 243.0 338.0 244.75 341.15 245.95 343.3 246.0 340.0 L246.75 339.75 247.0 339.0 Q251.85 334.35 254.8 327.9 L255.0 327.0 255.75 326.75 256.0 326.0 Q261.5 318.5 265.55 309.8 L274.0 292.0 268.75 286.25 268.0 286.0 Q270.6 274.6 276.75 266.8 L277.0 266.0 278.75 264.75 279.0 264.0 Q281.5 262.85 283.6 266.25 286.6 271.2 288.0 266.0 L288.75 265.75 289.0 265.0 Q291.3 263.8 292.6 261.35 L295.45 256.25 298.4 250.7 306.6 233.8 Q309.1 228.6 310.0 222.0 308.0 221.5 306.95 220.05 L305.9 219.25 Q302.55 218.0 304.0 217.0 304.0 216.5 304.15 216.05 305.15 213.15 305.0 209.0 L305.7 207.9 306.4 206.25 Q309.35 200.85 313.0 196.0 313.5 196.0 313.8 196.25 316.3 198.2 320.0 199.0 321.0 200.9 322.25 198.1 324.15 193.65 326.35 189.65 329.6 183.6 332.15 177.05 336.35 166.35 338.0 153.0 L337.05 152.85 Q333.05 151.45 330.0 149.0 330.0 148.5 330.15 148.05 331.65 144.15 331.0 138.0 L331.55 137.85 Q333.65 132.15 337.0 128.0 L338.9 128.3 340.1 128.75 Q343.7 130.2 345.0 129.0 348.65 122.65 350.7 114.9 L352.35 109.1 Q355.35 98.85 355.0 85.0 L354.8 84.1 Q353.45 81.55 349.0 82.0 349.0 81.5 348.8 81.4 L347.8 80.6 Q347.0 79.0 346.55 77.1 345.85 74.15 346.5 70.1 347.5 64.0 350.0 59.0 L350.95 59.1 Q355.75 60.25 358.0 59.0 359.85 56.3 360.45 52.05 L361.55 44.95 Q362.0 42.0 362.6 39.1 363.15 36.15 362.9 32.0 362.3 23.2 362.0 14.0 L361.45 13.85 Q360.25 10.75 355.0 12.0 350.8 12.7 351.45 7.9 L351.4 6.95 Q350.45 1.35 350.9 -1.0 351.7 -5.3 352.0 -10.0 L352.05 -10.5 360.0 -11.0 Q362.9 -13.6 362.6 -20.05 362.5 -23.0 362.55 -26.0 362.8 -34.8 362.1 -43.0 362.0 -44.0 361.6 -44.25 360.4 -44.9 360.4 -47.0 360.5 -53.55 358.0 -58.0 L358.0 -58.5 349.0 -58.0 347.55 -63.85 Q346.75 -66.25 346.45 -69.05 345.75 -75.75 348.0 -80.0 L348.05 -80.5 Q352.75 -80.75 355.0 -83.0 355.15 -100.65 351.0 -114.0 348.45 -121.95 345.0 -129.0 L344.1 -128.8 Q341.15 -127.35 337.0 -127.0 336.5 -127.0 336.4 -127.2 334.0 -133.0 331.0 -138.0 L331.0 -139.0 Q331.15 -144.65 330.0 -149.0 L330.95 -149.15 Q334.95 -150.55 338.0 -153.0 334.7 -171.7 327.35 -186.7 L322.6 -196.3 Q321.0 -199.45 320.0 -198.0 L319.1 -197.8 Q316.3 -196.2 313.0 -195.0 L312.45 -195.1 Q311.45 -199.45 308.0 -201.0 L307.85 -201.95 Q306.65 -205.15 305.0 -208.0 L305.0 -209.0 Q305.25 -213.75 303.0 -216.0 L303.2 -216.6 Q307.45 -218.55 310.0 -222.0 306.7 -233.7 301.75 -243.85 L298.55 -250.25 Q293.35 -260.35 286.0 -268.0 L285.75 -267.25 280.0 -262.0 279.75 -262.85 Q276.9 -266.9 273.0 -270.0 L272.8 -270.95 Q270.05 -277.55 268.0 -285.0 L269.75 -286.25 270.0 -287.0 271.75 -288.25 272.0 -289.0 Q273.7 -289.3 273.5 -290.95 L273.0 -291.0 Q273.25 -293.75 272.4 -295.25 L271.5 -296.6 Q269.95 -298.45 269.15 -301.05 L267.6 -304.8 Q257.9 -324.4 245.0 -341.0 L244.8 -340.1 Q243.0 -337.0 240.0 -335.0 231.55 -344.55 227.2 -358.05 226.1 -361.55 227.0 -362.0 227.0 -362.5 227.25 -362.85 229.3 -366.2 231.0 -370.0 230.0 -371.0 229.4 -372.2 L228.55 -373.75 Q227.3 -375.8 226.35 -378.8 L223.1 -388.05 Q219.25 -397.75 214.9 -406.95 212.5 -412.0 210.45 -417.8 L209.55 -420.2 Q205.3 -431.3 200.0 -441.0 L199.85 -440.05 Q198.8 -436.2 196.0 -434.0 195.8 -436.8 194.8 -438.9 L194.3 -440.1 Q193.0 -443.5 192.15 -447.05 191.2 -451.2 189.0 -454.0 188.9 -458.4 188.0 -462.0 L186.05 -470.0 Q184.15 -477.65 184.0 -487.0 L184.55 -487.1 Q185.3 -490.2 187.0 -492.0 185.75 -496.75 184.9 -502.0 184.0 -507.5 182.6 -512.9 181.7 -516.25 181.5 -521.0 L181.45 -522.05 Q180.1 -536.1 177.0 -548.0 L177.6 -548.2 Q178.65 -550.15 177.0 -550.0 L177.0 -551.0 Q176.8 -557.75 175.0 -563.0 L175.6 -563.2 Q176.65 -565.15 175.0 -565.0 L175.0 -566.0 Q175.15 -572.7 174.0 -569.0 L173.5 -569.0 Q174.9 -574.4 173.0 -579.0 173.5 -579.0 173.6 -579.2 174.65 -581.15 173.0 -581.0 173.65 -583.15 172.5 -583.5 L172.55 -584.05 Q173.0 -589.9 172.0 -586.0 170.4 -585.9 171.25 -587.9 L171.7 -589.1 Q172.7 -592.2 171.5 -593.5 L171.55 -594.05 Q172.0 -599.9 171.0 -596.0 170.5 -596.5 170.5 -597.0 L170.5 -601.0 170.6 -601.65 Q172.65 -605.15 169.0 -607.0 L169.75 -616.0 Q170.0 -621.9 169.0 -618.0 167.4 -617.9 168.1 -619.95 168.5 -621.0 168.5 -622.0 L168.5 -623.0 168.5 -625.0 168.6 -625.7 Q170.2 -628.75 167.0 -630.0 L167.5 -638.0 167.6 -638.7 Q169.2 -641.75 166.0 -643.0 L166.1 -644.0 Q167.35 -650.7 166.0 -657.0 L166.6 -657.2 Q167.65 -659.15 166.0 -659.0 165.35 -662.85 165.5 -668.0 L165.6 -668.75 Q166.2 -670.3 165.35 -672.75 165.1 -673.45 166.0 -677.0 L165.5 -677.0 Q165.7 -679.7 164.0 -680.0 164.95 -683.45 164.55 -686.95 164.5 -687.5 164.6 -687.8 164.95 -689.05 164.6 -690.95 L164.5 -692.0 164.5 -694.0 Q164.5 -697.85 164.0 -694.0 L163.5 -694.05 Q163.0 -698.0 161.0 -700.0 161.95 -701.05 161.6 -702.95 161.5 -703.5 161.55 -703.95 L162.0 -709.0 161.0 -709.0 160.65 -711.95 160.6 -713.95 Q160.95 -717.45 160.55 -720.95 L160.5 -722.0 160.5 -726.0 160.5 -727.0 160.5 -731.0 160.5 -732.0 160.5 -741.0 160.5 -742.0 Q160.0 -758.5 160.0 -775.0 160.0 -777.0 159.35 -778.75 159.1 -779.45 159.35 -783.05 L159.5 -787.0 159.55 -788.05 Q159.8 -793.0 159.0 -789.0 158.5 -789.5 158.5 -790.0 L158.5 -796.0 158.5 -798.0 158.6 -799.05 Q159.0 -801.5 158.5 -803.9 158.3 -804.75 158.5 -809.0 L158.5 -810.0 158.45 -814.0 158.5 -824.0 158.6 -824.7 Q159.7 -826.75 158.65 -830.9 L158.55 -831.6 Q159.7 -833.3 158.7 -836.9 158.2 -838.75 158.35 -843.0 L158.5 -852.0 158.5 -852.5 Q159.7 -853.3 158.45 -855.75 158.1 -856.45 158.45 -860.05 L158.55 -860.6 Q159.7 -862.3 158.65 -865.9 L158.6 -866.8 Q158.95 -868.05 158.6 -869.95 L158.6 -870.8 Q158.95 -872.05 158.6 -873.95 L158.6 -874.8 Q158.95 -876.05 158.6 -877.95 L158.6 -878.8 Q158.95 -880.05 158.6 -881.95 L158.6 -882.8 Q158.95 -884.05 158.6 -885.95 L158.6 -886.9 Q159.15 -889.85 158.6 -893.95 L158.6 -894.9 Q159.15 -897.85 158.6 -901.95 L158.5 -903.0 158.7 -907.05 Q159.15 -911.15 158.0 -914.0 159.7 -915.75 159.25 -920.05 159.0 -922.0 159.0 -924.0 L159.6 -924.2 Q160.7 -926.7 159.0 -927.0 159.0 -930.0 159.4 -932.95 L159.4 -933.9 Q158.85 -936.85 159.4 -940.95 L159.45 -941.95 Q158.65 -949.15 158.0 -957.0 159.7 -958.75 159.5 -963.0 L159.5 -963.95 Q159.3 -967.7 160.5 -969.35 161.0 -970.0 161.0 -971.0 160.95 -974.3 160.0 -972.0 158.95 -968.05 159.45 -973.95 L159.6 -975.05 Q160.0 -977.5 160.0 -980.0 L160.55 -980.15 Q161.7 -983.2 160.0 -984.0 L160.1 -985.0 Q161.3 -991.2 160.0 -996.0 161.7 -996.3 161.1 -999.0 L161.0 -1000.0 M159.0 -953.0 Q161.4 -953.5 159.0 -955.0 L159.0 -954.0 159.0 -953.0 M163.0 -699.0 L163.0 -698.0 Q165.4 -698.5 163.0 -700.0 L163.0 -699.0 M168.0 -632.0 Q168.0 -631.5 168.25 -631.25 169.95 -629.6 168.0 -632.0 M167.25 -644.25 Q168.95 -642.6 167.0 -645.0 167.0 -644.5 167.25 -644.25 M170.0 -609.0 Q170.0 -608.5 170.25 -608.25 171.95 -606.6 170.0 -609.0 M169.0 619.0 Q169.0 619.5 169.25 619.75 170.95 621.45 169.0 619.0 M168.25 631.75 Q169.95 633.45 168.0 631.0 L168.25 631.75 M163.0 698.0 L163.0 699.0 Q165.4 698.5 163.0 697.0 L163.0 698.0 M164.0 693.0 L164.0 694.0 164.0 695.0 Q166.4 694.5 164.0 693.0 M167.25 643.75 Q168.95 645.45 167.0 643.0 167.0 643.5 167.25 643.75 M-160.0 1000.0 L-174.0 1000.0 -233.0 1000.0 -292.0 1000.0 -351.0 1000.0 -410.0 1000.0 -469.0 1000.0 -528.0 1000.0 -587.0 1000.0 -646.0 1000.0 -705.0 1000.0 -764.0 1000.0 -823.0 1000.0 -882.0 1000.0 -941.0 1000.0 -1000.0 1000.0 -1000.0 999.0 -1000.0 998.0 -1000.0 997.0 -1000.0 996.0 -1000.0 995.0 -1000.0 994.0 -1000.0 993.0 -1000.0 992.0 -1000.0 991.0 -1000.0 990.0 -1000.0 989.0 -1000.0 988.0 -1000.0 987.0 -1000.0 986.0 -1000.0 985.0 -1000.0 984.0 -1000.0 983.0 -1000.0 982.0 -1000.0 981.0 -1000.0 980.0 -1000.0 979.0 -1000.0 978.0 -1000.0 977.0 -1000.0 976.0 -1000.0 975.0 -1000.0 974.0 -1000.0 973.0 -1000.0 972.0 -1000.0 971.0 -1000.0 970.0 -1000.0 969.0 -1000.0 968.0 -1000.0 967.0 -1000.0 966.0 -1000.0 965.0 -1000.0 964.0 -1000.0 963.0 -1000.0 962.0 -1000.0 961.0 -1000.0 960.0 -1000.0 959.0 -1000.0 958.0 -1000.0 957.0 -1000.0 956.0 -1000.0 955.0 -1000.0 954.0 -1000.0 953.0 -1000.0 952.0 -1000.0 951.0 -1000.0 950.0 -1000.0 949.0 -1000.0 948.0 -1000.0 947.0 -1000.0 946.0 -1000.0 945.0 -1000.0 944.0 -1000.0 943.0 -1000.0 942.0 -1000.0 941.0 -1000.0 940.0 -1000.0 939.0 -1000.0 938.0 -1000.0 937.0 -1000.0 936.0 -1000.0 935.0 -1000.0 934.0 -1000.0 933.0 -1000.0 932.0 -1000.0 931.0 -1000.0 930.0 -1000.0 929.0 -1000.0 928.0 -1000.0 927.0 -1000.0 926.0 -1000.0 925.0 -1000.0 924.0 -1000.0 923.0 -1000.0 922.0 -1000.0 921.0 -1000.0 920.0 -1000.0 919.0 -1000.0 918.0 -1000.0 917.0 -1000.0 916.0 -1000.0 915.0 -1000.0 914.0 -1000.0 913.0 -1000.0 912.0 -1000.0 911.0 -1000.0 910.0 -1000.0 909.0 -1000.0 908.0 -1000.0 907.0 -1000.0 906.0 -1000.0 905.0 -1000.0 904.0 -1000.0 903.0 -1000.0 902.0 -1000.0 901.0 -1000.0 900.0 -1000.0 899.0 -1000.0 898.0 -1000.0 897.0 -1000.0 896.0 -1000.0 895.0 -1000.0 894.0 -1000.0 893.0 -1000.0 892.0 -1000.0 891.0 -1000.0 890.0 -1000.0 889.0 -1000.0 888.0 -1000.0 887.0 -1000.0 886.0 -1000.0 885.0 -1000.0 884.0 -1000.0 883.0 -1000.0 882.0 -1000.0 881.0 -1000.0 880.0 -1000.0 879.0 -1000.0 878.0 -1000.0 877.0 -1000.0 876.0 -1000.0 875.0 -1000.0 874.0 -1000.0 873.0 -1000.0 872.0 -1000.0 871.0 -1000.0 870.0 -1000.0 869.0 -1000.0 868.0 -1000.0 867.0 -1000.0 866.0 -1000.0 865.0 -1000.0 864.0 -1000.0 863.0 -1000.0 862.0 -1000.0 861.0 -1000.0 860.0 -1000.0 859.0 -1000.0 858.0 -1000.0 857.0 -1000.0 856.0 -1000.0 855.0 -1000.0 854.0 -1000.0 853.0 -1000.0 852.0 -1000.0 851.0 -1000.0 850.0 -1000.0 849.0 -1000.0 848.0 -1000.0 847.0 -1000.0 846.0 -1000.0 845.0 -1000.0 844.0 -1000.0 843.0 -1000.0 842.0 -1000.0 841.0 -1000.0 840.0 -1000.0 839.0 -1000.0 838.0 -1000.0 837.0 -1000.0 836.0 -1000.0 835.0 -1000.0 834.0 -1000.0 833.0 -1000.0 832.0 -1000.0 831.0 -1000.0 830.0 -1000.0 829.0 -1000.0 828.0 -1000.0 827.0 -1000.0 826.0 -1000.0 825.0 -1000.0 824.0 -1000.0 823.0 -1000.0 822.0 -1000.0 821.0 -1000.0 820.0 -1000.0 819.0 -1000.0 818.0 -1000.0 817.0 -1000.0 816.0 -1000.0 815.0 -1000.0 814.0 -1000.0 813.0 -1000.0 812.0 -1000.0 811.0 -1000.0 810.0 -1000.0 809.0 -1000.0 808.0 -1000.0 807.0 -1000.0 806.0 -1000.0 805.0 -1000.0 804.0 -1000.0 803.0 -1000.0 802.0 -1000.0 801.0 -1000.0 800.0 -1000.0 799.0 -1000.0 798.0 -1000.0 797.0 -1000.0 796.0 -1000.0 795.0 -1000.0 794.0 -1000.0 793.0 -1000.0 792.0 -1000.0 791.0 -1000.0 790.0 -1000.0 789.0 -1000.0 788.0 -1000.0 787.0 -1000.0 786.0 -1000.0 785.0 -1000.0 784.0 -1000.0 783.0 -1000.0 782.0 -1000.0 781.0 -1000.0 780.0 -1000.0 779.0 -1000.0 778.0 -1000.0 777.0 -1000.0 776.0 -1000.0 775.0 -1000.0 774.0 -1000.0 773.0 -1000.0 772.0 -1000.0 771.0 -1000.0 770.0 -1000.0 769.0 -1000.0 768.0 -1000.0 767.0 -1000.0 766.0 -1000.0 765.0 -1000.0 764.0 -1000.0 763.0 -1000.0 762.0 -1000.0 761.0 -1000.0 760.0 -1000.0 759.0 -1000.0 758.0 -1000.0 757.0 -1000.0 756.0 -1000.0 755.0 -1000.0 754.0 -1000.0 753.0 -1000.0 752.0 -1000.0 751.0 -1000.0 750.0 -1000.0 749.0 -1000.0 748.0 -1000.0 747.0 -1000.0 746.0 -1000.0 745.0 -1000.0 744.0 -1000.0 743.0 -1000.0 742.0 -1000.0 741.0 -1000.0 740.0 -1000.0 739.0 -1000.0 738.0 -1000.0 737.0 -1000.0 736.0 -1000.0 735.0 -1000.0 734.0 -1000.0 733.0 -1000.0 732.0 -1000.0 731.0 -1000.0 730.0 -1000.0 729.0 -1000.0 728.0 -1000.0 727.0 -1000.0 726.0 -1000.0 725.0 -1000.0 724.0 -1000.0 723.0 -1000.0 722.0 -1000.0 721.0 -1000.0 720.0 -1000.0 719.0 -1000.0 718.0 -1000.0 717.0 -1000.0 716.0 -1000.0 715.0 -1000.0 714.0 -1000.0 713.0 -1000.0 712.0 -1000.0 711.0 -1000.0 710.0 -1000.0 709.0 -1000.0 708.0 -1000.0 707.0 -1000.0 706.0 -1000.0 705.0 -1000.0 704.0 -1000.0 703.0 -1000.0 702.0 -1000.0 701.0 -1000.0 700.0 -1000.0 699.0 -1000.0 698.0 -1000.0 697.0 -1000.0 696.0 -1000.0 695.0 -1000.0 694.0 -1000.0 693.0 -1000.0 692.0 -1000.0 691.0 -1000.0 690.0 -1000.0 689.0 -1000.0 688.0 -1000.0 687.0 -1000.0 686.0 -1000.0 685.0 -1000.0 684.0 -1000.0 683.0 -1000.0 682.0 -1000.0 681.0 -1000.0 680.0 -1000.0 679.0 -1000.0 678.0 -1000.0 677.0 -1000.0 676.0 -1000.0 675.0 -1000.0 674.0 -1000.0 673.0 -1000.0 672.0 -1000.0 671.0 -1000.0 670.0 -1000.0 669.0 -1000.0 668.0 -1000.0 667.0 -1000.0 666.0 -1000.0 665.0 -1000.0 664.0 -1000.0 663.0 -1000.0 662.0 -1000.0 661.0 -1000.0 660.0 -1000.0 659.0 -1000.0 658.0 -1000.0 657.0 -1000.0 656.0 -1000.0 655.0 -1000.0 654.0 -1000.0 653.0 -1000.0 652.0 -1000.0 651.0 -1000.0 650.0 -1000.0 649.0 -1000.0 648.0 -1000.0 647.0 -1000.0 646.0 -1000.0 645.0 -1000.0 644.0 -1000.0 643.0 -1000.0 642.0 -1000.0 641.0 -1000.0 640.0 -1000.0 639.0 -1000.0 638.0 -1000.0 637.0 -1000.0 636.0 -1000.0 635.0 -1000.0 634.0 -1000.0 633.0 -1000.0 632.0 -1000.0 631.0 -1000.0 630.0 -1000.0 629.0 -1000.0 628.0 -1000.0 627.0 -1000.0 626.0 -1000.0 625.0 -1000.0 624.0 -1000.0 623.0 -1000.0 622.0 -1000.0 621.0 -1000.0 620.0 -1000.0 619.0 -1000.0 618.0 -1000.0 617.0 -1000.0 616.0 -1000.0 615.0 -1000.0 614.0 -1000.0 613.0 -1000.0 612.0 -1000.0 611.0 -1000.0 610.0 -1000.0 609.0 -1000.0 608.0 -1000.0 607.0 -1000.0 606.0 -1000.0 605.0 -1000.0 604.0 -1000.0 603.0 -1000.0 602.0 -1000.0 601.0 -1000.0 600.0 -1000.0 599.0 -1000.0 598.0 -1000.0 597.0 -1000.0 596.0 -1000.0 595.0 -1000.0 594.0 -1000.0 593.0 -1000.0 592.0 -1000.0 591.0 -1000.0 590.0 -1000.0 589.0 -1000.0 588.0 -1000.0 587.0 -1000.0 586.0 -1000.0 585.0 -1000.0 584.0 -1000.0 583.0 -1000.0 582.0 -1000.0 581.0 -1000.0 580.0 -1000.0 579.0 -1000.0 578.0 -1000.0 577.0 -1000.0 576.0 -1000.0 575.0 -1000.0 574.0 -1000.0 573.0 -1000.0 572.0 -1000.0 571.0 -1000.0 570.0 -1000.0 569.0 -1000.0 568.0 -1000.0 567.0 -1000.0 566.0 -1000.0 565.0 -1000.0 564.0 -1000.0 563.0 -1000.0 562.0 -1000.0 561.0 -1000.0 560.0 -1000.0 559.0 -1000.0 558.0 -1000.0 557.0 -1000.0 556.0 -1000.0 555.0 -1000.0 554.0 -1000.0 553.0 -1000.0 552.0 -1000.0 551.0 -1000.0 550.0 -1000.0 549.0 -1000.0 548.0 -1000.0 547.0 -1000.0 546.0 -1000.0 545.0 -1000.0 544.0 -1000.0 543.0 -1000.0 542.0 -1000.0 541.0 -1000.0 540.0 -1000.0 539.0 -1000.0 538.0 -1000.0 537.0 -1000.0 536.0 -1000.0 535.0 -1000.0 534.0 -1000.0 533.0 -1000.0 532.0 -1000.0 531.0 -1000.0 530.0 -1000.0 529.0 -1000.0 528.0 -1000.0 527.0 -1000.0 526.0 -1000.0 525.0 -1000.0 524.0 -1000.0 523.0 -1000.0 522.0 -1000.0 521.0 -1000.0 520.0 -1000.0 519.0 -1000.0 518.0 -1000.0 517.0 -1000.0 516.0 -1000.0 515.0 -1000.0 514.0 -1000.0 513.0 -1000.0 512.0 -1000.0 511.0 -1000.0 510.0 -1000.0 509.0 -1000.0 508.0 -1000.0 507.0 -1000.0 506.0 -1000.0 505.0 -1000.0 504.0 -1000.0 503.0 -1000.0 502.0 -1000.0 501.0 -1000.0 500.0 -1000.0 499.0 -1000.0 498.0 -1000.0 497.0 -1000.0 496.0 -1000.0 495.0 -1000.0 494.0 -1000.0 493.0 -1000.0 492.0 -1000.0 491.0 -1000.0 490.0 -1000.0 489.0 -1000.0 488.0 -1000.0 487.0 -1000.0 486.0 -1000.0 485.0 -1000.0 484.0 -1000.0 483.0 -1000.0 482.0 -1000.0 481.0 -1000.0 480.0 -1000.0 479.0 -1000.0 478.0 -1000.0 477.0 -1000.0 476.0 -1000.0 475.0 -1000.0 474.0 -1000.0 473.0 -1000.0 472.0 -1000.0 471.0 -1000.0 470.0 -1000.0 469.0 -1000.0 468.0 -1000.0 467.0 -1000.0 466.0 -1000.0 465.0 -1000.0 464.0 -1000.0 463.0 -1000.0 462.0 -1000.0 461.0 -1000.0 460.0 -1000.0 459.0 -1000.0 458.0 -1000.0 457.0 -1000.0 456.0 -1000.0 455.0 -1000.0 454.0 -1000.0 453.0 -1000.0 452.0 -1000.0 451.0 -1000.0 450.0 -1000.0 449.0 -1000.0 448.0 -1000.0 447.0 -1000.0 446.0 -1000.0 445.0 -1000.0 444.0 -1000.0 443.0 -1000.0 442.0 -1000.0 441.0 -1000.0 440.0 -1000.0 439.0 -1000.0 438.0 -1000.0 437.0 -1000.0 436.0 -1000.0 435.0 -1000.0 434.0 -1000.0 433.0 -1000.0 432.0 -1000.0 431.0 -1000.0 430.0 -1000.0 429.0 -1000.0 428.0 -1000.0 427.0 -1000.0 426.0 -1000.0 425.0 -1000.0 424.0 -1000.0 423.0 -1000.0 422.0 -1000.0 421.0 -1000.0 420.0 -1000.0 419.0 -1000.0 418.0 -1000.0 417.0 -1000.0 416.0 -1000.0 415.0 -1000.0 414.0 -1000.0 413.0 -1000.0 412.0 -1000.0 411.0 -1000.0 410.0 -1000.0 409.0 -1000.0 408.0 -1000.0 407.0 -1000.0 406.0 -1000.0 405.0 -1000.0 404.0 -1000.0 403.0 -1000.0 402.0 -1000.0 401.0 -1000.0 400.0 -1000.0 399.0 -1000.0 398.0 -1000.0 397.0 -1000.0 396.0 -1000.0 395.0 -1000.0 394.0 -1000.0 393.0 -1000.0 392.0 -1000.0 391.0 -1000.0 390.0 -1000.0 389.0 -1000.0 388.0 -1000.0 387.0 -1000.0 386.0 -1000.0 385.0 -1000.0 384.0 -1000.0 383.0 -1000.0 382.0 -1000.0 381.0 -1000.0 380.0 -1000.0 379.0 -1000.0 378.0 -1000.0 377.0 -1000.0 376.0 -1000.0 375.0 -1000.0 374.0 -1000.0 373.0 -1000.0 372.0 -1000.0 371.0 -1000.0 370.0 -1000.0 369.0 -1000.0 368.0 -1000.0 367.0 -1000.0 366.0 -1000.0 365.0 -1000.0 364.0 -1000.0 363.0 -1000.0 362.0 -1000.0 361.0 -1000.0 360.0 -1000.0 359.0 -1000.0 358.0 -1000.0 357.0 -1000.0 356.0 -1000.0 355.0 -1000.0 354.0 -1000.0 353.0 -1000.0 352.0 -1000.0 351.0 -1000.0 350.0 -1000.0 349.0 -1000.0 348.0 -1000.0 347.0 -1000.0 346.0 -1000.0 345.0 -1000.0 344.0 -1000.0 343.0 -1000.0 342.0 -1000.0 341.0 -1000.0 340.0 -1000.0 339.0 -1000.0 338.0 -1000.0 337.0 -1000.0 336.0 -1000.0 335.0 -1000.0 334.0 -1000.0 333.0 -1000.0 332.0 -1000.0 331.0 -1000.0 330.0 -1000.0 329.0 -1000.0 328.0 -1000.0 327.0 -1000.0 326.0 -1000.0 325.0 -1000.0 324.0 -1000.0 323.0 -1000.0 322.0 -1000.0 321.0 -1000.0 320.0 -1000.0 319.0 -1000.0 318.0 -1000.0 317.0 -1000.0 316.0 -1000.0 315.0 -1000.0 314.0 -1000.0 313.0 -1000.0 312.0 -1000.0 311.0 -1000.0 310.0 -1000.0 309.0 -1000.0 308.0 -1000.0 307.0 -1000.0 306.0 -1000.0 305.0 -1000.0 304.0 -1000.0 303.0 -1000.0 302.0 -1000.0 301.0 -1000.0 300.0 -1000.0 299.0 -1000.0 298.0 -1000.0 297.0 -1000.0 296.0 -1000.0 295.0 -1000.0 294.0 -1000.0 293.0 -1000.0 292.0 -1000.0 291.0 -1000.0 290.0 -1000.0 289.0 -1000.0 288.0 -1000.0 287.0 -1000.0 286.0 -1000.0 285.0 -1000.0 284.0 -1000.0 283.0 -1000.0 282.0 -1000.0 281.0 -1000.0 280.0 -1000.0 279.0 -1000.0 278.0 -1000.0 277.0 -1000.0 276.0 -1000.0 275.0 -1000.0 274.0 -1000.0 273.0 -1000.0 272.0 -1000.0 271.0 -1000.0 270.0 -1000.0 269.0 -1000.0 268.0 -1000.0 267.0 -1000.0 266.0 -1000.0 265.0 -1000.0 264.0 -1000.0 263.0 -1000.0 262.0 -1000.0 261.0 -1000.0 260.0 -1000.0 259.0 -1000.0 258.0 -1000.0 257.0 -1000.0 256.0 -1000.0 255.0 -1000.0 254.0 -1000.0 253.0 -1000.0 252.0 -1000.0 251.0 -1000.0 250.0 -1000.0 249.0 -1000.0 248.0 -1000.0 247.0 -1000.0 246.0 -1000.0 245.0 -1000.0 244.0 -1000.0 243.0 -1000.0 242.0 -1000.0 241.0 -1000.0 240.0 -1000.0 239.0 -1000.0 238.0 -1000.0 237.0 -1000.0 236.0 -1000.0 235.0 -1000.0 234.0 -1000.0 233.0 -1000.0 232.0 -1000.0 231.0 -1000.0 230.0 -1000.0 229.0 -1000.0 228.0 -1000.0 227.0 -1000.0 226.0 -1000.0 225.0 -1000.0 224.0 -1000.0 223.0 -1000.0 222.0 -1000.0 221.0 -1000.0 220.0 -1000.0 219.0 -1000.0 218.0 -1000.0 217.0 -1000.0 216.0 -1000.0 215.0 -1000.0 214.0 -1000.0 213.0 -1000.0 212.0 -1000.0 211.0 -1000.0 210.0 -1000.0 209.0 -1000.0 208.0 -1000.0 207.0 -1000.0 206.0 -1000.0 205.0 -1000.0 204.0 -1000.0 203.0 -1000.0 202.0 -1000.0 201.0 -1000.0 200.0 -1000.0 199.0 -1000.0 198.0 -1000.0 197.0 -1000.0 196.0 -1000.0 195.0 -1000.0 194.0 -1000.0 193.0 -1000.0 192.0 -1000.0 191.0 -1000.0 190.0 -1000.0 189.0 -1000.0 188.0 -1000.0 187.0 -1000.0 186.0 -1000.0 185.0 -1000.0 184.0 -1000.0 183.0 -1000.0 182.0 -1000.0 181.0 -1000.0 180.0 -1000.0 179.0 -1000.0 178.0 -1000.0 177.0 -1000.0 176.0 -1000.0 175.0 -1000.0 174.0 -1000.0 173.0 -1000.0 172.0 -1000.0 171.0 -1000.0 170.0 -1000.0 169.0 -1000.0 168.0 -1000.0 167.0 -1000.0 166.0 -1000.0 165.0 -1000.0 164.0 -1000.0 163.0 -1000.0 162.0 -1000.0 161.0 -1000.0 160.0 -1000.0 159.0 -1000.0 158.0 -1000.0 157.0 -1000.0 156.0 -1000.0 155.0 -1000.0 154.0 -1000.0 153.0 -1000.0 152.0 -1000.0 151.0 -1000.0 150.0 -1000.0 149.0 -1000.0 148.0 -1000.0 147.0 -1000.0 146.0 -1000.0 145.0 -1000.0 144.0 -1000.0 143.0 -1000.0 142.0 -1000.0 141.0 -1000.0 140.0 -1000.0 139.0 -1000.0 138.0 -1000.0 137.0 -1000.0 136.0 -1000.0 135.0 -1000.0 134.0 -1000.0 133.0 -1000.0 132.0 -1000.0 131.0 -1000.0 130.0 -1000.0 129.0 -1000.0 128.0 -1000.0 127.0 -1000.0 126.0 -1000.0 125.0 -1000.0 124.0 -1000.0 123.0 -1000.0 122.0 -1000.0 121.0 -1000.0 120.0 -1000.0 119.0 -1000.0 118.0 -1000.0 117.0 -1000.0 116.0 -1000.0 115.0 -1000.0 114.0 -1000.0 113.0 -1000.0 112.0 -1000.0 111.0 -1000.0 110.0 -1000.0 109.0 -1000.0 108.0 -1000.0 107.0 -1000.0 106.0 -1000.0 105.0 -1000.0 104.0 -1000.0 103.0 -1000.0 102.0 -1000.0 101.0 -1000.0 100.0 -1000.0 99.0 -1000.0 98.0 -1000.0 97.0 -1000.0 96.0 -1000.0 95.0 -1000.0 94.0 -1000.0 93.0 -1000.0 92.0 -1000.0 91.0 -1000.0 90.0 -1000.0 89.0 -1000.0 88.0 -1000.0 87.0 -1000.0 86.0 -1000.0 85.0 -1000.0 84.0 -1000.0 83.0 -1000.0 82.0 -1000.0 81.0 -1000.0 80.0 -1000.0 79.0 -1000.0 78.0 -1000.0 77.0 -1000.0 76.0 -1000.0 75.0 -1000.0 74.0 -1000.0 73.0 -1000.0 72.0 -1000.0 71.0 -1000.0 70.0 -1000.0 69.0 -1000.0 68.0 -1000.0 67.0 -1000.0 66.0 -1000.0 65.0 -1000.0 64.0 -1000.0 63.0 -1000.0 62.0 -1000.0 61.0 -1000.0 60.0 -1000.0 59.0 -1000.0 58.0 -1000.0 57.0 -1000.0 56.0 -1000.0 55.0 -1000.0 54.0 -1000.0 53.0 -1000.0 52.0 -1000.0 51.0 -1000.0 50.0 -1000.0 49.0 -1000.0 48.0 -1000.0 47.0 -1000.0 46.0 -1000.0 45.0 -1000.0 44.0 -1000.0 43.0 -1000.0 42.0 -1000.0 41.0 -1000.0 40.0 -1000.0 39.0 -1000.0 38.0 -1000.0 37.0 -1000.0 36.0 -1000.0 35.0 -1000.0 34.0 -1000.0 33.0 -1000.0 32.0 -1000.0 31.0 -1000.0 30.0 -1000.0 29.0 -1000.0 28.0 -1000.0 27.0 -1000.0 26.0 -1000.0 25.0 -1000.0 24.0 -1000.0 23.0 -1000.0 22.0 -1000.0 21.0 -1000.0 20.0 -1000.0 19.0 -1000.0 18.0 -1000.0 17.0 -1000.0 16.0 -1000.0 15.0 -1000.0 14.0 -1000.0 13.0 -1000.0 12.0 -1000.0 11.0 -1000.0 10.0 -1000.0 9.0 -1000.0 8.0 -1000.0 7.0 -1000.0 6.0 -1000.0 5.0 -1000.0 4.0 -1000.0 3.0 -1000.0 2.0 -1000.0 1.0 -1000.0 0.0 -1000.0 -1.0 -1000.0 -2.0 -1000.0 -3.0 -1000.0 -4.0 -1000.0 -5.0 -1000.0 -6.0 -1000.0 -7.0 -1000.0 -8.0 -1000.0 -9.0 -1000.0 -10.0 -1000.0 -11.0 -1000.0 -12.0 -1000.0 -13.0 -1000.0 -14.0 -1000.0 -15.0 -1000.0 -16.0 -1000.0 -17.0 -1000.0 -18.0 -1000.0 -19.0 -1000.0 -20.0 -1000.0 -21.0 -1000.0 -22.0 -1000.0 -23.0 -1000.0 -24.0 -1000.0 -25.0 -1000.0 -26.0 -1000.0 -27.0 -1000.0 -28.0 -1000.0 -29.0 -1000.0 -30.0 -1000.0 -31.0 -1000.0 -32.0 -1000.0 -33.0 -1000.0 -34.0 -1000.0 -35.0 -1000.0 -36.0 -1000.0 -37.0 -1000.0 -38.0 -1000.0 -39.0 -1000.0 -40.0 -1000.0 -41.0 -1000.0 -42.0 -1000.0 -43.0 -1000.0 -44.0 -1000.0 -45.0 -1000.0 -46.0 -1000.0 -47.0 -1000.0 -48.0 -1000.0 -49.0 -1000.0 -50.0 -1000.0 -51.0 -1000.0 -52.0 -1000.0 -53.0 -1000.0 -54.0 -1000.0 -55.0 -1000.0 -56.0 -1000.0 -57.0 -1000.0 -58.0 -1000.0 -59.0 -1000.0 -60.0 -1000.0 -61.0 -1000.0 -62.0 -1000.0 -63.0 -1000.0 -64.0 -1000.0 -65.0 -1000.0 -66.0 -1000.0 -67.0 -1000.0 -68.0 -1000.0 -69.0 -1000.0 -70.0 -1000.0 -71.0 -1000.0 -72.0 -1000.0 -73.0 -1000.0 -74.0 -1000.0 -75.0 -1000.0 -76.0 -1000.0 -77.0 -1000.0 -78.0 -1000.0 -79.0 -1000.0 -80.0 -1000.0 -81.0 -1000.0 -82.0 -1000.0 -83.0 -1000.0 -84.0 -1000.0 -85.0 -1000.0 -86.0 -1000.0 -87.0 -1000.0 -88.0 -1000.0 -89.0 -1000.0 -90.0 -1000.0 -91.0 -1000.0 -92.0 -1000.0 -93.0 -1000.0 -94.0 -1000.0 -95.0 -1000.0 -96.0 -1000.0 -97.0 -1000.0 -98.0 -1000.0 -99.0 -1000.0 -100.0 -1000.0 -101.0 -1000.0 -102.0 -1000.0 -103.0 -1000.0 -104.0 -1000.0 -105.0 -1000.0 -106.0 -1000.0 -107.0 -1000.0 -108.0 -1000.0 -109.0 -1000.0 -110.0 -1000.0 -111.0 -1000.0 -112.0 -1000.0 -113.0 -1000.0 -114.0 -1000.0 -115.0 -1000.0 -116.0 -1000.0 -117.0 -1000.0 -118.0 -1000.0 -119.0 -1000.0 -120.0 -1000.0 -121.0 -1000.0 -122.0 -1000.0 -123.0 -1000.0 -124.0 -1000.0 -125.0 -1000.0 -126.0 -1000.0 -127.0 -1000.0 -128.0 -1000.0 -129.0 -1000.0 -130.0 -1000.0 -131.0 -1000.0 -132.0 -1000.0 -133.0 -1000.0 -134.0 -1000.0 -135.0 -1000.0 -136.0 -1000.0 -137.0 -1000.0 -138.0 -1000.0 -139.0 -1000.0 -140.0 -1000.0 -141.0 -1000.0 -142.0 -1000.0 -143.0 -1000.0 -144.0 -1000.0 -145.0 -1000.0 -146.0 -1000.0 -147.0 -1000.0 -148.0 -1000.0 -149.0 -1000.0 -150.0 -1000.0 -151.0 -1000.0 -152.0 -1000.0 -153.0 -1000.0 -154.0 -1000.0 -155.0 -1000.0 -156.0 -1000.0 -157.0 -1000.0 -158.0 -1000.0 -159.0 -1000.0 -160.0 -1000.0 -161.0 -1000.0 -162.0 -1000.0 -163.0 -1000.0 -164.0 -1000.0 -165.0 -1000.0 -166.0 -1000.0 -167.0 -1000.0 -168.0 -1000.0 -169.0 -1000.0 -170.0 -1000.0 -171.0 -1000.0 -172.0 -1000.0 -173.0 -1000.0 -174.0 -1000.0 -175.0 -1000.0 -176.0 -1000.0 -177.0 -1000.0 -178.0 -1000.0 -179.0 -1000.0 -180.0 -1000.0 -181.0 -1000.0 -182.0 -1000.0 -183.0 -1000.0 -184.0 -1000.0 -185.0 -1000.0 -186.0 -1000.0 -187.0 -1000.0 -188.0 -1000.0 -189.0 -1000.0 -190.0 -1000.0 -191.0 -1000.0 -192.0 -1000.0 -193.0 -1000.0 -194.0 -1000.0 -195.0 -1000.0 -196.0 -1000.0 -197.0 -1000.0 -198.0 -1000.0 -199.0 -1000.0 -200.0 -1000.0 -201.0 -1000.0 -202.0 -1000.0 -203.0 -1000.0 -204.0 -1000.0 -205.0 -1000.0 -206.0 -1000.0 -207.0 -1000.0 -208.0 -1000.0 -209.0 -1000.0 -210.0 -1000.0 -211.0 -1000.0 -212.0 -1000.0 -213.0 -1000.0 -214.0 -1000.0 -215.0 -1000.0 -216.0 -1000.0 -217.0 -1000.0 -218.0 -1000.0 -219.0 -1000.0 -220.0 -1000.0 -221.0 -1000.0 -222.0 -1000.0 -223.0 -1000.0 -224.0 -1000.0 -225.0 -1000.0 -226.0 -1000.0 -227.0 -1000.0 -228.0 -1000.0 -229.0 -1000.0 -230.0 -1000.0 -231.0 -1000.0 -232.0 -1000.0 -233.0 -1000.0 -234.0 -1000.0 -235.0 -1000.0 -236.0 -1000.0 -237.0 -1000.0 -238.0 -1000.0 -239.0 -1000.0 -240.0 -1000.0 -241.0 -1000.0 -242.0 -1000.0 -243.0 -1000.0 -244.0 -1000.0 -245.0 -1000.0 -246.0 -1000.0 -247.0 -1000.0 -248.0 -1000.0 -249.0 -1000.0 -250.0 -1000.0 -251.0 -1000.0 -252.0 -1000.0 -253.0 -1000.0 -254.0 -1000.0 -255.0 -1000.0 -256.0 -1000.0 -257.0 -1000.0 -258.0 -1000.0 -259.0 -1000.0 -260.0 -1000.0 -261.0 -1000.0 -262.0 -1000.0 -263.0 -1000.0 -264.0 -1000.0 -265.0 -1000.0 -266.0 -1000.0 -267.0 -1000.0 -268.0 -1000.0 -269.0 -1000.0 -270.0 -1000.0 -271.0 -1000.0 -272.0 -1000.0 -273.0 -1000.0 -274.0 -1000.0 -275.0 -1000.0 -276.0 -1000.0 -277.0 -1000.0 -278.0 -1000.0 -279.0 -1000.0 -280.0 -1000.0 -281.0 -1000.0 -282.0 -1000.0 -283.0 -1000.0 -284.0 -1000.0 -285.0 -1000.0 -286.0 -1000.0 -287.0 -1000.0 -288.0 -1000.0 -289.0 -1000.0 -290.0 -1000.0 -291.0 -1000.0 -292.0 -1000.0 -293.0 -1000.0 -294.0 -1000.0 -295.0 -1000.0 -296.0 -1000.0 -297.0 -1000.0 -298.0 -1000.0 -299.0 -1000.0 -300.0 -1000.0 -301.0 -1000.0 -302.0 -1000.0 -303.0 -1000.0 -304.0 -1000.0 -305.0 -1000.0 -306.0 -1000.0 -307.0 -1000.0 -308.0 -1000.0 -309.0 -1000.0 -310.0 -1000.0 -311.0 -1000.0 -312.0 -1000.0 -313.0 -1000.0 -314.0 -1000.0 -315.0 -1000.0 -316.0 -1000.0 -317.0 -1000.0 -318.0 -1000.0 -319.0 -1000.0 -320.0 -1000.0 -321.0 -1000.0 -322.0 -1000.0 -323.0 -1000.0 -324.0 -1000.0 -325.0 -1000.0 -326.0 -1000.0 -327.0 -1000.0 -328.0 -1000.0 -329.0 -1000.0 -330.0 -1000.0 -331.0 -1000.0 -332.0 -1000.0 -333.0 -1000.0 -334.0 -1000.0 -335.0 -1000.0 -336.0 -1000.0 -337.0 -1000.0 -338.0 -1000.0 -339.0 -1000.0 -340.0 -1000.0 -341.0 -1000.0 -342.0 -1000.0 -343.0 -1000.0 -344.0 -1000.0 -345.0 -1000.0 -346.0 -1000.0 -347.0 -1000.0 -348.0 -1000.0 -349.0 -1000.0 -350.0 -1000.0 -351.0 -1000.0 -352.0 -1000.0 -353.0 -1000.0 -354.0 -1000.0 -355.0 -1000.0 -356.0 -1000.0 -357.0 -1000.0 -358.0 -1000.0 -359.0 -1000.0 -360.0 -1000.0 -361.0 -1000.0 -362.0 -1000.0 -363.0 -1000.0 -364.0 -1000.0 -365.0 -1000.0 -366.0 -1000.0 -367.0 -1000.0 -368.0 -1000.0 -369.0 -1000.0 -370.0 -1000.0 -371.0 -1000.0 -372.0 -1000.0 -373.0 -1000.0 -374.0 -1000.0 -375.0 -1000.0 -376.0 -1000.0 -377.0 -1000.0 -378.0 -1000.0 -379.0 -1000.0 -380.0 -1000.0 -381.0 -1000.0 -382.0 -1000.0 -383.0 -1000.0 -384.0 -1000.0 -385.0 -1000.0 -386.0 -1000.0 -387.0 -1000.0 -388.0 -1000.0 -389.0 -1000.0 -390.0 -1000.0 -391.0 -1000.0 -392.0 -1000.0 -393.0 -1000.0 -394.0 -1000.0 -395.0 -1000.0 -396.0 -1000.0 -397.0 -1000.0 -398.0 -1000.0 -399.0 -1000.0 -400.0 -1000.0 -401.0 -1000.0 -402.0 -1000.0 -403.0 -1000.0 -404.0 -1000.0 -405.0 -1000.0 -406.0 -1000.0 -407.0 -1000.0 -408.0 -1000.0 -409.0 -1000.0 -410.0 -1000.0 -411.0 -1000.0 -412.0 -1000.0 -413.0 -1000.0 -414.0 -1000.0 -415.0 -1000.0 -416.0 -1000.0 -417.0 -1000.0 -418.0 -1000.0 -419.0 -1000.0 -420.0 -1000.0 -421.0 -1000.0 -422.0 -1000.0 -423.0 -1000.0 -424.0 -1000.0 -425.0 -1000.0 -426.0 -1000.0 -427.0 -1000.0 -428.0 -1000.0 -429.0 -1000.0 -430.0 -1000.0 -431.0 -1000.0 -432.0 -1000.0 -433.0 -1000.0 -434.0 -1000.0 -435.0 -1000.0 -436.0 -1000.0 -437.0 -1000.0 -438.0 -1000.0 -439.0 -1000.0 -440.0 -1000.0 -441.0 -1000.0 -442.0 -1000.0 -443.0 -1000.0 -444.0 -1000.0 -445.0 -1000.0 -446.0 -1000.0 -447.0 -1000.0 -448.0 -1000.0 -449.0 -1000.0 -450.0 -1000.0 -451.0 -1000.0 -452.0 -1000.0 -453.0 -1000.0 -454.0 -1000.0 -455.0 -1000.0 -456.0 -1000.0 -457.0 -1000.0 -458.0 -1000.0 -459.0 -1000.0 -460.0 -1000.0 -461.0 -1000.0 -462.0 -1000.0 -463.0 -1000.0 -464.0 -1000.0 -465.0 -1000.0 -466.0 -1000.0 -467.0 -1000.0 -468.0 -1000.0 -469.0 -1000.0 -470.0 -1000.0 -471.0 -1000.0 -472.0 -1000.0 -473.0 -1000.0 -474.0 -1000.0 -475.0 -1000.0 -476.0 -1000.0 -477.0 -1000.0 -478.0 -1000.0 -479.0 -1000.0 -480.0 -1000.0 -481.0 -1000.0 -482.0 -1000.0 -483.0 -1000.0 -484.0 -1000.0 -485.0 -1000.0 -486.0 -1000.0 -487.0 -1000.0 -488.0 -1000.0 -489.0 -1000.0 -490.0 -1000.0 -491.0 -1000.0 -492.0 -1000.0 -493.0 -1000.0 -494.0 -1000.0 -495.0 -1000.0 -496.0 -1000.0 -497.0 -1000.0 -498.0 -1000.0 -499.0 -1000.0 -500.0 -1000.0 -501.0 -1000.0 -502.0 -1000.0 -503.0 -1000.0 -504.0 -1000.0 -505.0 -1000.0 -506.0 -1000.0 -507.0 -1000.0 -508.0 -1000.0 -509.0 -1000.0 -510.0 -1000.0 -511.0 -1000.0 -512.0 -1000.0 -513.0 -1000.0 -514.0 -1000.0 -515.0 -1000.0 -516.0 -1000.0 -517.0 -1000.0 -518.0 -1000.0 -519.0 -1000.0 -520.0 -1000.0 -521.0 -1000.0 -522.0 -1000.0 -523.0 -1000.0 -524.0 -1000.0 -525.0 -1000.0 -526.0 -1000.0 -527.0 -1000.0 -528.0 -1000.0 -529.0 -1000.0 -530.0 -1000.0 -531.0 -1000.0 -532.0 -1000.0 -533.0 -1000.0 -534.0 -1000.0 -535.0 -1000.0 -536.0 -1000.0 -537.0 -1000.0 -538.0 -1000.0 -539.0 -1000.0 -540.0 -1000.0 -541.0 -1000.0 -542.0 -1000.0 -543.0 -1000.0 -544.0 -1000.0 -545.0 -1000.0 -546.0 -1000.0 -547.0 -1000.0 -548.0 -1000.0 -549.0 -1000.0 -550.0 -1000.0 -551.0 -1000.0 -552.0 -1000.0 -553.0 -1000.0 -554.0 -1000.0 -555.0 -1000.0 -556.0 -1000.0 -557.0 -1000.0 -558.0 -1000.0 -559.0 -1000.0 -560.0 -1000.0 -561.0 -1000.0 -562.0 -1000.0 -563.0 -1000.0 -564.0 -1000.0 -565.0 -1000.0 -566.0 -1000.0 -567.0 -1000.0 -568.0 -1000.0 -569.0 -1000.0 -570.0 -1000.0 -571.0 -1000.0 -572.0 -1000.0 -573.0 -1000.0 -574.0 -1000.0 -575.0 -1000.0 -576.0 -1000.0 -577.0 -1000.0 -578.0 -1000.0 -579.0 -1000.0 -580.0 -1000.0 -581.0 -1000.0 -582.0 -1000.0 -583.0 -1000.0 -584.0 -1000.0 -585.0 -1000.0 -586.0 -1000.0 -587.0 -1000.0 -588.0 -1000.0 -589.0 -1000.0 -590.0 -1000.0 -591.0 -1000.0 -592.0 -1000.0 -593.0 -1000.0 -594.0 -1000.0 -595.0 -1000.0 -596.0 -1000.0 -597.0 -1000.0 -598.0 -1000.0 -599.0 -1000.0 -600.0 -1000.0 -601.0 -1000.0 -602.0 -1000.0 -603.0 -1000.0 -604.0 -1000.0 -605.0 -1000.0 -606.0 -1000.0 -607.0 -1000.0 -608.0 -1000.0 -609.0 -1000.0 -610.0 -1000.0 -611.0 -1000.0 -612.0 -1000.0 -613.0 -1000.0 -614.0 -1000.0 -615.0 -1000.0 -616.0 -1000.0 -617.0 -1000.0 -618.0 -1000.0 -619.0 -1000.0 -620.0 -1000.0 -621.0 -1000.0 -622.0 -1000.0 -623.0 -1000.0 -624.0 -1000.0 -625.0 -1000.0 -626.0 -1000.0 -627.0 -1000.0 -628.0 -1000.0 -629.0 -1000.0 -630.0 -1000.0 -631.0 -1000.0 -632.0 -1000.0 -633.0 -1000.0 -634.0 -1000.0 -635.0 -1000.0 -636.0 -1000.0 -637.0 -1000.0 -638.0 -1000.0 -639.0 -1000.0 -640.0 -1000.0 -641.0 -1000.0 -642.0 -1000.0 -643.0 -1000.0 -644.0 -1000.0 -645.0 -1000.0 -646.0 -1000.0 -647.0 -1000.0 -648.0 -1000.0 -649.0 -1000.0 -650.0 -1000.0 -651.0 -1000.0 -652.0 -1000.0 -653.0 -1000.0 -654.0 -1000.0 -655.0 -1000.0 -656.0 -1000.0 -657.0 -1000.0 -658.0 -1000.0 -659.0 -1000.0 -660.0 -1000.0 -661.0 -1000.0 -662.0 -1000.0 -663.0 -1000.0 -664.0 -1000.0 -665.0 -1000.0 -666.0 -1000.0 -667.0 -1000.0 -668.0 -1000.0 -669.0 -1000.0 -670.0 -1000.0 -671.0 -1000.0 -672.0 -1000.0 -673.0 -1000.0 -674.0 -1000.0 -675.0 -1000.0 -676.0 -1000.0 -677.0 -1000.0 -678.0 -1000.0 -679.0 -1000.0 -680.0 -1000.0 -681.0 -1000.0 -682.0 -1000.0 -683.0 -1000.0 -684.0 -1000.0 -685.0 -1000.0 -686.0 -1000.0 -687.0 -1000.0 -688.0 -1000.0 -689.0 -1000.0 -690.0 -1000.0 -691.0 -1000.0 -692.0 -1000.0 -693.0 -1000.0 -694.0 -1000.0 -695.0 -1000.0 -696.0 -1000.0 -697.0 -1000.0 -698.0 -1000.0 -699.0 -1000.0 -700.0 -1000.0 -701.0 -1000.0 -702.0 -1000.0 -703.0 -1000.0 -704.0 -1000.0 -705.0 -1000.0 -706.0 -1000.0 -707.0 -1000.0 -708.0 -1000.0 -709.0 -1000.0 -710.0 -1000.0 -711.0 -1000.0 -712.0 -1000.0 -713.0 -1000.0 -714.0 -1000.0 -715.0 -1000.0 -716.0 -1000.0 -717.0 -1000.0 -718.0 -1000.0 -719.0 -1000.0 -720.0 -1000.0 -721.0 -1000.0 -722.0 -1000.0 -723.0 -1000.0 -724.0 -1000.0 -725.0 -1000.0 -726.0 -1000.0 -727.0 -1000.0 -728.0 -1000.0 -729.0 -1000.0 -730.0 -1000.0 -731.0 -1000.0 -732.0 -1000.0 -733.0 -1000.0 -734.0 -1000.0 -735.0 -1000.0 -736.0 -1000.0 -737.0 -1000.0 -738.0 -1000.0 -739.0 -1000.0 -740.0 -1000.0 -741.0 -1000.0 -742.0 -1000.0 -743.0 -1000.0 -744.0 -1000.0 -745.0 -1000.0 -746.0 -1000.0 -747.0 -1000.0 -748.0 -1000.0 -749.0 -1000.0 -750.0 -1000.0 -751.0 -1000.0 -752.0 -1000.0 -753.0 -1000.0 -754.0 -1000.0 -755.0 -1000.0 -756.0 -1000.0 -757.0 -1000.0 -758.0 -1000.0 -759.0 -1000.0 -760.0 -1000.0 -761.0 -1000.0 -762.0 -1000.0 -763.0 -1000.0 -764.0 -1000.0 -765.0 -1000.0 -766.0 -1000.0 -767.0 -1000.0 -768.0 -1000.0 -769.0 -1000.0 -770.0 -1000.0 -771.0 -1000.0 -772.0 -1000.0 -773.0 -1000.0 -774.0 -1000.0 -775.0 -1000.0 -776.0 -1000.0 -777.0 -1000.0 -778.0 -1000.0 -779.0 -1000.0 -780.0 -1000.0 -781.0 -1000.0 -782.0 -1000.0 -783.0 -1000.0 -784.0 -1000.0 -785.0 -1000.0 -786.0 -1000.0 -787.0 -1000.0 -788.0 -1000.0 -789.0 -1000.0 -790.0 -1000.0 -791.0 -1000.0 -792.0 -1000.0 -793.0 -1000.0 -794.0 -1000.0 -795.0 -1000.0 -796.0 -1000.0 -797.0 -1000.0 -798.0 -1000.0 -799.0 -1000.0 -800.0 -1000.0 -801.0 -1000.0 -802.0 -1000.0 -803.0 -1000.0 -804.0 -1000.0 -805.0 -1000.0 -806.0 -1000.0 -807.0 -1000.0 -808.0 -1000.0 -809.0 -1000.0 -810.0 -1000.0 -811.0 -1000.0 -812.0 -1000.0 -813.0 -1000.0 -814.0 -1000.0 -815.0 -1000.0 -816.0 -1000.0 -817.0 -1000.0 -818.0 -1000.0 -819.0 -1000.0 -820.0 -1000.0 -821.0 -1000.0 -822.0 -1000.0 -823.0 -1000.0 -824.0 -1000.0 -825.0 -1000.0 -826.0 -1000.0 -827.0 -1000.0 -828.0 -1000.0 -829.0 -1000.0 -830.0 -1000.0 -831.0 -1000.0 -832.0 -1000.0 -833.0 -1000.0 -834.0 -1000.0 -835.0 -1000.0 -836.0 -1000.0 -837.0 -1000.0 -838.0 -1000.0 -839.0 -1000.0 -840.0 -1000.0 -841.0 -1000.0 -842.0 -1000.0 -843.0 -1000.0 -844.0 -1000.0 -845.0 -1000.0 -846.0 -1000.0 -847.0 -1000.0 -848.0 -1000.0 -849.0 -1000.0 -850.0 -1000.0 -851.0 -1000.0 -852.0 -1000.0 -853.0 -1000.0 -854.0 -1000.0 -855.0 -1000.0 -856.0 -1000.0 -857.0 -1000.0 -858.0 -1000.0 -859.0 -1000.0 -860.0 -1000.0 -861.0 -1000.0 -862.0 -1000.0 -863.0 -1000.0 -864.0 -1000.0 -865.0 -1000.0 -866.0 -1000.0 -867.0 -1000.0 -868.0 -1000.0 -869.0 -1000.0 -870.0 -1000.0 -871.0 -1000.0 -872.0 -1000.0 -873.0 -1000.0 -874.0 -1000.0 -875.0 -1000.0 -876.0 -1000.0 -877.0 -1000.0 -878.0 -1000.0 -879.0 -1000.0 -880.0 -1000.0 -881.0 -1000.0 -882.0 -1000.0 -883.0 -1000.0 -884.0 -1000.0 -885.0 -1000.0 -886.0 -1000.0 -887.0 -1000.0 -888.0 -1000.0 -889.0 -1000.0 -890.0 -1000.0 -891.0 -1000.0 -892.0 -1000.0 -893.0 -1000.0 -894.0 -1000.0 -895.0 -1000.0 -896.0 -1000.0 -897.0 -1000.0 -898.0 -1000.0 -899.0 -1000.0 -900.0 -1000.0 -901.0 -1000.0 -902.0 -1000.0 -903.0 -1000.0 -904.0 -1000.0 -905.0 -1000.0 -906.0 -1000.0 -907.0 -1000.0 -908.0 -1000.0 -909.0 -1000.0 -910.0 -1000.0 -911.0 -1000.0 -912.0 -1000.0 -913.0 -1000.0 -914.0 -1000.0 -915.0 -1000.0 -916.0 -1000.0 -917.0 -1000.0 -918.0 -1000.0 -919.0 -1000.0 -920.0 -1000.0 -921.0 -1000.0 -922.0 -1000.0 -923.0 -1000.0 -924.0 -1000.0 -925.0 -1000.0 -926.0 -1000.0 -927.0 -1000.0 -928.0 -1000.0 -929.0 -1000.0 -930.0 -1000.0 -931.0 -1000.0 -932.0 -1000.0 -933.0 -1000.0 -934.0 -1000.0 -935.0 -1000.0 -936.0 -1000.0 -937.0 -1000.0 -938.0 -1000.0 -939.0 -1000.0 -940.0 -1000.0 -941.0 -1000.0 -942.0 -1000.0 -943.0 -1000.0 -944.0 -1000.0 -945.0 -1000.0 -946.0 -1000.0 -947.0 -1000.0 -948.0 -1000.0 -949.0 -1000.0 -950.0 -1000.0 -951.0 -1000.0 -952.0 -1000.0 -953.0 -1000.0 -954.0 -1000.0 -955.0 -1000.0 -956.0 -1000.0 -957.0 -1000.0 -958.0 -1000.0 -959.0 -1000.0 -960.0 -1000.0 -961.0 -1000.0 -962.0 -1000.0 -963.0 -1000.0 -964.0 -1000.0 -965.0 -1000.0 -966.0 -1000.0 -967.0 -1000.0 -968.0 -1000.0 -969.0 -1000.0 -970.0 -1000.0 -971.0 -1000.0 -972.0 -1000.0 -973.0 -1000.0 -974.0 -1000.0 -975.0 -1000.0 -976.0 -1000.0 -977.0 -1000.0 -978.0 -1000.0 -979.0 -1000.0 -980.0 -1000.0 -981.0 -1000.0 -982.0 -1000.0 -983.0 -1000.0 -984.0 -1000.0 -985.0 -1000.0 -986.0 -1000.0 -987.0 -1000.0 -988.0 -1000.0 -989.0 -1000.0 -990.0 -1000.0 -991.0 -1000.0 -992.0 -1000.0 -993.0 -1000.0 -994.0 -1000.0 -995.0 -1000.0 -996.0 -1000.0 -997.0 -1000.0 -998.0 -1000.0 -999.0 -1000.0 -1000.0 -941.0 -1000.0 -882.0 -1000.0 -823.0 -1000.0 -764.0 -1000.0 -705.0 -1000.0 -646.0 -1000.0 -587.0 -1000.0 -528.0 -1000.0 -469.0 -1000.0 -410.0 -1000.0 -351.0 -1000.0 -292.0 -1000.0 -233.0 -1000.0 -174.0 -1000.0 -160.0 -1000.0 -159.6 -992.95 -159.5 -989.0 -159.25 -984.95 -159.0 -981.0 -160.0 -981.0 Q-160.0 -979.0 -159.55 -977.1 L-159.0 -977.0 -159.0 -972.0 -159.0 -971.0 -160.0 -971.0 Q-160.0 -969.0 -159.55 -967.1 L-159.0 -967.0 Q-158.65 -961.35 -157.6 -956.1 L-157.45 -954.95 Q-156.95 -949.05 -158.0 -953.0 -159.65 -953.15 -158.9 -951.05 -157.7 -947.8 -158.4 -943.05 L-158.4 -942.1 Q-157.85 -939.15 -158.4 -935.05 L-158.45 -934.05 Q-158.25 -930.75 -157.3 -927.2 -155.9 -922.2 -159.0 -924.0 -158.1 -920.45 -158.05 -916.0 -158.0 -914.0 -157.35 -912.25 -156.8 -910.75 -157.6 -908.2 -157.95 -906.95 -157.55 -905.1 -156.85 -902.15 -157.4 -898.05 L-157.5 -897.0 -157.5 -891.0 -157.5 -890.0 Q-157.3 -885.7 -157.5 -881.0 L-157.4 -880.1 Q-156.85 -877.15 -157.4 -873.05 L-157.5 -872.0 -157.5 -868.0 -157.35 -864.05 Q-157.2 -861.8 -157.45 -859.05 L-157.45 -858.05 Q-157.25 -854.75 -157.45 -851.05 L-157.45 -850.05 Q-157.25 -846.75 -157.45 -843.05 L-157.5 -842.0 Q-157.5 -840.0 -157.65 -838.05 -157.8 -835.8 -157.55 -833.05 L-157.5 -832.0 -157.5 -820.0 -157.5 -819.0 Q-157.75 -812.75 -157.5 -807.0 L-157.55 -806.05 Q-157.75 -802.75 -157.55 -799.05 -157.5 -798.5 -157.6 -798.2 -157.95 -796.95 -157.35 -795.25 -155.9 -791.25 -159.0 -790.0 L-158.7 -788.1 -158.55 -787.05 Q-158.8 -784.8 -158.55 -782.05 L-158.55 -781.1 Q-159.0 -778.5 -158.55 -775.05 -158.5 -774.5 -158.6 -774.25 -159.2 -772.75 -158.65 -770.1 L-158.5 -769.0 -158.5 -765.0 -158.55 -763.0 -158.5 -753.0 -158.6 -752.25 Q-159.2 -750.75 -158.65 -748.1 L-158.6 -747.2 Q-158.95 -745.95 -158.45 -744.15 -156.9 -739.2 -160.0 -741.0 L-159.7 -739.1 -159.5 -738.0 -159.5 -734.0 -159.5 -733.0 -159.5 -724.0 -159.55 -723.05 Q-159.8 -720.8 -159.55 -718.05 L-159.5 -717.5 Q-160.65 -717.15 -160.35 -714.95 -160.0 -712.0 -160.7 -709.15 -160.95 -707.95 -160.6 -706.05 L-160.6 -705.2 Q-161.7 -701.65 -160.0 -699.0 L-160.5 -698.95 Q-161.35 -693.35 -164.0 -690.0 L-163.7 -688.1 -163.5 -687.5 Q-165.4 -685.5 -163.5 -683.5 L-163.4 -683.1 Q-162.55 -678.65 -165.0 -676.0 -164.1 -672.45 -164.35 -671.75 -165.2 -669.3 -164.6 -667.75 L-164.5 -667.0 Q-164.35 -661.85 -165.0 -658.0 L-166.0 -658.0 Q-166.0 -656.5 -165.55 -655.15 L-165.0 -655.0 Q-166.35 -653.35 -166.1 -650.0 -166.0 -648.5 -165.5 -647.2 -163.7 -642.8 -167.0 -641.0 L-166.7 -639.1 -166.5 -638.5 Q-168.35 -637.0 -166.5 -635.5 L-166.4 -635.25 Q-164.7 -630.8 -168.0 -629.0 L-167.7 -627.1 -167.5 -626.5 Q-169.35 -625.0 -167.5 -623.5 L-167.4 -623.25 Q-165.7 -618.8 -169.0 -617.0 L-168.7 -615.1 -168.5 -614.5 Q-170.35 -613.0 -168.5 -611.5 L-168.5 -611.0 -168.5 -607.0 Q-168.5 -605.6 -170.0 -608.0 -169.1 -602.1 -169.9 -598.95 L-170.0 -598.0 -171.0 -598.0 Q-171.0 -597.0 -170.6 -596.2 -170.5 -596.0 -170.0 -596.0 -170.95 -594.95 -170.4 -593.2 -169.25 -589.8 -171.0 -588.0 -171.05 -591.3 -171.8 -588.95 -172.7 -586.3 -171.5 -585.5 L-171.45 -585.1 Q-170.75 -580.3 -172.0 -578.0 -173.0 -581.9 -172.55 -576.05 L-172.5 -575.5 Q-173.7 -574.2 -173.55 -570.95 L-173.4 -570.15 Q-172.45 -565.8 -175.0 -564.0 L-174.9 -563.0 Q-173.6 -557.1 -176.0 -555.0 -176.35 -549.35 -176.95 -544.0 -177.6 -538.6 -178.4 -533.9 L-182.5 -512.1 -183.45 -506.05 -183.5 -505.0 Q-183.25 -500.25 -185.0 -498.0 L-185.0 -494.0 -185.0 -493.0 -186.0 -493.0 Q-186.0 -492.0 -185.6 -491.2 -185.5 -491.0 -185.0 -491.0 L-184.9 -490.0 Q-184.35 -487.65 -183.0 -486.0 -183.05 -480.05 -184.35 -475.1 L-184.55 -473.95 Q-185.2 -467.2 -186.85 -461.95 -187.9 -458.4 -188.0 -454.0 L-188.7 -452.9 -189.35 -451.15 Q-192.65 -443.65 -195.0 -435.0 L-195.8 -435.25 Q-197.95 -437.05 -199.0 -440.0 -200.0 -441.45 -201.15 -438.05 -202.5 -434.0 -204.25 -430.1 L-204.7 -428.9 Q-205.55 -426.05 -206.5 -423.8 L-214.65 -404.85 -223.65 -383.85 -224.35 -382.15 Q-226.5 -377.0 -229.0 -372.0 L-229.0 -370.0 -229.0 -369.0 Q-228.5 -368.5 -228.5 -368.0 L-229.0 -368.0 -228.8 -367.1 Q-227.15 -363.85 -225.0 -361.0 L-225.2 -360.1 Q-229.3 -352.3 -232.0 -343.0 -234.65 -341.65 -235.8 -338.9 -237.0 -336.0 -240.0 -335.0 L-240.25 -335.75 -245.0 -341.0 -245.0 -340.0 -245.0 -339.0 -246.0 -339.0 -246.0 -338.0 -246.65 -337.75 Q-250.1 -332.6 -254.0 -328.0 L-254.0 -327.0 -254.0 -326.0 -255.0 -326.0 -255.0 -325.0 Q-260.95 -317.45 -265.4 -308.2 -269.55 -299.55 -273.0 -290.0 L-272.3 -289.75 Q-270.15 -286.85 -267.0 -285.0 L-267.1 -284.05 Q-269.55 -273.55 -276.0 -267.0 L-276.0 -266.0 -276.0 -265.0 Q-275.5 -264.5 -275.5 -264.0 L-276.0 -264.0 -277.0 -264.0 -278.0 -264.0 -278.0 -263.0 Q-280.0 -261.55 -281.55 -264.25 -283.85 -268.35 -287.0 -267.0 L-287.0 -266.0 Q-290.75 -262.0 -291.6 -260.35 L-294.45 -255.25 -297.4 -249.7 -305.6 -232.8 Q-308.1 -227.6 -309.0 -221.0 -307.0 -220.5 -305.95 -219.05 L-304.9 -218.25 Q-301.55 -217.0 -303.0 -216.0 -303.0 -215.5 -303.15 -215.05 -304.15 -212.15 -304.0 -208.0 L-304.7 -206.9 -305.4 -205.25 Q-308.35 -199.85 -312.0 -195.0 L-312.8 -195.25 Q-315.3 -197.2 -319.0 -198.0 -320.0 -199.9 -321.25 -197.1 -323.15 -192.65 -325.35 -188.65 -328.6 -182.6 -331.15 -176.05 -335.35 -165.35 -337.0 -152.0 L-336.05 -151.85 Q-332.05 -150.45 -329.0 -148.0 L-329.15 -147.05 Q-330.65 -143.15 -330.0 -137.0 L-330.55 -136.85 Q-332.65 -131.15 -336.0 -127.0 L-337.9 -127.3 -339.1 -127.75 Q-342.7 -129.2 -344.0 -128.0 -351.5 -113.5 -353.4 -93.95 -354.0 -88.0 -354.0 -82.0 L-353.0 -81.95 Q-349.45 -81.55 -347.0 -80.0 L-346.5 -79.9 Q-343.65 -66.9 -349.0 -58.0 L-349.95 -58.1 Q-354.75 -59.25 -357.0 -58.0 -358.25 -55.75 -358.75 -52.95 -359.0 -51.5 -359.5 -50.15 -360.7 -46.7 -360.45 -42.05 -360.25 -37.75 -362.0 -36.0 -362.2 -22.3 -359.55 -11.1 L-359.0 -11.0 -351.05 -10.5 -351.0 -10.0 -350.75 -3.9 Q-350.35 -0.65 -349.6 1.25 -349.5 1.5 -349.55 2.05 -349.95 5.5 -350.55 8.1 -351.0 10.0 -351.8 11.6 -352.0 12.0 -353.0 12.0 L-354.0 12.0 Q-359.25 10.75 -360.45 13.85 L-361.0 14.0 Q-363.35 38.4 -357.55 58.85 L-357.0 59.0 Q-354.35 60.65 -349.95 59.15 L-349.0 59.0 Q-346.5 64.0 -345.5 70.1 -344.75 74.8 -345.3 78.1 -345.8 81.2 -348.0 82.0 -352.45 81.55 -353.8 84.1 L-354.0 85.0 Q-353.9 111.9 -344.2 129.1 L-344.0 130.0 -336.95 128.1 -336.0 128.0 Q-332.25 132.25 -330.55 138.9 L-330.0 139.0 Q-330.6 144.6 -329.2 148.05 L-329.0 149.0 Q-332.05 151.45 -336.05 152.85 L-337.0 153.0 Q-335.35 166.35 -331.45 177.15 -326.7 190.2 -319.0 200.0 -316.15 197.85 -312.9 196.2 L-312.0 196.0 -307.7 201.75 -307.0 202.0 Q-305.65 205.15 -304.55 208.85 L-304.0 209.0 Q-304.15 213.15 -303.15 216.05 -303.0 216.5 -303.0 217.0 -301.55 218.0 -304.9 219.25 L-305.95 220.05 Q-307.0 221.5 -309.0 222.0 -303.25 245.75 -290.5 262.35 L-289.5 263.65 -287.5 266.35 Q-287.0 267.0 -286.7 267.9 L-286.0 269.0 -280.25 263.75 Q-280.0 263.5 -280.0 263.0 -276.05 266.55 -272.7 270.75 L-272.0 271.0 -269.15 280.05 -267.65 284.25 Q-267.05 285.95 -268.0 287.0 L-269.0 288.0 -270.0 288.0 -270.0 289.0 -270.6 289.2 Q-271.3 290.7 -273.0 291.0 L-272.75 291.75 -272.0 292.0 Q-271.15 298.15 -268.45 302.3 L-267.6 303.8 Q-261.15 317.15 -253.0 329.0 L-252.75 329.75 -252.0 330.0 Q-249.65 336.65 -245.25 341.25 -245.0 341.5 -245.0 342.0 -242.3 338.7 -238.85 336.25 L-238.0 336.0 -237.75 336.75 -237.0 337.0 Q-237.0 338.0 -236.6 338.8 -236.5 339.0 -236.0 339.0 L-235.75 339.75 -235.0 340.0 Q-232.15 345.65 -229.55 351.25 L-226.4 357.7 Q-224.7 361.15 -226.0 363.0 L-229.4 369.8 -230.0 370.0 Q-225.45 380.45 -221.35 391.15 -217.15 402.15 -212.5 412.25 -205.8 426.8 -200.0 442.0 L-196.2 435.9 -196.0 435.0 Q-191.5 444.0 -188.55 454.85 L-188.0 455.0 Q-187.9 459.4 -186.55 462.8 -186.05 464.05 -185.9 466.0 -185.5 471.5 -184.3 476.1 -183.05 481.05 -183.0 487.0 -184.8 489.2 -185.5 492.9 L-186.0 493.0 Q-183.55 505.55 -181.4 518.05 -180.0 526.0 -178.9 534.0 -177.8 541.8 -176.0 549.0 L-177.0 549.0 Q-177.0 550.0 -176.6 550.8 -176.5 551.0 -176.0 551.0 -176.7 555.2 -175.45 557.3 -175.0 558.0 -175.1 559.0 -175.35 562.35 -174.0 564.0 L-175.0 564.0 Q-175.0 565.0 -174.6 565.8 L-174.0 566.0 Q-174.7 570.2 -173.0 571.0 L-172.5 570.5 -172.3 571.1 Q-172.0 572.0 -172.0 573.0 -174.45 576.0 -172.25 579.15 -172.0 579.5 -172.0 580.0 L-173.0 580.0 Q-173.0 581.0 -172.6 581.8 L-172.0 582.0 Q-170.95 584.5 -171.4 587.1 -171.95 590.3 -171.2 587.95 -170.5 585.75 -170.0 588.0 -171.0 590.45 -170.55 593.95 L-170.55 594.55 Q-172.45 597.0 -170.0 599.0 -169.2 595.0 -169.45 599.95 L-169.45 600.95 Q-169.2 602.75 -170.0 607.0 -166.7 608.8 -168.4 613.25 -168.75 614.2 -168.55 617.05 L-168.7 618.1 Q-169.7 620.7 -168.0 621.0 -167.2 617.0 -167.45 621.95 L-167.45 622.9 Q-166.95 626.0 -168.0 630.0 -164.55 632.25 -166.4 637.25 L-166.5 637.5 Q-168.35 639.0 -166.5 640.5 L-166.7 641.1 -167.0 643.0 Q-163.7 644.8 -165.4 649.25 L-165.6 649.7 Q-166.7 651.75 -165.35 655.75 -165.1 656.45 -166.0 660.0 -164.3 660.3 -164.5 663.0 L-164.0 663.0 Q-166.2 667.0 -164.6 671.25 L-164.6 672.05 Q-164.95 673.95 -164.6 675.2 -164.5 675.5 -164.7 676.1 L-165.0 678.0 Q-163.3 678.3 -163.5 681.0 L-163.0 681.0 Q-165.1 683.35 -163.55 685.4 L-163.45 685.95 Q-163.1 689.55 -163.55 690.25 -164.0 691.0 -164.0 692.0 -161.35 695.35 -160.5 700.95 L-160.0 701.0 Q-161.7 703.65 -160.6 707.2 -160.5 707.5 -160.8 708.1 L-161.0 709.0 Q-158.55 710.05 -159.4 714.1 L-159.5 715.0 -159.45 715.95 Q-159.1 719.55 -159.45 720.25 -160.7 722.7 -159.5 723.6 -159.0 724.0 -159.3 724.9 L-159.5 726.0 -159.5 730.0 -159.5 731.0 -159.5 735.0 Q-159.6 744.35 -159.2 761.0 L-158.55 780.0 Q-158.5 780.5 -158.6 780.75 -160.0 784.05 -158.6 788.2 -158.5 788.5 -158.55 789.05 -158.8 794.0 -158.0 790.0 -156.1 792.45 -157.35 796.2 -157.95 797.95 -157.6 799.2 L-157.65 800.1 Q-158.7 803.7 -157.55 805.4 L-157.6 806.05 Q-158.15 810.15 -157.6 813.1 L-157.45 813.95 Q-157.2 818.25 -157.7 820.1 -158.7 823.7 -157.55 825.4 L-157.5 826.0 -157.35 835.0 Q-157.2 839.25 -157.7 841.1 -158.7 844.7 -157.55 846.4 L-157.5 847.0 -157.5 856.0 -157.5 857.0 -157.45 857.95 Q-157.1 861.55 -157.3 862.2 -158.55 866.55 -157.6 869.2 L-157.6 870.05 Q-157.95 871.95 -157.6 873.2 L-157.6 874.05 Q-157.95 875.95 -157.6 877.2 L-157.6 878.05 Q-157.95 879.95 -157.6 881.2 L-157.5 882.0 Q-157.25 890.85 -157.5 903.0 L-157.4 904.05 Q-157.05 905.95 -157.35 907.2 -158.0 909.5 -157.6 911.95 L-157.5 913.0 -157.65 917.05 Q-158.0 921.0 -158.0 925.0 L-159.0 925.0 -158.55 927.85 -158.0 928.0 Q-158.0 930.5 -158.4 932.95 L-158.45 933.95 -158.05 941.0 Q-158.0 942.0 -158.4 942.25 -159.65 942.9 -158.95 945.0 -156.3 953.45 -158.35 962.9 L-158.5 963.95 Q-158.25 968.2 -160.0 970.0 -160.0 975.85 -158.6 972.15 -157.8 969.9 -158.4 973.95 L-158.6 975.05 Q-159.0 978.0 -159.0 981.0 L-160.0 981.0 Q-160.0 983.0 -159.55 984.9 L-159.0 985.0 -158.9 986.0 Q-158.3 989.7 -160.0 991.0 -160.7 994.2 -159.25 995.3 -159.0 995.5 -159.0 996.0 L-160.0 996.0 -160.0 999.0 -160.0 1000.0 M-164.0 -695.0 L-164.0 -694.0 -164.0 -693.0 Q-161.6 -693.5 -164.0 -695.0 M-163.0 -698.0 L-163.0 -697.0 Q-160.6 -697.5 -163.0 -699.0 L-163.0 -698.0 M-168.0 -632.0 L-167.75 -631.25 Q-166.1 -629.6 -168.0 -632.0 M-169.0 -620.0 L-168.75 -619.25 Q-167.1 -617.6 -169.0 -620.0 M-166.75 -643.25 Q-165.1 -641.6 -167.0 -644.0 L-166.75 -643.25 M-170.0 608.0 L-169.75 608.75 Q-168.1 610.45 -170.0 608.0 M-166.75 644.75 Q-165.1 646.45 -167.0 644.0 L-166.75 644.75 M-167.75 631.75 Q-166.1 633.45 -168.0 631.0 L-167.75 631.75 M-163.0 698.0 L-163.0 699.0 -163.0 700.0 Q-160.6 699.5 -163.0 698.0 M-164.0 695.0 L-164.0 696.0 Q-161.6 695.5 -164.0 694.0 L-164.0 695.0 M-159.0 953.0 L-159.0 954.0 -159.0 955.0 Q-156.6 954.5 -159.0 953.0" fill="#101010" fill-rule="evenodd" stroke="none"/>
    <path d="M245.05 337.45 Q242.85 337.15 242.0 335.0 244.65 333.3 245.4 337.1 245.5 337.5 245.05 337.45 M-241.95 -333.55 Q-244.15 -333.85 -245.0 -336.0 -242.35 -337.7 -241.6 -333.9 -241.5 -333.5 -241.95 -333.55" fill="#181818" fill-rule="evenodd" stroke="none"/>
    <path d="M-272.0 292.0 L-272.75 291.75 -273.0 291.0 Q-271.3 290.7 -270.6 289.2 L-270.0 289.0 -270.0 290.0 -270.25 290.75 Q-271.0 291.5 -272.0 292.0" fill="#0c0c0c" fill-rule="evenodd" stroke="none"/>
  </g>
</svg>
