<?xml version="1.0" encoding="UTF-8" standalone="no"?>
<svg xmlns:ffdec="https://www.free-decompiler.com/flash" xmlns:xlink="http://www.w3.org/1999/xlink" ffdec:objectType="shape" height="84.0px" width="65.4px" xmlns="http://www.w3.org/2000/svg">
  <g transform="matrix(1.0, 0.0, 0.0, 1.0, 32.5, 93.9)">
    <path d="M5.65 -87.0 Q9.75 -78.2 10.8 -63.45 11.5 -52.75 16.65 -43.1 19.5 -37.75 26.35 -29.05 31.95 -22.0 32.7 -18.8 33.85 -14.0 28.35 -9.9 25.95 -17.3 20.05 -22.8 11.75 -30.6 -0.35 -30.35 -13.05 -30.05 -21.25 -21.85 -25.45 -17.6 -27.9 -12.3 -33.5 -16.45 -32.3 -20.55 -31.55 -23.05 -25.75 -29.3 -19.1 -36.5 -16.05 -42.1 -11.35 -50.7 -10.9 -62.4 -10.15 -79.3 -6.15 -87.85 -3.3 -93.95 -0.4 -93.9 2.4 -93.85 5.65 -87.0" fill="#ec570f" fill-opacity="0.9019608" fill-rule="evenodd" stroke="none"/>
  </g>
</svg>
