<?xml version="1.0" encoding="UTF-8" standalone="no"?>
<svg xmlns:ffdec="https://www.free-decompiler.com/flash" xmlns:xlink="http://www.w3.org/1999/xlink" ffdec:objectType="shape" height="8.0px" width="102.0px" xmlns="http://www.w3.org/2000/svg">
  <g transform="matrix(1.0, 0.0, 0.0, 1.0, 50.55, 3.95)">
    <path d="M47.45 -3.95 Q49.05 -4.0 50.25 -2.8 51.45 -1.6 51.45 0.05 51.45 1.65 50.25 2.85 49.05 4.0 47.45 4.05 45.8 4.0 44.6 2.85 43.4 1.65 43.45 0.05 43.4 -1.6 44.6 -2.8 45.8 -4.0 47.45 -3.95 M-46.55 -3.95 Q-44.95 -4.0 -43.75 -2.8 -42.55 -1.6 -42.55 0.05 -42.55 1.65 -43.75 2.85 -44.95 4.0 -46.55 4.05 -48.2 4.0 -49.4 2.85 -50.6 1.65 -50.55 0.05 -50.6 -1.6 -49.4 -2.8 -48.2 -4.0 -46.55 -3.95" fill="#1668e2" fill-opacity="0.4" fill-rule="evenodd" stroke="none"/>
  </g>
</svg>
