<?xml version="1.0" encoding="UTF-8" standalone="no"?>
<svg xmlns:ffdec="https://www.free-decompiler.com/flash" xmlns:xlink="http://www.w3.org/1999/xlink" ffdec:objectType="shape" height="90.0px" width="90.0px" xmlns="http://www.w3.org/2000/svg">
  <g transform="matrix(1.0, 0.0, 0.0, 1.0, 44.75, 45.1)">
    <path d="M35.35 -0.1 Q35.3 -14.6 25.0 -24.9 14.75 -35.2 0.25 -35.2 -14.3 -35.2 -24.6 -24.9 -34.9 -14.6 -34.85 -0.1 -34.9 14.4 -24.6 24.7 -14.3 35.0 0.25 35.0 14.75 35.0 25.0 24.7 35.3 14.4 35.35 -0.1 M32.0 -31.95 Q45.2 -18.75 45.25 -0.1 45.2 18.5 32.0 31.65 18.85 44.85 0.25 44.9 -18.4 44.85 -31.6 31.65 -44.8 18.5 -44.75 -0.1 -44.8 -18.75 -31.6 -31.95 -18.4 -45.1 0.25 -45.1 18.85 -45.1 32.0 -31.95" fill="#467dff" fill-rule="evenodd" stroke="none"/>
  </g>
</svg>
