<?xml version="1.0" encoding="UTF-8" standalone="no"?>
<svg xmlns:ffdec="https://www.free-decompiler.com/flash" xmlns:xlink="http://www.w3.org/1999/xlink" ffdec:objectType="shape" height="94.5px" width="94.5px" xmlns="http://www.w3.org/2000/svg">
  <g transform="matrix(1.0, 0.0, 0.0, 1.0, 47.0, 47.35)">
    <path d="M21.05 20.75 Q29.7 12.1 29.7 -0.05 29.7 -12.3 21.05 -20.95 12.45 -29.55 0.25 -29.55 -11.95 -29.55 -20.65 -20.95 -29.25 -12.3 -29.25 -0.05 -29.25 12.1 -20.65 20.75 -11.95 29.4 0.25 29.4 12.45 29.4 21.05 20.75 M33.6 33.25 Q19.8 47.1 0.25 47.15 -19.3 47.1 -33.2 33.25 -47.05 19.4 -47.0 -0.1 -47.05 -19.7 -33.2 -33.55 -19.3 -47.35 0.25 -47.35 19.8 -47.35 33.6 -33.55 47.45 -19.7 47.5 -0.1 47.45 19.4 33.6 33.25" fill="#467dff" fill-rule="evenodd" stroke="none"/>
  </g>
</svg>
