<?xml version="1.0" encoding="UTF-8" standalone="no"?>
<svg xmlns:ffdec="https://www.free-decompiler.com/flash" xmlns:xlink="http://www.w3.org/1999/xlink" ffdec:objectType="shape" height="100.0px" width="100.0px" xmlns="http://www.w3.org/2000/svg">
  <g transform="matrix(1.0, 0.0, 0.0, 1.0, 50.2, 49.85)">
    <path d="M-0.2 -26.85 Q-11.4 -26.9 -19.25 -18.95 -27.2 -11.1 -27.2 0.1 -27.2 11.3 -19.25 19.25 -11.4 27.1 -0.2 27.1 11.0 27.1 18.9 19.25 26.8 11.3 26.8 0.1 26.8 -11.1 18.9 -18.95 11.0 -26.9 -0.2 -26.85 M-0.2 -49.85 Q20.55 -49.85 35.2 -35.2 49.8 -20.55 49.8 0.15 49.8 20.9 35.2 35.55 20.55 50.15 -0.2 50.15 -20.9 50.15 -35.55 35.55 -50.2 20.9 -50.2 0.15 -50.2 -20.55 -35.55 -35.2 -20.9 -49.85 -0.2 -49.85" fill="#467dff" fill-rule="evenodd" stroke="none"/>
  </g>
</svg>
