<?xml version="1.0" encoding="UTF-8" standalone="no"?>
<svg xmlns:ffdec="https://www.free-decompiler.com/flash" xmlns:xlink="http://www.w3.org/1999/xlink" ffdec:objectType="shape" height="94.2px" width="87.5px" xmlns="http://www.w3.org/2000/svg">
  <g transform="matrix(1.0, 0.0, 0.0, 1.0, 41.05, 64.4)">
    <path d="M6.95 -63.4 L6.7 -62.7 Q6.4 -62.4 5.95 -62.4 5.55 -62.4 5.25 -62.7 4.95 -63.0 4.95 -63.4 4.95 -63.8 5.25 -64.1 5.55 -64.4 5.95 -64.4 L6.7 -64.1 6.95 -63.4 M1.6 -57.8 Q1.0 -58.4 1.0 -59.2 1.0 -60.05 1.6 -60.6 2.15 -61.2 3.0 -61.2 3.85 -61.2 4.45 -60.6 5.0 -60.05 5.0 -59.2 5.0 -58.4 4.45 -57.8 3.85 -57.2 3.0 -57.2 2.15 -57.2 1.6 -57.8 M4.15 -53.35 Q4.15 -52.3 3.45 -51.55 2.7 -50.85 1.65 -50.85 0.55 -50.85 -0.15 -51.55 -0.85 -52.3 -0.85 -53.35 -0.85 -54.4 -0.15 -55.1 0.55 -55.85 1.65 -55.85 2.7 -55.85 3.45 -55.1 4.15 -54.4 4.15 -53.35 M32.1 -43.9 L32.55 -42.85 Q32.55 -42.25 32.1 -41.8 31.65 -41.4 31.05 -41.35 30.4 -41.4 30.0 -41.8 29.55 -42.25 29.55 -42.85 29.55 -43.5 30.0 -43.9 30.4 -44.35 31.05 -44.35 31.65 -44.35 32.1 -43.9 M34.35 -44.1 L33.65 -44.4 Q33.35 -44.7 33.35 -45.1 33.35 -45.55 33.65 -45.8 L34.35 -46.1 Q34.75 -46.1 35.05 -45.8 L35.35 -45.1 35.05 -44.4 Q34.75 -44.15 34.35 -44.1 M29.65 -39.2 Q29.65 -38.2 28.95 -37.45 28.2 -36.75 27.15 -36.7 26.1 -36.75 25.4 -37.45 24.65 -38.2 24.65 -39.2 24.65 -40.25 25.4 -40.95 26.1 -41.7 27.15 -41.7 28.2 -41.7 28.95 -40.95 29.65 -40.25 29.65 -39.2 M21.65 -26.0 Q21.65 -24.15 20.35 -22.85 19.0 -21.55 17.15 -21.5 15.25 -21.55 13.95 -22.85 12.65 -24.15 12.65 -26.0 12.65 -27.85 13.95 -29.15 15.25 -30.5 17.15 -30.5 19.0 -30.5 20.35 -29.15 21.65 -27.85 21.65 -26.0 M24.9 -31.15 Q23.9 -30.1 22.45 -30.1 20.95 -30.1 19.95 -31.15 18.95 -32.15 18.95 -33.6 18.95 -35.05 19.95 -36.05 20.95 -37.1 22.45 -37.1 23.9 -37.1 24.9 -36.05 25.9 -35.05 25.95 -33.6 25.9 -32.15 24.9 -31.15 M3.3 -47.95 Q4.3 -47.0 4.3 -45.5 4.3 -44.05 3.3 -43.0 2.25 -42.0 0.8 -42.0 -0.7 -42.0 -1.7 -43.0 -2.75 -44.05 -2.7 -45.5 -2.75 -47.0 -1.7 -47.95 -0.7 -49.0 0.8 -49.0 2.25 -49.0 3.3 -47.95 M3.05 -39.05 Q4.15 -37.9 4.15 -36.25 4.15 -34.55 3.05 -33.35 1.85 -32.25 0.15 -32.25 -1.55 -32.25 -2.7 -33.35 -3.85 -34.55 -3.85 -36.25 -3.85 -37.9 -2.7 -39.05 -1.55 -40.25 0.15 -40.25 1.85 -40.25 3.05 -39.05 M4.75 -26.2 Q4.75 -24.3 3.5 -23.0 2.15 -21.7 0.25 -21.7 -1.65 -21.7 -2.95 -23.0 -4.25 -24.3 -4.25 -26.2 -4.25 -28.1 -2.95 -29.35 -1.65 -30.7 0.25 -30.7 2.15 -30.7 3.5 -29.35 4.75 -28.1 4.75 -26.2 M12.0 -14.7 Q10.45 -14.7 9.35 -15.8 8.25 -16.9 8.25 -18.45 8.25 -20.0 9.35 -21.05 10.45 -22.2 12.0 -22.2 13.55 -22.2 14.65 -21.05 15.75 -20.0 15.75 -18.45 15.75 -16.9 14.65 -15.8 13.55 -14.7 12.0 -14.7 M2.75 -19.55 Q3.75 -18.55 3.8 -17.1 3.75 -15.65 2.75 -14.6 1.75 -13.6 0.3 -13.6 -1.2 -13.6 -2.25 -14.6 -3.25 -15.65 -3.2 -17.1 -3.25 -18.55 -2.25 -19.55 -1.2 -20.6 0.3 -20.6 1.75 -20.6 2.75 -19.55 M8.55 -14.65 Q9.6 -14.65 10.35 -13.9 11.05 -13.2 11.05 -12.15 11.05 -11.1 10.35 -10.35 9.6 -9.65 8.55 -9.65 7.5 -9.65 6.8 -10.35 6.05 -11.1 6.05 -12.15 6.05 -13.2 6.8 -13.9 7.5 -14.65 8.55 -14.65 M7.25 -8.9 Q7.8 -8.35 7.8 -7.5 7.8 -6.7 7.25 -6.1 6.65 -5.5 5.8 -5.5 4.95 -5.5 4.4 -6.1 3.8 -6.7 3.8 -7.5 3.8 -8.35 4.4 -8.9 4.95 -9.5 5.8 -9.5 6.65 -9.5 7.25 -8.9 M1.7 -8.3 Q0.95 -7.6 -0.1 -7.6 -1.15 -7.6 -1.9 -8.3 -2.6 -9.05 -2.6 -10.1 -2.6 -11.15 -1.9 -11.85 -1.15 -12.6 -0.1 -12.6 0.95 -12.6 1.7 -11.85 2.4 -11.15 2.4 -10.1 2.4 -9.05 1.7 -8.3 M4.95 -4.55 Q5.35 -4.15 5.35 -3.5 5.35 -2.9 4.95 -2.45 4.5 -2.0 3.85 -2.0 3.2 -2.0 2.8 -2.45 2.35 -2.9 2.35 -3.5 2.35 -4.15 2.8 -4.55 3.2 -5.0 3.85 -5.0 4.5 -5.0 4.95 -4.55 M0.95 -3.25 Q0.35 -2.65 -0.5 -2.65 -1.35 -2.65 -1.9 -3.25 -2.5 -3.85 -2.5 -4.65 -2.5 -5.5 -1.9 -6.05 -1.35 -6.65 -0.5 -6.65 0.35 -6.65 0.95 -6.05 1.5 -5.5 1.5 -4.65 1.5 -3.85 0.95 -3.25 M2.1 -1.4 Q2.65 -0.85 2.65 -0.05 2.65 0.75 2.1 1.3 1.55 1.85 0.75 1.85 -0.05 1.85 -0.6 1.3 -1.15 0.75 -1.15 -0.05 -1.15 -0.85 -0.6 -1.4 -0.05 -1.95 0.75 -1.95 1.55 -1.95 2.1 -1.4 M9.45 -3.5 Q10.3 -3.5 10.9 -2.9 11.45 -2.35 11.45 -1.5 11.45 -0.7 10.9 -0.1 10.3 0.5 9.45 0.5 8.6 0.5 8.05 -0.1 7.45 -0.7 7.45 -1.5 7.45 -2.35 8.05 -2.9 8.6 -3.5 9.45 -3.5 M20.1 -9.25 Q21.25 -10.45 22.95 -10.45 24.65 -10.45 25.8 -9.25 26.95 -8.1 26.95 -6.45 26.95 -4.75 25.8 -3.6 24.65 -2.45 22.95 -2.45 21.25 -2.45 20.1 -3.6 18.95 -4.75 18.95 -6.45 18.95 -8.1 20.1 -9.25 M14.95 -7.15 Q16.2 -7.15 17.1 -6.25 17.95 -5.4 17.95 -4.15 17.95 -2.9 17.1 -2.05 16.2 -1.2 14.95 -1.15 13.7 -1.2 12.85 -2.05 11.95 -2.9 11.95 -4.15 11.95 -5.4 12.85 -6.25 13.7 -7.15 14.95 -7.15 M28.55 -11.3 Q29.55 -12.35 31.05 -12.35 32.55 -12.35 33.55 -11.3 34.55 -10.35 34.55 -8.85 34.55 -7.4 33.55 -6.35 32.55 -5.35 31.05 -5.35 29.55 -5.35 28.55 -6.35 27.55 -7.4 27.55 -8.85 27.55 -10.35 28.55 -11.3 M36.15 -11.95 Q36.7 -12.55 37.55 -12.55 38.4 -12.55 39.0 -11.95 39.55 -11.4 39.55 -10.55 39.55 -9.75 39.0 -9.15 38.4 -8.55 37.55 -8.55 36.7 -8.55 36.15 -9.15 35.55 -9.75 35.55 -10.55 35.55 -11.4 36.15 -11.95 M46.15 -8.3 L45.45 -8.0 Q45.0 -8.05 44.7 -8.3 44.4 -8.6 44.45 -9.0 44.4 -9.45 44.7 -9.7 45.0 -10.0 45.45 -10.0 L46.15 -9.7 46.45 -9.0 46.15 -8.3 M43.15 -9.4 Q42.7 -9.0 42.05 -9.0 41.4 -9.0 41.0 -9.4 40.55 -9.85 40.55 -10.5 40.55 -11.1 41.0 -11.55 41.4 -12.0 42.05 -12.0 42.7 -12.0 43.15 -11.55 43.55 -11.1 43.55 -10.5 43.55 -9.85 43.15 -9.4 M22.3 6.6 Q23.35 6.6 24.05 7.3 24.75 8.0 24.8 9.1 24.75 10.15 24.05 10.85 23.35 11.55 22.3 11.6 21.2 11.55 20.5 10.85 19.8 10.15 19.8 9.1 19.8 8.0 20.5 7.3 21.2 6.6 22.3 6.6 M26.2 10.2 Q26.9 9.5 28.0 9.5 29.05 9.5 29.75 10.2 30.45 10.9 30.5 12.0 30.45 13.05 29.75 13.75 29.05 14.45 28.0 14.5 26.9 14.45 26.2 13.75 25.5 13.05 25.5 12.0 25.5 10.9 26.2 10.2 M32.3 14.1 Q32.9 14.1 33.35 14.55 33.8 15.0 33.8 15.6 33.8 16.25 33.35 16.7 32.9 17.1 32.3 17.1 31.65 17.1 31.25 16.7 30.8 16.25 30.8 15.6 30.8 15.0 31.25 14.55 31.65 14.1 32.3 14.1 M34.85 17.5 Q35.35 17.45 35.75 17.85 L36.1 18.75 Q36.1 19.25 35.75 19.6 L34.85 20.0 Q34.3 19.95 33.95 19.6 33.6 19.25 33.6 18.75 33.6 18.2 33.95 17.85 34.3 17.45 34.85 17.5 M18.7 4.2 Q19.55 5.05 19.6 6.35 19.55 7.6 18.7 8.5 17.85 9.35 16.6 9.35 15.35 9.35 14.5 8.5 13.6 7.6 13.6 6.35 13.6 5.05 14.5 4.2 15.35 3.35 16.6 3.35 17.85 3.35 18.7 4.2 M11.0 5.9 Q10.05 5.9 9.4 5.25 8.7 4.55 8.75 3.65 8.7 2.7 9.4 2.05 10.05 1.35 11.0 1.4 11.9 1.35 12.6 2.05 13.25 2.7 13.25 3.65 13.25 4.55 12.6 5.25 11.9 5.9 11.0 5.9 M12.4 10.65 Q12.4 11.7 11.7 12.4 10.95 13.1 9.9 13.15 L9.35 13.1 Q8.65 12.95 8.15 12.4 L7.9 12.15 Q7.4 11.5 7.4 10.65 7.4 9.55 8.15 8.85 8.85 8.15 9.9 8.15 10.95 8.15 11.7 8.85 12.4 9.55 12.4 10.65 M5.9 3.75 Q5.1 3.75 4.55 3.2 4.0 2.65 4.0 1.85 4.0 1.05 4.55 0.5 5.1 -0.05 5.9 -0.05 6.7 -0.05 7.25 0.5 7.8 1.05 7.8 1.85 7.8 2.65 7.25 3.2 6.7 3.75 5.9 3.75 M7.75 5.25 Q8.3 5.8 8.3 6.6 8.3 7.4 7.75 7.95 7.2 8.5 6.4 8.5 5.6 8.5 5.05 7.95 4.5 7.4 4.5 6.6 4.5 5.8 5.05 5.25 5.6 4.7 6.4 4.7 7.2 4.7 7.75 5.25 M2.5 3.25 Q3.05 3.8 3.05 4.6 3.05 5.4 2.5 5.95 1.95 6.5 1.15 6.5 0.35 6.5 -0.2 5.95 -0.75 5.4 -0.75 4.6 -0.75 3.8 -0.2 3.25 0.35 2.7 1.15 2.7 1.95 2.7 2.5 3.25 M14.35 15.25 Q13.9 15.7 13.3 15.7 12.65 15.7 12.2 15.25 11.75 14.8 11.8 14.2 11.75 13.55 12.2 13.1 12.65 12.65 13.3 12.7 13.9 12.65 14.35 13.1 L14.8 14.2 14.35 15.25 M-28.6 -50.35 Q-28.6 -49.75 -29.05 -49.3 -29.5 -48.85 -30.1 -48.85 -30.75 -48.85 -31.2 -49.3 -31.65 -49.75 -31.6 -50.35 -31.65 -51.0 -31.2 -51.4 -30.75 -51.85 -30.1 -51.85 -29.5 -51.85 -29.05 -51.4 -28.6 -51.0 -28.6 -50.35 M-40.65 -21.25 L-39.55 -21.7 Q-38.95 -21.7 -38.5 -21.25 -38.05 -20.85 -38.05 -20.2 -38.05 -19.6 -38.5 -19.15 -38.95 -18.7 -39.55 -18.7 -40.2 -18.7 -40.65 -19.15 -41.1 -19.6 -41.05 -20.2 -41.1 -20.85 -40.65 -21.25 M-13.25 -25.7 Q-12.0 -24.45 -12.0 -22.55 -12.0 -20.65 -13.25 -19.35 -14.6 -18.05 -16.5 -18.05 -18.4 -18.05 -19.7 -19.35 -21.0 -20.65 -21.0 -22.55 -21.0 -24.45 -19.7 -25.7 -18.4 -27.05 -16.5 -27.05 -14.6 -27.05 -13.25 -25.7 M-17.4 -30.85 Q-17.35 -29.2 -18.5 -28.0 -19.7 -26.85 -21.4 -26.85 -23.1 -26.85 -24.25 -28.0 -25.4 -29.2 -25.4 -30.85 -25.4 -32.55 -24.25 -33.65 -23.1 -34.85 -21.4 -34.85 -19.7 -34.85 -18.5 -33.65 -17.35 -32.55 -17.4 -30.85 M-27.5 -46.8 Q-26.8 -46.1 -26.8 -45.05 -26.8 -44.0 -27.5 -43.25 -28.25 -42.55 -29.3 -42.55 -30.4 -42.55 -31.1 -43.25 -31.8 -44.0 -31.8 -45.05 -31.8 -46.1 -31.1 -46.8 -30.4 -47.55 -29.3 -47.55 -28.25 -47.55 -27.5 -46.8 M-28.6 -40.9 Q-27.6 -41.95 -26.1 -41.95 -24.65 -41.95 -23.6 -40.9 -22.6 -39.95 -22.6 -38.45 -22.6 -37.0 -23.6 -35.95 -24.65 -34.95 -26.1 -34.95 -27.6 -34.95 -28.6 -35.95 -29.65 -37.0 -29.6 -38.45 -29.65 -39.95 -28.6 -40.9 M-25.7 -14.45 Q-24.7 -13.45 -24.7 -11.95 -24.7 -10.5 -25.7 -9.5 -26.75 -8.5 -28.2 -8.45 -29.7 -8.5 -30.7 -9.5 -31.75 -10.5 -31.7 -11.95 -31.75 -13.45 -30.7 -14.45 -29.7 -15.45 -28.2 -15.45 -26.75 -15.45 -25.7 -14.45 M-36.8 -17.55 Q-36.1 -18.3 -35.0 -18.3 -33.95 -18.3 -33.2 -17.55 -32.5 -16.85 -32.5 -15.8 -32.5 -14.75 -33.2 -14.0 -33.95 -13.3 -35.0 -13.3 -36.1 -13.3 -36.8 -14.0 -37.5 -14.75 -37.5 -15.8 -37.5 -16.85 -36.8 -17.55 M-23.5 -4.9 Q-24.7 -6.1 -24.65 -7.75 -24.7 -9.45 -23.5 -10.6 -22.35 -11.75 -20.65 -11.75 -19.0 -11.75 -17.85 -10.6 -16.7 -9.45 -16.65 -7.75 -16.7 -6.1 -17.85 -4.9 -19.0 -3.75 -20.65 -3.75 -22.35 -3.75 -23.5 -4.9 M-8.8 -12.6 Q-9.85 -11.6 -11.3 -11.6 -12.8 -11.6 -13.8 -12.6 -14.85 -13.65 -14.8 -15.1 -14.85 -16.6 -13.8 -17.55 -12.8 -18.6 -11.3 -18.6 -9.85 -18.6 -8.8 -17.55 -7.8 -16.6 -7.8 -15.1 -7.8 -13.65 -8.8 -12.6 M-11.15 -6.65 Q-10.3 -5.8 -10.3 -4.5 -10.3 -3.25 -11.15 -2.4 -12.05 -1.55 -13.3 -1.5 -14.55 -1.55 -15.45 -2.4 -16.3 -3.25 -16.3 -4.5 -16.3 -5.8 -15.45 -6.65 -14.55 -7.5 -13.3 -7.5 -12.05 -7.5 -11.15 -6.65 M-8.85 -7.6 Q-9.6 -8.35 -9.55 -9.4 -9.6 -10.45 -8.85 -11.15 -8.15 -11.9 -7.05 -11.9 -6.0 -11.9 -5.3 -11.15 -4.6 -10.45 -4.55 -9.4 -4.6 -8.35 -5.3 -7.6 -6.0 -6.9 -7.05 -6.9 -8.15 -6.9 -8.85 -7.6 M-5.7 -6.15 L-4.65 -6.6 Q-4.0 -6.6 -3.55 -6.15 -3.15 -5.75 -3.15 -5.1 -3.15 -4.5 -3.55 -4.05 -4.0 -3.6 -4.65 -3.6 -5.3 -3.6 -5.7 -4.05 -6.15 -4.5 -6.15 -5.1 -6.15 -5.75 -5.7 -6.15 M-6.05 -0.55 Q-6.65 0.05 -7.45 0.05 -8.3 0.05 -8.9 -0.55 -9.5 -1.15 -9.45 -1.95 -9.5 -2.8 -8.9 -3.35 -8.3 -3.95 -7.45 -3.95 -6.65 -3.95 -6.05 -3.35 -5.45 -2.8 -5.45 -1.95 -5.45 -1.15 -6.05 -0.55 M-4.2 -2.5 L-3.15 -2.95 Q-2.5 -2.95 -2.05 -2.5 -1.65 -2.1 -1.65 -1.45 -1.65 -0.85 -2.05 -0.4 -2.5 0.05 -3.15 0.05 -3.8 0.05 -4.2 -0.4 -4.65 -0.85 -4.65 -1.45 L-4.2 -2.5 M-1.95 2.6 Q-1.95 3.4 -2.5 3.95 -3.05 4.5 -3.85 4.5 -4.65 4.5 -5.2 3.95 -5.75 3.4 -5.75 2.6 -5.75 1.8 -5.2 1.25 -4.65 0.7 -3.85 0.7 -3.05 0.7 -2.5 1.25 -1.95 1.8 -1.95 2.6 M-2.15 5.85 Q-1.6 6.4 -1.6 7.2 -1.6 8.0 -2.15 8.55 -2.7 9.1 -3.5 9.1 -4.3 9.1 -4.85 8.55 -5.4 8.0 -5.4 7.2 -5.4 6.4 -4.85 5.85 -4.3 5.3 -3.5 5.3 -2.7 5.3 -2.15 5.85 M-7.45 1.65 Q-6.9 2.2 -6.9 3.0 -6.9 3.8 -7.45 4.35 -8.0 4.9 -8.8 4.9 -9.6 4.9 -10.15 4.35 -10.7 3.8 -10.7 3.0 -10.7 2.2 -10.15 1.65 -9.6 1.1 -8.8 1.1 -8.0 1.1 -7.45 1.65 M-7.85 7.75 Q-6.8 7.75 -6.1 8.45 -5.4 9.15 -5.35 10.25 -5.4 11.3 -6.1 12.0 -6.8 12.7 -7.85 12.75 -8.95 12.7 -9.65 12.0 -10.35 11.3 -10.35 10.25 -10.35 9.15 -9.65 8.45 -8.95 7.75 -7.85 7.75 M-12.15 5.25 Q-12.8 5.9 -13.75 5.9 -14.7 5.9 -15.35 5.25 -16.0 4.55 -16.0 3.65 -16.0 2.7 -15.35 2.05 -14.7 1.35 -13.75 1.4 -12.8 1.35 -12.15 2.05 -11.5 2.7 -11.5 3.65 -11.5 4.55 -12.15 5.25 M-17.2 5.2 Q-17.2 6.45 -18.05 7.35 -18.95 8.2 -20.2 8.2 -21.45 8.2 -22.3 7.35 -23.2 6.45 -23.2 5.2 -23.2 3.95 -22.3 3.1 -21.45 2.2 -20.2 2.2 -18.95 2.2 -18.05 3.1 -17.2 3.95 -17.2 5.2 M-10.75 12.3 Q-10.3 12.7 -10.3 13.35 -10.3 14.0 -10.75 14.45 -11.2 14.85 -11.8 14.85 -12.45 14.85 -12.85 14.45 -13.3 14.0 -13.3 13.35 -13.3 12.7 -12.85 12.3 -12.45 11.85 -11.8 11.85 -11.2 11.85 -10.75 12.3 M-28.5 10.85 Q-28.5 11.35 -28.85 11.7 L-29.75 12.1 Q-30.25 12.05 -30.6 11.7 -31.0 11.35 -31.0 10.85 -31.0 10.3 -30.6 9.95 -30.25 9.55 -29.75 9.6 -29.2 9.55 -28.85 9.95 -28.5 10.3 -28.5 10.85 M-27.8 6.55 Q-27.2 5.95 -26.35 6.0 -25.55 5.95 -24.95 6.55 -24.35 7.15 -24.35 8.0 -24.35 8.8 -24.95 9.4 -25.55 10.0 -26.35 10.0 -27.2 10.0 -27.8 9.4 -28.4 8.8 -28.35 8.0 -28.4 7.15 -27.8 6.55 M-33.5 12.45 Q-33.1 12.45 -32.8 12.75 -32.5 13.0 -32.5 13.45 -32.5 13.85 -32.8 14.15 -33.1 14.45 -33.5 14.45 L-34.2 14.15 -34.5 13.45 -34.2 12.75 Q-33.9 12.45 -33.5 12.45" fill="#5ba82d" fill-rule="evenodd" stroke="none"/>
    <path d="M2.35 11.65 Q2.75 12.1 2.75 12.75 2.75 13.35 2.35 13.8 1.9 14.2 1.25 14.25 0.6 14.2 0.2 13.8 L-0.25 12.75 Q-0.25 12.1 0.2 11.65 0.6 11.2 1.25 11.25 1.9 11.2 2.35 11.65 M2.15 7.95 Q2.55 8.4 2.55 9.05 2.55 9.65 2.15 10.1 L1.05 10.55 Q0.4 10.5 0.0 10.1 L-0.45 9.05 Q-0.45 8.4 0.0 7.95 0.4 7.5 1.05 7.55 1.7 7.5 2.15 7.95 M0.7 16.75 Q0.7 16.1 1.15 15.65 1.55 15.2 2.2 15.25 2.85 15.2 3.3 15.65 3.7 16.1 3.7 16.75 3.7 17.35 3.3 17.8 2.85 18.2 2.2 18.25 1.55 18.2 1.15 17.8 0.7 17.35 0.7 16.75 M4.85 19.9 Q5.3 20.35 5.3 20.95 5.3 21.6 4.85 22.05 4.4 22.45 3.8 22.45 3.15 22.45 2.75 22.05 2.3 21.6 2.3 20.95 2.3 20.35 2.75 19.9 3.15 19.45 3.8 19.45 4.4 19.45 4.85 19.9 M7.35 23.85 Q7.75 24.25 7.8 24.9 7.75 25.55 7.35 26.0 6.9 26.4 6.3 26.4 5.65 26.4 5.2 26.0 4.75 25.55 4.8 24.9 4.75 24.25 5.2 23.85 5.65 23.4 6.3 23.4 6.9 23.4 7.35 23.85 M9.0 26.8 Q9.6 26.8 10.05 27.25 10.45 27.65 10.5 28.3 10.45 28.95 10.05 29.4 9.6 29.8 9.0 29.8 8.35 29.8 7.9 29.4 7.45 28.95 7.5 28.3 7.45 27.65 7.9 27.25 8.35 26.8 9.0 26.8" fill="#a9ee4d" fill-rule="evenodd" stroke="none"/>
  </g>
</svg>
