<?xml version="1.0" encoding="UTF-8" standalone="no"?>
<svg xmlns:ffdec="https://www.free-decompiler.com/flash" xmlns:xlink="http://www.w3.org/1999/xlink" ffdec:objectType="shape" height="24.0px" width="1886.3px" xmlns="http://www.w3.org/2000/svg">
  <g transform="matrix(1.0, 0.0, 0.0, 1.0, 942.65, 6.25)">
    <path d="M231.05 -4.8 L231.05 15.2 M278.8 -4.8 L278.8 15.2 M87.9 -4.8 L87.9 15.2 M135.6 -4.8 L135.6 15.2 M183.35 -4.8 L183.35 15.2 M40.2 -4.8 L40.2 15.2 M326.5 -4.8 L326.5 15.2 M-389.8 -4.8 L-389.8 15.2 M-342.1 -4.8 L-342.1 15.2 M-294.4 -4.8 L-294.4 15.2 M-437.6 -4.8 L-437.6 15.2 M-246.65 -4.8 L-246.65 15.2 M-198.95 -4.8 L-198.95 15.2 M-151.25 -4.8 L-151.25 15.2 M-103.55 -4.8 L-103.55 15.2 M-7.5 -4.8 L-7.5 15.2 M-55.5 -4.8 L-55.5 15.2" fill="none" stroke="#183149" stroke-linecap="round" stroke-linejoin="round" stroke-width="1.0"/>
    <path d="M-941.65 -5.25 L942.65 -5.25" fill="none" stroke="#1e3c5a" stroke-linecap="round" stroke-linejoin="round" stroke-width="2.0"/>
    <path d="M-941.65 16.75 L942.65 16.75" fill="none" stroke="#1e3c5a" stroke-linecap="round" stroke-linejoin="round" stroke-width="2.0"/>
  </g>
</svg>
