<?xml version="1.0" encoding="UTF-8" standalone="no"?>
<svg xmlns:ffdec="https://www.free-decompiler.com/flash" xmlns:xlink="http://www.w3.org/1999/xlink" ffdec:objectType="shape" height="104.0px" width="203.95px" xmlns="http://www.w3.org/2000/svg">
  <g transform="matrix(1.0, 0.0, 0.0, 1.0, 101.95, 2.0)">
    <path d="M85.4 35.35 Q99.2 21.6 100.0 2.45 99.15 42.25 70.7 70.7 41.45 100.0 0.05 100.0 -41.4 100.0 -70.7 70.7 -99.95 41.4 -99.95 0.0 -99.95 20.7 -85.3 35.35 -70.65 50.0 -49.95 50.0 -29.25 50.0 -14.6 35.35 -0.2 20.95 0.05 0.65 0.3 20.95 14.7 35.35 29.35 50.0 50.05 50.0 70.75 50.0 85.4 35.35" fill="#0091ff" fill-rule="evenodd" stroke="none"/>
    <path d="M85.4 35.35 Q70.75 50.0 50.05 50.0 29.35 50.0 14.7 35.35 0.3 20.95 0.05 0.65 -0.2 20.95 -14.6 35.35 -29.25 50.0 -49.95 50.0 -70.65 50.0 -85.3 35.35 -99.95 20.7 -99.95 0.0 -99.95 41.4 -70.7 70.7 -41.4 100.0 0.05 100.0 41.45 100.0 70.7 70.7 99.15 42.25 100.0 2.45 99.2 21.6 85.4 35.35 Z" fill="none" stroke="#0091ff" stroke-linecap="round" stroke-linejoin="round" stroke-width="4.0"/>
  </g>
</svg>
