<?xml version="1.0" encoding="UTF-8" standalone="no"?>
<svg xmlns:ffdec="https://www.free-decompiler.com/flash" xmlns:xlink="http://www.w3.org/1999/xlink" ffdec:objectType="shape" height="4.0px" width="11.2px" xmlns="http://www.w3.org/2000/svg">
  <g transform="matrix(1.0, 0.0, 0.0, 1.0, -96.5, -137.7)">
    <path d="M98.5 137.7 Q99.3 137.7 99.9 138.3 100.45 138.85 100.5 139.7 100.45 140.5 99.9 141.1 99.3 141.7 98.5 141.7 97.65 141.7 97.1 141.1 96.5 140.5 96.5 139.7 96.5 138.85 97.1 138.3 97.65 137.7 98.5 137.7 M107.7 139.7 Q107.65 140.5 107.1 141.1 106.5 141.7 105.7 141.7 104.85 141.7 104.3 141.1 103.7 140.5 103.7 139.7 103.7 138.85 104.3 138.3 104.85 137.7 105.7 137.7 106.5 137.7 107.1 138.3 107.65 138.85 107.7 139.7" fill="#70df00" fill-rule="evenodd" stroke="none"/>
  </g>
</svg>
