<?xml version="1.0" encoding="UTF-8" standalone="no"?>
<svg xmlns:ffdec="https://www.free-decompiler.com/flash" xmlns:xlink="http://www.w3.org/1999/xlink" ffdec:objectType="shape" height="40.0px" width="40.0px" xmlns="http://www.w3.org/2000/svg">
  <g transform="matrix(1.0, 0.0, 0.0, 1.0, 20.0, 20.0)">
    <path d="M14.15 -14.15 Q20.0 -8.3 20.0 0.0 20.0 8.35 14.15 14.2 8.3 20.0 0.0 20.0 -8.3 20.0 -14.15 14.2 -20.0 8.35 -20.0 0.0 -20.0 -8.3 -14.15 -14.15 -8.3 -20.0 0.0 -20.0 8.3 -20.0 14.15 -14.15" fill="#001c2d" fill-rule="evenodd" stroke="none"/>
    <path d="M7.1 -7.05 Q10.0 -4.15 10.0 0.0 10.0 4.15 7.1 7.1 4.15 10.0 0.0 10.0 -4.15 10.0 -7.05 7.1 -10.0 4.15 -10.0 0.0 -10.0 -4.15 -7.05 -7.05 -4.15 -10.0 0.0 -10.0 4.15 -10.0 7.1 -7.05" fill="#1668e2" fill-opacity="0.4" fill-rule="evenodd" stroke="none"/>
  </g>
</svg>
