<?xml version="1.0" encoding="UTF-8" standalone="no"?>
<svg xmlns:ffdec="https://www.free-decompiler.com/flash" xmlns:xlink="http://www.w3.org/1999/xlink" ffdec:objectType="shape" height="16.0px" width="110.0px" xmlns="http://www.w3.org/2000/svg">
  <g transform="matrix(1.0, 0.0, 0.0, 1.0, 54.6, 8.0)">
    <path d="M47.4 -8.0 Q50.7 -8.0 53.05 -5.65 55.4 -3.3 55.4 0.0 55.4 3.25 53.05 5.6 50.7 8.0 47.4 8.0 44.1 8.0 41.75 5.6 39.4 3.25 39.4 0.0 39.4 -3.3 41.75 -5.65 44.1 -8.0 47.4 -8.0 M-46.6 -8.0 Q-43.3 -8.0 -40.95 -5.65 -38.6 -3.3 -38.6 0.0 -38.6 3.25 -40.95 5.6 -43.3 8.0 -46.6 8.0 -49.9 8.0 -52.25 5.6 -54.6 3.25 -54.6 0.0 -54.6 -3.3 -52.25 -5.65 -49.9 -8.0 -46.6 -8.0" fill="#1668e2" fill-opacity="0.4" fill-rule="evenodd" stroke="none"/>
  </g>
</svg>
