<?xml version="1.0" encoding="UTF-8" standalone="no"?>
<svg xmlns:ffdec="https://www.free-decompiler.com/flash" xmlns:xlink="http://www.w3.org/1999/xlink" ffdec:objectType="shape" height="90.3px" width="67.8px" xmlns="http://www.w3.org/2000/svg">
  <g transform="matrix(1.0, 0.0, 0.0, 1.0, 47.3, 110.0)">
    <path d="M-47.15 -59.8 Q-46.95 -57.05 -44.2 -56.4 L-36.85 -55.75 Q-23.25 -54.55 -12.0 -43.9 -6.4 -38.6 -5.15 -35.9 L-4.3 -32.25 Q-2.4 -32.35 2.9 -25.3 7.85 -18.75 9.15 -19.85 14.35 -24.3 14.0 -32.95 13.1 -35.8 18.0 -35.8 20.1 -35.8 20.4 -36.15 20.9 -36.7 18.9 -38.55 11.2 -45.7 -2.9 -46.35 -10.7 -51.5 -14.85 -59.95 -18.8 -68.0 -18.55 -77.3 -18.3 -86.75 -13.85 -95.15 -9.1 -104.05 -0.55 -109.95 -9.15 -110.35 -17.8 -106.9 -26.5 -103.4 -33.25 -96.8 -48.75 -81.75 -47.15 -59.8" fill="#1668e2" fill-opacity="0.4" fill-rule="evenodd" stroke="none"/>
  </g>
</svg>
