<?xml version="1.0" encoding="UTF-8" standalone="no"?>
<svg xmlns:ffdec="https://www.free-decompiler.com/flash" xmlns:xlink="http://www.w3.org/1999/xlink" ffdec:objectType="shape" height="13.0px" width="13.0px" xmlns="http://www.w3.org/2000/svg">
  <g transform="matrix(1.0, 0.0, 0.0, 1.0, 2.5, 4.5)">
    <path d="M8.25 -2.25 Q10.0 -0.5 10.0 2.0 10.0 4.5 8.25 6.25 6.5 8.0 4.0 8.0 1.5 8.0 -0.25 6.25 -2.0 4.5 -2.0 2.0 -2.0 -0.5 -0.25 -2.25 1.5 -4.0 4.0 -4.0 6.5 -4.0 8.25 -2.25" fill="#9fda00" fill-rule="evenodd" stroke="none"/>
    <path d="M8.25 -2.25 Q10.0 -0.5 10.0 2.0 10.0 4.5 8.25 6.25 6.5 8.0 4.0 8.0 1.5 8.0 -0.25 6.25 -2.0 4.5 -2.0 2.0 -2.0 -0.5 -0.25 -2.25 1.5 -4.0 4.0 -4.0 6.5 -4.0 8.25 -2.25 Z" fill="none" stroke="#000000" stroke-linecap="round" stroke-linejoin="round" stroke-width="1.0"/>
  </g>
</svg>
