<?xml version="1.0" encoding="UTF-8" standalone="no"?>
<svg xmlns:ffdec="https://www.free-decompiler.com/flash" xmlns:xlink="http://www.w3.org/1999/xlink" ffdec:objectType="shape" height="120.0px" width="99.9px" xmlns="http://www.w3.org/2000/svg">
  <g transform="matrix(1.0, 0.0, 0.0, 1.0, 50.0, 110.0)">
    <path d="M39.95 -110.0 Q44.05 -110.0 47.0 -107.05 49.9 -104.15 49.9 -100.0 49.9 -95.85 47.0 -92.9 44.35 -90.25 40.75 -90.0 L30.75 -72.8 Q9.1 -35.3 10.55 -3.25 10.85 3.2 7.0 7.05 4.1 10.0 0.0 10.0 -4.15 10.0 -7.1 7.05 -10.05 4.1 -9.8 -1.35 -8.2 -36.7 -31.85 -74.4 L-39.05 -85.45 -42.05 -90.15 Q-44.9 -90.75 -47.05 -92.9 -50.0 -95.85 -50.0 -100.0 -50.0 -104.15 -47.05 -107.05 -44.15 -110.0 -40.05 -110.0 -35.95 -110.0 -33.0 -107.05 -30.1 -104.15 -30.1 -100.0 -30.1 -95.9 -32.9 -93.0 L-31.15 -89.6 Q-29.55 -86.25 -22.45 -68.35 -16.75 -53.9 -12.6 -47.35 -6.6 -37.85 -0.5 -38.0 5.2 -38.15 10.85 -47.95 14.4 -54.0 20.45 -69.3 26.65 -84.95 29.75 -90.5 L31.95 -94.05 Q30.0 -96.6 30.0 -100.0 30.0 -104.15 32.95 -107.05 35.85 -110.0 39.95 -110.0" fill="#666600" fill-rule="evenodd" stroke="none"/>
  </g>
</svg>
