<?xml version="1.0" encoding="UTF-8" standalone="no"?>
<svg xmlns:ffdec="https://www.free-decompiler.com/flash" xmlns:xlink="http://www.w3.org/1999/xlink" ffdec:objectType="shape" height="22.1px" width="216.7px" xmlns="http://www.w3.org/2000/svg">
  <g transform="matrix(1.0, 0.0, 0.0, 1.0, -91.25, -742.25)">
    <path d="M109.55 753.3 Q109.55 756.75 110.35 758.5 111.15 760.15 112.8 760.2 114.45 760.15 115.25 758.45 116.05 756.75 116.05 753.3 116.05 749.8 115.25 748.1 114.45 746.35 112.8 746.35 111.15 746.35 110.35 748.1 109.55 749.8 109.55 753.3 M107.25 745.2 L107.75 744.6 Q109.65 742.25 112.8 742.25 115.9 742.25 117.85 744.6 L118.35 745.25 Q120.35 748.25 120.35 753.6 120.35 758.5 118.3 761.4 117.0 763.2 115.15 763.9 L114.2 764.15 112.8 764.3 111.35 764.15 110.4 763.9 Q108.5 763.2 107.2 761.4 105.2 758.45 105.2 753.3 105.2 748.1 107.25 745.2 M100.3 742.5 L104.6 742.5 104.6 764.0 100.3 764.0 100.3 754.65 95.55 754.65 95.55 764.0 91.25 764.0 91.25 742.5 95.55 742.5 95.55 750.5 100.3 750.5 100.3 742.5 M160.85 742.6 Q164.4 742.55 166.05 744.05 167.8 745.6 167.8 748.7 167.8 751.65 166.15 753.4 164.5 755.05 161.55 755.05 L160.95 755.05 160.6 755.0 160.6 763.8 156.45 763.8 156.45 742.6 160.85 742.6 M147.85 754.8 L143.45 754.8 143.45 759.85 148.3 759.85 148.3 764.0 139.25 764.0 139.25 742.5 148.3 742.5 148.3 746.5 143.45 746.5 143.45 750.85 147.85 750.85 147.85 754.8 M160.6 751.8 L160.75 751.8 161.05 751.8 Q162.4 751.75 163.1 751.0 163.8 750.2 163.85 748.8 163.8 747.25 163.1 746.55 162.4 745.85 161.05 745.9 L160.75 745.9 160.6 745.9 160.6 751.8 M127.6 742.5 L128.75 750.7 129.15 754.35 129.4 757.65 129.85 753.2 130.15 750.7 131.55 742.5 137.0 742.5 138.85 764.0 134.45 764.0 134.0 754.0 133.95 752.95 133.8 746.55 130.95 764.0 127.85 764.0 125.25 746.45 125.0 752.7 124.9 754.1 124.25 764.0 119.95 764.0 122.1 742.5 127.6 742.5 M152.75 764.25 Q151.6 764.25 150.9 763.45 150.1 762.75 150.15 761.6 150.1 760.55 150.9 759.75 151.6 759.05 152.75 759.1 153.75 759.05 154.55 759.75 155.25 760.55 155.25 761.6 155.25 762.75 154.55 763.45 153.75 764.25 152.75 764.25 M184.75 745.2 Q186.7 742.3 190.15 742.3 193.65 742.3 195.65 745.25 197.65 748.2 197.65 753.5 197.65 758.35 195.65 761.2 193.55 764.05 190.15 764.1 186.6 764.05 184.75 761.2 182.75 758.35 182.75 753.25 182.75 748.1 184.75 745.2 M186.95 753.25 Q186.95 756.6 187.75 758.4 188.5 760.0 190.15 760.0 191.8 760.0 192.6 758.4 193.45 756.6 193.5 753.25 193.45 749.75 192.6 748.05 191.8 746.3 190.15 746.3 188.5 746.3 187.75 748.05 186.95 749.75 186.95 753.25 M201.95 748.45 L202.2 751.2 202.2 754.9 202.2 763.8 198.3 763.8 198.3 742.6 202.65 742.6 206.85 754.05 207.5 755.7 208.3 758.4 207.75 754.3 207.55 750.7 207.55 742.6 211.5 742.6 211.5 763.8 207.55 763.8 202.9 751.95 202.3 749.8 201.95 748.45 M181.95 742.6 L181.95 763.8 177.7 763.8 177.7 754.55 173.0 754.55 173.0 763.8 168.75 763.8 168.75 742.6 173.0 742.6 173.0 750.4 177.7 750.4 177.7 742.6 181.95 742.6 M239.4 742.6 Q243.6 742.55 245.4 743.9 L246.1 744.6 Q247.15 745.9 247.15 748.25 247.15 750.0 246.45 751.15 245.8 752.3 244.45 753.0 246.0 753.5 246.7 754.75 247.5 755.9 247.5 757.95 247.5 759.35 246.95 760.6 246.5 761.7 245.55 762.6 244.55 763.35 243.35 763.7 L239.25 764.1 235.2 764.1 235.2 742.6 239.4 742.6 M226.4 747.8 L222.6 749.5 Q222.3 747.95 221.65 747.1 220.95 746.3 219.8 746.3 218.05 746.3 217.3 748.05 216.5 749.7 216.5 753.25 216.5 756.6 217.35 758.4 218.15 760.1 219.8 760.1 221.2 760.1 221.95 758.9 222.75 757.75 222.75 755.6 L219.05 755.6 219.05 751.8 226.95 751.8 226.95 752.3 226.95 752.8 Q226.95 758.1 225.05 761.15 223.0 764.05 219.55 764.1 216.15 764.05 214.25 761.15 212.25 758.25 212.25 753.25 212.25 748.1 214.35 745.2 216.3 742.3 219.9 742.3 222.2 742.3 223.95 743.7 225.6 745.1 226.4 747.8 M239.4 746.1 L239.4 751.5 239.85 751.5 Q241.5 751.5 242.3 750.8 243.0 750.2 243.0 748.8 243.0 747.35 242.25 746.7 241.45 746.05 239.85 746.1 L239.4 746.1 M239.95 754.6 L239.4 754.6 239.4 760.2 239.65 760.2 240.05 760.3 Q241.6 760.3 242.4 759.6 243.1 759.0 243.1 757.5 243.1 755.9 242.4 755.3 241.6 754.6 239.95 754.6 M232.75 761.6 Q232.75 762.75 232.05 763.45 231.25 764.25 230.2 764.25 229.05 764.25 228.35 763.45 227.55 762.75 227.6 761.6 227.55 760.55 228.35 759.75 229.05 759.05 230.2 759.1 231.25 759.05 232.05 759.75 232.75 760.55 232.75 761.6 M270.25 742.6 Q271.1 742.75 272.05 743.35 L272.05 747.15 270.3 746.35 269.15 746.15 Q268.3 746.15 267.7 746.8 267.05 747.3 267.05 748.25 267.05 749.05 267.5 749.85 267.9 750.55 269.6 751.95 271.7 753.8 272.35 755.0 272.95 756.25 272.95 758.0 272.9 760.9 271.35 762.7 269.65 764.35 266.8 764.35 L264.75 764.1 263.1 763.25 263.1 758.9 264.7 759.95 266.25 760.3 Q267.3 760.3 268.05 759.7 268.65 759.15 268.65 758.1 268.6 756.85 266.85 755.45 L266.2 754.85 Q264.25 753.1 263.45 751.7 262.75 750.3 262.75 748.45 262.7 746.15 263.85 744.6 L264.35 743.95 Q265.9 742.3 268.45 742.3 L270.25 742.6 M272.75 746.5 L272.75 742.6 283.65 742.6 283.65 746.5 280.4 746.5 280.4 764.1 276.0 764.1 276.0 746.5 272.75 746.5 M261.8 742.6 L261.8 756.1 261.6 759.6 261.2 761.25 Q260.4 762.85 258.9 763.65 257.4 764.35 255.15 764.35 252.75 764.35 251.25 763.65 249.75 762.85 249.0 761.25 248.6 760.65 248.45 759.6 L248.35 756.1 248.35 742.6 252.65 742.6 252.65 756.45 Q252.65 759.05 253.2 759.75 253.7 760.55 255.15 760.6 256.5 760.55 257.05 759.75 257.5 758.95 257.5 756.45 L257.5 742.6 261.8 742.6 M305.5 745.2 Q307.95 747.9 307.95 753.35 307.95 756.6 307.1 758.8 306.2 761.0 304.3 762.5 303.15 763.35 301.65 763.7 L297.6 764.1 294.35 764.1 294.35 742.6 298.05 742.6 Q302.4 742.55 304.85 744.6 L305.5 745.2 M293.55 742.6 L293.55 746.5 288.75 746.5 288.75 750.9 293.15 750.9 293.15 754.85 288.75 754.85 288.75 759.85 293.55 759.85 293.55 764.1 284.55 764.1 284.55 742.6 293.55 742.6 M302.55 748.2 Q301.3 746.4 298.9 746.4 L298.65 746.4 298.65 760.15 299.0 760.15 Q301.3 760.15 302.45 758.4 303.65 756.6 303.65 753.35 303.65 749.85 302.55 748.2" fill="#000000" fill-rule="evenodd" stroke="none"/>
  </g>
</svg>
