<?xml version="1.0" encoding="UTF-8" standalone="no"?>
<svg xmlns:ffdec="https://www.free-decompiler.com/flash" xmlns:xlink="http://www.w3.org/1999/xlink" ffdec:objectType="shape" height="58.75px" width="70.35px" xmlns="http://www.w3.org/2000/svg">
  <g transform="matrix(1.0, 0.0, 0.0, 1.0, -199.05, -85.6)">
    <path d="M199.15 111.4 L201.75 104.2 205.25 98.5 210.95 93.5 211.75 92.9 218.55 88.8 227.4 86.05 236.55 85.6 246.8 87.2 257.05 92.5 262.3 97.0 267.55 105.1 269.4 114.35 267.8 121.7 264.4 129.6 257.15 136.5 248.15 141.85 236.8 144.35 228.65 144.1 219.95 142.35 210.9 137.75 204.45 131.6 200.55 124.65 199.25 119.15 199.05 117.6 199.15 111.4" fill="#eb9000" fill-rule="evenodd" stroke="none"/>
    <path d="M199.15 111.4 L201.75 104.2 205.25 98.5 210.95 93.5 211.75 92.9 218.55 88.8 227.4 86.05 236.55 85.6 246.8 87.2 257.05 92.5 262.3 97.0 267.55 105.1 269.4 114.35 267.8 121.7 264.4 129.6 257.15 136.5 248.15 141.85 236.8 144.35 228.65 144.1 219.95 142.35 210.9 137.75 204.45 131.6 200.55 124.65 199.25 119.15 199.05 117.6 199.15 111.4 Z" ffdec:has-small-stroke="true" ffdec:original-stroke-width="0.05" fill="none" stroke="#033564" stroke-linecap="round" stroke-linejoin="round" stroke-width="1.0"/>
  </g>
</svg>
