<?xml version="1.0" encoding="UTF-8" standalone="no"?>
<svg xmlns:ffdec="https://www.free-decompiler.com/flash" xmlns:xlink="http://www.w3.org/1999/xlink" ffdec:objectType="shape" height="63.3px" width="69.9px" xmlns="http://www.w3.org/2000/svg">
  <g transform="matrix(1.0, 0.0, 0.0, 1.0, -181.25, -104.45)">
    <path d="M199.65 107.15 L209.3 104.45 219.25 104.45 230.55 107.7 240.4 114.1 247.65 122.95 251.15 132.85 250.8 144.6 246.55 154.05 238.65 161.95 227.9 166.75 215.75 167.75 205.5 165.7 195.95 160.75 188.25 153.65 183.2 144.85 181.25 136.1 181.95 127.4 185.2 119.5 191.35 112.2 199.65 107.15" fill="#eb9000" fill-rule="evenodd" stroke="none"/>
    <path d="M199.65 107.15 L209.3 104.45 219.25 104.45 230.55 107.7 240.4 114.1 247.65 122.95 251.15 132.85 250.8 144.6 246.55 154.05 238.65 161.95 227.9 166.75 215.75 167.75 205.5 165.7 195.95 160.75 188.25 153.65 183.2 144.85 181.25 136.1 181.95 127.4 185.2 119.5 191.35 112.2 199.65 107.15 Z" ffdec:has-small-stroke="true" ffdec:original-stroke-width="0.05" fill="none" stroke="#033564" stroke-linecap="round" stroke-linejoin="round" stroke-width="1.0"/>
  </g>
</svg>
