<?xml version="1.0" encoding="UTF-8" standalone="no"?>
<svg xmlns:ffdec="https://www.free-decompiler.com/flash" xmlns:xlink="http://www.w3.org/1999/xlink" ffdec:objectType="shape" height="66.9px" width="67.45px" xmlns="http://www.w3.org/2000/svg">
  <g transform="matrix(1.0, 0.0, 0.0, 1.0, -164.05, -123.5)">
    <path d="M230.4 167.2 L226.8 177.0 220.0 184.15 211.75 188.9 203.5 190.4 193.4 189.65 187.75 187.8 177.75 182.05 170.6 174.45 166.05 165.5 164.05 157.5 164.4 149.1 166.3 141.75 170.55 134.4 175.5 129.65 183.0 125.3 192.05 123.5 198.5 123.7 208.0 126.05 217.25 131.55 225.05 140.1 228.65 146.85 231.5 157.8 230.4 167.2" fill="#eb9000" fill-rule="evenodd" stroke="none"/>
    <path d="M230.4 167.2 L226.8 177.0 220.0 184.15 211.75 188.9 203.5 190.4 193.4 189.65 187.75 187.8 177.75 182.05 170.6 174.45 166.05 165.5 164.05 157.5 164.4 149.1 166.3 141.75 170.55 134.4 175.5 129.65 183.0 125.3 192.05 123.5 198.5 123.7 208.0 126.05 217.25 131.55 225.05 140.1 228.65 146.85 231.5 157.8 230.4 167.2 Z" ffdec:has-small-stroke="true" ffdec:original-stroke-width="0.05" fill="none" stroke="#033564" stroke-linecap="round" stroke-linejoin="round" stroke-width="1.0"/>
  </g>
</svg>
