<?xml version="1.0" encoding="UTF-8" standalone="no"?>
<svg xmlns:ffdec="https://www.free-decompiler.com/flash" xmlns:xlink="http://www.w3.org/1999/xlink" ffdec:objectType="shape" height="69.55px" width="63.65px" xmlns="http://www.w3.org/2000/svg">
  <g transform="matrix(1.0, 0.0, 0.0, 1.0, -150.5, -139.5)">
    <path d="M207.5 155.0 L210.95 162.25 214.15 172.65 213.75 183.8 209.4 194.8 205.25 200.3 196.55 206.65 185.25 209.05 178.35 208.4 167.5 204.0 159.45 196.55 154.6 189.05 151.0 179.55 150.5 170.65 151.15 163.15 154.2 155.0 159.0 148.45 165.0 143.7 171.1 140.75 178.95 139.5 186.6 140.25 194.4 143.35 200.55 147.7 207.5 155.0" fill="#eb9000" fill-rule="evenodd" stroke="none"/>
    <path d="M207.5 155.0 L210.95 162.25 214.15 172.65 213.75 183.8 209.4 194.8 205.25 200.3 196.55 206.65 185.25 209.05 178.35 208.4 167.5 204.0 159.45 196.55 154.6 189.05 151.0 179.55 150.5 170.65 151.15 163.15 154.2 155.0 159.0 148.45 165.0 143.7 171.1 140.75 178.95 139.5 186.6 140.25 194.4 143.35 200.55 147.7 207.5 155.0 Z" ffdec:has-small-stroke="true" ffdec:original-stroke-width="0.05" fill="none" stroke="#033564" stroke-linecap="round" stroke-linejoin="round" stroke-width="1.0"/>
  </g>
</svg>
