<?xml version="1.0" encoding="UTF-8" standalone="no"?>
<svg xmlns:ffdec="https://www.free-decompiler.com/flash" xmlns:xlink="http://www.w3.org/1999/xlink" ffdec:objectType="shape" height="70.15px" width="60.9px" xmlns="http://www.w3.org/2000/svg">
  <g transform="matrix(1.0, 0.0, 0.0, 1.0, -141.4, -151.25)">
    <path d="M196.95 168.45 L200.9 177.5 202.3 189.4 200.45 200.55 195.4 210.3 187.7 217.25 179.85 221.05 169.9 221.4 161.5 219.3 153.75 213.65 147.0 206.0 143.0 197.05 141.4 187.55 141.55 178.4 144.4 169.25 147.7 163.75 149.45 161.45 152.85 157.9 159.15 153.75 164.4 152.0 171.85 151.25 178.95 152.95 185.95 156.2 192.5 162.0 196.95 168.45" fill="#eb9000" fill-rule="evenodd" stroke="none"/>
    <path d="M196.95 168.45 L200.9 177.5 202.3 189.4 200.45 200.55 195.4 210.3 187.7 217.25 179.85 221.05 169.9 221.4 161.5 219.3 153.75 213.65 147.0 206.0 143.0 197.05 141.4 187.55 141.55 178.4 144.4 169.25 147.7 163.75 149.45 161.45 152.85 157.9 159.15 153.75 164.4 152.0 171.85 151.25 178.95 152.95 185.95 156.2 192.5 162.0 196.95 168.45 Z" ffdec:has-small-stroke="true" ffdec:original-stroke-width="0.05" fill="none" stroke="#033564" stroke-linecap="round" stroke-linejoin="round" stroke-width="1.0"/>
  </g>
</svg>
