<?xml version="1.0" encoding="UTF-8" standalone="no"?>
<svg xmlns:ffdec="https://www.free-decompiler.com/flash" xmlns:xlink="http://www.w3.org/1999/xlink" ffdec:objectType="shape" height="70.05px" width="59.05px" xmlns="http://www.w3.org/2000/svg">
  <g transform="matrix(1.0, 0.0, 0.0, 1.0, -135.9, -159.0)">
    <path d="M182.1 165.5 L187.5 171.5 191.6 178.55 194.15 187.4 194.95 196.9 193.2 206.05 189.35 215.15 183.35 222.4 174.85 227.65 164.65 229.05 154.5 226.0 150.15 223.4 145.1 218.65 139.3 209.75 136.9 200.8 136.75 200.0 135.9 190.75 137.65 181.75 140.75 173.75 145.95 167.0 150.1 163.5 156.5 160.4 161.0 159.05 168.75 159.0 176.0 161.45 182.1 165.5" fill="#eb9000" fill-rule="evenodd" stroke="none"/>
    <path d="M182.1 165.5 L187.5 171.5 191.6 178.55 194.15 187.4 194.95 196.9 193.2 206.05 189.35 215.15 183.35 222.4 174.85 227.65 164.65 229.05 154.5 226.0 150.15 223.4 145.1 218.65 139.3 209.75 136.9 200.8 136.75 200.0 135.9 190.75 137.65 181.75 140.75 173.75 145.95 167.0 150.1 163.5 156.5 160.4 161.0 159.05 168.75 159.0 176.0 161.45 182.1 165.5 Z" ffdec:has-small-stroke="true" ffdec:original-stroke-width="0.05" fill="none" stroke="#033564" stroke-linecap="round" stroke-linejoin="round" stroke-width="1.0"/>
  </g>
</svg>
