<?xml version="1.0" encoding="UTF-8" standalone="no"?>
<svg xmlns:ffdec="https://www.free-decompiler.com/flash" xmlns:xlink="http://www.w3.org/1999/xlink" ffdec:objectType="shape" height="70.05px" width="57.85px" xmlns="http://www.w3.org/2000/svg">
  <g transform="matrix(1.0, 0.0, 0.0, 1.0, -132.65, -162.5)">
    <path d="M167.9 163.25 L175.5 166.7 180.85 171.75 185.6 178.0 188.85 186.25 190.5 195.25 189.6 205.65 187.35 213.75 181.25 223.4 172.75 229.9 162.7 232.55 152.7 230.8 143.8 224.65 138.5 218.3 134.5 208.75 132.65 199.5 133.25 190.0 135.8 181.3 139.4 174.7 145.35 168.25 152.45 164.15 160.1 162.5 167.9 163.25" fill="#eb9000" fill-rule="evenodd" stroke="none"/>
    <path d="M167.9 163.25 L175.5 166.7 180.85 171.75 185.6 178.0 188.85 186.25 190.5 195.25 189.6 205.65 187.35 213.75 181.25 223.4 172.75 229.9 162.7 232.55 152.7 230.8 143.8 224.65 138.5 218.3 134.5 208.75 132.65 199.5 133.25 190.0 135.8 181.3 139.4 174.7 145.35 168.25 152.45 164.15 160.1 162.5 167.9 163.25 Z" ffdec:has-small-stroke="true" ffdec:original-stroke-width="0.05" fill="none" stroke="#033564" stroke-linecap="round" stroke-linejoin="round" stroke-width="1.0"/>
  </g>
</svg>
