<?xml version="1.0" encoding="UTF-8" standalone="no"?>
<svg xmlns:ffdec="https://www.free-decompiler.com/flash" xmlns:xlink="http://www.w3.org/1999/xlink" ffdec:objectType="shape" height="69.8px" width="57.7px" xmlns="http://www.w3.org/2000/svg">
  <g transform="matrix(1.0, 0.0, 0.0, 1.0, -129.55, -162.5)">
    <path d="M174.8 168.25 L180.25 174.25 184.2 181.3 186.75 190.0 187.25 199.65 185.7 207.9 182.5 216.8 176.5 224.4 170.85 228.5 161.45 232.3 152.1 231.65 143.65 227.65 137.4 221.25 132.5 213.3 129.9 203.8 129.55 194.5 131.15 186.4 134.4 178.0 139.15 171.7 144.95 166.45 151.95 163.25 159.6 162.5 163.55 162.9 167.9 164.3 174.8 168.25" fill="#eb9000" fill-rule="evenodd" stroke="none"/>
    <path d="M174.8 168.25 L180.25 174.25 184.2 181.3 186.75 190.0 187.25 199.65 185.7 207.9 182.5 216.8 176.5 224.4 170.85 228.5 161.45 232.3 152.1 231.65 143.65 227.65 137.4 221.25 132.5 213.3 129.9 203.8 129.55 194.5 131.15 186.4 134.4 178.0 139.15 171.7 144.95 166.45 151.95 163.25 159.6 162.5 163.55 162.9 167.9 164.3 174.8 168.25 Z" ffdec:has-small-stroke="true" ffdec:original-stroke-width="0.05" fill="none" stroke="#033564" stroke-linecap="round" stroke-linejoin="round" stroke-width="1.0"/>
  </g>
</svg>
