<?xml version="1.0" encoding="UTF-8" standalone="no"?>
<svg xmlns:ffdec="https://www.free-decompiler.com/flash" xmlns:xlink="http://www.w3.org/1999/xlink" ffdec:objectType="shape" height="70.1px" width="59.0px" xmlns="http://www.w3.org/2000/svg">
  <g transform="matrix(1.0, 0.0, 0.0, 1.0, -125.1, -158.95)">
    <path d="M173.8 166.7 L179.25 173.7 182.6 182.45 184.1 190.75 183.35 200.0 180.75 209.55 175.15 218.3 168.6 224.55 159.25 228.25 151.0 229.05 141.25 225.9 133.15 218.8 127.55 209.0 125.1 197.4 126.05 187.4 128.05 179.25 132.5 171.5 137.9 165.5 144.0 161.5 150.75 159.15 156.35 158.95 159.15 159.2 163.2 160.25 166.8 161.75 173.8 166.7" fill="#eb9000" fill-rule="evenodd" stroke="none"/>
    <path d="M173.8 166.7 L179.25 173.7 182.6 182.45 184.1 190.75 183.35 200.0 180.75 209.55 175.15 218.3 168.6 224.55 159.25 228.25 151.0 229.05 141.25 225.9 133.15 218.8 127.55 209.0 125.1 197.4 126.05 187.4 128.05 179.25 132.5 171.5 137.9 165.5 144.0 161.5 150.75 159.15 156.35 158.95 159.15 159.2 163.2 160.25 166.8 161.75 173.8 166.7 Z" ffdec:has-small-stroke="true" ffdec:original-stroke-width="0.05" fill="none" stroke="#033564" stroke-linecap="round" stroke-linejoin="round" stroke-width="1.0"/>
  </g>
</svg>
