<?xml version="1.0" encoding="UTF-8" standalone="no"?>
<svg xmlns:ffdec="https://www.free-decompiler.com/flash" xmlns:xlink="http://www.w3.org/1999/xlink" ffdec:objectType="shape" height="70.65px" width="60.6px" xmlns="http://www.w3.org/2000/svg">
  <g transform="matrix(1.0, 0.0, 0.0, 1.0, -118.0, -151.25)">
    <path d="M172.8 164.0 L175.8 169.75 178.45 178.3 178.6 187.55 177.0 197.05 172.5 206.75 166.65 213.3 158.15 219.5 146.75 221.9 136.25 219.8 127.5 213.65 121.6 204.8 118.5 196.3 118.0 185.9 119.25 177.15 122.85 168.9 128.0 161.45 134.05 156.2 141.05 152.95 148.15 151.25 156.05 152.0 163.55 155.45 167.5 158.15 172.8 164.0" fill="#eb9000" fill-rule="evenodd" stroke="none"/>
    <path d="M172.8 164.0 L175.8 169.75 178.45 178.3 178.6 187.55 177.0 197.05 172.5 206.75 166.65 213.3 158.15 219.5 146.75 221.9 136.25 219.8 127.5 213.65 121.6 204.8 118.5 196.3 118.0 185.9 119.25 177.15 122.85 168.9 128.0 161.45 134.05 156.2 141.05 152.95 148.15 151.25 156.05 152.0 163.55 155.45 167.5 158.15 172.8 164.0 Z" ffdec:has-small-stroke="true" ffdec:original-stroke-width="0.05" fill="none" stroke="#033564" stroke-linecap="round" stroke-linejoin="round" stroke-width="1.0"/>
  </g>
</svg>
