<?xml version="1.0" encoding="UTF-8" standalone="no"?>
<svg xmlns:ffdec="https://www.free-decompiler.com/flash" xmlns:xlink="http://www.w3.org/1999/xlink" ffdec:objectType="shape" height="69.55px" width="63.8px" xmlns="http://www.w3.org/2000/svg">
  <g transform="matrix(1.0, 0.0, 0.0, 1.0, -105.75, -139.5)">
    <path d="M168.55 162.4 L169.55 169.95 168.9 179.75 165.4 189.05 160.55 196.55 153.25 203.5 144.0 208.0 135.15 209.05 126.0 207.65 117.75 203.3 110.7 195.5 106.75 184.65 105.75 176.7 107.25 165.95 112.3 155.3 119.2 147.85 124.95 143.75 133.4 140.25 141.75 139.5 148.95 140.75 155.35 143.85 160.8 148.1 165.65 154.65 168.55 162.4" fill="#eb9000" fill-rule="evenodd" stroke="none"/>
    <path d="M168.55 162.4 L169.55 169.95 168.9 179.75 165.4 189.05 160.55 196.55 153.25 203.5 144.0 208.0 135.15 209.05 126.0 207.65 117.75 203.3 110.7 195.5 106.75 184.65 105.75 176.7 107.25 165.95 112.3 155.3 119.2 147.85 124.95 143.75 133.4 140.25 141.75 139.5 148.95 140.75 155.35 143.85 160.8 148.1 165.65 154.65 168.55 162.4 Z" ffdec:has-small-stroke="true" ffdec:original-stroke-width="0.05" fill="none" stroke="#033564" stroke-linecap="round" stroke-linejoin="round" stroke-width="1.0"/>
  </g>
</svg>
