<?xml version="1.0" encoding="UTF-8" standalone="no"?>
<svg xmlns:ffdec="https://www.free-decompiler.com/flash" xmlns:xlink="http://www.w3.org/1999/xlink" ffdec:objectType="shape" height="66.8px" width="66.85px" xmlns="http://www.w3.org/2000/svg">
  <g transform="matrix(1.0, 0.0, 0.0, 1.0, -88.85, -123.5)">
    <path d="M149.2 134.1 L153.45 141.2 155.7 149.6 155.6 158.7 154.1 165.2 149.65 174.25 142.25 182.05 132.75 187.75 125.75 189.8 113.75 190.3 102.5 186.15 94.25 178.55 89.45 168.0 88.85 156.5 91.95 145.85 95.6 139.2 102.95 131.35 112.5 126.0 121.5 123.7 127.95 123.5 136.3 125.15 143.4 128.65 149.2 134.1" fill="#eb9000" fill-rule="evenodd" stroke="none"/>
    <path d="M149.2 134.1 L153.45 141.2 155.7 149.6 155.6 158.7 154.1 165.2 149.65 174.25 142.25 182.05 132.75 187.75 125.75 189.8 113.75 190.3 102.5 186.15 94.25 178.55 89.45 168.0 88.85 156.5 91.95 145.85 95.6 139.2 102.95 131.35 112.5 126.0 121.5 123.7 127.95 123.5 136.3 125.15 143.4 128.65 149.2 134.1 Z" ffdec:has-small-stroke="true" ffdec:original-stroke-width="0.05" fill="none" stroke="#033564" stroke-linecap="round" stroke-linejoin="round" stroke-width="1.0"/>
  </g>
</svg>
