<?xml version="1.0" encoding="UTF-8" standalone="no"?>
<svg xmlns:ffdec="https://www.free-decompiler.com/flash" xmlns:xlink="http://www.w3.org/1999/xlink" ffdec:objectType="shape" height="63.35px" width="69.95px" xmlns="http://www.w3.org/2000/svg">
  <g transform="matrix(1.0, 0.0, 0.0, 1.0, -68.6, -104.45)">
    <path d="M110.7 104.45 L119.95 106.95 128.4 112.1 133.5 118.05 137.15 124.15 138.55 131.65 138.4 139.5 135.75 146.5 131.55 153.9 123.6 161.0 114.5 165.7 103.55 167.8 91.95 166.65 82.75 162.5 75.2 156.4 70.6 148.5 68.6 138.75 69.95 128.85 74.0 120.3 80.85 113.45 89.2 107.75 100.1 104.5 110.7 104.45" fill="#eb9000" fill-rule="evenodd" stroke="none"/>
    <path d="M110.7 104.45 L119.95 106.95 128.4 112.1 133.5 118.05 137.15 124.15 138.55 131.65 138.4 139.5 135.75 146.5 131.55 153.9 123.6 161.0 114.5 165.7 103.55 167.8 91.95 166.65 82.75 162.5 75.2 156.4 70.6 148.5 68.6 138.75 69.95 128.85 74.0 120.3 80.85 113.45 89.2 107.75 100.1 104.5 110.7 104.45 Z" ffdec:has-small-stroke="true" ffdec:original-stroke-width="0.05" fill="none" stroke="#033564" stroke-linecap="round" stroke-linejoin="round" stroke-width="1.0"/>
  </g>
</svg>
