<?xml version="1.0" encoding="UTF-8" standalone="no"?>
<svg xmlns:ffdec="https://www.free-decompiler.com/flash" xmlns:xlink="http://www.w3.org/1999/xlink" ffdec:objectType="shape" height="58.7px" width="70.45px" xmlns="http://www.w3.org/2000/svg">
  <g transform="matrix(1.0, 0.0, 0.0, 1.0, -50.6, -85.75)">
    <path d="M73.25 87.2 L82.5 85.75 92.6 86.05 102.2 89.15 111.2 95.0 117.5 102.55 120.55 110.4 121.05 118.65 118.8 126.3 115.55 131.25 114.45 132.55 109.25 137.6 100.7 142.2 91.35 144.1 84.1 144.45 75.0 142.85 65.6 138.75 57.7 132.25 52.45 123.75 50.6 114.35 52.25 105.95 55.6 99.4 62.75 92.15 73.25 87.2" fill="#eb9000" fill-rule="evenodd" stroke="none"/>
    <path d="M73.25 87.2 L82.5 85.75 92.6 86.05 102.2 89.15 111.2 95.0 117.5 102.55 120.55 110.4 121.05 118.65 118.8 126.3 115.55 131.25 114.45 132.55 109.25 137.6 100.7 142.2 91.35 144.1 84.1 144.45 75.0 142.85 65.6 138.75 57.7 132.25 52.45 123.75 50.6 114.35 52.25 105.95 55.6 99.4 62.75 92.15 73.25 87.2 Z" ffdec:has-small-stroke="true" ffdec:original-stroke-width="0.05" fill="none" stroke="#033564" stroke-linecap="round" stroke-linejoin="round" stroke-width="1.0"/>
  </g>
</svg>
