<?xml version="1.0" encoding="UTF-8" standalone="no"?>
<svg xmlns:ffdec="https://www.free-decompiler.com/flash" xmlns:xlink="http://www.w3.org/1999/xlink" ffdec:objectType="shape" height="53.35px" width="66.0px" xmlns="http://www.w3.org/2000/svg">
  <g transform="matrix(1.0, 0.0, 0.0, 1.0, -40.45, -71.7)">
    <path d="M78.2 72.25 L86.7 75.25 94.7 79.6 101.0 85.95 104.3 91.3 106.45 97.4 106.45 104.9 104.3 111.2 100.0 116.95 93.35 121.35 86.35 123.8 78.25 125.05 70.35 124.3 60.85 121.6 53.2 117.05 46.35 110.9 42.1 103.65 40.45 94.75 42.1 88.0 42.75 86.25 46.35 80.8 53.2 75.35 62.1 72.2 69.7 71.7 78.2 72.25" fill="#eb9000" fill-rule="evenodd" stroke="none"/>
    <path d="M78.2 72.25 L86.7 75.25 94.7 79.6 101.0 85.95 104.3 91.3 106.45 97.4 106.45 104.9 104.3 111.2 100.0 116.95 93.35 121.35 86.35 123.8 78.25 125.05 70.35 124.3 60.85 121.6 53.2 117.05 46.35 110.9 42.1 103.65 40.45 94.75 42.1 88.0 42.75 86.25 46.35 80.8 53.2 75.35 62.1 72.2 69.7 71.7 78.2 72.25 Z" ffdec:has-small-stroke="true" ffdec:original-stroke-width="0.05" fill="none" stroke="#033564" stroke-linecap="round" stroke-linejoin="round" stroke-width="1.0"/>
  </g>
</svg>
