<?xml version="1.0" encoding="UTF-8" standalone="no"?>
<svg xmlns:ffdec="https://www.free-decompiler.com/flash" xmlns:xlink="http://www.w3.org/1999/xlink" ffdec:objectType="shape" height="46.85px" width="58.25px" xmlns="http://www.w3.org/2000/svg">
  <g transform="matrix(1.0, 0.0, 0.0, 1.0, -39.5, -64.55)">
    <path d="M78.5 67.7 L85.0 71.1 91.35 76.6 95.25 82.45 96.8 86.7 97.75 92.0 96.85 97.5 94.25 102.4 90.0 106.5 84.45 109.5 79.35 110.75 72.6 111.4 64.45 110.15 57.2 107.45 48.95 102.25 43.35 95.8 40.95 90.8 40.1 87.6 39.5 82.35 41.7 75.45 46.95 69.5 52.1 66.85 54.85 65.75 61.6 64.55 70.45 65.0 78.5 67.7" fill="#eb9000" fill-rule="evenodd" stroke="none"/>
    <path d="M78.5 67.7 L85.0 71.1 91.35 76.6 95.25 82.45 96.8 86.7 97.75 92.0 96.85 97.5 94.25 102.4 90.0 106.5 84.45 109.5 79.35 110.75 72.6 111.4 64.45 110.15 57.2 107.45 48.95 102.25 43.35 95.8 40.95 90.8 40.1 87.6 39.5 82.35 41.7 75.45 46.95 69.5 52.1 66.85 54.85 65.75 61.6 64.55 70.45 65.0 78.5 67.7 Z" ffdec:has-small-stroke="true" ffdec:original-stroke-width="0.05" fill="none" stroke="#033564" stroke-linecap="round" stroke-linejoin="round" stroke-width="1.0"/>
  </g>
</svg>
