<?xml version="1.0" encoding="UTF-8" standalone="no"?>
<svg xmlns:ffdec="https://www.free-decompiler.com/flash" xmlns:xlink="http://www.w3.org/1999/xlink" ffdec:objectType="shape" height="39.55px" width="48.5px" xmlns="http://www.w3.org/2000/svg">
  <g transform="matrix(1.0, 0.0, 0.0, 1.0, -45.7, -63.95)">
    <path d="M76.35 65.6 L83.35 69.3 88.75 74.05 92.35 79.25 94.1 84.45 94.2 90.05 92.7 94.4 89.45 98.4 85.95 100.75 84.35 101.5 79.95 103.0 73.45 103.5 66.45 102.3 58.7 99.0 52.0 93.75 47.7 87.6 45.7 80.7 46.7 74.0 50.35 69.0 54.75 66.1 56.7 65.25 62.1 63.95 69.6 63.95 76.35 65.6" fill="#eb9000" fill-rule="evenodd" stroke="none"/>
    <path d="M76.35 65.6 L83.35 69.3 88.75 74.05 92.35 79.25 94.1 84.45 94.2 90.05 92.7 94.4 89.45 98.4 85.95 100.75 84.35 101.5 79.95 103.0 73.45 103.5 66.45 102.3 58.7 99.0 52.0 93.75 47.7 87.6 45.7 80.7 46.7 74.0 50.35 69.0 54.75 66.1 56.7 65.25 62.1 63.95 69.6 63.95 76.35 65.6 Z" ffdec:has-small-stroke="true" ffdec:original-stroke-width="0.05" fill="none" stroke="#033564" stroke-linecap="round" stroke-linejoin="round" stroke-width="1.0"/>
  </g>
</svg>
