<?xml version="1.0" encoding="UTF-8" standalone="no"?>
<svg xmlns:ffdec="https://www.free-decompiler.com/flash" xmlns:xlink="http://www.w3.org/1999/xlink" ffdec:objectType="shape" height="33.25px" width="39.6px" xmlns="http://www.w3.org/2000/svg">
  <g transform="matrix(1.0, 0.0, 0.0, 1.0, -56.1, -67.0)">
    <path d="M70.25 67.1 L73.85 67.0 79.5 68.0 84.6 70.2 88.85 73.2 91.6 76.05 94.35 80.25 95.7 84.7 95.5 89.15 94.6 92.25 92.2 95.5 89.1 97.8 84.35 99.75 79.0 100.25 73.6 99.5 67.45 97.0 62.45 93.4 59.7 90.05 56.85 85.0 56.1 79.6 57.2 75.6 59.7 71.55 64.35 68.5 70.25 67.1" fill="#eb9000" fill-rule="evenodd" stroke="none"/>
    <path d="M70.25 67.1 L73.85 67.0 79.5 68.0 84.6 70.2 88.85 73.2 91.6 76.05 94.35 80.25 95.7 84.7 95.5 89.15 94.6 92.25 92.2 95.5 89.1 97.8 84.35 99.75 79.0 100.25 73.6 99.5 67.45 97.0 62.45 93.4 59.7 90.05 56.85 85.0 56.1 79.6 57.2 75.6 59.7 71.55 64.35 68.5 70.25 67.1 Z" ffdec:has-small-stroke="true" ffdec:original-stroke-width="0.05" fill="none" stroke="#033564" stroke-linecap="round" stroke-linejoin="round" stroke-width="1.0"/>
  </g>
</svg>
