<?xml version="1.0" encoding="UTF-8" standalone="no"?>
<svg xmlns:ffdec="https://www.free-decompiler.com/flash" xmlns:xlink="http://www.w3.org/1999/xlink" ffdec:objectType="shape" height="27.7px" width="32.15px" xmlns="http://www.w3.org/2000/svg">
  <g transform="matrix(1.0, 0.0, 0.0, 1.0, -68.35, -72.45)">
    <path d="M72.1 93.4 L69.85 89.8 68.35 85.85 68.6 81.8 69.7 78.45 72.35 75.5 74.95 73.7 79.1 72.5 83.7 72.45 88.1 73.5 91.35 74.8 95.35 77.6 97.75 80.45 99.7 83.85 100.5 87.3 100.35 90.75 99.05 93.8 97.3 96.3 94.75 98.15 91.25 99.55 87.2 100.15 82.95 99.65 78.6 98.25 72.1 93.4" fill="#eb9000" fill-rule="evenodd" stroke="none"/>
    <path d="M72.1 93.4 L69.85 89.8 68.35 85.85 68.6 81.8 69.7 78.45 72.35 75.5 74.95 73.7 79.1 72.5 83.7 72.45 88.1 73.5 91.35 74.8 95.35 77.6 97.75 80.45 99.7 83.85 100.5 87.3 100.35 90.75 99.05 93.8 97.3 96.3 94.75 98.15 91.25 99.55 87.2 100.15 82.95 99.65 78.6 98.25 72.1 93.4 Z" ffdec:has-small-stroke="true" ffdec:original-stroke-width="0.05" fill="none" stroke="#033564" stroke-linecap="round" stroke-linejoin="round" stroke-width="1.0"/>
  </g>
</svg>
