<?xml version="1.0" encoding="UTF-8" standalone="no"?>
<svg xmlns:ffdec="https://www.free-decompiler.com/flash" xmlns:xlink="http://www.w3.org/1999/xlink" ffdec:objectType="shape" height="23.45px" width="26.55px" xmlns="http://www.w3.org/2000/svg">
  <g transform="matrix(1.0, 0.0, 0.0, 1.0, -80.7, -78.45)">
    <path d="M106.8 94.5 L105.55 97.3 103.35 99.55 101.45 100.75 98.25 101.75 94.7 101.9 92.85 101.65 91.0 101.15 87.5 99.65 85.25 98.0 82.75 95.15 81.25 91.75 80.7 88.9 81.25 85.3 83.25 82.2 85.1 80.5 88.7 78.8 92.5 78.45 96.55 79.05 100.5 80.75 103.7 83.45 105.25 85.5 106.8 88.75 107.25 92.05 106.8 94.5" fill="#eb9000" fill-rule="evenodd" stroke="none"/>
    <path d="M106.8 94.5 L105.55 97.3 103.35 99.55 101.45 100.75 98.25 101.75 94.7 101.9 92.85 101.65 91.0 101.15 87.5 99.65 85.25 98.0 82.75 95.15 81.25 91.75 80.7 88.9 81.25 85.3 83.25 82.2 85.1 80.5 88.7 78.8 92.5 78.45 96.55 79.05 100.5 80.75 103.7 83.45 105.25 85.5 106.8 88.75 107.25 92.05 106.8 94.5 Z" ffdec:has-small-stroke="true" ffdec:original-stroke-width="0.05" fill="none" stroke="#033564" stroke-linecap="round" stroke-linejoin="round" stroke-width="1.0"/>
  </g>
</svg>
