<?xml version="1.0" encoding="UTF-8" standalone="no"?>
<svg xmlns:ffdec="https://www.free-decompiler.com/flash" xmlns:xlink="http://www.w3.org/1999/xlink" ffdec:objectType="shape" height="20.4px" width="22.15px" xmlns="http://www.w3.org/2000/svg">
  <g transform="matrix(1.0, 0.0, 0.0, 1.0, -92.7, -84.7)">
    <path d="M113.7 91.15 L114.75 94.15 114.85 97.15 114.0 99.9 112.1 102.3 110.7 103.4 107.7 104.7 104.6 105.1 101.3 104.6 98.1 103.15 95.35 100.75 93.5 97.9 92.7 94.8 92.95 91.65 93.7 89.8 94.35 88.65 95.6 87.2 98.5 85.35 101.8 84.7 105.25 84.95 108.75 86.25 111.75 88.5 113.7 91.15" fill="#eb9000" fill-rule="evenodd" stroke="none"/>
    <path d="M113.7 91.15 L114.75 94.15 114.85 97.15 114.0 99.9 112.1 102.3 110.7 103.4 107.7 104.7 104.6 105.1 101.3 104.6 98.1 103.15 95.35 100.75 93.5 97.9 92.7 94.8 92.95 91.65 93.7 89.8 94.35 88.65 95.6 87.2 98.5 85.35 101.8 84.7 105.25 84.95 108.75 86.25 111.75 88.5 113.7 91.15 Z" ffdec:has-small-stroke="true" ffdec:original-stroke-width="0.05" fill="none" stroke="#033564" stroke-linecap="round" stroke-linejoin="round" stroke-width="1.0"/>
  </g>
</svg>
