<?xml version="1.0" encoding="UTF-8" standalone="no"?>
<svg xmlns:ffdec="https://www.free-decompiler.com/flash" xmlns:xlink="http://www.w3.org/1999/xlink" ffdec:objectType="shape" height="17.95px" width="19.3px" xmlns="http://www.w3.org/2000/svg">
  <g transform="matrix(1.0, 0.0, 0.0, 1.0, -103.45, -90.75)">
    <path d="M113.6 90.75 L115.55 91.15 118.35 92.4 120.6 94.5 122.05 96.9 122.75 99.65 122.5 102.4 122.05 103.55 120.5 105.9 119.5 106.9 116.95 108.2 114.2 108.7 111.25 108.4 108.5 107.2 106.95 106.15 104.8 103.8 103.75 101.25 103.45 98.4 104.1 95.75 105.75 93.25 108.05 91.65 109.8 91.15 110.8 90.75 113.6 90.75" fill="#eb9000" fill-rule="evenodd" stroke="none"/>
    <path d="M113.6 90.75 L115.55 91.15 118.35 92.4 120.6 94.5 122.05 96.9 122.75 99.65 122.5 102.4 122.05 103.55 120.5 105.9 119.5 106.9 116.95 108.2 114.2 108.7 111.25 108.4 108.5 107.2 106.95 106.15 104.8 103.8 103.75 101.25 103.45 98.4 104.1 95.75 105.75 93.25 108.05 91.65 109.8 91.15 110.8 90.75 113.6 90.75 Z" ffdec:has-small-stroke="true" ffdec:original-stroke-width="0.05" fill="none" stroke="#033564" stroke-linecap="round" stroke-linejoin="round" stroke-width="1.0"/>
  </g>
</svg>
