<?xml version="1.0" encoding="UTF-8" standalone="no"?>
<svg xmlns:ffdec="https://www.free-decompiler.com/flash" xmlns:xlink="http://www.w3.org/1999/xlink" ffdec:objectType="shape" height="16.4px" width="17.2px" xmlns="http://www.w3.org/2000/svg">
  <g transform="matrix(1.0, 0.0, 0.0, 1.0, -113.2, -96.3)">
    <path d="M118.45 96.8 L120.95 96.3 123.35 96.5 125.85 97.5 127.45 98.55 129.05 100.5 130.05 102.65 130.4 104.45 130.15 106.75 129.25 108.9 127.55 110.9 125.45 112.2 123.0 112.7 120.6 112.6 118.75 112.1 116.5 110.75 115.1 109.4 113.75 107.15 113.2 104.75 113.45 102.3 114.0 100.8 115.2 98.9 117.0 97.5 118.45 96.8" fill="#eb9000" fill-rule="evenodd" stroke="none"/>
    <path d="M118.45 96.8 L120.95 96.3 123.35 96.5 125.85 97.5 127.45 98.55 129.05 100.5 130.05 102.65 130.4 104.45 130.15 106.75 129.25 108.9 127.55 110.9 125.45 112.2 123.0 112.7 120.6 112.6 118.75 112.1 116.5 110.75 115.1 109.4 113.75 107.15 113.2 104.75 113.45 102.3 114.0 100.8 115.2 98.9 117.0 97.5 118.45 96.8 Z" ffdec:has-small-stroke="true" ffdec:original-stroke-width="0.05" fill="none" stroke="#033564" stroke-linecap="round" stroke-linejoin="round" stroke-width="1.0"/>
  </g>
</svg>
