<?xml version="1.0" encoding="UTF-8" standalone="no"?>
<svg xmlns:ffdec="https://www.free-decompiler.com/flash" xmlns:xlink="http://www.w3.org/1999/xlink" ffdec:objectType="shape" height="15.25px" width="15.75px" xmlns="http://www.w3.org/2000/svg">
  <g transform="matrix(1.0, 0.0, 0.0, 1.0, -121.8, -101.75)">
    <path d="M134.4 103.3 L135.75 104.65 136.9 106.4 137.4 108.25 137.55 110.4 137.0 112.35 136.15 113.85 134.9 115.25 133.15 116.3 131.75 116.75 129.5 117.0 127.25 116.6 125.25 115.6 123.75 114.35 122.75 112.7 121.85 110.65 121.8 108.45 122.25 106.65 123.1 104.85 124.55 103.4 126.35 102.3 128.4 101.75 130.55 101.75 132.3 102.25 134.4 103.3" fill="#eb9000" fill-rule="evenodd" stroke="none"/>
    <path d="M134.4 103.3 L135.75 104.65 136.9 106.4 137.4 108.25 137.55 110.4 137.0 112.35 136.15 113.85 134.9 115.25 133.15 116.3 131.75 116.75 129.5 117.0 127.25 116.6 125.25 115.6 123.75 114.35 122.75 112.7 121.85 110.65 121.8 108.45 122.25 106.65 123.1 104.85 124.55 103.4 126.35 102.3 128.4 101.75 130.55 101.75 132.3 102.25 134.4 103.3 Z" ffdec:has-small-stroke="true" ffdec:original-stroke-width="0.05" fill="none" stroke="#033564" stroke-linecap="round" stroke-linejoin="round" stroke-width="1.0"/>
  </g>
</svg>
