<?xml version="1.0" encoding="UTF-8" standalone="no"?>
<svg xmlns:ffdec="https://www.free-decompiler.com/flash" xmlns:xlink="http://www.w3.org/1999/xlink" ffdec:objectType="shape" height="14.45px" width="14.9px" xmlns="http://www.w3.org/2000/svg">
  <g transform="matrix(1.0, 0.0, 0.0, 1.0, -129.25, -106.9)">
    <path d="M138.75 107.15 L140.55 107.95 142.05 109.15 143.0 110.45 143.15 110.7 143.9 112.25 144.15 114.25 143.9 116.1 143.15 117.85 142.05 119.35 140.55 120.3 138.75 121.1 136.8 121.35 134.9 121.1 133.15 120.4 131.5 119.35 130.25 117.8 129.55 115.95 129.25 114.1 129.55 112.1 130.25 110.4 131.5 109.0 133.15 107.7 135.05 107.0 136.8 106.9 138.75 107.15" fill="#eb9000" fill-rule="evenodd" stroke="none"/>
    <path d="M138.75 107.15 L140.55 107.95 142.05 109.15 143.0 110.45 143.15 110.7 143.9 112.25 144.15 114.25 143.9 116.1 143.15 117.85 142.05 119.35 140.55 120.3 138.75 121.1 136.8 121.35 134.9 121.1 133.15 120.4 131.5 119.35 130.25 117.8 129.55 115.95 129.25 114.1 129.55 112.1 130.25 110.4 131.5 109.0 133.15 107.7 135.05 107.0 136.8 106.9 138.75 107.15 Z" ffdec:has-small-stroke="true" ffdec:original-stroke-width="0.05" fill="none" stroke="#033564" stroke-linecap="round" stroke-linejoin="round" stroke-width="1.0"/>
  </g>
</svg>
