<?xml version="1.0" encoding="UTF-8" standalone="no"?>
<svg xmlns:ffdec="https://www.free-decompiler.com/flash" xmlns:xlink="http://www.w3.org/1999/xlink" ffdec:objectType="shape" height="14.05px" width="14.3px" xmlns="http://www.w3.org/2000/svg">
  <g transform="matrix(1.0, 0.0, 0.0, 1.0, -135.65, -111.75)">
    <path d="M135.9 117.25 L136.5 115.6 137.5 114.2 139.0 112.95 140.65 112.2 142.55 111.75 144.6 112.0 146.1 112.6 147.6 113.6 148.85 115.0 149.65 116.75 149.95 118.15 149.9 120.1 149.2 122.0 148.25 123.45 146.9 124.55 145.15 125.55 143.25 125.8 141.5 125.75 139.75 125.15 138.25 124.15 136.9 122.75 136.0 121.0 135.65 119.2 135.9 117.25" fill="#eb9000" fill-rule="evenodd" stroke="none"/>
    <path d="M135.9 117.25 L136.5 115.6 137.5 114.2 139.0 112.95 140.65 112.2 142.55 111.75 144.6 112.0 146.1 112.6 147.6 113.6 148.85 115.0 149.65 116.75 149.95 118.15 149.9 120.1 149.2 122.0 148.25 123.45 146.9 124.55 145.15 125.55 143.25 125.8 141.5 125.75 139.75 125.15 138.25 124.15 136.9 122.75 136.0 121.0 135.65 119.2 135.9 117.25 Z" ffdec:has-small-stroke="true" ffdec:original-stroke-width="0.05" fill="none" stroke="#033564" stroke-linecap="round" stroke-linejoin="round" stroke-width="1.0"/>
  </g>
</svg>
