<?xml version="1.0" encoding="UTF-8" standalone="no"?>
<svg xmlns:ffdec="https://www.free-decompiler.com/flash" xmlns:xlink="http://www.w3.org/1999/xlink" ffdec:objectType="shape" height="13.8px" width="13.95px" xmlns="http://www.w3.org/2000/svg">
  <g transform="matrix(1.0, 0.0, 0.0, 1.0, -141.0, -116.5)">
    <path d="M153.6 119.15 L154.5 120.75 154.95 122.55 154.95 124.5 154.35 126.3 153.5 127.75 152.25 128.85 150.65 129.85 148.9 130.3 146.95 130.3 145.15 129.75 143.65 128.85 142.5 127.65 141.5 126.05 141.0 124.15 141.05 122.2 141.65 120.3 143.9 117.8 145.45 117.0 147.35 116.5 149.15 116.6 150.95 117.05 152.5 118.15 153.6 119.15" fill="#eb9000" fill-rule="evenodd" stroke="none"/>
    <path d="M153.6 119.15 L154.5 120.75 154.95 122.55 154.95 124.5 154.35 126.3 153.5 127.75 152.25 128.85 150.65 129.85 148.9 130.3 146.95 130.3 145.15 129.75 143.65 128.85 142.5 127.65 141.5 126.05 141.0 124.15 141.05 122.2 141.65 120.3 143.9 117.8 145.45 117.0 147.35 116.5 149.15 116.6 150.95 117.05 152.5 118.15 153.6 119.15 Z" ffdec:has-small-stroke="true" ffdec:original-stroke-width="0.05" fill="none" stroke="#033564" stroke-linecap="round" stroke-linejoin="round" stroke-width="1.0"/>
  </g>
</svg>
