<?xml version="1.0" encoding="UTF-8" standalone="no"?>
<svg xmlns:ffdec="https://www.free-decompiler.com/flash" xmlns:xlink="http://www.w3.org/1999/xlink" ffdec:objectType="shape" height="13.85px" width="13.9px" xmlns="http://www.w3.org/2000/svg">
  <g transform="matrix(1.0, 0.0, 0.0, 1.0, -145.25, -120.75)">
    <path d="M158.5 124.65 L159.1 126.5 159.15 128.35 158.65 130.3 157.75 131.9 155.1 134.05 153.25 134.6 151.4 134.6 149.6 134.1 148.0 133.3 146.65 132.05 145.65 130.1 145.35 128.85 145.25 126.9 145.75 125.05 146.7 123.4 147.75 122.25 149.4 121.35 151.1 120.85 152.95 120.75 154.7 121.2 156.35 122.05 157.55 123.3 158.5 124.65" fill="#eb9000" fill-rule="evenodd" stroke="none"/>
    <path d="M158.5 124.65 L159.1 126.5 159.15 128.35 158.65 130.3 157.75 131.9 155.1 134.05 153.25 134.6 151.4 134.6 149.6 134.1 148.0 133.3 146.65 132.05 145.65 130.1 145.35 128.85 145.25 126.9 145.75 125.05 146.7 123.4 147.75 122.25 149.4 121.35 151.1 120.85 152.95 120.75 154.7 121.2 156.35 122.05 157.55 123.3 158.5 124.65 Z" ffdec:has-small-stroke="true" ffdec:original-stroke-width="0.05" fill="none" stroke="#033564" stroke-linecap="round" stroke-linejoin="round" stroke-width="1.0"/>
  </g>
</svg>
