<?xml version="1.0" encoding="UTF-8" standalone="no"?>
<svg xmlns:ffdec="https://www.free-decompiler.com/flash" xmlns:xlink="http://www.w3.org/1999/xlink" ffdec:objectType="shape" height="13.95px" width="13.8px" xmlns="http://www.w3.org/2000/svg">
  <g transform="matrix(1.0, 0.0, 0.0, 1.0, -148.4, -124.55)">
    <path d="M161.5 128.65 L162.0 130.0 162.2 131.9 161.75 133.85 160.9 135.6 159.7 137.0 158.4 137.85 156.55 138.5 154.7 138.5 152.95 138.2 151.15 137.2 149.9 136.1 148.9 134.4 148.5 133.05 148.4 132.3 148.45 130.1 149.2 128.15 150.45 126.5 152.25 125.25 153.7 124.8 155.7 124.55 157.7 125.0 159.15 125.75 160.55 127.05 161.5 128.65" fill="#eb9000" fill-rule="evenodd" stroke="none"/>
    <path d="M161.5 128.65 L162.0 130.0 162.2 131.9 161.75 133.85 160.9 135.6 159.7 137.0 158.4 137.85 156.55 138.5 154.7 138.5 152.95 138.2 151.15 137.2 149.9 136.1 148.9 134.4 148.5 133.05 148.4 132.3 148.45 130.1 149.2 128.15 150.45 126.5 152.25 125.25 153.7 124.8 155.7 124.55 157.7 125.0 159.15 125.75 160.55 127.05 161.5 128.65 Z" ffdec:has-small-stroke="true" ffdec:original-stroke-width="0.05" fill="none" stroke="#033564" stroke-linecap="round" stroke-linejoin="round" stroke-width="1.0"/>
  </g>
</svg>
