<?xml version="1.0" encoding="UTF-8" standalone="no"?>
<svg xmlns:ffdec="https://www.free-decompiler.com/flash" xmlns:xlink="http://www.w3.org/1999/xlink" ffdec:objectType="shape" height="14.2px" width="13.95px" xmlns="http://www.w3.org/2000/svg">
  <g transform="matrix(1.0, 0.0, 0.0, 1.0, -150.45, -127.65)">
    <path d="M162.5 130.0 L163.7 131.6 164.25 133.55 164.4 134.85 164.05 136.75 163.7 137.75 162.5 139.6 160.85 140.95 158.9 141.75 156.95 141.85 155.35 141.6 153.45 140.7 151.9 139.2 151.15 137.85 150.45 135.9 150.45 133.65 151.15 131.65 152.35 129.9 153.95 128.6 156.0 127.9 157.5 127.65 159.5 128.0 160.85 128.75 161.25 128.9 162.5 130.0" fill="#eb9000" fill-rule="evenodd" stroke="none"/>
    <path d="M162.5 130.0 L163.7 131.6 164.25 133.55 164.4 134.85 164.05 136.75 163.7 137.75 162.5 139.6 160.85 140.95 158.9 141.75 156.95 141.85 155.35 141.6 153.45 140.7 151.9 139.2 151.15 137.85 150.45 135.9 150.45 133.65 151.15 131.65 152.35 129.9 153.95 128.6 156.0 127.9 157.5 127.65 159.5 128.0 160.85 128.75 161.25 128.9 162.5 130.0 Z" ffdec:has-small-stroke="true" ffdec:original-stroke-width="0.05" fill="none" stroke="#033564" stroke-linecap="round" stroke-linejoin="round" stroke-width="1.0"/>
  </g>
</svg>
