<?xml version="1.0" encoding="UTF-8" standalone="no"?>
<svg xmlns:ffdec="https://www.free-decompiler.com/flash" xmlns:xlink="http://www.w3.org/1999/xlink" ffdec:objectType="shape" height="23.45px" width="26.4px" xmlns="http://www.w3.org/2000/svg">
  <g transform="matrix(1.0, 0.0, 0.0, 1.0, -212.75, -78.45)">
    <path d="M237.8 83.35 L239.05 86.55 239.15 89.15 239.05 90.25 238.4 92.9 236.4 96.25 233.3 99.15 231.0 100.4 226.9 101.75 223.25 101.9 221.45 101.65 219.75 101.15 217.75 100.25 216.55 99.5 214.95 97.9 214.25 96.9 213.3 95.15 212.75 91.9 213.3 88.4 214.95 85.25 216.5 83.2 219.65 80.75 223.65 79.0 227.5 78.45 231.4 78.95 235.05 80.55 237.8 83.35" fill="#eb9000" fill-rule="evenodd" stroke="none"/>
    <path d="M237.8 83.35 L239.05 86.55 239.15 89.15 239.05 90.25 238.4 92.9 236.4 96.25 233.3 99.15 231.0 100.4 226.9 101.75 223.25 101.9 221.45 101.65 219.75 101.15 217.75 100.25 216.55 99.5 214.95 97.9 214.25 96.9 213.3 95.15 212.75 91.9 213.3 88.4 214.95 85.25 216.5 83.2 219.65 80.75 223.65 79.0 227.5 78.45 231.4 78.95 235.05 80.55 237.8 83.35 Z" ffdec:has-small-stroke="true" ffdec:original-stroke-width="0.05" fill="none" stroke="#033564" stroke-linecap="round" stroke-linejoin="round" stroke-width="1.0"/>
  </g>
</svg>
