<?xml version="1.0" encoding="UTF-8" standalone="no"?>
<svg xmlns:ffdec="https://www.free-decompiler.com/flash" xmlns:xlink="http://www.w3.org/1999/xlink" ffdec:objectType="shape" height="14.35px" width="14.05px" xmlns="http://www.w3.org/2000/svg">
  <g transform="matrix(1.0, 0.0, 0.0, 1.0, -151.75, -130.0)">
    <path d="M163.55 132.05 L164.05 132.4 164.9 133.65 165.65 135.6 165.8 137.7 165.25 139.95 164.15 141.75 162.5 143.2 160.6 144.1 158.4 144.35 156.45 143.85 155.0 143.2 153.35 141.75 152.25 139.85 151.75 137.75 151.75 136.45 152.35 134.25 153.45 132.4 155.1 131.1 157.0 130.25 158.4 130.0 160.4 130.15 162.45 131.05 163.55 132.05" fill="#eb9000" fill-rule="evenodd" stroke="none"/>
    <path d="M163.55 132.05 L164.05 132.4 164.9 133.65 165.65 135.6 165.8 137.7 165.25 139.95 164.15 141.75 162.5 143.2 160.6 144.1 158.4 144.35 156.45 143.85 155.0 143.2 153.35 141.75 152.25 139.85 151.75 137.75 151.75 136.45 152.35 134.25 153.45 132.4 155.1 131.1 157.0 130.25 158.4 130.0 160.4 130.15 162.45 131.05 163.55 132.05 Z" ffdec:has-small-stroke="true" ffdec:original-stroke-width="0.05" fill="none" stroke="#033564" stroke-linecap="round" stroke-linejoin="round" stroke-width="1.0"/>
    <path d="M154.3 131.7 L155.05 131.1 M152.25 139.9 L151.75 137.75 M158.4 144.35 L156.35 143.85" ffdec:has-small-stroke="true" ffdec:original-stroke-width="0.05" fill="none" stroke="#033564" stroke-linecap="round" stroke-linejoin="round" stroke-width="1.0"/>
  </g>
</svg>
