<?xml version="1.0" encoding="UTF-8" standalone="no"?>
<svg xmlns:ffdec="https://www.free-decompiler.com/flash" xmlns:xlink="http://www.w3.org/1999/xlink" ffdec:objectType="shape" height="14.35px" width="14.05px" xmlns="http://www.w3.org/2000/svg">
  <g transform="matrix(1.0, 0.0, 0.0, 1.0, -152.6, -131.25)">
    <path d="M166.55 137.35 L166.65 138.75 166.3 140.85 165.15 142.85 163.55 144.35 161.6 145.25 159.6 145.6 157.3 145.2 155.45 144.2 154.45 143.25 153.2 141.35 152.6 139.25 152.7 137.0 153.45 134.9 154.75 133.1 156.6 131.85 158.75 131.25 160.9 131.3 163.0 132.05 164.75 133.35 166.0 135.15 166.55 137.35" fill="#eb9000" fill-rule="evenodd" stroke="none"/>
    <path d="M166.55 137.35 L166.65 138.75 166.3 140.85 165.15 142.85 163.55 144.35 161.6 145.25 159.6 145.6 157.3 145.2 155.45 144.2 154.45 143.25 153.2 141.35 152.6 139.25 152.7 137.0 153.45 134.9 154.75 133.1 156.6 131.85 158.75 131.25 160.9 131.3 163.0 132.05 164.75 133.35 166.0 135.15 166.55 137.35 Z" ffdec:has-small-stroke="true" ffdec:original-stroke-width="0.05" fill="none" stroke="#033564" stroke-linecap="round" stroke-linejoin="round" stroke-width="1.0"/>
  </g>
</svg>
