<?xml version="1.0" encoding="UTF-8" standalone="no"?>
<svg xmlns:ffdec="https://www.free-decompiler.com/flash" xmlns:xlink="http://www.w3.org/1999/xlink" ffdec:objectType="shape" height="14.35px" width="14.05px" xmlns="http://www.w3.org/2000/svg">
  <g transform="matrix(1.0, 0.0, 0.0, 1.0, -153.35, -131.25)">
    <path d="M163.4 131.85 L165.25 133.1 166.55 134.9 167.3 137.0 167.4 139.25 166.8 141.35 165.55 143.25 164.5 144.25 162.55 145.25 160.4 145.6 158.4 145.35 156.3 144.25 154.85 142.75 153.75 140.85 153.35 138.75 153.45 137.35 153.6 136.5 154.0 135.15 155.25 133.35 157.0 132.05 159.1 131.3 161.25 131.25 163.4 131.85" fill="#eb9000" fill-rule="evenodd" stroke="none"/>
    <path d="M163.4 131.85 L165.25 133.1 166.55 134.9 167.3 137.0 167.4 139.25 166.8 141.35 165.55 143.25 164.5 144.25 162.55 145.25 160.4 145.6 158.4 145.35 156.3 144.25 154.85 142.75 153.75 140.85 153.35 138.75 153.45 137.35 153.6 136.5 154.0 135.15 155.25 133.35 157.0 132.05 159.1 131.3 161.25 131.25 163.4 131.85 Z" ffdec:has-small-stroke="true" ffdec:original-stroke-width="0.05" fill="none" stroke="#033564" stroke-linecap="round" stroke-linejoin="round" stroke-width="1.0"/>
  </g>
</svg>
