<?xml version="1.0" encoding="UTF-8" standalone="no"?>
<svg xmlns:ffdec="https://www.free-decompiler.com/flash" xmlns:xlink="http://www.w3.org/1999/xlink" ffdec:objectType="shape" height="14.25px" width="14.05px" xmlns="http://www.w3.org/2000/svg">
  <g transform="matrix(1.0, 0.0, 0.0, 1.0, -154.2, -130.0)">
    <path d="M164.9 131.05 L166.55 132.5 167.65 134.3 168.05 135.5 168.25 137.75 167.75 139.85 166.65 141.75 165.0 143.2 163.55 143.85 161.5 144.25 159.45 144.1 157.55 143.25 155.85 141.7 154.7 139.85 154.2 137.75 154.35 135.65 155.2 133.6 155.95 132.4 157.55 131.05 159.6 130.15 161.6 130.0 163.0 130.25 164.9 131.05" fill="#eb9000" fill-rule="evenodd" stroke="none"/>
    <path d="M164.9 131.05 L166.55 132.5 167.65 134.3 168.05 135.5 168.25 137.75 167.75 139.85 166.65 141.75 165.0 143.2 163.55 143.85 161.5 144.25 159.45 144.1 157.55 143.25 155.85 141.7 154.7 139.85 154.2 137.75 154.35 135.65 155.2 133.6 155.95 132.4 157.55 131.05 159.6 130.15 161.6 130.0 163.0 130.25 164.9 131.05 Z" ffdec:has-small-stroke="true" ffdec:original-stroke-width="0.05" fill="none" stroke="#033564" stroke-linecap="round" stroke-linejoin="round" stroke-width="1.0"/>
    <path d="M164.9 131.05 L166.6 132.5" ffdec:has-small-stroke="true" ffdec:original-stroke-width="0.05" fill="none" stroke="#033564" stroke-linecap="round" stroke-linejoin="round" stroke-width="1.0"/>
  </g>
</svg>
