<?xml version="1.0" encoding="UTF-8" standalone="no"?>
<svg xmlns:ffdec="https://www.free-decompiler.com/flash" xmlns:xlink="http://www.w3.org/1999/xlink" ffdec:objectType="shape" height="14.2px" width="13.85px" xmlns="http://www.w3.org/2000/svg">
  <g transform="matrix(1.0, 0.0, 0.0, 1.0, -155.7, -127.65)">
    <path d="M166.0 128.6 L167.65 129.85 168.9 131.75 169.55 133.75 169.55 135.85 168.9 137.85 168.1 139.2 166.55 140.7 164.65 141.6 163.0 141.85 161.0 141.75 159.15 140.95 157.55 139.6 156.75 138.7 156.3 137.75 155.7 135.75 155.7 133.6 156.3 131.6 157.55 129.85 158.75 128.9 160.5 128.0 162.5 127.65 164.05 127.9 166.0 128.6" fill="#eb9000" fill-rule="evenodd" stroke="none"/>
    <path d="M166.0 128.6 L167.65 129.85 168.9 131.75 169.55 133.75 169.55 135.85 168.9 137.85 168.1 139.2 166.55 140.7 164.65 141.6 163.0 141.85 161.0 141.75 159.15 140.95 157.55 139.6 156.75 138.7 156.3 137.75 155.7 135.75 155.7 133.6 156.3 131.6 157.55 129.85 158.75 128.9 160.5 128.0 162.5 127.65 164.05 127.9 166.0 128.6 Z" ffdec:has-small-stroke="true" ffdec:original-stroke-width="0.05" fill="none" stroke="#033564" stroke-linecap="round" stroke-linejoin="round" stroke-width="1.0"/>
  </g>
</svg>
