<?xml version="1.0" encoding="UTF-8" standalone="no"?>
<svg xmlns:ffdec="https://www.free-decompiler.com/flash" xmlns:xlink="http://www.w3.org/1999/xlink" ffdec:objectType="shape" height="13.95px" width="13.85px" xmlns="http://www.w3.org/2000/svg">
  <g transform="matrix(1.0, 0.0, 0.0, 1.0, -157.8, -124.55)">
    <path d="M171.55 130.25 L171.65 132.35 171.15 134.35 170.1 136.1 168.85 137.2 167.05 138.2 165.5 138.5 163.4 138.5 161.5 137.75 160.25 136.85 160.0 136.5 159.0 135.5 158.15 133.85 157.8 132.05 158.0 130.1 158.4 128.8 159.45 127.05 160.9 125.65 162.3 125.0 164.3 124.55 166.3 124.8 167.9 125.3 169.5 126.5 170.75 128.1 171.25 129.15 171.55 130.25" fill="#eb9000" fill-rule="evenodd" stroke="none"/>
    <path d="M171.55 130.25 L171.65 132.35 171.15 134.35 170.1 136.1 168.85 137.2 167.05 138.2 165.5 138.5 163.4 138.5 161.5 137.75 160.25 136.85 160.0 136.5 159.0 135.5 158.15 133.85 157.8 132.05 158.0 130.1 158.4 128.8 159.45 127.05 160.9 125.65 162.3 125.0 164.3 124.55 166.3 124.8 167.9 125.3 169.5 126.5 170.75 128.1 171.25 129.15 171.55 130.25 Z" ffdec:has-small-stroke="true" ffdec:original-stroke-width="0.05" fill="none" stroke="#033564" stroke-linecap="round" stroke-linejoin="round" stroke-width="1.0"/>
  </g>
</svg>
