<?xml version="1.0" encoding="UTF-8" standalone="no"?>
<svg xmlns:ffdec="https://www.free-decompiler.com/flash" xmlns:xlink="http://www.w3.org/1999/xlink" ffdec:objectType="shape" height="13.85px" width="13.9px" xmlns="http://www.w3.org/2000/svg">
  <g transform="matrix(1.0, 0.0, 0.0, 1.0, -160.9, -120.75)">
    <path d="M173.4 131.9 L172.0 133.3 170.4 134.1 168.6 134.6 166.9 134.6 164.9 134.05 163.5 133.1 162.25 131.8 161.35 130.15 160.9 128.35 160.9 126.55 161.5 124.8 162.3 123.5 162.5 123.25 163.7 122.05 165.4 121.1 167.05 120.75 168.9 120.85 170.6 121.25 172.35 122.4 173.6 123.95 174.3 125.15 174.8 126.9 174.65 128.75 174.35 130.1 173.4 131.9" fill="#eb9000" fill-rule="evenodd" stroke="none"/>
    <path d="M173.4 131.9 L172.0 133.3 170.4 134.1 168.6 134.6 166.9 134.6 164.9 134.05 163.5 133.1 162.25 131.8 161.35 130.15 160.9 128.35 160.9 126.55 161.5 124.8 162.3 123.5 162.5 123.25 163.7 122.05 165.4 121.1 167.05 120.75 168.9 120.85 170.6 121.25 172.35 122.4 173.6 123.95 174.3 125.15 174.8 126.9 174.65 128.75 174.35 130.1 173.4 131.9 Z" ffdec:has-small-stroke="true" ffdec:original-stroke-width="0.05" fill="none" stroke="#033564" stroke-linecap="round" stroke-linejoin="round" stroke-width="1.0"/>
  </g>
</svg>
