<?xml version="1.0" encoding="UTF-8" standalone="no"?>
<svg xmlns:ffdec="https://www.free-decompiler.com/flash" xmlns:xlink="http://www.w3.org/1999/xlink" ffdec:objectType="shape" height="13.8px" width="14.0px" xmlns="http://www.w3.org/2000/svg">
  <g transform="matrix(1.0, 0.0, 0.0, 1.0, -165.0, -116.5)">
    <path d="M177.5 119.35 L178.35 120.5 178.95 122.25 179.0 124.15 178.5 125.9 177.75 127.3 176.5 128.8 174.85 129.75 173.05 130.3 171.1 130.25 169.5 129.85 167.9 129.1 166.55 127.8 165.55 126.15 165.05 124.4 165.0 122.75 165.4 120.85 166.3 119.4 167.55 118.15 169.1 117.05 170.85 116.6 172.65 116.5 174.35 116.95 176.1 117.8 177.35 119.0 177.5 119.35" fill="#eb9000" fill-rule="evenodd" stroke="none"/>
    <path d="M177.5 119.35 L178.35 120.5 178.95 122.25 179.0 124.15 178.5 125.9 177.75 127.3 176.5 128.8 174.85 129.75 173.05 130.3 171.1 130.25 169.5 129.85 167.9 129.1 166.55 127.8 165.55 126.15 165.05 124.4 165.0 122.75 165.4 120.85 166.3 119.4 167.55 118.15 169.1 117.05 170.85 116.6 172.65 116.5 174.35 116.95 176.1 117.8 177.35 119.0 177.5 119.35 Z" ffdec:has-small-stroke="true" ffdec:original-stroke-width="0.05" fill="none" stroke="#033564" stroke-linecap="round" stroke-linejoin="round" stroke-width="1.0"/>
    <path d="M177.35 119.0 L177.55 119.3" ffdec:has-small-stroke="true" ffdec:original-stroke-width="0.05" fill="none" stroke="#033564" stroke-linecap="round" stroke-linejoin="round" stroke-width="1.0"/>
  </g>
</svg>
