<?xml version="1.0" encoding="UTF-8" standalone="no"?>
<svg xmlns:ffdec="https://www.free-decompiler.com/flash" xmlns:xlink="http://www.w3.org/1999/xlink" ffdec:objectType="shape" height="14.05px" width="14.3px" xmlns="http://www.w3.org/2000/svg">
  <g transform="matrix(1.0, 0.0, 0.0, 1.0, -170.05, -111.75)">
    <path d="M170.25 117.0 L171.1 115.1 172.15 113.75 173.8 112.7 175.5 111.95 177.45 111.75 179.2 112.2 179.35 112.2 180.95 112.85 182.35 113.95 183.5 115.5 184.2 117.35 184.35 119.35 183.85 121.2 183.1 122.7 181.85 124.05 180.45 125.15 178.5 125.75 176.75 125.8 174.8 125.5 173.35 124.65 173.0 124.5 171.9 123.7 170.85 122.05 170.4 121.0 170.05 119.0 170.25 117.0" fill="#eb9000" fill-rule="evenodd" stroke="none"/>
    <path d="M170.25 117.0 L171.1 115.1 172.15 113.75 173.8 112.7 175.5 111.95 177.45 111.75 179.2 112.2 179.35 112.2 180.95 112.85 182.35 113.95 183.5 115.5 184.2 117.35 184.35 119.35 183.85 121.2 183.1 122.7 181.85 124.05 180.45 125.15 178.5 125.75 176.75 125.8 174.8 125.5 173.35 124.65 173.0 124.5 171.9 123.7 170.85 122.05 170.4 121.0 170.05 119.0 170.25 117.0 Z" ffdec:has-small-stroke="true" ffdec:original-stroke-width="0.05" fill="none" stroke="#033564" stroke-linecap="round" stroke-linejoin="round" stroke-width="1.0"/>
  </g>
</svg>
