<?xml version="1.0" encoding="UTF-8" standalone="no"?>
<svg xmlns:ffdec="https://www.free-decompiler.com/flash" xmlns:xlink="http://www.w3.org/1999/xlink" ffdec:objectType="shape" height="14.45px" width="14.85px" xmlns="http://www.w3.org/2000/svg">
  <g transform="matrix(1.0, 0.0, 0.0, 1.0, -175.9, -106.9)">
    <path d="M176.6 117.35 L175.9 115.35 175.9 113.2 176.6 111.1 177.85 109.2 179.1 108.2 181.1 107.2 183.2 106.9 184.95 107.0 186.95 107.7 188.6 109.1 189.6 110.15 190.45 112.0 190.75 114.0 190.5 115.25 190.45 116.05 189.85 117.3 189.6 118.0 188.6 119.2 186.95 120.4 185.35 121.1 183.2 121.35 181.1 121.1 179.5 120.4 177.85 119.25 176.6 117.35" fill="#eb9000" fill-rule="evenodd" stroke="none"/>
    <path d="M176.6 117.35 L175.9 115.35 175.9 113.2 176.6 111.1 177.85 109.2 179.1 108.2 181.1 107.2 183.2 106.9 184.95 107.0 186.95 107.7 188.6 109.1 189.6 110.15 190.45 112.0 190.75 114.0 190.5 115.25 190.45 116.05 189.85 117.3 189.6 118.0 188.6 119.2 186.95 120.4 185.35 121.1 183.2 121.35 181.1 121.1 179.5 120.4 177.85 119.25 176.6 117.35 Z" ffdec:has-small-stroke="true" ffdec:original-stroke-width="0.05" fill="none" stroke="#033564" stroke-linecap="round" stroke-linejoin="round" stroke-width="1.0"/>
  </g>
</svg>
