<?xml version="1.0" encoding="UTF-8" standalone="no"?>
<svg xmlns:ffdec="https://www.free-decompiler.com/flash" xmlns:xlink="http://www.w3.org/1999/xlink" ffdec:objectType="shape" height="27.7px" width="32.0px" xmlns="http://www.w3.org/2000/svg">
  <g transform="matrix(1.0, 0.0, 0.0, 1.0, -219.55, -72.45)">
    <path d="M233.9 72.8 L236.3 72.45 241.3 72.55 246.05 74.25 247.75 75.55 249.55 77.5 251.4 81.3 251.55 85.95 249.9 90.5 246.9 94.4 242.55 97.65 237.5 99.55 232.8 100.15 228.4 99.5 224.3 97.65 221.4 94.75 219.9 91.3 219.55 89.4 219.55 87.35 220.65 83.25 222.95 79.5 226.65 76.05 228.75 74.75 233.9 72.8" fill="#eb9000" fill-rule="evenodd" stroke="none"/>
    <path d="M233.9 72.8 L236.3 72.45 241.3 72.55 246.05 74.25 247.75 75.55 249.55 77.5 251.4 81.3 251.55 85.95 249.9 90.5 246.9 94.4 242.55 97.65 237.5 99.55 232.8 100.15 228.4 99.5 224.3 97.65 221.4 94.75 219.9 91.3 219.55 89.4 219.55 87.35 220.65 83.25 222.95 79.5 226.65 76.05 228.75 74.75 233.9 72.8 Z" ffdec:has-small-stroke="true" ffdec:original-stroke-width="0.05" fill="none" stroke="#033564" stroke-linecap="round" stroke-linejoin="round" stroke-width="1.0"/>
  </g>
</svg>
