<?xml version="1.0" encoding="UTF-8" standalone="no"?>
<svg xmlns:ffdec="https://www.free-decompiler.com/flash" xmlns:xlink="http://www.w3.org/1999/xlink" ffdec:objectType="shape" height="15.25px" width="15.9px" xmlns="http://www.w3.org/2000/svg">
  <g transform="matrix(1.0, 0.0, 0.0, 1.0, -182.35, -101.75)">
    <path d="M197.95 107.15 L198.25 109.4 197.75 111.65 197.25 112.85 196.0 114.6 194.9 115.5 192.75 116.6 190.5 117.0 188.35 116.8 186.7 116.25 184.75 114.95 183.35 113.1 182.75 111.65 182.35 109.4 182.75 107.2 183.85 105.15 185.5 103.4 187.6 102.25 189.25 101.8 191.6 101.75 193.8 102.4 195.3 103.4 196.95 104.9 197.95 107.15" fill="#eb9000" fill-rule="evenodd" stroke="none"/>
    <path d="M197.95 107.15 L198.25 109.4 197.75 111.65 197.25 112.85 196.0 114.6 194.9 115.5 192.75 116.6 190.5 117.0 188.35 116.8 186.7 116.25 184.75 114.95 183.35 113.1 182.75 111.65 182.35 109.4 182.75 107.2 183.85 105.15 185.5 103.4 187.6 102.25 189.25 101.8 191.6 101.75 193.8 102.4 195.3 103.4 196.95 104.9 197.95 107.15 Z" ffdec:has-small-stroke="true" ffdec:original-stroke-width="0.05" fill="none" stroke="#033564" stroke-linecap="round" stroke-linejoin="round" stroke-width="1.0"/>
  </g>
</svg>
