<?xml version="1.0" encoding="UTF-8" standalone="no"?>
<svg xmlns:ffdec="https://www.free-decompiler.com/flash" xmlns:xlink="http://www.w3.org/1999/xlink" ffdec:objectType="shape" height="16.4px" width="17.2px" xmlns="http://www.w3.org/2000/svg">
  <g transform="matrix(1.0, 0.0, 0.0, 1.0, -189.6, -96.3)">
    <path d="M194.0 97.5 L196.5 96.5 199.05 96.3 201.5 96.75 203.25 97.65 205.15 99.25 206.05 100.9 206.8 103.3 206.7 105.75 205.75 108.1 204.75 109.5 203.15 111.1 201.0 112.2 199.5 112.6 197.0 112.7 194.65 112.2 192.5 110.9 191.25 109.65 190.1 107.65 189.6 105.35 189.75 103.5 190.5 101.25 191.85 99.25 194.0 97.5" fill="#eb9000" fill-rule="evenodd" stroke="none"/>
    <path d="M194.0 97.5 L196.5 96.5 199.05 96.3 201.5 96.75 203.25 97.65 205.15 99.25 206.05 100.9 206.8 103.3 206.7 105.75 205.75 108.1 204.75 109.5 203.15 111.1 201.0 112.2 199.5 112.6 197.0 112.7 194.65 112.2 192.5 110.9 191.25 109.65 190.1 107.65 189.6 105.35 189.75 103.5 190.5 101.25 191.85 99.25 194.0 97.5 Z" ffdec:has-small-stroke="true" ffdec:original-stroke-width="0.05" fill="none" stroke="#033564" stroke-linecap="round" stroke-linejoin="round" stroke-width="1.0"/>
  </g>
</svg>
