<?xml version="1.0" encoding="UTF-8" standalone="no"?>
<svg xmlns:ffdec="https://www.free-decompiler.com/flash" xmlns:xlink="http://www.w3.org/1999/xlink" ffdec:objectType="shape" height="17.95px" width="19.25px" xmlns="http://www.w3.org/2000/svg">
  <g transform="matrix(1.0, 0.0, 0.0, 1.0, -197.25, -90.75)">
    <path d="M198.8 95.25 L200.55 93.25 202.2 92.15 204.7 91.05 206.25 90.75 209.2 90.75 211.8 91.65 214.2 93.25 215.45 95.0 216.4 97.4 216.5 99.75 215.95 102.3 214.55 104.5 213.0 106.25 211.0 107.6 208.5 108.45 205.8 108.7 203.3 108.35 201.0 107.25 199.5 105.9 198.2 104.15 197.45 102.05 197.25 99.65 197.75 97.5 198.8 95.25" fill="#eb9000" fill-rule="evenodd" stroke="none"/>
    <path d="M198.8 95.25 L200.55 93.25 202.2 92.15 204.7 91.05 206.25 90.75 209.2 90.75 211.8 91.65 214.2 93.25 215.45 95.0 216.4 97.4 216.5 99.75 215.95 102.3 214.55 104.5 213.0 106.25 211.0 107.6 208.5 108.45 205.8 108.7 203.3 108.35 201.0 107.25 199.5 105.9 198.2 104.15 197.45 102.05 197.25 99.65 197.75 97.5 198.8 95.25 Z" ffdec:has-small-stroke="true" ffdec:original-stroke-width="0.05" fill="none" stroke="#033564" stroke-linecap="round" stroke-linejoin="round" stroke-width="1.0"/>
  </g>
</svg>
