<?xml version="1.0" encoding="UTF-8" standalone="no"?>
<svg xmlns:ffdec="https://www.free-decompiler.com/flash" xmlns:xlink="http://www.w3.org/1999/xlink" ffdec:objectType="shape" height="20.4px" width="22.25px" xmlns="http://www.w3.org/2000/svg">
  <g transform="matrix(1.0, 0.0, 0.0, 1.0, -205.15, -84.7)">
    <path d="M227.4 93.5 L227.05 96.15 225.9 99.05 223.75 101.55 221.75 103.15 Q220.15 103.9 218.5 104.6 L215.4 105.1 212.2 104.65 209.25 103.4 206.95 101.4 205.7 99.05 205.15 96.8 205.25 94.0 206.15 91.65 206.25 91.3 207.65 89.15 209.9 87.2 212.0 85.85 215.0 84.85 218.2 84.7 221.2 85.25 223.8 86.75 225.55 88.55 226.8 90.75 227.4 93.5" fill="#eb9000" fill-rule="evenodd" stroke="none"/>
    <path d="M227.4 93.5 L227.05 96.15 225.9 99.05 223.75 101.55 221.75 103.15 Q220.15 103.9 218.5 104.6 L215.4 105.1 212.2 104.65 209.25 103.4 206.95 101.4 205.7 99.05 205.15 96.8 205.25 94.0 206.15 91.65 206.25 91.3 207.65 89.15 209.9 87.2 212.0 85.85 215.0 84.85 218.2 84.7 221.2 85.25 223.8 86.75 225.55 88.55 226.8 90.75 227.4 93.5 Z" ffdec:has-small-stroke="true" ffdec:original-stroke-width="0.05" fill="none" stroke="#033564" stroke-linecap="round" stroke-linejoin="round" stroke-width="1.0"/>
  </g>
</svg>
