<?xml version="1.0" encoding="UTF-8" standalone="no"?>
<svg xmlns:ffdec="https://www.free-decompiler.com/flash" xmlns:xlink="http://www.w3.org/1999/xlink" ffdec:objectType="shape" height="33.25px" width="39.65px" xmlns="http://www.w3.org/2000/svg">
  <g transform="matrix(1.0, 0.0, 0.0, 1.0, -224.15, -67.0)">
    <path d="M224.8 82.35 L226.15 79.35 229.05 75.1 233.9 71.0 240.0 68.2 246.15 67.0 249.4 67.05 252.25 67.5 255.55 68.5 258.05 69.95 262.15 74.0 263.8 79.0 263.3 84.6 260.55 89.9 258.0 92.9 252.75 96.9 246.75 99.4 241.0 100.25 235.9 99.75 230.9 97.9 227.3 95.0 225.0 91.3 224.15 87.25 224.8 82.35" fill="#eb9000" fill-rule="evenodd" stroke="none"/>
    <path d="M224.8 82.35 L226.15 79.35 229.05 75.1 233.9 71.0 240.0 68.2 246.15 67.0 249.4 67.05 252.25 67.5 255.55 68.5 258.05 69.95 262.15 74.0 263.8 79.0 263.3 84.6 260.55 89.9 258.0 92.9 252.75 96.9 246.75 99.4 241.0 100.25 235.9 99.75 230.9 97.9 227.3 95.0 225.0 91.3 224.15 87.25 224.8 82.35 Z" ffdec:has-small-stroke="true" ffdec:original-stroke-width="0.05" fill="none" stroke="#033564" stroke-linecap="round" stroke-linejoin="round" stroke-width="1.0"/>
  </g>
</svg>
