<?xml version="1.0" encoding="UTF-8" standalone="no"?>
<svg xmlns:ffdec="https://www.free-decompiler.com/flash" xmlns:xlink="http://www.w3.org/1999/xlink" ffdec:objectType="shape" height="39.55px" width="48.3px" xmlns="http://www.w3.org/2000/svg">
  <g transform="matrix(1.0, 0.0, 0.0, 1.0, -225.75, -63.95)">
    <path d="M231.75 73.5 L236.65 69.45 243.25 65.8 250.4 63.95 257.5 63.95 261.4 64.55 265.15 66.0 270.65 69.95 273.65 75.25 274.05 80.45 274.05 81.25 272.8 86.75 269.05 92.3 264.9 96.65 259.4 99.9 252.9 102.5 246.55 103.5 240.65 103.05 235.55 101.5 231.25 99.05 228.05 95.65 226.15 91.5 225.75 87.35 226.4 82.25 228.5 77.95 231.75 73.5" fill="#eb9000" fill-rule="evenodd" stroke="none"/>
    <path d="M231.75 73.5 L236.65 69.45 243.25 65.8 250.4 63.95 257.5 63.95 261.4 64.55 265.15 66.0 270.65 69.95 273.65 75.25 274.05 80.45 274.05 81.25 272.8 86.75 269.05 92.3 264.9 96.65 259.4 99.9 252.9 102.5 246.55 103.5 240.65 103.05 235.55 101.5 231.25 99.05 228.05 95.65 226.15 91.5 225.75 87.35 226.4 82.25 228.5 77.95 231.75 73.5 Z" ffdec:has-small-stroke="true" ffdec:original-stroke-width="0.05" fill="none" stroke="#033564" stroke-linecap="round" stroke-linejoin="round" stroke-width="1.0"/>
  </g>
</svg>
