<?xml version="1.0" encoding="UTF-8" standalone="no"?>
<svg xmlns:ffdec="https://www.free-decompiler.com/flash" xmlns:xlink="http://www.w3.org/1999/xlink" ffdec:objectType="shape" height="46.9px" width="58.05px" xmlns="http://www.w3.org/2000/svg">
  <g transform="matrix(1.0, 0.0, 0.0, 1.0, -222.25, -64.5)">
    <path d="M228.8 76.75 L235.0 71.1 242.15 67.35 249.55 65.0 257.55 64.5 265.25 65.7 272.5 69.0 277.3 73.6 280.05 80.25 280.3 86.8 277.8 94.25 272.25 101.15 264.3 106.6 260.4 108.6 255.0 110.2 247.4 111.4 240.05 110.7 233.65 108.7 228.15 105.1 224.75 100.9 223.05 96.75 222.25 92.0 223.15 86.25 225.8 80.6 228.8 76.75" fill="#eb9000" fill-rule="evenodd" stroke="none"/>
    <path d="M228.8 76.75 L235.0 71.1 242.15 67.35 249.55 65.0 257.55 64.5 265.25 65.7 272.5 69.0 277.3 73.6 280.05 80.25 280.3 86.8 277.8 94.25 272.25 101.15 264.3 106.6 260.4 108.6 255.0 110.2 247.4 111.4 240.05 110.7 233.65 108.7 228.15 105.1 224.75 100.9 223.05 96.75 222.25 92.0 223.15 86.25 225.8 80.6 228.8 76.75 Z" ffdec:has-small-stroke="true" ffdec:original-stroke-width="0.05" fill="none" stroke="#033564" stroke-linecap="round" stroke-linejoin="round" stroke-width="1.0"/>
  </g>
</svg>
