<?xml version="1.0" encoding="UTF-8" standalone="no"?>
<svg xmlns:ffdec="https://www.free-decompiler.com/flash" xmlns:xlink="http://www.w3.org/1999/xlink" ffdec:objectType="shape" height="53.45px" width="65.75px" xmlns="http://www.w3.org/2000/svg">
  <g transform="matrix(1.0, 0.0, 0.0, 1.0, -213.3, -71.6)">
    <path d="M234.0 74.95 L241.8 72.25 251.05 71.6 260.9 72.95 270.3 77.5 275.4 83.0 279.05 90.15 279.05 100.05 275.4 108.65 268.5 116.2 259.05 121.6 250.5 124.15 241.75 125.05 234.4 124.05 226.55 121.35 220.45 117.0 216.75 112.85 214.2 107.6 213.3 101.0 214.2 95.65 216.75 89.25 221.25 83.25 227.65 78.0 234.0 74.95" fill="#eb9000" fill-rule="evenodd" stroke="none"/>
    <path d="M234.0 74.95 L241.8 72.25 251.05 71.6 260.9 72.95 270.3 77.5 275.4 83.0 279.05 90.15 279.05 100.05 275.4 108.65 268.5 116.2 259.05 121.6 250.5 124.15 241.75 125.05 234.4 124.05 226.55 121.35 220.45 117.0 216.75 112.85 214.2 107.6 213.3 101.0 214.2 95.65 216.75 89.25 221.25 83.25 227.65 78.0 234.0 74.95 Z" ffdec:has-small-stroke="true" ffdec:original-stroke-width="0.05" fill="none" stroke="#033564" stroke-linecap="round" stroke-linejoin="round" stroke-width="1.0"/>
  </g>
</svg>
