<?xml version="1.0" encoding="UTF-8" standalone="no"?>
<svg xmlns:ffdec="https://www.free-decompiler.com/flash" xmlns:xlink="http://www.w3.org/1999/xlink" ffdec:objectType="shape" height="166.4px" width="401.4px" xmlns="http://www.w3.org/2000/svg">
  <g transform="matrix(1.0, 0.0, 0.0, 1.0, 200.75, 83.2)">
    <path d="M34.25 -0.1 Q34.25 -34.55 58.65 -58.9 83.0 -83.2 117.5 -83.2 151.95 -83.3 176.35 -58.95 200.65 -34.55 200.65 -0.1 200.65 34.35 176.3 58.7 151.9 83.1 117.45 83.15 83.0 83.15 58.65 58.75 34.3 34.4 34.25 -0.1 Z" ffdec:has-small-stroke="true" ffdec:original-stroke-width="0.05" fill="none" stroke="#d4f35e" stroke-linecap="round" stroke-linejoin="round" stroke-opacity="0.2509804" stroke-width="1.0"/>
    <path d="M-200.75 -0.05 Q-200.75 -34.5 -176.35 -58.85 -152.0 -83.15 -117.5 -83.15 -83.05 -83.25 -58.65 -58.9 -34.35 -34.5 -34.35 -0.05 -34.35 34.4 -58.7 58.75 -83.1 83.15 -117.55 83.2 -152.0 83.2 -176.35 58.8 -200.7 34.45 -200.75 -0.05 Z" ffdec:has-small-stroke="true" ffdec:original-stroke-width="0.05" fill="none" stroke="#d4f35e" stroke-linecap="round" stroke-linejoin="round" stroke-opacity="0.2509804" stroke-width="1.0"/>
  </g>
</svg>
