<?xml version="1.0" encoding="UTF-8" standalone="no"?>
<svg xmlns:ffdec="https://www.free-decompiler.com/flash" xmlns:xlink="http://www.w3.org/1999/xlink" ffdec:objectType="shape" height="1076.1px" width="2596.4px" xmlns="http://www.w3.org/2000/svg">
  <g transform="matrix(1.0, 0.0, 0.0, 1.0, 1298.2, 538.05)">
    <path d="M1108.3 -380.7 Q1298.25 -223.1 1298.2 0.0 1298.25 223.05 1108.3 380.7 918.2 538.15 649.1 538.05 380.0 538.15 189.85 380.7 -0.1 223.05 0.0 0.0 -0.1 -223.1 189.85 -380.7 380.0 -538.15 649.1 -538.05 918.2 -538.15 1108.3 -380.7" fill="#990000" fill-opacity="0.2509804" fill-rule="evenodd" stroke="none"/>
    <path d="M-189.9 380.7 Q-380.0 538.15 -649.1 538.05 -918.2 538.15 -1108.35 380.7 -1298.3 223.05 -1298.2 0.0 -1298.3 -223.1 -1108.35 -380.7 -918.2 -538.15 -649.1 -538.05 -380.0 -538.15 -189.9 -380.7 0.05 -223.1 0.0 0.0 0.05 223.05 -189.9 380.7" fill="#990000" fill-opacity="0.2509804" fill-rule="evenodd" stroke="none"/>
  </g>
</svg>
