<?xml version="1.0" encoding="UTF-8" standalone="no"?>
<svg xmlns:ffdec="https://www.free-decompiler.com/flash" xmlns:xlink="http://www.w3.org/1999/xlink" ffdec:objectType="shape" height="48.4px" width="77.3px" xmlns="http://www.w3.org/2000/svg">
  <g transform="matrix(1.0, 0.0, 0.0, 1.0, 38.6, 24.2)">
    <path d="M9.6 -15.2 Q3.7 -21.1 -3.4 -21.1 -11.2 -21.1 -14.4 -15.4 -16.5 -11.6 -16.5 -5.7 -16.5 -0.4 -15.0 4.7 -10.0 21.3 3.1 21.3 11.5 21.3 15.0 14.6 17.4 10.4 17.6 4.4 17.7 1.1 16.8 -1.5 15.5 -9.3 9.6 -15.2 M-0.8 -24.2 Q15.6 -24.4 27.0 -17.6 38.5 -10.9 38.7 0.0 38.8 11.1 28.1 17.5 17.4 24.0 -0.8 24.2 -15.2 24.4 -26.2 18.3 -38.6 11.4 -38.6 0.0 -38.6 -10.9 -28.2 -17.4 -17.9 -24.0 -0.8 -24.2" fill="#000000" fill-rule="evenodd" stroke="none"/>
  </g>
</svg>
