<?xml version="1.0" encoding="UTF-8" standalone="no"?>
<svg xmlns:ffdec="https://www.free-decompiler.com/flash" xmlns:xlink="http://www.w3.org/1999/xlink" ffdec:objectType="shape" height="38.3px" width="40.35px" xmlns="http://www.w3.org/2000/svg">
  <g transform="matrix(1.0, 0.0, 0.0, 1.0, 20.15, 19.15)">
    <path d="M15.25 -8.1 Q17.85 -8.1 19.2 -6.55 20.1 -5.45 20.2 -3.3 20.3 -0.85 17.65 -0.5 16.9 -0.5 16.2 -1.25 15.55 -2.1 15.55 -3.05 15.55 -6.3 14.0 -6.3 12.9 -6.3 11.55 -4.55 10.6 -3.3 10.4 -2.65 L4.5 17.5 -1.15 17.5 -0.05 13.55 Q-0.95 14.75 -4.05 16.45 -8.8 19.05 -12.6 19.15 L-15.0 18.75 Q-17.6 17.8 -17.6 16.2 -17.6 14.2 -16.6 12.3 L-11.8 -3.4 -20.15 -3.4 -18.8 -6.95 -10.6 -6.95 -8.05 -15.6 Q-4.65 -17.35 -1.3 -19.15 L-4.85 -6.95 -0.05 -7.4 2.6 -7.6 Q6.0 -7.6 7.35 -6.65 L8.6 -5.05 8.9 -4.1 8.9 -3.6 Q9.25 -5.0 10.85 -6.4 12.9 -8.1 15.25 -8.1 M3.85 -3.85 Q3.1 -4.55 0.95 -4.55 L-3.3 -4.2 Q-5.6 -3.85 -6.1 -3.3 L-10.55 11.5 -10.55 12.15 -10.7 12.85 -10.25 14.75 Q-9.95 15.3 -9.0 15.3 -7.0 15.3 -2.85 12.9 1.3 10.5 1.0 9.7 L4.55 -1.7 4.6 -2.3 Q4.6 -3.15 3.85 -3.85" fill="#000000" fill-rule="evenodd" stroke="none"/>
  </g>
</svg>
