<?xml version="1.0" encoding="UTF-8" standalone="no"?>
<svg xmlns:ffdec="https://www.free-decompiler.com/flash" xmlns:xlink="http://www.w3.org/1999/xlink" ffdec:objectType="shape" height="74.1px" width="62.05px" xmlns="http://www.w3.org/2000/svg">
  <g transform="matrix(1.0, 0.0, 0.0, 1.0, 33.0, 40.0)">
    <path d="M8.2 1.85 Q13.0 -0.4 18.05 -0.4 21.65 -0.4 24.35 0.7 L24.35 -22.4 -6.45 -8.75 -6.45 23.15 Q-6.45 27.8 -11.95 31.15 -16.85 34.05 -21.85 34.1 -25.9 34.1 -29.0 32.65 -33.0 30.85 -33.0 27.2 -33.0 22.85 -27.0 20.0 -22.2 17.75 -17.15 17.75 -13.7 17.75 -11.1 18.8 L-11.1 -22.35 29.05 -40.0 29.05 5.2 Q29.0 9.9 23.4 13.2 18.5 15.95 13.35 15.95 9.3 15.95 6.2 14.5 2.15 12.65 2.15 9.05 2.15 4.65 8.2 1.85" fill="#000000" fill-rule="evenodd" stroke="none"/>
  </g>
</svg>
