<?xml version="1.0" encoding="UTF-8" standalone="no"?>
<svg xmlns:ffdec="https://www.free-decompiler.com/flash" xmlns:xlink="http://www.w3.org/1999/xlink" ffdec:objectType="shape" height="58.15px" width="45.2px" xmlns="http://www.w3.org/2000/svg">
  <g transform="matrix(1.0, 0.0, 0.0, 1.0, 22.6, 29.1)">
    <path d="M22.4 -29.1 L22.4 8.65 Q22.7 9.4 22.6 10.2 22.4 11.7 21.05 13.1 19.7 14.45 17.8 15.2 L15.8 15.7 13.7 15.75 Q12.75 15.65 11.9 15.2 11.05 14.75 10.45 13.85 9.65 12.7 9.85 11.25 10.05 9.75 11.35 8.4 12.65 7.05 14.45 6.4 16.5 5.6 18.55 5.85 20.35 6.05 21.65 7.45 L21.65 -18.9 5.95 -11.85 5.95 -21.7 22.4 -29.1 M5.8 -21.6 L5.8 -11.75 -9.9 -4.75 -9.9 22.15 Q-9.7 22.8 -9.8 23.45 -10.0 24.95 -11.35 26.35 -12.7 27.7 -14.6 28.45 L-16.6 28.95 -18.65 29.0 -20.45 28.45 -21.95 27.1 Q-22.75 26.0 -22.55 24.5 -22.35 23.0 -21.05 21.65 -19.75 20.3 -17.95 19.7 -15.9 18.9 -13.85 19.1 -12.0 19.35 -10.65 20.8 L-10.65 -14.25 5.8 -21.6" fill="#000000" fill-rule="evenodd" stroke="none"/>
  </g>
</svg>
