<?xml version="1.0" encoding="UTF-8" standalone="no"?>
<svg xmlns:ffdec="https://www.free-decompiler.com/flash" xmlns:xlink="http://www.w3.org/1999/xlink" ffdec:objectType="shape" height="61.25px" width="61.5px" xmlns="http://www.w3.org/2000/svg">
  <g transform="matrix(1.0, 0.0, 0.0, 1.0, 25.75, 29.5)">
    <path d="M3.75 -2.25 L-18.5 20.25 -18.75 26.5 18.0 3.5 18.0 -4.0 14.0 -6.1 10.0 -8.25 M-3.05 4.25 L-10.25 4.25 -10.25 -2.25 25.5 -22.5 25.5 -17.25 14.0 -6.1" fill="none" stroke="#000000" stroke-linecap="round" stroke-linejoin="round" stroke-opacity="0.5019608" stroke-width="4.0"/>
    <path d="M5.5 30.25 L-24.25 0.5 4.75 -28.0 34.25 1.5 5.5 30.25 Z" fill="none" stroke="#000000" stroke-linecap="round" stroke-linejoin="round" stroke-width="3.0"/>
    <path d="M25.5 -22.5 L10.0 -8.25 18.0 -4.0 -18.5 20.25 3.75 -2.25 -10.25 -2.25 25.5 -22.5" fill="#000000" fill-opacity="0.101960786" fill-rule="evenodd" stroke="none"/>
    <path d="M25.5 -22.5 L-10.25 -2.25 M3.75 -2.25 L-18.5 20.25 M18.0 -4.0 L10.0 -8.25" fill="none" stroke="#000000" stroke-linecap="round" stroke-linejoin="round" stroke-width="1.0"/>
    <path d="M10.0 -8.25 L25.5 -22.5 M-10.25 -2.25 L3.75 -2.25 M-18.5 20.25 L18.0 -4.0" fill="none" stroke="#000000" stroke-linecap="round" stroke-linejoin="round" stroke-width="1.0"/>
    <path d="M14.0 -6.15 L10.0 -8.25 25.5 -22.5 25.5 -17.25 14.0 -6.15 M18.0 -4.0 L18.0 3.5 -18.75 26.5 -18.5 20.25 18.0 -4.0 M-3.05 4.25 L-10.25 4.25 -10.25 -2.25 3.75 -2.25 -3.05 4.25" fill="#000000" fill-opacity="0.2509804" fill-rule="evenodd" stroke="none"/>
    <path d="M25.5 -22.5 L25.5 -17.25 14.0 -6.15 M18.0 -4.0 L18.0 3.5 -18.75 26.5 -18.5 20.25 M-10.25 -2.25 L-10.25 4.25 -3.05 4.25" fill="none" stroke="#000000" stroke-linecap="round" stroke-linejoin="round" stroke-opacity="0.101960786" stroke-width="1.0"/>
    <path d="M14.0 -6.15 L10.0 -8.25 25.5 -22.5 M-18.5 20.25 L18.0 -4.0 M-3.05 4.25 L3.75 -2.25 -10.25 -2.25" fill="none" stroke="#000000" stroke-linecap="round" stroke-linejoin="round" stroke-opacity="0.101960786" stroke-width="1.0"/>
  </g>
</svg>
