<?xml version="1.0" encoding="UTF-8" standalone="no"?>
<svg xmlns:ffdec="https://www.free-decompiler.com/flash" xmlns:xlink="http://www.w3.org/1999/xlink" ffdec:objectType="shape" height="27.3px" width="44.0px" xmlns="http://www.w3.org/2000/svg">
  <g transform="matrix(1.0, 0.0, 0.0, 1.0, 23.4, 14.2)">
    <path d="M1.7 -1.3 Q2.3 -0.7 2.3 0.1 2.3 0.9 1.7 1.45 1.15 2.05 0.35 2.05 -0.45 2.05 -1.05 1.45 -1.6 0.9 -1.6 0.1 -1.6 -0.7 -1.05 -1.3 -0.45 -1.85 0.35 -1.85 1.15 -1.85 1.7 -1.3" fill="#000000" fill-rule="evenodd" stroke="none"/>
    <path d="M12.3 -0.2 Q12.65 0.15 12.65 0.65 12.65 1.15 12.3 1.5 11.95 1.85 11.45 1.85 10.95 1.85 10.6 1.5 10.25 1.15 10.25 0.65 10.25 0.15 10.6 -0.2 10.95 -0.55 11.45 -0.55 11.95 -0.55 12.3 -0.2 M-12.95 -1.7 L-12.6 -2.55 -11.75 -2.9 Q-11.25 -2.9 -10.9 -2.55 -10.55 -2.2 -10.55 -1.7 -10.55 -1.2 -10.9 -0.85 -11.25 -0.5 -11.75 -0.5 -12.25 -0.5 -12.6 -0.85 -12.95 -1.2 -12.95 -1.7" fill="#000000" fill-opacity="0.2509804" fill-rule="evenodd" stroke="none"/>
    <path d="M13.25 -1.75 Q12.4 -2.6 11.15 -2.6 9.9 -2.6 9.0 -1.75 8.15 -0.85 8.15 0.4 8.15 1.65 9.0 2.5 9.9 3.4 11.15 3.4 12.4 3.4 13.25 2.5 14.15 1.65 14.15 0.4 14.15 -0.85 13.25 -1.75 M5.35 -5.85 Q3.9 -8.9 1.2 -9.3 -1.5 -9.75 -3.85 -7.3 -6.2 -4.85 -6.8 -1.0 -7.4 2.85 -5.95 5.85 -4.45 8.9 -1.75 9.35 0.95 9.75 3.3 7.3 5.6 4.9 6.25 1.05 6.85 -2.8 5.35 -5.85 M6.55 -8.0 L8.15 -3.5 10.25 -4.2 6.55 -8.0 M14.2 -3.7 Q16.6 -1.2 19.6 0.3 17.0 1.7 13.65 4.35 L9.45 7.75 Q3.3 12.35 -1.05 12.1 -8.9 11.6 -14.15 5.9 L-17.9 1.7 Q-20.65 -1.7 -22.4 -2.95 -19.65 -4.35 -16.85 -6.55 L-12.65 -9.95 Q-7.95 -13.5 -2.15 -13.2 6.0 -12.7 10.45 -7.9 L14.2 -3.7 M7.5 3.9 L6.5 7.55 9.75 5.3 7.5 3.9 M-11.95 -4.85 Q-13.2 -4.85 -14.1 -4.0 -14.95 -3.1 -14.95 -1.85 -14.95 -0.6 -14.1 0.25 -13.2 1.15 -11.95 1.15 -10.7 1.15 -9.85 0.25 -8.95 -0.6 -8.95 -1.85 -8.95 -3.1 -9.85 -4.0 -10.7 -4.85 -11.95 -4.85 M-12.35 3.15 L-8.75 6.4 -9.6 2.4 -12.35 3.15 M-8.35 -5.25 L-4.25 -10.1 -10.3 -6.65 -8.35 -5.25" fill="#000000" fill-rule="evenodd" stroke="none"/>
    <path d="M5.35 -5.85 Q6.85 -2.8 6.25 1.05 5.6 4.9 3.3 7.3 0.95 9.75 -1.75 9.35 -4.45 8.9 -5.95 5.85 -7.4 2.85 -6.8 -1.0 -6.2 -4.85 -3.85 -7.3 -1.5 -9.75 1.2 -9.3 3.9 -8.9 5.35 -5.85 M13.25 -1.75 Q14.15 -0.85 14.15 0.4 14.15 1.65 13.25 2.5 12.4 3.4 11.15 3.4 9.9 3.4 9.0 2.5 8.15 1.65 8.15 0.4 8.15 -0.85 9.0 -1.75 9.9 -2.6 11.15 -2.6 12.4 -2.6 13.25 -1.75 M-11.95 -4.85 Q-10.7 -4.85 -9.85 -4.0 -8.95 -3.1 -8.95 -1.85 -8.95 -0.6 -9.85 0.25 -10.7 1.15 -11.95 1.15 -13.2 1.15 -14.1 0.25 -14.95 -0.6 -14.95 -1.85 -14.95 -3.1 -14.1 -4.0 -13.2 -4.85 -11.95 -4.85" fill="none" stroke="#000000" stroke-linecap="round" stroke-linejoin="round" stroke-opacity="0.101960786" stroke-width="1.0"/>
    <path d="M14.2 -3.7 Q16.6 -1.2 19.6 0.3 17.0 1.7 13.65 4.35 L9.45 7.75 Q3.3 12.35 -1.05 12.1 -8.9 11.6 -14.15 5.9 L-17.9 1.7 Q-20.65 -1.7 -22.4 -2.95 -19.65 -4.35 -16.85 -6.55 L-12.65 -9.95 Q-7.95 -13.5 -2.15 -13.2 6.0 -12.7 10.45 -7.9 L14.2 -3.7 Z" fill="none" stroke="#000000" stroke-linecap="round" stroke-linejoin="round" stroke-opacity="0.2509804" stroke-width="2.0"/>
  </g>
</svg>
