<?xml version="1.0" encoding="UTF-8" standalone="no"?>
<svg xmlns:ffdec="https://www.free-decompiler.com/flash" xmlns:xlink="http://www.w3.org/1999/xlink" ffdec:objectType="shape" height="70.2px" width="83.1px" xmlns="http://www.w3.org/2000/svg">
  <g transform="matrix(1.0, 0.0, 0.0, 1.0, 44.55, 48.1)">
    <path d="M7.55 -33.4 L7.55 -19.4 38.55 -19.4 38.55 22.1 -39.0 22.1 -39.0 -19.4 -2.6 -19.4 Q-2.6 -24.45 -4.75 -26.15 -7.35 -28.2 -15.35 -28.2 L-24.3 -28.2 Q-25.75 -24.45 -28.3 -24.45 L-36.6 -24.45 -36.6 -25.35 -44.55 -25.35 -44.55 -34.0 -36.6 -34.0 -36.6 -34.8 -28.3 -34.8 Q-26.75 -34.8 -25.45 -33.4 -24.3 -32.2 -24.3 -31.4 L-16.3 -31.4 Q-5.5 -31.4 -2.3 -29.05 0.6 -26.95 0.6 -20.15 L0.6 -19.4 4.5 -19.4 4.5 -28.55 Q4.5 -36.5 2.5 -38.85 0.25 -41.45 -7.45 -41.45 L-14.5 -41.45 Q-15.95 -37.7 -18.5 -37.7 L-26.8 -37.7 -26.8 -38.65 -34.7 -38.65 -34.7 -47.25 -26.8 -47.25 -26.8 -48.1 -18.5 -48.1 Q-16.95 -48.1 -15.65 -46.65 -14.5 -45.5 -14.5 -44.7 L-7.45 -44.7 Q-0.05 -44.7 3.9 -41.4 7.55 -38.4 7.55 -33.4 M-2.2 -11.45 L23.3 -11.45 23.3 -16.6 -2.2 -16.6 -2.2 -11.45 M32.65 -6.0 L32.65 9.55 30.8 9.55 30.8 21.05 37.35 21.05 37.35 -6.0 32.65 -6.0 M24.2 -6.0 L24.2 9.55 22.4 9.55 22.4 21.05 29.2 21.05 29.2 9.55 26.95 9.55 26.95 -6.0 24.2 -6.0 M18.5 9.55 L18.5 -6.0 15.75 -6.0 15.75 9.55 13.95 9.55 13.95 21.05 20.75 21.05 20.75 9.55 18.5 9.55 M-1.1 9.55 L-2.95 9.55 -2.95 21.05 3.85 21.05 3.85 -6.0 -1.1 -6.0 -1.1 9.55 M5.5 -6.0 L5.5 21.05 12.3 21.05 12.3 9.55 10.05 9.55 10.05 -6.0 5.5 -6.0 M-43.6 -26.25 L-36.6 -26.25 -36.6 -33.05 -43.6 -33.05 -43.6 -26.25 M-33.8 -39.6 L-26.8 -39.6 -26.8 -46.35 -33.8 -46.35 -33.8 -39.6 M-20.55 -16.75 L-20.55 -15.35 -16.0 -15.35 -16.0 -16.75 -20.55 -16.75 M-12.1 -15.35 L-7.55 -15.35 -7.55 -16.75 -12.1 -16.75 -12.1 -15.35 M-15.25 -6.0 L-19.7 -6.0 -19.7 21.05 -13.0 21.05 -13.0 9.55 -15.25 9.55 -15.25 -6.0 M-6.8 9.55 L-6.8 -6.0 -9.55 -6.0 -9.55 9.55 -11.35 9.55 -11.35 21.05 -4.55 21.05 -4.55 9.55 -6.8 9.55 M-30.05 3.35 L-30.4 8.0 -28.05 8.0 -28.05 7.95 -27.75 3.35 -30.05 3.35 M-35.8 3.35 L-36.05 8.0 -33.75 8.0 -33.75 7.95 Q-33.8 5.8 -33.45 3.35 L-35.8 3.35 M-33.6 8.35 L-35.95 8.35 Q-35.6 8.6 -35.6 9.0 L-35.85 9.55 -36.05 9.8 Q-36.0 12.05 -35.3 14.65 L-33.15 14.65 -33.75 9.75 -33.6 9.4 -33.45 8.85 -33.6 8.35 M-35.5 16.5 L-32.1 16.5 -32.1 12.0 -32.45 12.0 -32.45 15.75 -35.5 15.75 -35.5 16.5 M-27.8 8.85 L-27.9 8.35 -30.2 8.35 Q-29.95 8.6 -29.95 9.0 L-30.15 9.55 -30.4 9.8 Q-30.25 12.05 -29.6 14.65 L-27.5 14.65 -28.05 9.75 -27.9 9.4 -27.8 8.85 M-29.8 16.5 L-26.4 16.5 -26.4 12.0 -26.8 12.0 -26.8 15.75 -29.8 15.75 -29.8 16.5" fill="#000000" fill-rule="evenodd" stroke="none"/>
  </g>
</svg>
