<?xml version="1.0" encoding="UTF-8" standalone="no"?>
<svg xmlns:ffdec="https://www.free-decompiler.com/flash" xmlns:xlink="http://www.w3.org/1999/xlink" ffdec:objectType="shape" height="60.35px" width="55.2px" xmlns="http://www.w3.org/2000/svg">
  <g transform="matrix(1.0, 0.0, 0.0, 1.0, 32.9, 31.4)">
    <path d="M-2.4 24.35 Q0.4 26.05 3.75 26.05 8.6 26.05 11.6 23.25 13.3 21.65 13.3 19.65 L13.15 18.15 Q12.8 16.6 10.75 16.0 L6.75 15.25 Q3.8 14.95 2.9 12.7 2.55 11.7 2.45 9.0 2.4 6.4 4.85 4.7 7.3 3.05 11.05 3.05 14.9 3.05 17.2 4.85 19.8 6.8 19.85 10.8 20.0 18.3 14.2 24.65 10.25 28.95 1.4 28.95 -10.15 28.95 -16.25 20.7 -20.45 14.9 -20.45 8.1 -20.45 -1.25 -9.05 -12.05 -1.15 -19.55 10.3 -26.2 20.15 -31.9 22.0 -31.35 L22.3 -29.95 Q16.45 -28.05 9.75 -23.25 -1.4 -15.2 -5.1 -7.45 -7.5 -2.4 -8.5 3.75 -9.05 7.1 -9.05 10.45 -9.05 20.4 -2.4 24.35 M-31.45 21.35 Q-32.9 19.95 -32.9 17.95 -32.9 16.15 -31.6 14.75 -30.25 13.35 -28.15 13.25 -26.35 13.2 -24.95 14.45 -24.0 15.2 -23.7 16.05 -23.45 16.6 -23.3 18.0 -23.3 20.05 -24.75 21.4 -26.15 22.8 -28.0 22.8 -30.0 22.8 -31.45 21.35 M-26.0 5.5 L-28.0 5.85 Q-30.0 5.85 -31.45 4.45 -32.9 3.05 -32.9 1.05 -32.9 -0.6 -31.95 -1.8 -30.6 -3.6 -28.15 -3.65 -25.2 -3.75 -23.7 -0.85 -23.45 -0.15 -23.3 1.2 -23.3 4.25 -26.0 5.5" fill="#000000" fill-rule="evenodd" stroke="none"/>
  </g>
</svg>
