<?xml version="1.0" encoding="UTF-8" standalone="no"?>
<svg xmlns:ffdec="https://www.free-decompiler.com/flash" xmlns:xlink="http://www.w3.org/1999/xlink" ffdec:objectType="shape" height="140.7px" width="327.0px" xmlns="http://www.w3.org/2000/svg">
  <g transform="matrix(1.0, 0.0, 0.0, 1.0, 181.0, 38.85)">
    <path d="M33.95 -0.45 L33.95 -0.4 Q34.2 0.15 32.55 1.5 31.55 3.0 30.85 4.7 27.85 12.0 37.1 19.55 43.6 24.9 52.9 28.35 72.6 35.55 86.6 31.25 90.55 30.1 94.1 27.9 99.0 24.9 97.75 22.5 94.6 16.6 87.05 12.35 78.85 7.7 72.25 7.4 66.9 7.05 64.8 8.7 L63.8 10.0 64.2 11.05 65.95 14.55 Q66.35 15.35 66.0 17.6 65.65 19.8 65.8 20.1 61.5 11.75 62.9 5.85 64.0 1.25 70.6 1.3 75.3 1.35 80.65 3.4 101.4 11.5 98.85 26.7 97.7 33.3 89.25 36.4 82.85 38.75 74.8 38.5 56.35 38.0 42.35 28.9 28.75 20.1 29.15 6.75 29.25 2.15 31.25 -1.8 L28.25 -9.45 Q24.85 -18.0 20.5 -22.5 11.65 -31.7 -0.55 -33.0 -13.85 -34.35 -24.9 -29.5 -33.9 -25.5 -40.6 -17.8 -35.35 -12.9 -30.45 -5.95 -25.55 1.05 -16.05 15.85 -6.7 28.55 3.4 35.3 13.55 42.05 29.5 46.45 30.2 46.65 29.5 51.65 3.6 47.05 -13.7 24.65 -16.8 20.7 -20.7 14.45 L-27.25 3.85 Q-35.25 -8.65 -43.1 -14.6 L-43.35 -14.8 -43.9 -15.2 Q-54.3 -22.85 -68.95 -26.2 -83.6 -29.55 -97.05 -27.5 -112.5 -25.2 -122.15 -15.65 -136.15 -1.7 -137.3 11.45 L-130.4 13.0 Q-125.7 14.3 -116.3 17.35 -88.85 25.8 -46.15 30.6 -45.85 35.65 -46.15 35.65 -72.8 35.05 -105.6 26.0 -121.85 20.3 -130.55 18.0 -146.0 13.95 -156.05 17.85 -170.0 23.3 -173.95 37.7 -177.9 52.1 -174.85 65.3 -171.8 78.45 -162.5 87.05 -153.2 95.65 -141.4 97.4 -143.15 93.7 -143.55 91.0 -145.45 78.15 -137.55 71.9 -125.25 62.1 -100.95 58.9 -67.1 54.35 -16.3 65.35 15.4 72.2 28.05 73.85 53.1 77.15 72.95 73.65 94.35 69.9 111.3 60.8 131.7 49.9 137.45 35.65 143.2 21.35 140.7 12.7 138.2 4.05 127.35 -3.5 116.45 -11.05 97.5 -14.0 78.1 -16.9 61.35 -13.75 41.55 -10.0 33.95 -0.45 M29.1 -13.45 L32.6 -4.1 Q36.7 -10.2 45.7 -14.55 61.0 -21.9 81.3 -21.6 100.4 -21.35 117.05 -14.55 137.6 -6.15 143.1 6.4 148.35 18.45 144.05 31.45 138.45 48.15 120.6 60.55 112.5 66.15 102.9 70.3 L102.6 70.95 Q92.95 78.3 79.85 81.6 58.9 86.9 25.0 83.9 L-5.65 80.5 -36.3 76.85 Q-70.75 73.35 -91.15 76.35 -121.9 80.85 -138.8 100.1 L-139.1 101.7 -140.95 98.35 Q-140.8 101.85 -141.0 101.85 -154.2 100.85 -165.45 90.1 -176.25 79.8 -179.4 66.4 -182.15 54.85 -180.1 43.75 -177.95 31.85 -170.65 23.35 -159.25 10.2 -145.0 10.6 L-137.85 11.35 Q-137.25 -1.3 -129.3 -12.9 -120.35 -25.85 -107.05 -30.45 -93.55 -35.05 -77.5 -32.8 -59.2 -30.25 -48.95 -24.15 -45.8 -22.25 -42.75 -19.7 -35.6 -29.45 -25.15 -34.5 -13.3 -40.3 -0.55 -38.35 14.3 -36.1 22.55 -25.65 26.05 -21.2 29.1 -13.45 M7.9 -10.55 L8.2 -7.1 11.05 -7.1 Q13.55 -7.2 14.75 -7.85 L16.85 -9.25 17.25 -9.9 Q14.9 -13.25 10.15 -14.35 4.65 -15.6 0.4 -13.0 -12.7 -4.8 -3.5 10.15 2.95 20.6 16.25 29.95 16.75 30.3 16.4 32.45 16.1 34.55 16.25 34.65 -7.35 19.05 -9.7 5.55 -12.1 -7.95 -6.4 -14.5 -0.75 -21.1 7.35 -20.2 11.25 -19.8 14.35 -18.0 18.2 -15.75 18.5 -12.35 19.35 -4.3 14.75 -2.4 12.35 -1.45 8.85 -1.65 4.55 -1.85 4.15 -4.25 3.65 -7.5 4.25 -8.75 4.95 -10.35 7.9 -10.55 M22.65 78.45 L29.85 79.1 22.7 78.15 22.65 78.45 M-138.85 95.9 L-139.75 96.25 -139.05 97.45 Q-139.2 96.3 -138.85 95.9 M-56.65 43.5 Q-56.3 48.05 -56.65 48.05 -76.3 48.25 -98.25 41.95 -115.2 37.05 -116.75 36.7 -127.5 34.15 -135.75 34.75 -143.75 35.3 -150.3 39.25 -157.7 43.7 -159.9 50.8 -160.95 54.35 -157.55 57.25 -154.25 60.1 -150.7 59.2 -147.55 58.4 -144.75 56.1 -142.9 54.6 -142.05 53.05 -143.15 52.1 -145.35 52.75 -146.05 52.95 -150.6 55.3 L-150.85 52.65 Q-151.2 50.05 -150.6 49.65 L-146.35 47.15 Q-143.65 46.05 -141.8 47.35 -140.75 48.1 -140.75 52.0 -140.75 59.95 -147.15 63.45 -156.3 68.5 -159.8 59.0 -161.2 55.2 -160.95 50.5 -160.7 45.85 -158.95 42.65 -153.25 32.25 -140.5 29.75 -130.25 27.75 -117.15 30.95 -107.0 33.45 -87.2 38.85 -69.85 43.1 -56.65 43.5 M-104.65 -0.1 Q-105.2 -11.85 -98.6 -18.05 -93.1 -23.2 -84.9 -23.75 -77.7 -24.2 -70.05 -21.05 -56.65 -15.5 -43.35 0.0 L-32.5 13.35 Q-25.9 21.5 -21.1 26.3 -20.6 26.8 -20.95 28.75 -21.35 30.7 -21.1 30.95 -25.85 26.4 -38.1 11.1 -48.35 -1.8 -56.15 -7.5 -66.35 -15.0 -76.55 -17.45 -89.85 -20.65 -97.75 -13.2 -102.15 -9.05 -103.35 -4.25 -104.85 1.5 -100.6 5.4 -94.1 11.35 -86.3 12.15 -80.95 12.75 -78.3 11.25 -75.7 9.75 -74.75 8.05 L-74.65 7.85 Q-76.55 5.2 -80.05 4.7 -83.95 4.2 -84.25 8.35 -84.5 11.7 -84.75 5.65 -84.5 -0.05 -82.0 -0.9 -78.05 -2.25 -75.35 1.05 -73.3 3.6 -73.3 7.75 -73.3 11.8 -75.2 14.5 -78.05 18.55 -84.6 18.1 -89.75 17.7 -94.8 15.0 -104.25 10.05 -104.65 -0.1" fill="#000000" fill-rule="evenodd" stroke="none"/>
  </g>
</svg>
