<?xml version="1.0" encoding="UTF-8" standalone="no"?>
<svg xmlns:ffdec="https://www.free-decompiler.com/flash" xmlns:xlink="http://www.w3.org/1999/xlink" ffdec:objectType="shape" height="40.3px" width="91.25px" xmlns="http://www.w3.org/2000/svg">
  <g transform="matrix(1.0, 0.0, 0.0, 1.0, 45.65, -6.7)">
    <path d="M0.0 47.0 Q-19.5 47.0 -33.3 33.25 -38.15 28.35 -41.25 22.8 -34.2 28.0 -25.0 28.0 -13.45 28.0 -5.25 19.8 L-5.2 19.75 Q-2.0 16.5 0.0 12.75 1.95 16.5 5.2 19.75 13.4 28.0 25.0 28.0 34.15 28.0 41.2 22.85 38.05 28.4 33.25 33.25 19.5 47.0 0.0 47.0" fill="#000000" fill-opacity="0.2509804" fill-rule="evenodd" stroke="none"/>
    <path d="M41.6 16.95 Q34.7 23.8 24.95 23.8 15.2 23.8 8.3 16.95 5.85 14.5 4.3 11.7 7.85 14.3 12.45 14.3 18.25 14.3 22.35 10.2 23.95 8.55 24.95 6.7 25.95 8.55 27.55 10.2 31.65 14.3 37.45 14.3 42.05 14.3 45.6 11.7 44.0 14.5 41.6 16.95 M-8.35 16.95 Q-15.25 23.8 -25.0 23.8 -34.75 23.8 -41.65 16.95 -44.1 14.5 -45.65 11.7 -42.1 14.3 -37.5 14.3 -31.7 14.3 -27.6 10.2 -26.0 8.55 -25.0 6.7 -24.0 8.55 -22.4 10.2 -18.3 14.3 -12.5 14.3 -7.9 14.3 -4.35 11.7 -5.95 14.5 -8.35 16.95" fill="#000000" fill-opacity="0.5019608" fill-rule="evenodd" stroke="none"/>
  </g>
</svg>
