<?xml version="1.0" encoding="UTF-8" standalone="no"?>
<svg xmlns:ffdec="https://www.free-decompiler.com/flash" xmlns:xlink="http://www.w3.org/1999/xlink" ffdec:objectType="shape" height="8.55px" width="95.6px" xmlns="http://www.w3.org/2000/svg">
  <g transform="matrix(1.0, 0.0, 0.0, 1.0, 47.85, -1.75)">
    <path d="M-4.25 6.9 Q-7.7 10.3 -12.55 10.3 -17.45 10.3 -20.9 6.9 L-22.9 4.25 Q-21.1 5.55 -18.8 5.55 -15.9 5.55 -13.85 3.5 -13.05 2.7 -12.55 1.75 L-11.25 3.5 Q-9.2 5.55 -6.3 5.55 -4.0 5.55 -2.25 4.25 -3.05 5.65 -4.25 6.9 M-37.55 10.3 Q-42.4 10.3 -45.85 6.9 L-47.85 4.25 Q-46.1 5.55 -43.8 5.55 -40.9 5.55 -38.85 3.5 -38.05 2.7 -37.55 1.75 L-36.25 3.5 Q-34.2 5.55 -31.3 5.55 -29.0 5.55 -27.2 4.25 -28.0 5.65 -29.2 6.9 -32.65 10.3 -37.55 10.3" fill="#000000" fill-rule="evenodd" stroke="none"/>
    <path d="M45.75 6.9 Q42.3 10.3 37.45 10.3 32.55 10.3 29.1 6.9 27.9 5.65 27.1 4.25 28.9 5.55 31.2 5.55 34.1 5.55 36.15 3.5 L37.45 1.75 Q37.95 2.7 38.75 3.5 40.8 5.55 43.7 5.55 46.0 5.55 47.75 4.25 46.95 5.65 45.75 6.9 M12.45 10.3 Q7.6 10.3 4.15 6.9 2.9 5.65 2.15 4.25 3.9 5.55 6.2 5.55 9.1 5.55 11.15 3.5 L12.45 1.75 13.75 3.5 Q15.8 5.55 18.7 5.55 21.0 5.55 22.8 4.25 L20.8 6.9 Q17.35 10.3 12.45 10.3" fill="#000000" fill-rule="evenodd" stroke="none"/>
  </g>
</svg>
