<?xml version="1.0" encoding="UTF-8" standalone="no"?>
<svg xmlns:ffdec="https://www.free-decompiler.com/flash" xmlns:xlink="http://www.w3.org/1999/xlink" ffdec:objectType="shape" height="55.3px" width="57.75px" xmlns="http://www.w3.org/2000/svg">
  <g transform="matrix(1.0, 0.0, 0.0, 1.0, 28.85, 27.65)">
    <path d="M0.85 -16.1 Q3.2 -13.45 8.65 -9.45 13.7 -5.7 17.45 -3.85 L23.25 -5.75 Q16.45 -9.45 10.95 -13.45 5.9 -17.1 0.85 -22.35 L0.85 -16.1 M0.85 -6.25 L0.85 1.55 8.05 -0.8 Q5.85 -2.05 4.05 -3.3 2.5 -4.4 0.85 -6.25 M10.05 -1.45 L15.4 -3.15 Q12.2 -4.8 7.55 -8.15 3.35 -11.25 0.85 -13.8 L0.85 -8.55 Q2.8 -6.3 5.15 -4.55 L10.05 -1.45 M12.0 -14.7 Q17.6 -10.55 25.25 -6.35 L28.4 -7.4 28.9 -5.85 25.65 -4.8 Q22.1 1.7 19.8 8.55 17.6 15.1 16.05 23.6 L18.3 26.7 17.0 27.65 15.3 25.35 Q7.6 23.9 0.0 23.95 -7.6 23.9 -15.3 25.35 L-16.95 27.65 Q-17.65 27.2 -18.3 26.7 L-16.0 23.6 Q-17.6 15.1 -19.8 8.55 -22.1 1.7 -25.6 -4.8 L-28.85 -5.85 -28.35 -7.4 -25.2 -6.35 Q-17.6 -10.55 -11.95 -14.7 -5.95 -19.15 -0.8 -24.6 L-0.8 -27.65 0.85 -27.65 0.85 -24.6 Q6.0 -19.15 12.0 -14.7 M17.55 -2.2 Q15.8 0.95 13.75 7.05 11.85 12.85 11.25 16.95 L14.75 21.9 Q16.15 14.35 18.25 7.95 20.15 2.2 23.45 -4.1 L17.55 -2.2 M0.05 4.35 L-4.45 10.5 0.0 10.1 4.5 10.5 0.05 4.35 M6.55 4.55 Q7.05 2.9 8.1 0.9 L1.15 3.15 5.4 9.0 Q5.9 6.6 6.55 4.55 M0.0 11.7 L-5.8 12.35 -8.95 16.65 0.0 16.1 9.0 16.65 5.85 12.35 0.0 11.7 M10.3 18.45 L0.0 17.7 -10.25 18.45 -13.95 23.55 Q-6.55 22.35 0.0 22.35 L14.0 23.55 10.3 18.45 M6.6 10.65 L9.95 15.25 Q10.5 11.7 12.25 6.4 13.75 1.7 15.35 -1.5 L10.35 0.15 Q7.8 4.5 6.6 10.65 M-0.8 -22.35 Q-5.85 -17.1 -10.85 -13.45 -16.4 -9.45 -23.15 -5.75 L-17.45 -3.85 Q-13.7 -5.7 -8.65 -9.45 -3.2 -13.45 -0.8 -16.1 L-0.8 -22.35 M-4.0 -3.3 L-8.0 -0.8 -0.8 1.55 -0.8 -6.25 Q-2.5 -4.4 -4.0 -3.3 M-5.1 -4.55 Q-2.75 -6.3 -0.8 -8.55 L-0.8 -13.8 Q-3.3 -11.25 -7.5 -8.15 -12.15 -4.8 -15.35 -3.15 L-10.0 -1.45 Q-7.45 -2.8 -5.1 -4.55 M-23.4 -4.1 Q-20.15 2.2 -18.25 7.95 -16.15 14.35 -14.75 21.9 L-11.2 16.95 Q-11.85 12.85 -13.75 7.05 -15.8 0.95 -17.5 -2.2 L-23.4 -4.1 M-5.35 9.0 L-1.15 3.15 -8.1 0.9 Q-7.0 2.9 -6.5 4.55 -5.85 6.6 -5.35 9.0 M-8.05 5.15 Q-8.9 2.6 -10.3 0.15 L-15.35 -1.5 Q-13.75 1.7 -12.2 6.4 -10.5 11.7 -9.9 15.25 L-6.6 10.65 Q-7.15 7.85 -8.05 5.15" fill="#000000" fill-rule="evenodd" stroke="none"/>
  </g>
</svg>
