<?xml version="1.0" encoding="UTF-8" standalone="no"?>
<svg xmlns:ffdec="https://www.free-decompiler.com/flash" xmlns:xlink="http://www.w3.org/1999/xlink" ffdec:objectType="shape" height="85.9px" width="90.0px" xmlns="http://www.w3.org/2000/svg">
  <g transform="matrix(1.0, 0.0, 0.0, 1.0, 45.0, 55.95)">
    <path d="M0.0 -55.8 L10.0 -24.2 45.0 -24.2 16.65 -2.95 27.0 29.8 0.0 9.55 -27.0 29.8 -16.65 -2.95 -45.0 -24.2 -9.95 -24.2 0.0 -55.8" fill="#ffffff" fill-rule="evenodd" stroke="none"/>
    <path d="M-0.05 -8.65 L-0.05 -55.95 9.95 -24.2 -0.05 -8.65" fill="#999999" fill-rule="evenodd" stroke="none"/>
    <path d="M45.0 -24.45 L16.7 -2.95 0.0 -8.95 45.0 -24.45" fill="#999999" fill-rule="evenodd" stroke="none"/>
    <path d="M-0.05 9.5 L-0.05 -9.05 26.95 29.75 -0.05 9.5" fill="#999999" fill-rule="evenodd" stroke="none"/>
    <path d="M-0.05 9.6 L-27.05 29.75 -0.05 -8.95 -0.05 9.6" fill="#999999" fill-rule="evenodd" stroke="none"/>
    <path d="M45.0 -24.3 L-0.05 -9.05 10.0 -24.25 45.0 -24.3" fill="#ffffff" fill-rule="evenodd" stroke="none"/>
    <path d="M-16.65 -2.95 L-45.0 -24.2 0.05 -9.0 -16.65 -2.95" fill="#999999" fill-rule="evenodd" stroke="none"/>
    <path d="M16.6 -3.1 L26.95 29.75 -0.15 -9.05 16.6 -3.1" fill="#cccccc" fill-rule="evenodd" stroke="none"/>
    <path d="M0.05 -8.85 L-9.95 -24.15 0.05 -55.95 0.05 -8.85" fill="#ffffff" fill-rule="evenodd" stroke="none"/>
    <path d="M-16.8 -2.9 L-0.1 -8.95 -27.15 29.95 -16.8 -2.9" fill="#ffffff" fill-rule="evenodd" stroke="none"/>
  </g>
</svg>
