<?xml version="1.0" encoding="UTF-8" standalone="no"?>
<svg xmlns:ffdec="https://www.free-decompiler.com/flash" xmlns:xlink="http://www.w3.org/1999/xlink" ffdec:objectType="shape" height="243.3px" width="249.15px" xmlns="http://www.w3.org/2000/svg">
  <g transform="matrix(1.0, 0.0, 0.0, 1.0, 123.3, 121.65)">
    <path d="M-4.9 0.25 Q-4.9 13.1 -14.0 22.15 -23.05 31.25 -35.9 31.25 -48.7 31.25 -57.8 22.15 -66.9 13.1 -66.9 0.25 -66.9 -12.55 -57.8 -21.65 -48.7 -30.75 -35.9 -30.75 -23.05 -30.75 -14.0 -21.65 -4.9 -12.55 -4.9 0.25" fill="#000000" fill-rule="evenodd" stroke="none"/>
    <path d="M-3.15 70.4 Q-18.65 77.65 -35.9 77.65 -51.65 77.65 -66.05 71.55 -79.9 65.7 -90.65 55.0 -101.35 44.25 -107.2 30.4 -113.3 16.0 -113.3 0.25 -113.3 -15.5 -107.2 -29.9 -101.35 -43.75 -90.65 -54.5 -79.9 -65.2 -66.05 -71.05 -51.65 -77.15 -35.9 -77.15 -18.45 -77.15 -2.85 -69.75" fill="none" stroke="#000000" stroke-linecap="round" stroke-linejoin="round" stroke-opacity="0.5019608" stroke-width="20.0"/>
    <path d="M-36.15 0.8 L68.8 105.85" fill="none" stroke="#000000" stroke-linecap="round" stroke-linejoin="round" stroke-width="10.0"/>
    <path d="M-35.7 0.3 L72.35 -108.65" fill="none" stroke="#000000" stroke-linecap="round" stroke-linejoin="round" stroke-width="10.0"/>
    <path d="M68.05 -109.15 Q89.45 -87.75 101.2 -60.0 113.35 -31.25 113.35 0.25 113.35 31.55 101.35 60.15 89.75 87.8 68.55 109.15" fill="none" stroke="#000000" stroke-linecap="round" stroke-linejoin="round" stroke-width="25.0"/>
    <path d="M21.65 -3.5 L87.15 -3.5 87.15 6.0 21.65 6.0 54.4 36.6 40.1 36.6 2.3 1.25 40.1 -34.15 54.4 -34.15 21.65 -3.5" fill="#000000" fill-opacity="0.5019608" fill-rule="evenodd" stroke="none"/>
  </g>
</svg>
