<?xml version="1.0" encoding="UTF-8" standalone="no"?>
<svg xmlns:ffdec="https://www.free-decompiler.com/flash" xmlns:xlink="http://www.w3.org/1999/xlink" ffdec:objectType="shape" height="72.3px" width="119.8px" xmlns="http://www.w3.org/2000/svg">
  <g transform="matrix(1.0, 0.0, 0.0, 1.0, 59.4, 51.05)">
    <path d="M7.05 -45.6 L7.85 -45.6 12.3 -40.45 11.3 -39.5 10.1 -37.8 Q9.5 -36.75 9.5 -36.1 L9.6 -35.35 10.2 -34.05 Q11.0 -32.7 11.9 -32.3 L11.65 -31.75 11.45 -31.8 10.4 -31.9 9.2 -31.75 Q8.25 -31.5 8.15 -30.9 L8.1 -30.5 Q8.1 -29.7 8.85 -28.7 L9.7 -27.8 9.55 -27.5 8.6 -28.1 Q5.95 -30.1 5.95 -31.4 5.95 -32.3 6.6 -32.85 7.25 -33.4 8.3 -33.35 9.4 -33.4 10.4 -32.7 L6.3 -37.95 7.6 -39.3 8.8 -41.55 8.8 -42.1 Q8.8 -43.3 7.6 -44.95 L7.05 -45.6" fill="#000000" fill-opacity="0.2509804" fill-rule="evenodd" stroke="none"/>
    <path d="M-2.6 -0.9 L-2.6 -0.95 -2.6 -1.15 -2.4 -1.65 -2.0 -2.5 -1.35 -3.1 -1.35 -3.2 0.4 -3.7 1.2 -3.7 Q1.7 -3.6 2.05 -3.3 L2.2 -3.3 3.35 -1.9 3.5 -1.35 3.55 -1.15 3.55 0.55 3.3 1.25 3.0 1.9 2.35 2.5 2.3 2.55 0.6 3.1 -0.4 3.0 -1.2 2.7 -1.95 1.9 -2.0 1.9 -2.6 0.45 -2.6 0.35 -2.6 0.3 -2.6 -0.9 M39.65 21.2 L34.55 20.9 Q28.05 19.5 23.5 14.75 17.75 8.75 17.35 0.35 L17.8 -0.3 Q17.75 -3.85 16.3 -7.1 14.6 -10.95 11.25 -13.7 8.55 -15.9 5.2 -16.95 L-2.6 -17.3 Q-6.8 -16.5 -10.15 -13.85 -13.6 -11.15 -15.4 -7.2 -17.25 -3.15 -16.4 0.5 L-16.5 1.6 Q-16.5 9.7 -22.2 15.4 -27.9 21.1 -36.0 21.1 L-37.15 21.2 -42.2 20.7 Q-47.5 19.55 -51.6 16.05 -59.2 9.65 -59.4 -0.3 -58.9 -0.1 -58.6 -0.6 -58.6 -2.5 -58.0 -4.25 -56.15 -9.9 -50.5 -12.3 -46.6 -13.95 -42.6 -12.7 -33.1 -10.05 -32.55 -0.3 -33.2 0.0 -33.35 0.8 -34.8 8.75 -42.8 8.1 -49.25 7.25 -50.0 0.75 -50.5 -3.7 -46.25 -5.75 -41.8 -8.0 -38.55 -4.1 -36.7 -1.9 -37.5 0.7 -38.25 3.3 -41.0 3.55 -45.15 4.15 -46.0 0.1 L-45.3 -1.75 -43.1 -2.4 -41.6 -0.7 -41.7 -0.2 Q-42.5 1.5 -43.7 0.1 L-41.95 0.1 -43.2 -1.95 -44.8 -1.65 Q-45.6 -0.65 -45.2 0.5 -44.8 1.7 -43.75 2.25 -39.5 4.5 -38.3 -0.2 L-39.45 -2.6 Q-40.35 -4.75 -42.7 -5.15 -47.4 -5.55 -48.6 -1.05 L-47.75 2.15 Q-47.0 4.25 -45.0 5.4 -43.05 6.5 -40.75 6.0 -35.6 4.95 -35.2 -0.3 -35.8 -0.3 -35.85 -0.95 -36.0 -5.5 -39.8 -8.3 -42.8 -10.6 -46.6 -10.25 -51.0 -9.7 -53.65 -6.2 -56.45 -2.55 -54.8 0.35 L-54.7 1.3 Q-54.7 7.65 -49.6 12.1 -44.45 16.6 -37.2 16.6 L-36.25 16.5 Q-30.0 16.5 -25.55 12.05 -21.1 7.6 -21.1 1.3 L-21.0 0.35 Q-21.0 -8.65 -14.7 -15.0 -8.4 -21.4 0.5 -21.4 9.4 -21.4 15.75 -15.0 22.0 -8.65 22.0 0.35 L22.1 1.3 Q22.1 7.65 27.2 12.1 32.3 16.6 39.55 16.6 L40.5 16.5 Q46.8 16.5 51.25 12.05 55.7 7.6 55.7 1.3 L55.8 0.35 Q55.75 -0.25 55.95 -0.55 56.8 -2.25 55.45 -4.8 52.85 -9.6 47.4 -10.2 43.85 -10.3 41.0 -8.1 37.0 -4.9 36.2 -0.3 L36.5 1.4 Q37.4 4.85 40.8 5.9 43.6 6.75 45.9 5.2 49.25 3.1 49.65 -0.85 49.05 -4.05 46.0 -5.05 44.25 -5.5 42.7 -4.75 39.65 -3.15 39.25 0.2 L39.3 0.5 Q39.9 2.65 42.3 3.1 46.6 2.85 46.15 -1.2 L43.9 -1.85 43.05 0.35 44.75 -0.15 Q44.2 1.2 43.0 0.5 L43.25 -1.95 45.2 -2.4 46.25 -1.75 46.95 0.1 46.55 1.35 Q45.95 2.8 44.45 3.3 39.5 4.7 38.1 -0.4 38.2 -1.2 38.45 -1.95 40.35 -7.3 45.85 -6.1 50.75 -5.15 51.2 -0.15 51.55 2.95 49.45 5.5 46.5 8.9 41.95 8.5 39.8 8.3 38.15 7.05 34.25 4.05 33.5 -0.4 33.6 -4.75 36.3 -8.3 38.85 -11.65 43.0 -12.85 47.3 -14.1 51.4 -12.35 55.4 -10.7 57.25 -7.05 59.35 -2.95 60.4 0.5 L60.3 1.6 Q60.3 9.7 54.6 15.4 48.9 21.1 40.8 21.1 L39.65 21.2" fill="#010101" fill-rule="evenodd" stroke="none"/>
    <path d="M2.5 -7.1 L3.55 -7.0 3.65 -6.95 4.4 -6.9 6.15 -6.5 6.25 -6.5 7.4 -6.15 9.4 -5.3 Q11.25 -4.3 12.45 -2.7 L12.55 -2.55 Q13.1 -1.7 13.2 -0.3 L12.9 -0.3 Q12.7 -0.25 12.75 0.1 L12.6 0.7 12.55 0.9 11.85 2.15 11.8 2.3 11.35 2.85 9.65 4.1 Q7.9 5.15 5.6 5.7 L5.5 5.7 4.2 5.9 3.25 6.1 3.2 6.1 2.35 6.15 0.3 6.25 -0.45 6.15 -1.15 6.1 -2.45 6.0 -3.75 5.85 -4.1 5.8 -4.35 5.7 -5.0 5.55 -5.15 5.5 -5.75 5.3 -6.8 5.0 -7.0 4.9 -7.5 4.7 Q-8.6 4.3 -9.35 3.7 L-9.45 3.6 Q-10.7 2.7 -11.4 1.3 L-11.75 0.2 -11.75 0.1 Q-11.75 -0.25 -11.9 -0.3 L-12.05 -0.35 -12.2 -0.95 -12.0 -1.5 -12.0 -1.55 Q-11.6 -2.65 -10.95 -3.35 -9.6 -4.9 -7.6 -5.7 L-5.45 -6.45 -4.3 -6.75 -3.05 -6.9 -2.1 -7.05 -1.2 -7.1 -0.65 -7.15 0.3 -7.2 1.25 -7.2 1.8 -7.1 2.5 -7.1 M3.1 -4.8 L2.2 -4.85 2.15 -4.9 0.1 -4.9 -2.5 -4.65 -2.5 -4.55 -3.8 -3.3 -3.95 -3.0 -4.0 -2.9 -4.55 -1.55 -4.55 -1.5 Q-4.55 -1.1 -4.7 -0.9 L-4.6 -0.3 Q-4.45 -0.1 -4.45 0.35 L-4.45 0.55 -4.0 1.9 -3.85 2.05 Q-3.6 2.4 -3.45 2.9 L-3.4 2.9 -2.65 3.65 -1.6 4.15 -0.4 4.6 -0.2 4.65 0.8 4.65 Q2.1 4.55 3.0 4.0 3.25 3.75 3.65 3.65 L3.7 3.55 4.4 2.9 5.1 1.6 5.45 0.0 5.55 -0.15 5.65 -0.7 Q5.4 -2.4 4.6 -3.45 L3.1 -4.8 M6.8 -3.9 L6.6 -4.0 5.5 -4.25 Q6.6 -2.9 6.8 -0.6 L6.85 -0.45 7.0 0.15 7.0 0.35 6.95 0.95 6.75 1.65 6.2 2.9 5.8 3.65 5.7 3.65 5.3 4.0 5.4 4.1 5.85 4.05 6.45 3.85 Q7.1 3.7 7.6 3.4 L7.85 3.3 9.7 2.3 9.75 2.2 10.8 1.25 10.8 1.15 Q11.2 0.6 11.25 -0.3 10.85 -0.2 10.8 -0.5 L10.8 -0.7 10.7 -0.95 Q10.2 -2.0 9.35 -2.7 L6.8 -3.9 M-8.4 -2.6 L-8.6 -2.3 -8.75 -2.25 -9.15 -1.9 -9.25 -1.8 Q-9.7 -1.4 -9.8 -0.7 L-9.8 -0.6 Q-9.8 -0.2 -10.25 -0.3 L-10.0 0.65 -9.7 1.3 -9.0 2.0 -8.9 2.1 Q-7.3 3.3 -5.05 3.9 L-4.95 3.95 -4.4 4.0 -5.2 2.85 -5.5 2.3 Q-6.0 1.45 -6.0 0.15 L-5.95 -0.3 Q-5.8 -0.5 -5.8 -0.9 L-5.8 -1.0 -5.55 -2.25 -5.3 -2.9 -4.5 -4.25 -5.4 -4.05 -6.2 -3.7 -7.75 -2.95 -8.4 -2.6" fill="#030303" fill-rule="evenodd" stroke="none"/>
    <path d="M-2.6 0.35 L-2.65 -0.9 -2.6 -0.9 -2.6 0.3 -2.6 0.35" fill="#606060" fill-rule="evenodd" stroke="none"/>
    <path d="M2.5 -7.1 L1.8 -7.1 1.25 -7.2 2.5 -7.15 2.5 -7.1" fill="#727272" fill-rule="evenodd" stroke="none"/>
    <path d="M39.65 21.2 L40.8 21.1 40.8 21.15 39.65 21.2 M60.3 1.6 L60.4 0.5 60.4 0.85 60.3 1.6 M-37.15 21.2 L-36.0 21.1 -36.0 21.15 -37.15 21.2 M-16.5 1.6 L-16.4 0.5 -16.4 0.85 -16.5 1.6" fill="#757575" fill-rule="evenodd" stroke="none"/>
    <path d="M55.8 0.35 L55.7 1.3 55.7 1.25 55.7 0.35 55.8 0.35 M40.5 16.5 L39.55 16.6 39.55 16.5 40.4 16.5 40.5 16.5 M22.1 1.3 L22.0 0.35 22.1 0.95 22.1 1.3 M-21.0 0.35 L-21.1 1.3 -21.1 1.25 -21.1 0.35 -21.0 0.35 M-36.25 16.5 L-37.2 16.6 -37.2 16.5 -36.4 16.5 -36.25 16.5 M-54.7 1.3 L-54.8 0.35 Q-54.6 0.5 -54.65 0.95 L-54.7 1.3 M2.15 20.3 L2.1 20.35 1.2 20.45 1.2 20.3 2.0 20.3 2.15 20.3" fill="#8d8d8d" fill-rule="evenodd" stroke="none"/>
    <path d="M-9.7 10.9 L-8.6 10.9 -8.55 10.9 Q-7.85 11.7 -6.7 12.0 L-5.0 12.4 -2.85 12.7 -2.8 12.7 -0.65 12.85 -0.1 13.0 1.55 12.9 1.65 12.85 2.15 12.85 2.2 12.85 3.25 12.8 3.25 12.75 4.55 12.6 4.7 12.55 6.05 12.45 6.15 12.4 6.75 12.25 7.6 12.05 7.7 12.0 8.75 11.55 9.5 10.9 10.6 10.9 10.65 10.9 10.65 11.0 10.4 11.8 10.3 11.8 9.8 12.35 8.95 12.7 8.0 13.1 7.3 13.3 6.25 13.6 5.0 13.7 4.35 13.8 1.65 14.0 1.55 14.0 -0.65 14.0 -1.4 13.95 -2.1 13.9 -3.55 13.75 -4.5 13.65 -4.6 13.65 Q-7.1 13.3 -8.9 12.3 L-8.95 12.2 -9.4 11.8 -9.4 11.7 -9.7 10.9" fill="#040404" fill-rule="evenodd" stroke="none"/>
    <path d="M-0.65 14.0 L1.55 14.0 1.65 14.0 1.55 14.05 -0.1 14.1 -0.65 14.0" fill="#bfbfbf" fill-rule="evenodd" stroke="none"/>
    <path d="M1.65 12.85 L1.55 12.9 -0.1 13.0 -0.65 12.85 1.55 12.85 1.65 12.85" fill="#3f3f3f" fill-rule="evenodd" stroke="none"/>
    <path d="M3.25 12.75 L3.25 12.8 2.2 12.85 2.2 12.75 3.2 12.75 3.25 12.75" fill="#898989" fill-rule="evenodd" stroke="none"/>
    <path d="M-1.4 17.35 L-2.4 17.3 -3.2 17.2 -3.6 17.1 -5.65 16.7 -6.25 16.55 Q-7.4 16.2 -7.65 15.05 L-6.9 15.05 -6.8 15.05 -5.9 15.6 -5.8 15.7 -5.2 15.85 -4.6 15.95 -3.9 16.1 -2.65 16.3 -2.0 16.35 1.35 16.5 2.4 16.45 2.4 16.4 3.8 16.35 4.2 16.3 4.35 16.25 6.55 15.7 7.5 15.3 7.6 15.25 Q7.85 14.9 8.55 15.05 8.7 15.3 8.45 15.65 L8.05 16.1 6.0 16.9 5.6 17.0 5.1 17.1 4.4 17.2 4.2 17.25 2.4 17.35 2.3 17.35 1.35 17.35 1.35 17.45 1.25 17.45 -0.4 17.45 -0.4 17.4 -1.4 17.35" fill="#050505" fill-rule="evenodd" stroke="none"/>
    <path d="M2.4 16.4 L2.4 16.45 1.35 16.5 1.35 16.4 2.3 16.4 2.4 16.4" fill="#a1a1a1" fill-rule="evenodd" stroke="none"/>
    <path d="M1.35 17.45 L1.35 17.35 2.3 17.35 2.4 17.35 2.4 17.4 1.35 17.45" fill="#565656" fill-rule="evenodd" stroke="none"/>
    <path d="M-8.55 10.9 L-8.6 10.9 -9.7 10.9 -9.7 10.85 -8.55 10.9 M10.65 10.9 L10.6 10.9 9.5 10.9 9.5 10.85 10.65 10.9" fill="#7f7f7f" fill-rule="evenodd" stroke="none"/>
    <path d="M1.0 21.2 L-2.65 20.9 -2.85 20.85 Q-4.1 20.55 -5.0 20.05 L-5.0 20.0 Q-5.55 19.65 -5.65 18.9 -5.0 18.75 -4.8 19.1 L-4.6 19.35 -3.6 19.8 -3.35 19.9 -2.65 20.1 -2.45 20.1 1.2 20.45 2.1 20.35 2.15 20.3 3.05 20.15 4.0 20.0 5.6 19.35 5.8 19.1 Q6.0 18.75 6.6 18.9 L6.6 19.0 5.85 20.1 4.15 20.8 2.0 21.1 1.95 21.1 1.0 21.1 1.0 21.2" fill="#080808" fill-rule="evenodd" stroke="none"/>
    <path d="M1.0 21.2 L1.0 21.1 1.95 21.1 2.0 21.1 2.0 21.15 1.0 21.2" fill="#717171" fill-rule="evenodd" stroke="none"/>
    <path d="M-1.4 17.35 L-0.4 17.4 -0.4 17.45 -0.75 17.5 -1.4 17.35" fill="#575757" fill-rule="evenodd" stroke="none"/>
    <path d="M31.5 -44.45 L31.5 -40.25 25.75 -37.75 25.75 -25.75 25.8 -25.2 24.15 -24.0 22.8 -23.1 21.95 -22.85 21.0 -22.85 Q20.6 -22.9 20.25 -23.1 L19.65 -23.65 Q19.3 -24.15 19.4 -24.8 19.45 -25.4 20.0 -26.0 20.6 -26.55 21.35 -26.85 L23.1 -27.1 Q23.85 -27.0 24.45 -26.4 L24.45 -41.3 31.5 -44.45 M31.55 -40.3 L31.55 -44.45 39.5 -48.1 39.5 -31.55 39.6 -30.9 37.95 -29.65 Q37.4 -29.05 36.6 -28.8 L35.75 -28.55 34.85 -28.55 Q34.4 -28.6 34.1 -28.8 33.7 -28.95 33.45 -29.3 33.1 -29.85 33.2 -30.45 33.25 -31.1 33.85 -31.65 34.4 -32.25 35.2 -32.5 L36.9 -32.75 Q37.7 -32.65 38.25 -32.05 L38.25 -43.3 31.55 -40.3 M-3.0 -51.05 L-3.0 -34.95 -3.35 -33.8 -4.05 -33.05 Q-4.35 -32.7 -5.85 -32.2 L-6.7 -31.95 -7.65 -31.95 -8.4 -32.2 -9.0 -32.7 Q-9.35 -33.25 -9.25 -33.85 L-8.65 -35.05 Q-8.05 -35.65 -7.3 -35.95 L-5.55 -36.15 Q-4.8 -36.1 -4.2 -35.45 L-4.2 -40.45 -4.2 -50.95 -3.0 -51.05 M-18.5 -25.95 L-18.5 -23.45 -18.4 -22.8 -20.0 -21.55 Q-20.6 -20.95 -21.35 -20.65 L-22.2 -20.4 -23.05 -20.4 -23.15 -20.4 -23.9 -20.65 -24.55 -21.2 Q-24.85 -21.7 -24.75 -22.35 L-24.15 -23.55 -23.05 -24.3 -22.8 -24.4 -21.05 -24.65 Q-20.3 -24.55 -19.75 -23.95 L-19.75 -25.95 -19.7 -25.95 -19.7 -35.05 -26.15 -37.5 -26.15 -41.7 -18.5 -38.85 -18.5 -25.95 M-26.2 -41.75 L-26.2 -37.5 -31.75 -39.65 -31.75 -31.0 -31.8 -31.05 -31.8 -29.05 -31.75 -28.55 -33.35 -27.3 Q-33.95 -26.7 -34.7 -26.4 L-35.55 -26.2 -36.5 -26.2 -37.25 -26.4 -37.85 -26.95 Q-38.2 -27.5 -38.1 -28.1 -38.05 -28.75 -37.5 -29.3 -36.9 -29.9 -36.15 -30.15 L-34.4 -30.4 Q-33.65 -30.3 -33.05 -29.7 L-33.05 -32.4 -33.0 -32.4 -33.0 -44.35 -26.2 -41.75" fill="#000000" fill-opacity="0.2509804" fill-rule="evenodd" stroke="none"/>
  </g>
</svg>
