<?xml version="1.0" encoding="UTF-8" standalone="no"?>
<svg xmlns:ffdec="https://www.free-decompiler.com/flash" xmlns:xlink="http://www.w3.org/1999/xlink" ffdec:objectType="shape" height="66.7px" width="114.05px" xmlns="http://www.w3.org/2000/svg">
  <g transform="matrix(1.0, 0.0, 0.0, 1.0, 19.5, 33.65)">
    <path d="M2.45 -25.05 Q-1.9 -25.05 -5.2 -22.75 -8.15 -20.7 -9.65 -17.2 -7.9 -20.1 -4.1 -21.1 L1.45 -21.3 Q8.75 -19.25 11.7 -11.9 L11.9 -11.5 14.8 -13.2 Q13.7 -16.85 11.8 -19.65 8.05 -25.05 2.45 -25.05 M-6.15 -5.4 L-6.1 -5.4 Q-5.5 -5.1 -5.05 -4.4 -3.4 -2.6 -3.65 0.4 -3.9 3.7 -6.5 7.0 -9.8 11.35 -8.5 13.3 -7.95 14.1 -6.75 13.9 -5.5 13.6 -4.1 12.2 -0.95 8.15 -0.4 8.2 1.3 8.5 1.55 10.45 1.7 11.5 2.55 11.95 L4.6 12.1 Q7.65 11.1 9.55 6.05 12.4 -1.4 10.35 -7.85 L-1.45 -3.9 9.5 -10.1 Q6.7 -16.1 0.55 -17.35 -3.8 -18.3 -7.15 -15.9 -10.4 -13.55 -10.5 -9.9 -8.7 -7.85 -6.1 -5.45 L-6.2 -5.45 -6.15 -5.4 M-8.8 -2.75 L-7.4 -2.6 Q-6.7 -2.05 -6.7 -1.4 -6.7 0.0 -7.55 0.75 -8.3 1.5 -9.4 1.45 -12.2 1.35 -12.2 -1.55 -12.2 -5.45 -8.4 -5.75 L-9.4 -6.1 Q-14.15 -8.45 -16.3 -13.6 -18.4 -18.6 -17.05 -23.55 -15.7 -28.85 -11.05 -31.4 -5.75 -34.4 2.45 -32.8 9.3 -31.5 14.5 -23.15 16.9 -19.4 18.2 -15.1 L36.25 -25.35 36.15 -12.45 94.55 -33.65 26.65 -1.05 26.65 -13.4 19.2 -10.85 Q20.0 -6.25 19.65 -1.1 19.0 8.8 15.65 16.6 12.5 23.85 7.55 28.15 2.8 32.35 -2.6 32.95 -8.15 33.5 -13.0 30.2 -20.6 25.0 -19.3 16.9 -18.1 9.1 -9.85 3.95 -5.5 1.3 -5.15 -2.0 -4.75 -5.15 -8.0 -5.15 -10.75 -5.15 -11.25 -2.75 -11.45 -1.8 -10.95 -1.1 -10.4 -0.35 -9.2 -0.35 -8.2 -0.35 -8.05 -1.6 -7.85 -2.8 -8.8 -2.75 M16.15 -6.7 L15.7 -9.65 12.7 -8.7 Q14.05 -2.55 11.25 4.4 6.8 15.45 0.75 14.3 0.1 14.2 -0.4 13.45 L-1.15 12.2 Q-1.95 11.0 -3.7 13.05 -5.45 15.1 -7.25 15.6 -8.95 16.1 -10.0 15.2 -11.05 14.25 -10.85 12.45 -10.6 10.4 -8.75 8.0 -5.1 3.25 -4.45 -0.05 -5.35 4.0 -10.3 8.3 -16.1 13.3 -14.3 19.0 -13.45 21.45 -11.3 23.05 -8.95 24.75 -5.8 24.95 2.7 25.55 8.35 21.25 13.1 16.65 15.15 8.65 17.05 1.15 16.15 -6.7 M2.3 -27.95 Q6.35 -27.95 9.5 -25.9 4.1 -30.55 -2.75 -30.5 -9.2 -30.45 -11.95 -26.45 -13.8 -23.85 -14.05 -20.05 -14.45 -14.8 -10.95 -10.45 -11.7 -12.15 -11.35 -15.0 -11.0 -18.05 -9.5 -20.85 -5.65 -27.95 2.3 -27.95" fill="#000000" fill-rule="evenodd" stroke="none"/>
    <path d="M2.45 -25.05 Q8.05 -25.05 11.8 -19.65 13.7 -16.85 14.8 -13.2 L11.9 -11.5 11.7 -11.9 Q8.75 -19.25 1.45 -21.3 L-4.1 -21.1 Q-7.9 -20.1 -9.65 -17.2 -8.15 -20.7 -5.2 -22.75 -1.9 -25.05 2.45 -25.05 M2.3 -27.95 Q-5.65 -27.95 -9.5 -20.85 -11.0 -18.05 -11.35 -15.0 -11.7 -12.15 -10.95 -10.45 -14.45 -14.8 -14.05 -20.05 -13.8 -23.85 -11.95 -26.45 -9.2 -30.45 -2.75 -30.5 4.1 -30.55 9.5 -25.9 6.35 -27.95 2.3 -27.95 M16.15 -6.7 Q17.05 1.15 15.15 8.65 13.1 16.65 8.35 21.25 2.7 25.55 -5.8 24.95 -8.95 24.75 -11.3 23.05 -13.45 21.45 -14.3 19.0 -16.1 13.3 -10.3 8.3 -5.35 4.0 -4.45 -0.05 -5.1 3.25 -8.75 8.0 -10.6 10.4 -10.85 12.45 -11.05 14.25 -10.0 15.2 -8.95 16.1 -7.25 15.6 -5.45 15.1 -3.7 13.05 -1.95 11.0 -1.15 12.2 L-0.4 13.45 Q0.1 14.2 0.75 14.3 6.8 15.45 11.25 4.4 14.05 -2.55 12.7 -8.7 L15.7 -9.65 16.15 -6.7" fill="#fafafa" fill-rule="evenodd" stroke="none"/>
  </g>
</svg>
