<?xml version="1.0" encoding="UTF-8" standalone="no"?>
<svg xmlns:ffdec="https://www.free-decompiler.com/flash" xmlns:xlink="http://www.w3.org/1999/xlink" ffdec:objectType="shape" height="55.9px" width="56.95px" xmlns="http://www.w3.org/2000/svg">
  <g transform="matrix(1.0, 0.0, 0.0, 1.0, 28.45, 27.95)">
    <path d="M11.35 -13.15 L9.4 -13.05 10.15 -11.45 6.0 -9.45 6.65 -7.05 5.35 -7.05 4.75 -9.45 1.65 -9.45 1.1 -8.55 -0.15 -9.15 -2.2 -7.1 -0.55 -5.15 -0.65 -2.95 1.1 -1.65 11.15 -0.55 14.35 1.75 14.0 7.35 7.05 14.25 Q6.35 14.9 5.75 18.0 5.1 20.9 5.3 22.15 L4.25 23.35 Q3.0 20.9 1.05 15.9 0.55 14.1 0.2 11.5 L-0.3 7.05 -4.7 3.15 -0.8 -1.45 -2.45 -3.7 Q-6.15 -4.5 -7.25 -5.05 -8.35 -5.7 -11.05 -8.45 L-9.55 -5.45 -10.6 -5.05 -12.95 -9.5 -12.45 -13.65 -13.25 -16.6 -15.5 -18.85 -17.2 -19.25 -18.65 -18.2 -20.25 -17.8 Q-26.9 -10.1 -26.9 -0.15 -26.9 10.95 -18.95 18.75 -11.1 26.4 0.1 26.4 11.25 26.4 19.15 18.6 27.0 10.75 27.0 -0.35 27.0 -11.25 18.95 -19.0 11.0 -26.7 0.1 -26.65 L-2.85 -20.65 0.35 -20.05 2.85 -22.5 7.25 -22.25 8.15 -19.85 5.5 -17.25 5.5 -15.65 7.15 -15.3 7.9 -16.55 10.8 -18.4 10.75 -17.15 11.8 -15.25 10.5 -13.9 11.35 -13.15 M20.05 -19.95 Q28.5 -11.85 28.5 -0.2 28.5 11.5 20.15 19.75 11.75 27.95 0.05 27.95 -11.65 27.95 -20.0 19.85 -28.45 11.7 -28.45 0.0 -28.45 -11.65 -20.0 -19.85 -11.65 -27.95 0.05 -27.95 11.75 -27.95 20.05 -19.95" fill="#000000" fill-rule="evenodd" stroke="none"/>
  </g>
</svg>
