<?xml version="1.0" encoding="UTF-8" standalone="no"?>
<svg xmlns:ffdec="https://www.free-decompiler.com/flash" xmlns:xlink="http://www.w3.org/1999/xlink" ffdec:objectType="shape" height="29.9px" width="29.9px" xmlns="http://www.w3.org/2000/svg">
  <g transform="matrix(1.0, 0.0, 0.0, 1.0, 14.95, 28.95)">
    <path d="M8.75 -5.25 Q5.15 -1.6 0.0 -1.55 -5.2 -1.6 -8.85 -5.25 -12.45 -8.85 -12.45 -14.0 -12.45 -19.2 -8.85 -22.85 -5.2 -26.45 0.0 -26.45 5.15 -26.45 8.75 -22.85 12.4 -19.2 12.45 -14.0 12.4 -8.85 8.75 -5.25" fill="#ffffff" fill-rule="evenodd" stroke="none"/>
    <path d="M8.75 -5.25 Q5.15 -1.6 0.0 -1.55 -5.2 -1.6 -8.85 -5.25 -12.45 -8.85 -12.45 -14.0 -12.45 -19.2 -8.85 -22.85 -5.2 -26.45 0.0 -26.45 5.15 -26.45 8.75 -22.85 12.4 -19.2 12.45 -14.0 12.4 -8.85 8.75 -5.25 Z" fill="none" stroke="#7f7f7f" stroke-linecap="round" stroke-linejoin="round" stroke-width="5.0"/>
    <path d="M5.15 -14.05 Q5.15 -11.9 3.65 -10.35 2.1 -8.85 -0.05 -8.85 -2.2 -8.85 -3.75 -10.35 -5.25 -11.9 -5.25 -14.05 -5.25 -16.2 -3.75 -17.75 -2.2 -19.25 -0.05 -19.25 2.1 -19.25 3.65 -17.75 5.15 -16.2 5.15 -14.05" fill="#000000" fill-rule="evenodd" stroke="none"/>
  </g>
</svg>
