<?xml version="1.0" encoding="UTF-8" standalone="no"?>
<svg xmlns:ffdec="https://www.free-decompiler.com/flash" xmlns:xlink="http://www.w3.org/1999/xlink" ffdec:objectType="shape" height="85.5px" width="90.6px" xmlns="http://www.w3.org/2000/svg">
  <g transform="matrix(1.0, 0.0, 0.0, 1.0, 45.3, 57.3)">
    <path d="M32.75 -26.05 Q21.7 -29.7 19.35 -32.55 18.1 -34.05 16.9 -38.45 15.6 -43.05 16.15 -44.45 19.8 -43.45 25.35 -37.55 31.25 -31.3 32.75 -26.05 M3.65 -34.7 Q3.3 -32.05 1.55 -30.65 L0.35 -29.95 -0.15 -29.8 Q-0.95 -29.95 -1.85 -30.65 -3.65 -32.05 -4.0 -34.7 -4.55 -38.75 -3.35 -46.65 -2.05 -55.35 0.05 -57.3 2.15 -55.4 3.25 -46.65 4.2 -38.9 3.65 -34.7 M-16.35 -44.45 Q-15.8 -43.05 -17.05 -38.45 -18.3 -34.05 -19.55 -32.55 -21.9 -29.7 -32.95 -26.05 -31.45 -31.3 -25.55 -37.55 -20.0 -43.45 -16.35 -44.45 M12.95 2.4 Q16.45 1.65 17.45 2.4 18.45 3.1 13.25 13.7 8.1 24.15 6.95 24.6 6.65 19.9 7.35 12.35 8.05 4.7 8.8 3.95 9.55 3.05 12.95 2.4 M-7.55 12.35 Q-6.85 19.9 -7.1 24.6 -8.3 24.15 -13.45 13.7 -18.65 3.1 -17.65 2.4 -16.65 1.65 -13.15 2.4 -9.75 3.05 -8.95 3.95 -8.25 4.7 -7.55 12.35" fill="#7f7f7f" fill-rule="evenodd" stroke="none"/>
    <path d="M11.2 -47.6 L12.85 -40.8 Q13.95 -35.85 15.05 -33.35 16.7 -29.6 19.3 -28.5 L26.05 -25.7 34.7 -21.9 Q45.3 -16.75 45.3 -13.6 45.3 -9.8 34.6 0.35 30.35 4.4 26.55 7.25 22.7 10.2 21.5 10.2 19.65 10.2 19.9 5.0 L20.15 1.25 Q20.2 -0.55 19.9 -0.8 19.1 -1.45 13.35 -0.7 7.45 0.05 6.5 1.0 6.1 1.4 5.6 5.75 L4.5 14.95 Q2.75 27.95 0.0 28.2 -2.75 27.95 -4.45 14.95 L-5.55 5.75 Q-6.1 1.4 -6.5 1.0 -7.45 0.05 -13.3 -0.7 -19.1 -1.45 -19.9 -0.8 -20.2 -0.55 -20.0 1.25 L-19.55 5.0 Q-19.1 10.2 -21.5 10.2 -23.0 10.2 -26.95 7.25 -30.7 4.45 -34.95 0.35 -39.35 -3.95 -42.15 -7.55 -45.3 -11.65 -45.3 -13.6 -45.3 -16.75 -34.65 -21.9 -28.95 -24.65 -19.3 -28.5 -16.7 -29.6 -15.05 -33.35 -13.95 -35.85 -12.85 -40.8 L-11.15 -47.6 Q-10.1 -50.6 -8.5 -50.6 -8.6 -29.2 -6.9 -28.4 -3.9 -27.0 0.25 -27.0 4.35 -27.0 6.9 -28.4 8.6 -29.35 8.5 -50.6 10.1 -50.6 11.2 -47.6 M18.35 -20.15 Q10.55 -22.4 1.95 -22.5 -16.85 -22.75 -32.0 -13.7 -28.95 -10.5 -20.15 -8.55 -11.85 -6.75 -1.35 -6.65 9.3 -6.55 18.1 -8.35 27.65 -10.35 32.0 -14.0 26.15 -17.95 18.35 -20.15" fill="#000000" fill-rule="evenodd" stroke="none"/>
  </g>
</svg>
