<?xml version="1.0" encoding="UTF-8" standalone="no"?>
<svg xmlns:ffdec="https://www.free-decompiler.com/flash" xmlns:xlink="http://www.w3.org/1999/xlink" ffdec:objectType="shape" height="86.1px" width="60.5px" xmlns="http://www.w3.org/2000/svg">
  <g transform="matrix(1.0, 0.0, 0.0, 1.0, 29.75, 58.05)">
    <path d="M9.9 -19.95 Q19.25 -19.1 19.35 -17.4 19.3 -16.7 12.75 -12.4 5.95 -7.95 5.75 -7.55 5.4 -7.05 3.5 10.0 L1.4 27.4 Q0.95 28.1 0.5 28.05 0.05 28.1 -0.35 27.4 L-2.45 10.0 Q-4.4 -7.05 -4.7 -7.55 L-11.75 -12.4 Q-18.3 -16.7 -18.35 -17.4 -18.3 -19.1 -8.85 -19.95 L0.5 -20.5 3.45 -20.4 9.9 -19.95" fill="#7f7f7f" fill-rule="evenodd" stroke="none"/>
    <path d="M30.35 -20.65 Q31.65 -17.85 28.95 -18.55 L16.4 -21.8 Q7.55 -23.65 0.5 -23.6 -6.7 -23.6 -15.4 -21.75 L-27.9 -18.55 Q-30.65 -17.85 -29.35 -20.65 -28.35 -22.85 -26.15 -25.25 -24.8 -26.75 -21.95 -28.5 -19.0 -30.35 -15.35 -31.85 -6.65 -35.55 0.5 -35.45 7.65 -35.55 16.4 -31.85 20.05 -30.35 22.95 -28.5 25.8 -26.75 27.2 -25.25 29.35 -22.85 30.35 -20.65 M27.2 -16.0 Q29.4 -15.9 29.6 -15.05 29.75 -14.3 23.4 -8.45 16.45 -2.05 15.75 -0.9 15.25 -0.15 13.8 4.2 L10.9 13.0 Q6.9 24.95 5.5 24.6 4.9 24.35 5.3 20.0 5.65 16.1 6.6 10.35 7.6 4.65 8.65 0.3 9.75 -4.5 10.45 -5.35 11.65 -6.95 18.45 -11.6 L25.0 -16.0 27.2 -16.0 M-24.0 -16.0 L-17.4 -11.6 Q-10.65 -6.95 -9.45 -5.35 -8.75 -4.45 -7.6 0.25 -6.55 4.6 -5.6 10.2 -4.65 15.9 -4.25 19.85 -3.9 24.25 -4.5 24.6 -5.8 25.25 -9.85 13.2 L-12.75 4.25 Q-14.25 -0.15 -14.7 -0.9 -15.4 -2.0 -22.35 -8.45 -28.8 -14.3 -28.55 -15.05 -28.4 -15.9 -26.15 -16.05 L-24.0 -16.0" fill="#000000" fill-rule="evenodd" stroke="none"/>
    <path d="M4.2 -58.05 Q5.2 -58.1 5.85 -57.05 L8.05 -51.55 Q9.8 -46.9 10.55 -46.3 19.85 -38.85 21.75 -36.25 23.2 -34.2 23.1 -33.2 23.0 -32.1 20.5 -33.85 16.15 -36.8 7.9 -38.25 L2.65 -39.0 0.5 -39.1 -6.9 -38.25 Q-15.15 -36.8 -19.5 -33.85 -22.0 -32.1 -22.1 -33.2 -22.2 -34.2 -20.75 -36.25 -18.9 -38.8 -9.55 -46.3 -8.8 -46.9 -7.05 -51.55 L-4.85 -57.05 Q-4.2 -58.1 -3.15 -58.05 -2.15 -58.05 -2.2 -56.75 L-2.05 -50.75 Q-2.2 -48.5 -1.8 -47.7 -1.25 -46.7 0.5 -46.7 2.25 -46.7 2.8 -47.7 3.2 -48.5 3.1 -50.75 L3.25 -56.75 Q3.15 -58.05 4.2 -58.05" fill="#7f7f7f" fill-rule="evenodd" stroke="none"/>
  </g>
</svg>
