<?xml version="1.0" encoding="UTF-8" standalone="no"?>
<svg xmlns:ffdec="https://www.free-decompiler.com/flash" xmlns:xlink="http://www.w3.org/1999/xlink" ffdec:objectType="shape" height="670.0px" width="670.0px" xmlns="http://www.w3.org/2000/svg">
  <g transform="matrix(1.0, 0.0, 0.0, 1.0, 335.0, 335.0)">
    <path d="M300.0 0.0 Q300.0 124.25 212.15 212.1 124.3 299.95 0.0 300.0 -124.3 299.95 -212.15 212.1 -300.0 124.25 -300.0 0.0 -300.0 -124.3 -212.15 -212.15 -124.3 -300.05 0.0 -300.0 124.3 -300.05 212.15 -212.15 300.0 -124.3 300.0 0.0 Z" fill="none" stroke="#000000" stroke-linecap="round" stroke-linejoin="round" stroke-opacity="0.7529412" stroke-width="10.0"/>
    <path d="M233.35 -233.4 Q330.0 -136.75 330.0 0.0 330.0 136.7 233.35 233.35 136.7 329.95 0.0 330.0 -136.7 329.95 -233.35 233.35 -330.0 136.7 -330.0 0.0 -330.0 -136.75 -233.35 -233.4 -136.7 -330.05 0.0 -330.0 136.7 -330.05 233.35 -233.4 Z" fill="none" stroke="#000000" stroke-linecap="round" stroke-linejoin="round" stroke-opacity="0.101960786" stroke-width="10.0"/>
  </g>
</svg>
