<?xml version="1.0" encoding="UTF-8" standalone="no"?>
<svg xmlns:ffdec="https://www.free-decompiler.com/flash" xmlns:xlink="http://www.w3.org/1999/xlink" ffdec:objectType="shape" height="90.3px" width="67.8px" xmlns="http://www.w3.org/2000/svg">
  <g transform="matrix(1.0, 0.0, 0.0, 1.0, 47.3, 118.0)">
    <path d="M20.4 -44.15 Q20.1 -43.8 18.0 -43.8 13.1 -43.8 14.0 -40.95 14.35 -32.3 9.15 -27.85 7.85 -26.75 2.9 -33.3 0.75 -36.15 -3.95 -35.0 L-8.3 -33.85 Q-8.8 -37.3 -6.95 -40.5 -5.1 -43.6 -5.15 -43.9 -6.4 -46.6 -12.0 -51.9 -23.25 -62.55 -36.85 -63.75 L-44.2 -64.4 Q-46.95 -65.05 -47.15 -67.8 -48.75 -89.75 -33.25 -104.8 -26.5 -111.4 -17.8 -114.9 -9.15 -118.35 -0.55 -117.95 -9.1 -112.05 -13.85 -103.15 -18.3 -94.75 -18.55 -85.3 -18.8 -76.0 -14.85 -67.95 -10.7 -59.5 -2.9 -54.35 11.2 -53.7 18.9 -46.55 20.9 -44.7 20.4 -44.15" fill="#1668e2" fill-opacity="0.4" fill-rule="evenodd" stroke="none"/>
  </g>
</svg>
