<?xml version="1.0" encoding="UTF-8" standalone="no"?>
<svg xmlns:ffdec="https://www.free-decompiler.com/flash" xmlns:xlink="http://www.w3.org/1999/xlink" ffdec:objectType="shape" height="32.0px" width="32.0px" xmlns="http://www.w3.org/2000/svg">
  <g transform="matrix(1.0, 0.0, 0.0, 1.0, 16.05, 16.05)">
    <path d="M15.95 -0.05 Q15.95 6.6 11.2 11.3 6.55 16.0 -0.05 15.95 -6.7 16.0 -11.45 11.3 -16.05 6.6 -16.05 -0.05 -16.05 -6.65 -11.45 -11.35 -6.7 -16.0 -0.05 -16.05 6.55 -16.0 11.2 -11.35 15.95 -6.65 15.95 -0.05" fill="#000000" fill-rule="evenodd" stroke="none"/>
    <path d="M15.95 -0.05 Q15.95 6.6 11.2 11.3 6.55 16.0 -0.05 15.95 -6.7 16.0 -11.45 11.3 -16.05 6.6 -16.05 -0.05 -16.05 -6.65 -11.45 -11.35 -6.7 -16.0 -0.05 -16.05 6.55 -16.0 11.2 -11.35 15.95 -6.65 15.95 -0.05 M12.75 -0.05 Q12.75 -5.35 8.95 -9.05 5.25 -12.8 -0.05 -12.85 -5.35 -12.8 -9.15 -9.05 -12.85 -5.35 -12.85 -0.05 -12.85 5.3 -9.15 9.05 -5.35 12.8 -0.05 12.75 5.25 12.8 8.95 9.05 12.75 5.3 12.75 -0.05" fill="#000000" fill-rule="evenodd" stroke="none"/>
  </g>
</svg>
