<?xml version="1.0" encoding="UTF-8" standalone="no"?>
<svg xmlns:ffdec="https://www.free-decompiler.com/flash" xmlns:xlink="http://www.w3.org/1999/xlink" ffdec:objectType="shape" height="239.2px" width="240.0px" xmlns="http://www.w3.org/2000/svg">
  <g transform="matrix(1.0, 0.0, 0.0, 1.0, 120.05, 119.65)">
    <path d="M81.3 -81.35 Q115.0 -47.65 115.0 0.0 115.0 47.65 81.3 81.3 47.65 115.0 0.0 115.0 -47.65 115.0 -81.35 81.3 -115.0 47.65 -115.0 0.0 -115.0 -47.65 -81.35 -81.35 -47.65 -115.0 0.0 -115.0 47.65 -115.0 81.3 -81.35 M80.0 80.0 L-80.0 80.0 -80.0 -80.0 80.0 -80.0 80.0 80.0 Z" fill="none" stroke="#467dff" stroke-linecap="round" stroke-linejoin="round" stroke-opacity="0.5019608" stroke-width="1.4000000000000001"/>
    <path d="M0.0 -118.65 L0.0 -110.65 M-111.05 0.0 L-119.05 0.0 M118.95 0.0 L110.95 0.0 M0.0 110.55 L0.0 118.55" fill="none" stroke="#467dff" stroke-linecap="round" stroke-linejoin="round" stroke-opacity="0.5019608" stroke-width="2.0"/>
  </g>
</svg>
