<?xml version="1.0" encoding="UTF-8" standalone="no"?>
<svg xmlns:ffdec="https://www.free-decompiler.com/flash" xmlns:xlink="http://www.w3.org/1999/xlink" ffdec:objectType="shape" height="9.5px" width="187.8px" xmlns="http://www.w3.org/2000/svg">
  <g transform="matrix(1.0, 0.0, 0.0, 1.0, 93.85, 5.45)">
    <path d="M9.45 -3.4 L9.15 -3.4 -8.85 -3.4 -9.55 -3.25 -9.8 -3.15 -10.4 -2.7 -10.6 -2.55 -10.9 -2.1 -11.1 -1.7 -11.3 -0.95 -11.3 -0.4 -11.0 0.55 -10.75 0.95 -10.2 1.5 -9.8 1.75 -9.35 1.95 -8.85 2.05 9.3 2.05 10.15 1.75 10.55 1.5 11.25 0.75 11.55 0.05 11.65 -0.65 11.55 -1.45 11.25 -2.15 10.75 -2.7 10.35 -3.0 9.9 -3.25 9.45 -3.4 M70.3 -2.65 L70.0 -2.2 69.7 -1.6 69.6 -1.0 69.65 -0.15 69.8 0.4 70.15 1.0 70.7 1.55 71.15 1.8 71.55 2.0 71.6 2.0 72.1 2.05 89.6 2.05 90.1 2.0 90.55 1.85 90.95 1.55 91.15 1.4 91.25 1.35 91.65 0.7 91.95 -0.35 91.95 -0.95 91.85 -1.5 91.35 -2.5 90.95 -2.9 90.25 -3.3 90.05 -3.4 89.8 -3.4 72.1 -3.45 71.35 -3.35 71.1 -3.25 70.65 -2.95 70.3 -2.65 M-90.15 -3.25 L-90.6 -3.05 -90.85 -2.9 -91.25 -2.45 -91.55 -2.0 -91.75 -1.5 -91.85 -0.65 -91.8 -0.1 -91.65 0.45 -91.4 0.95 -91.05 1.4 -90.65 1.7 -90.0 2.0 -89.75 2.05 -71.7 2.05 -71.35 2.0 -70.75 1.7 -70.3 1.4 -69.85 0.8 -69.6 0.35 -69.45 -0.15 -69.4 -0.7 -69.5 -1.5 -69.7 -1.95 -69.95 -2.4 -70.3 -2.8 -70.95 -3.2 -71.0 -3.25 -71.2 -3.3 -71.7 -3.4 -89.7 -3.4 -90.15 -3.25 Z" fill="none" stroke="#ffb400" stroke-linecap="round" stroke-linejoin="round" stroke-width="4.0"/>
  </g>
</svg>
