<?xml version="1.0" encoding="UTF-8" standalone="no"?>
<svg xmlns:ffdec="https://www.free-decompiler.com/flash" xmlns:xlink="http://www.w3.org/1999/xlink" ffdec:objectType="shape" height="5.5px" width="183.8px" xmlns="http://www.w3.org/2000/svg">
  <g transform="matrix(1.0, 0.0, 0.0, 1.0, 91.85, 3.45)">
    <path d="M70.3 -2.65 L70.65 -2.95 71.1 -3.25 71.35 -3.35 72.1 -3.45 89.8 -3.4 90.05 -3.4 90.25 -3.3 90.95 -2.9 91.35 -2.5 91.85 -1.5 91.95 -0.95 91.95 -0.35 91.65 0.7 91.25 1.35 91.15 1.4 90.95 1.55 90.55 1.85 90.1 2.0 89.6 2.05 72.1 2.05 71.6 2.0 71.55 2.0 71.15 1.8 70.7 1.55 70.15 1.0 69.8 0.4 69.65 -0.15 69.6 -1.0 69.7 -1.6 70.0 -2.2 70.3 -2.65 M9.15 -3.4 L9.45 -3.4 9.9 -3.25 10.35 -3.0 10.75 -2.7 11.25 -2.15 11.55 -1.45 11.65 -0.65 11.55 0.05 11.25 0.75 10.55 1.5 10.15 1.75 9.3 2.05 -8.85 2.05 -9.35 1.95 -9.8 1.75 -10.2 1.5 -10.75 0.95 -11.0 0.55 -11.3 -0.4 -11.3 -0.95 -11.1 -1.7 -10.9 -2.1 -10.6 -2.55 -10.4 -2.7 -9.8 -3.15 -9.55 -3.25 -8.85 -3.4 9.15 -3.4 M-90.15 -3.25 L-89.7 -3.4 -71.7 -3.4 -71.2 -3.3 -71.0 -3.25 -70.95 -3.2 -70.3 -2.8 -69.95 -2.4 -69.7 -1.95 -69.5 -1.5 -69.4 -0.7 -69.45 -0.15 -69.6 0.35 -69.85 0.8 -70.3 1.4 -70.75 1.7 -71.35 2.0 -71.7 2.05 -89.75 2.05 -90.0 2.0 -90.65 1.7 -91.05 1.4 -91.4 0.95 -91.65 0.45 -91.8 -0.1 -91.85 -0.65 -91.75 -1.5 -91.55 -2.0 -91.25 -2.45 -90.85 -2.9 -90.6 -3.05 -90.15 -3.25" fill="#ffb400" fill-rule="evenodd" stroke="none"/>
  </g>
</svg>
