<?xml version="1.0" encoding="UTF-8" standalone="no"?>
<svg xmlns:ffdec="https://www.free-decompiler.com/flash" xmlns:xlink="http://www.w3.org/1999/xlink" ffdec:objectType="shape" height="324.7px" width="283.8px" xmlns="http://www.w3.org/2000/svg">
  <g transform="matrix(1.0, 0.0, 0.0, 1.0, 121.3, 162.4)">
    <path d="M0.1 -159.9 Q32.65 -159.9 62.35 -147.35 91.05 -135.2 113.15 -113.05 135.3 -90.95 147.45 -62.25 160.0 -32.55 160.0 -0.05 160.0 32.5 147.45 62.2 135.3 90.85 113.15 113.0 91.05 135.1 62.35 147.25 32.65 159.8 0.1 159.8 -34.65 159.8 -66.1 145.4 -96.4 131.5 -118.8 106.55 L0.1 106.55 Q21.8 106.55 41.6 98.15 60.7 90.05 75.45 75.3 90.2 60.55 98.3 41.45 106.7 21.65 106.7 -0.05 106.7 -21.75 98.3 -41.55 90.2 -60.65 75.45 -75.4 60.7 -90.15 41.6 -98.25 21.8 -106.6 0.1 -106.6 L-118.8 -106.6 Q-96.4 -131.6 -66.1 -145.5 -34.7 -159.9 0.1 -159.9" fill="#000000" fill-rule="evenodd" stroke="none"/>
    <path d="M0.1 -159.9 Q-34.7 -159.9 -66.1 -145.5 -96.4 -131.6 -118.8 -106.6 L0.1 -106.6 Q21.8 -106.6 41.6 -98.25 60.7 -90.15 75.45 -75.4 90.2 -60.65 98.3 -41.55 106.7 -21.75 106.7 -0.05 106.7 21.65 98.3 41.45 90.2 60.55 75.45 75.3 60.7 90.05 41.6 98.15 21.8 106.55 0.1 106.55 L-118.8 106.55 Q-96.4 131.5 -66.1 145.4 -34.65 159.8 0.1 159.8 32.65 159.8 62.35 147.25 91.05 135.1 113.15 113.0 135.3 90.85 147.45 62.2 160.0 32.5 160.0 -0.05 160.0 -32.55 147.45 -62.25 135.3 -90.95 113.15 -113.05 91.05 -135.2 62.35 -147.35 32.65 -159.9 0.1 -159.9 Z" fill="none" stroke="#ffffff" stroke-linecap="round" stroke-linejoin="round" stroke-width="5.0"/>
  </g>
</svg>
