<?xml version="1.0" encoding="UTF-8" standalone="no"?>
<svg xmlns:ffdec="https://www.free-decompiler.com/flash" xmlns:xlink="http://www.w3.org/1999/xlink" ffdec:objectType="shape" height="27.55px" width="27.55px" xmlns="http://www.w3.org/2000/svg">
  <g transform="matrix(1.0, 0.0, 0.0, 1.0, 13.75, 13.75)">
    <path d="M9.75 -9.75 Q13.8 -5.7 13.8 0.0 13.8 5.7 9.75 9.75 5.7 13.8 0.0 13.8 -5.7 13.8 -9.75 9.75 -13.75 5.7 -13.75 0.0 -13.75 -5.7 -9.75 -9.75 -5.7 -13.75 0.0 -13.75 5.7 -13.75 9.75 -9.75" fill="#000000" fill-rule="evenodd" stroke="none"/>
    <path d="M4.9 -4.85 Q6.9 -2.85 6.9 0.0 6.9 2.85 4.9 4.9 2.85 6.9 0.0 6.9 -2.85 6.9 -4.85 4.9 -6.9 2.85 -6.85 0.0 -6.9 -2.85 -4.85 -4.85 -2.85 -6.9 0.0 -6.85 2.85 -6.9 4.9 -4.85" fill="#ff0000" fill-rule="evenodd" stroke="none"/>
  </g>
</svg>
