<?xml version="1.0" encoding="UTF-8" standalone="no"?>
<svg xmlns:ffdec="https://www.free-decompiler.com/flash" xmlns:xlink="http://www.w3.org/1999/xlink" ffdec:objectType="shape" height="120.0px" width="20.25px" xmlns="http://www.w3.org/2000/svg">
  <g transform="matrix(1.0, 0.0, 0.0, 1.0, 10.1, 110.0)">
    <path d="M10.0 -100.0 Q2.55 -67.35 2.5 -49.3 2.45 -30.55 10.0 0.0 10.8 3.25 7.0 7.05 4.1 10.0 0.0 10.0 -4.15 10.0 -7.1 7.05 -10.65 3.5 -10.0 0.0 -5.85 -21.25 -4.55 -29.75 -2.75 -41.7 -2.7 -50.6 -2.7 -59.55 -4.5 -71.15 -5.9 -79.9 -10.0 -100.0 -10.7 -103.5 -7.1 -107.1 -4.15 -110.0 0.0 -110.0 4.1 -110.0 7.0 -107.1 10.75 -103.35 10.0 -100.0" fill="#537713" fill-rule="evenodd" stroke="none"/>
  </g>
</svg>
