<?xml version="1.0" encoding="UTF-8" standalone="no"?>
<svg xmlns:ffdec="https://www.free-decompiler.com/flash" xmlns:xlink="http://www.w3.org/1999/xlink" ffdec:objectType="shape" height="36.0px" width="36.0px" xmlns="http://www.w3.org/2000/svg">
  <g transform="matrix(1.0, 0.0, 0.0, 1.0, 18.0, 18.0)">
    <path d="M11.3 -11.3 Q16.0 -6.65 16.0 0.0 16.0 6.65 11.3 11.35 6.6 16.0 0.0 16.0 -6.65 16.0 -11.3 11.35 -16.0 6.65 -16.0 0.0 -16.0 -6.65 -11.3 -11.3 -6.65 -16.0 0.0 -16.0 6.6 -16.0 11.3 -11.3" fill="#e1f592" fill-rule="evenodd" stroke="none"/>
    <path d="M11.3 -11.3 Q16.0 -6.65 16.0 0.0 16.0 6.65 11.3 11.35 6.6 16.0 0.0 16.0 -6.65 16.0 -11.3 11.35 -16.0 6.65 -16.0 0.0 -16.0 -6.65 -11.3 -11.3 -6.65 -16.0 0.0 -16.0 6.6 -16.0 11.3 -11.3 Z" fill="none" stroke="#cef250" stroke-linecap="round" stroke-linejoin="round" stroke-width="4.0"/>
  </g>
</svg>
