<?xml version="1.0" encoding="UTF-8" standalone="no"?>
<svg xmlns:ffdec="https://www.free-decompiler.com/flash" xmlns:xlink="http://www.w3.org/1999/xlink" ffdec:objectType="shape" height="281.55px" width="187.8px" xmlns="http://www.w3.org/2000/svg">
  <g transform="matrix(1.0, 0.0, 0.0, 1.0, 93.85, 277.5)">
    <path d="M9.9 -3.25 L9.45 -3.4 9.15 -3.4 -8.85 -3.4 -9.55 -3.25 -9.8 -3.15 -10.4 -2.7 -10.6 -2.55 -10.9 -2.1 -11.1 -1.7 -11.3 -0.95 -11.3 -0.4 -11.0 0.55 -10.75 0.95 -10.2 1.5 -9.8 1.75 -9.35 1.95 -8.85 2.05 9.3 2.05 10.15 1.75 10.55 1.5 11.25 0.75 11.55 0.05 11.65 -0.65 11.55 -1.45 11.25 -2.15 10.75 -2.7 10.35 -3.0 9.9 -3.25 M70.65 -2.95 L70.3 -2.65 70.0 -2.2 69.7 -1.6 69.6 -1.0 69.65 -0.15 69.8 0.4 70.15 1.0 70.7 1.55 71.15 1.8 71.55 2.0 71.6 2.0 72.1 2.05 89.6 2.05 90.1 2.0 90.55 1.85 90.95 1.55 91.15 1.4 91.25 1.35 91.65 0.7 91.95 -0.35 91.95 -0.95 91.85 -1.5 91.35 -2.5 90.95 -2.9 90.25 -3.3 90.05 -3.4 89.8 -3.4 72.1 -3.45 71.35 -3.35 71.1 -3.25 70.65 -2.95 M-91.25 -2.45 L-91.55 -2.0 -91.75 -1.5 -91.85 -0.65 -91.8 -0.1 -91.65 0.45 -91.4 0.95 -91.05 1.4 -90.65 1.7 -90.0 2.0 -89.75 2.05 -71.7 2.05 -71.35 2.0 -70.75 1.7 -70.3 1.4 -69.85 0.8 -69.6 0.35 -69.45 -0.15 -69.4 -0.7 -69.5 -1.5 -69.7 -1.95 -69.95 -2.4 -70.3 -2.8 -70.95 -3.2 -71.0 -3.25 -71.2 -3.3 -71.7 -3.4 -89.7 -3.4 -90.15 -3.25 -90.6 -3.05 -90.85 -2.9 -91.25 -2.45 Z" fill="none" stroke="#cef250" stroke-linecap="round" stroke-linejoin="round" stroke-width="4.0"/>
    <path d="M64.0 -208.5 Q64.0 -181.95 45.25 -163.2 26.5 -144.5 0.0 -144.5 -26.55 -144.5 -45.3 -163.2 -64.0 -181.95 -64.0 -208.5 -64.0 -235.05 -45.3 -253.8 -26.55 -272.5 0.0 -272.5 26.5 -272.5 45.25 -253.8 64.0 -235.05 64.0 -208.5 Z" fill="none" stroke="#78980c" stroke-linecap="round" stroke-linejoin="round" stroke-width="10.0"/>
    <path d="M-90.15 -3.25 L-89.7 -3.4 -71.7 -3.4 -71.2 -3.3 -71.0 -3.25 -70.95 -3.2 -70.3 -2.8 -69.95 -2.4 -69.7 -1.95 -69.5 -1.5 -69.4 -0.7 -69.45 -0.15 -69.6 0.35 -69.85 0.8 -70.3 1.4 -70.75 1.7 -71.35 2.0 -71.7 2.05 -89.75 2.05 -90.0 2.0 -90.65 1.7 -91.05 1.4 -91.4 0.95 -91.65 0.45 -91.8 -0.1 -91.85 -0.65 -91.75 -1.5 -91.55 -2.0 -91.25 -2.45 -90.85 -2.9 -90.6 -3.05 -90.15 -3.25 M71.35 -3.35 L72.1 -3.45 89.8 -3.4 90.05 -3.4 90.25 -3.3 90.95 -2.9 91.35 -2.5 91.85 -1.5 91.95 -0.95 91.95 -0.35 91.65 0.7 91.25 1.35 91.15 1.4 90.95 1.55 90.55 1.85 90.1 2.0 89.6 2.05 72.1 2.05 71.6 2.0 71.55 2.0 71.15 1.8 70.7 1.55 70.15 1.0 69.8 0.4 69.65 -0.15 69.6 -1.0 69.7 -1.6 70.0 -2.2 70.3 -2.65 70.65 -2.95 71.1 -3.25 71.35 -3.35 M9.15 -3.4 L9.45 -3.4 9.9 -3.25 10.35 -3.0 10.75 -2.7 11.25 -2.15 11.55 -1.45 11.65 -0.65 11.55 0.05 11.25 0.75 10.55 1.5 10.15 1.75 9.3 2.05 -8.85 2.05 -9.35 1.95 -9.8 1.75 -10.2 1.5 -10.75 0.95 -11.0 0.55 -11.3 -0.4 -11.3 -0.95 -11.1 -1.7 -10.9 -2.1 -10.6 -2.55 -10.4 -2.7 -9.8 -3.15 -9.55 -3.25 -8.85 -3.4 9.15 -3.4" fill="#4de8b0" fill-rule="evenodd" stroke="none"/>
  </g>
</svg>
