<?xml version="1.0" encoding="UTF-8" standalone="no"?>
<svg xmlns:ffdec="https://www.free-decompiler.com/flash" xmlns:xlink="http://www.w3.org/1999/xlink" ffdec:objectType="shape" height="304.85px" width="207.15px" xmlns="http://www.w3.org/2000/svg">
  <g transform="matrix(1.0, 0.0, 0.0, 1.0, 103.55, 277.5)">
    <path d="M11.45 -13.6 L11.5 -13.6 13.95 -12.9 16.15 -11.75 18.15 -10.3 19.0 -9.4 20.5 -7.4 21.6 -5.2 22.35 -2.8 22.5 -1.5 22.5 1.1 22.05 3.6 21.1 5.95 21.1 6.0 19.75 8.05 18.1 9.9 16.15 11.4 13.9 12.5 11.5 13.25 8.9 13.5 -9.8 13.4 -12.35 12.95 -14.65 12.0 -16.8 10.7 -18.6 9.05 -20.1 7.05 -20.7 6.0 -21.65 3.65 -22.15 1.1 -22.15 -1.5 -21.65 -4.0 -20.7 -6.35 -19.4 -8.45 -17.7 -10.3 -15.75 -11.75 -13.55 -12.9 -11.1 -13.6 -9.8 -13.8 10.2 -13.8 11.45 -13.6 M9.15 -2.9 L-8.85 -2.9 -9.55 -2.75 -9.8 -2.65 -10.4 -2.2 -10.6 -2.05 -10.9 -1.6 -11.1 -1.2 -11.3 -0.45 -11.3 0.1 -11.0 1.05 -10.75 1.45 -10.2 2.0 -9.8 2.25 -9.35 2.45 -8.85 2.55 9.3 2.55 10.15 2.25 10.55 2.0 11.25 1.25 11.55 0.55 11.65 -0.15 11.55 -0.95 11.25 -1.65 10.75 -2.2 10.35 -2.5 9.9 -2.75 9.45 -2.9 9.15 -2.9 M37.15 -14.05 L40.35 -14.35 42.1 -14.3 45.2 -13.7 46.65 -13.2 49.4 -11.8 51.8 -10.0 53.85 -7.75 55.5 -5.2 56.65 -2.35 57.25 0.7 57.4 13.25 57.25 13.25 46.05 13.3 45.95 13.2 45.85 1.75 45.65 0.75 45.3 -0.2 44.4 -1.45 43.25 -2.45 42.3 -2.9 41.45 -3.15 40.4 -3.25 39.35 -3.15 38.4 -2.85 37.45 -2.35 36.75 -1.8 35.8 -0.65 35.35 0.25 35.0 1.3 34.95 1.8 35.0 13.3 34.95 13.35 23.75 13.4 23.7 13.3 23.75 0.85 24.3 -2.15 25.45 -5.1 27.05 -7.65 29.1 -9.9 31.5 -11.75 34.2 -13.15 37.15 -14.05 M60.35 -7.35 L61.8 -9.3 62.7 -10.15 64.65 -11.65 67.05 -12.9 69.5 -13.6 72.1 -13.85 91.0 -13.8 92.3 -13.6 94.75 -12.9 97.2 -11.65 99.1 -10.15 100.0 -9.3 101.45 -7.35 102.6 -5.15 103.3 -2.75 103.55 -0.2 103.6 16.45 103.3 18.05 102.7 19.55 101.9 20.85 100.85 22.0 99.6 22.9 98.65 23.45 97.1 24.0 95.45 24.3 71.75 24.35 70.3 24.2 68.95 23.8 67.6 23.15 66.25 22.1 65.2 21.05 64.35 19.75 63.8 18.3 63.45 16.75 63.4 15.65 63.6 15.6 91.85 15.65 91.8 13.3 91.75 13.3 91.5 13.35 89.95 13.5 70.85 13.4 68.35 12.95 66.9 12.45 64.7 11.3 63.7 10.6 61.9 8.95 60.4 7.0 59.25 4.8 58.55 2.35 58.3 -0.15 58.55 -2.75 59.25 -5.15 60.35 -7.35 M70.3 -2.15 L70.0 -1.7 69.7 -1.1 69.6 -0.5 69.65 0.35 69.8 0.9 70.15 1.5 70.7 2.05 71.15 2.3 71.55 2.5 71.6 2.5 72.1 2.55 89.6 2.55 90.1 2.5 90.55 2.35 90.95 2.05 91.15 1.9 91.25 1.85 91.65 1.2 91.95 0.15 91.95 -0.45 91.85 -1.0 91.35 -2.0 90.95 -2.4 90.25 -2.8 90.05 -2.9 89.8 -2.9 72.1 -2.95 71.35 -2.85 71.1 -2.75 70.65 -2.45 70.3 -2.15 M-103.0 -3.95 L-102.1 -6.3 -100.8 -8.35 -99.1 -10.15 -96.95 -11.75 -94.75 -12.9 -92.3 -13.6 -89.75 -13.85 -70.65 -13.75 -68.15 -13.3 -65.8 -12.35 -64.5 -11.65 -62.55 -10.15 -60.9 -8.35 -59.6 -6.25 -58.7 -3.95 -58.25 -1.45 -58.25 1.1 -58.7 3.65 -59.65 5.95 -60.95 8.0 -62.6 9.8 -64.6 11.3 -65.65 11.95 -68.2 12.95 -70.7 13.4 -90.25 13.45 -90.45 13.45 -91.15 13.4 -91.95 13.3 -92.0 26.9 -92.1 27.25 -92.4 27.35 -93.95 27.35 -95.8 27.0 -97.55 26.3 -98.6 25.7 -100.1 24.6 -100.8 23.95 -101.95 22.45 -102.85 20.8 -103.4 18.95 -103.55 17.95 -103.5 -1.5 -103.0 -3.95 M-91.75 -1.0 L-91.85 -0.15 -91.8 0.4 -91.65 0.95 -91.4 1.45 -91.05 1.9 -90.65 2.2 -90.0 2.5 -89.75 2.55 -71.7 2.55 -71.35 2.5 -70.75 2.2 -70.3 1.9 -69.85 1.3 -69.6 0.85 -69.45 0.35 -69.4 -0.2 -69.5 -1.0 -69.7 -1.45 -69.95 -1.9 -70.3 -2.3 -70.95 -2.7 -71.0 -2.75 -71.2 -2.8 -71.7 -2.9 -89.7 -2.9 -90.15 -2.75 -90.6 -2.55 -90.85 -2.4 -91.25 -1.95 -91.55 -1.5 -91.75 -1.0 M-45.8 -26.05 L-45.75 -13.3 -42.6 -14.05 -40.2 -14.2 -37.05 -13.9 -34.05 -13.0 -31.3 -11.6 -28.95 -9.8 -26.9 -7.55 -25.25 -5.0 -24.15 -2.15 -23.55 0.9 -23.5 13.5 -34.7 13.5 -34.75 13.45 -34.75 1.9 -35.15 0.4 -35.6 -0.5 -36.2 -1.3 -36.9 -1.95 -37.75 -2.5 -38.2 -2.7 -39.2 -3.0 -39.7 -3.05 -40.75 -3.05 -41.85 -2.8 -42.6 -2.5 -43.45 -1.95 -43.85 -1.6 -44.85 -0.45 -45.3 0.45 -45.5 0.95 -45.7 1.95 -45.75 13.4 -45.8 13.5 -57.0 13.5 -57.15 13.45 -57.1 -15.65 -56.85 -17.8 -56.25 -19.7 -55.3 -21.45 -54.1 -23.0 -52.6 -24.25 -50.95 -25.2 -49.2 -25.9 -48.25 -26.1 -46.1 -26.3 -45.85 -26.25 -45.8 -26.05" fill="#4de8b0" fill-rule="evenodd" stroke="none"/>
    <path d="M-91.85 -0.65 L-91.75 -1.5 -91.55 -2.0 -91.25 -2.45 -90.85 -2.9 -90.6 -3.05 -90.15 -3.25 -89.7 -3.4 -71.7 -3.4 -71.2 -3.3 -71.0 -3.25 -70.95 -3.2 -70.3 -2.8 -69.95 -2.4 -69.7 -1.95 -69.5 -1.5 -69.4 -0.7 -69.45 -0.15 -69.6 0.35 -69.85 0.8 -70.3 1.4 -70.75 1.7 -71.35 2.0 -71.7 2.05 -89.75 2.05 -90.0 2.0 -90.65 1.7 -91.05 1.4 -91.4 0.95 -91.65 0.45 -91.8 -0.1 -91.85 -0.65 M71.35 -3.35 L72.1 -3.45 89.8 -3.4 90.05 -3.4 90.25 -3.3 90.95 -2.9 91.35 -2.5 91.85 -1.5 91.95 -0.95 91.95 -0.35 91.65 0.7 91.25 1.35 91.15 1.4 90.95 1.55 90.55 1.85 90.1 2.0 89.6 2.05 72.1 2.05 71.6 2.0 71.55 2.0 71.15 1.8 70.7 1.55 70.15 1.0 69.8 0.4 69.65 -0.15 69.6 -1.0 69.7 -1.6 70.0 -2.2 70.3 -2.65 70.65 -2.95 71.1 -3.25 71.35 -3.35 M11.55 -1.45 L11.65 -0.65 11.55 0.05 11.25 0.75 10.55 1.5 10.15 1.75 9.3 2.05 -8.85 2.05 -9.35 1.95 -9.8 1.75 -10.2 1.5 -10.75 0.95 -11.0 0.55 -11.3 -0.4 -11.3 -0.95 -11.1 -1.7 -10.9 -2.1 -10.6 -2.55 -10.4 -2.7 -9.8 -3.15 -9.55 -3.25 -8.85 -3.4 9.15 -3.4 9.45 -3.4 9.9 -3.25 10.35 -3.0 10.75 -2.7 11.25 -2.15 11.55 -1.45" fill="#cef250" fill-rule="evenodd" stroke="none"/>
    <path d="M45.25 -253.8 Q64.0 -235.05 64.0 -208.5 64.0 -181.95 45.25 -163.2 26.5 -144.5 0.0 -144.5 -26.55 -144.5 -45.3 -163.2 -64.0 -181.95 -64.0 -208.5 -64.0 -235.05 -45.3 -253.8 -26.55 -272.5 0.0 -272.5 26.5 -272.5 45.25 -253.8 Z" fill="none" stroke="#cef250" stroke-linecap="round" stroke-linejoin="round" stroke-width="10.0"/>
  </g>
</svg>
