<?xml version="1.0" encoding="UTF-8" standalone="no"?>
<svg xmlns:ffdec="https://www.free-decompiler.com/flash" xmlns:xlink="http://www.w3.org/1999/xlink" ffdec:objectType="shape" height="100.2px" width="67.8px" xmlns="http://www.w3.org/2000/svg">
  <g transform="matrix(1.0, 0.0, 0.0, 1.0, 33.9, 91.45)">
    <path d="M-33.9 -8.75 L33.9 -8.75 33.9 8.75 -33.9 8.75 -33.9 -8.75" fill="#2ff5ff" fill-rule="evenodd" stroke="none"/>
    <path d="M21.75 -67.7 Q21.75 -58.7 15.4 -52.3 9.0 -45.95 0.0 -45.95 -9.05 -45.95 -15.4 -52.3 -21.8 -58.7 -21.75 -67.7 -21.8 -76.7 -15.4 -83.1 -9.05 -89.45 0.0 -89.45 9.0 -89.45 15.4 -83.1 21.75 -76.7 21.75 -67.7" fill="#0091ff" fill-rule="evenodd" stroke="none"/>
    <path d="M21.75 -67.7 Q21.75 -58.7 15.4 -52.3 9.0 -45.95 0.0 -45.95 -9.05 -45.95 -15.4 -52.3 -21.8 -58.7 -21.75 -67.7 -21.8 -76.7 -15.4 -83.1 -9.05 -89.45 0.0 -89.45 9.0 -89.45 15.4 -83.1 21.75 -76.7 21.75 -67.7 Z" fill="none" stroke="#cef250" stroke-linecap="round" stroke-linejoin="round" stroke-width="4.0"/>
  </g>
</svg>
