<?xml version="1.0" encoding="UTF-8" standalone="no"?>
<svg xmlns:ffdec="https://www.free-decompiler.com/flash" xmlns:xlink="http://www.w3.org/1999/xlink" ffdec:objectType="shape" height="254.85px" width="40.0px" xmlns="http://www.w3.org/2000/svg">
  <g transform="matrix(1.0, 0.0, 0.0, 1.0, 19.65, 244.85)">
    <path d="M19.9 -116.4 Q18.35 -99.0 12.7 -87.65 2.55 -67.35 2.5 -49.3 2.45 -30.55 10.0 0.0 10.8 3.25 7.0 7.05 4.1 10.0 0.0 10.0 -4.15 10.0 -7.1 7.05 -10.65 3.5 -10.0 0.0 -5.85 -21.25 -4.55 -29.75 -2.75 -41.7 -2.7 -50.6 -2.7 -59.55 -6.1 -69.7 -9.55 -79.9 -16.45 -90.3 -23.4 -100.7 -15.25 -153.05 -7.1 -205.4 -4.8 -224.25 -2.55 -243.15 -0.75 -244.65 1.1 -246.25 1.35 -236.1 1.6 -225.95 6.6 -192.6 11.55 -159.3 16.65 -148.05 21.7 -136.8 19.9 -116.4" fill="#e1f592" fill-rule="evenodd" stroke="none"/>
    <path d="M0.0 -2.0 L0.0 -238.0" fill="none" stroke="#a2ca28" stroke-linecap="round" stroke-linejoin="round" stroke-width="1.0"/>
  </g>
</svg>
