<?xml version="1.0" encoding="UTF-8" standalone="no"?>
<svg xmlns:ffdec="https://www.free-decompiler.com/flash" xmlns:xlink="http://www.w3.org/1999/xlink" ffdec:objectType="shape" height="960.0px" width="960.0px" xmlns="http://www.w3.org/2000/svg">
  <g transform="matrix(1.0, 0.0, 0.0, 1.0, 230.0, 230.0)">
    <path d="M446.1 240.15 L434.55 240.15 434.55 246.45 446.1 246.45 446.1 252.05 434.55 252.05 434.55 259.75 446.1 259.75 446.1 265.3 427.95 265.3 427.95 234.65 446.1 234.65 446.1 240.15 M410.55 239.65 L409.6 239.65 409.6 247.75 410.55 247.75 Q414.5 247.75 415.85 246.85 417.1 246.0 417.1 243.85 417.1 241.55 415.75 240.6 414.35 239.6 410.55 239.65 M423.6 243.35 Q423.6 246.45 421.75 248.75 419.8 250.95 416.75 251.35 L425.25 265.3 417.65 265.3 409.6 250.95 409.6 265.3 403.0 265.3 403.0 234.65 412.45 234.65 Q418.0 234.65 420.85 236.8 423.6 238.95 423.6 243.35 M388.45 234.65 L400.3 265.3 392.8 265.3 390.35 258.75 378.45 258.75 376.3 265.3 369.3 265.3 380.95 234.65 388.45 234.65 M384.0 242.25 L383.65 243.85 380.35 253.6 388.8 253.6 385.35 243.7 385.0 242.2 384.45 239.55 384.0 242.25 M372.7 234.65 L364.65 265.3 358.3 265.3 352.85 245.75 352.2 243.05 351.9 240.15 351.6 243.1 351.0 245.75 345.45 265.3 339.15 265.3 331.15 234.65 337.75 234.65 341.75 251.7 342.3 254.85 342.6 258.6 Q343.0 255.9 344.05 251.8 L348.65 234.65 355.15 234.65 359.7 251.25 360.55 254.7 361.2 258.75 361.5 255.0 Q361.7 253.1 362.2 251.25 L366.15 234.65 372.7 234.65 M327.25 240.15 L315.7 240.15 315.7 246.45 327.25 246.45 327.25 252.05 315.7 252.05 315.7 259.75 327.25 259.75 327.25 265.3 309.1 265.3 309.1 234.65 327.25 234.65 327.25 240.15 M141.4 246.45 L152.95 246.45 152.95 252.05 141.4 252.05 141.4 259.75 152.95 259.75 152.95 265.3 134.8 265.3 134.8 234.65 152.95 234.65 152.95 240.15 141.4 240.15 141.4 246.45 M96.75 244.05 Q96.75 248.5 93.9 251.05 90.95 253.6 85.8 253.6 L84.05 253.6 84.05 265.3 77.4 265.3 77.4 234.65 84.95 234.65 Q91.0 234.65 93.9 236.95 96.75 239.2 96.75 244.05 M108.1 234.65 L108.1 265.3 101.5 265.3 101.5 234.65 108.1 234.65 M120.7 234.65 L120.7 259.75 131.2 259.75 131.2 265.3 114.1 265.3 114.1 234.65 120.7 234.65 M84.95 239.45 L84.05 239.45 84.05 248.45 84.95 248.45 Q87.65 248.45 88.85 247.35 90.05 246.2 90.05 243.85 90.05 241.55 88.85 240.55 87.65 239.45 84.95 239.45 M158.25 234.65 L165.85 234.65 Q171.9 234.65 174.75 236.95 177.65 239.2 177.65 244.05 177.65 248.5 174.75 251.05 171.8 253.6 166.65 253.6 L164.95 253.6 164.95 265.3 158.25 265.3 158.25 234.65 M60.55 246.45 L72.05 246.45 72.05 252.05 60.55 252.05 60.55 259.75 72.05 259.75 72.05 265.3 53.95 265.3 53.95 234.65 72.05 234.65 72.05 240.15 60.55 240.15 60.55 246.45 M290.35 234.65 L296.85 235.0 Q298.95 235.3 300.45 236.1 302.2 237.1 303.25 238.8 304.2 240.45 304.2 242.65 304.15 245.3 302.55 247.0 300.95 248.6 297.75 249.15 301.5 249.7 303.35 251.55 305.25 253.4 305.25 256.55 305.25 258.8 304.2 260.7 303.05 262.55 301.2 263.55 299.45 264.5 297.15 264.9 L289.6 265.3 284.55 265.3 284.55 234.65 290.35 234.65 M292.6 246.9 Q295.6 246.9 296.8 246.05 298.05 245.2 298.05 243.25 298.05 241.3 296.85 240.45 295.65 239.65 292.75 239.7 L291.15 239.7 291.15 246.9 292.6 246.9 M261.7 234.9 Q263.75 235.85 265.3 237.9 L261.4 241.6 Q260.7 240.3 259.55 239.65 258.4 238.95 256.8 238.95 254.85 238.95 253.65 239.95 252.45 240.9 252.45 242.45 252.45 244.9 257.2 246.9 L258.65 247.55 Q262.55 249.3 264.45 251.55 266.3 253.75 266.35 256.65 266.3 260.95 263.4 263.55 260.45 266.15 255.45 266.15 251.9 266.15 249.4 264.9 246.9 263.7 245.65 261.4 L249.35 257.25 Q250.0 259.0 251.55 259.95 253.05 260.9 255.0 260.95 257.25 260.95 258.6 259.85 259.95 258.75 259.95 256.9 259.95 254.75 255.45 252.6 L253.2 251.45 Q249.15 249.35 247.6 247.35 246.05 245.3 246.05 242.55 246.05 238.8 249.1 236.35 252.1 233.85 256.9 233.85 259.7 233.85 261.7 234.9 M297.45 253.0 Q296.2 251.9 293.8 251.95 L291.15 251.95 291.15 260.2 293.75 260.2 Q296.2 260.2 297.45 259.15 298.7 258.05 298.75 255.95 298.7 254.0 297.45 253.0 M212.4 234.65 L212.4 265.3 205.8 265.3 205.8 234.65 212.4 234.65 M225.6 242.1 Q222.7 245.0 222.7 250.0 222.7 254.8 225.4 257.7 228.1 260.5 232.75 260.5 235.4 260.5 237.7 259.6 240.0 258.7 241.95 256.95 L241.9 263.7 Q239.8 264.9 237.55 265.5 L232.65 266.15 Q225.35 266.15 220.65 261.6 215.9 257.0 215.95 250.0 215.9 243.0 220.65 238.45 225.35 233.85 232.8 233.85 L237.65 234.4 Q240.0 234.95 242.2 236.05 L242.05 242.65 Q240.0 240.8 237.9 240.0 235.8 239.15 233.4 239.15 228.5 239.15 225.6 242.1 M179.7 234.65 L201.3 234.65 201.3 240.15 193.8 240.15 193.8 265.3 187.2 265.3 187.2 240.15 179.7 240.15 179.7 234.65 M164.95 239.45 L164.95 248.45 165.85 248.45 Q168.5 248.45 169.75 247.35 170.95 246.2 170.95 243.85 170.95 241.55 169.75 240.55 168.5 239.45 165.85 239.45 L164.95 239.45" fill="#000000" fill-rule="evenodd" stroke="none"/>
    <path d="M-230.0 -230.0 L730.0 -230.0 730.0 730.0 -230.0 730.0 -230.0 -230.0" fill="#000000" fill-rule="evenodd" stroke="none"/>
  </g>
</svg>
