<?xml version="1.0" encoding="UTF-8" standalone="no"?>
<svg xmlns:ffdec="https://www.free-decompiler.com/flash" xmlns:xlink="http://www.w3.org/1999/xlink" ffdec:objectType="shape" height="1600.0px" width="1532.95px" xmlns="http://www.w3.org/2000/svg">
  <g transform="matrix(1.0, 0.0, 0.0, 1.0, 466.45, 399.95)">
    <path d="M179.0 1163.2 L178.1 1162.45 178.25 1163.85 179.0 1163.2 M175.05 958.4 L175.05 960.05 175.95 959.5 175.05 958.4 M175.15 956.2 L174.4 955.35 174.25 956.85 175.15 956.2 M428.9 -105.15 L429.55 -104.45 Q429.0 -105.8 428.9 -105.15 M424.95 -160.0 L424.95 -158.35 425.75 -158.95 424.95 -160.0 M422.05 -363.75 Q423.25 -361.75 422.25 -363.6 L422.05 -363.75 M171.45 -105.25 Q172.15 -103.95 171.75 -104.85 L171.45 -105.25 M175.15 -154.95 L174.25 -156.0 174.25 -154.35 175.15 -154.95 M175.95 -158.1 L175.2 -159.05 Q174.0 -157.75 175.35 -157.7 L175.95 -158.1 M178.1 -384.75 L177.35 -384.75 178.1 -376.7 177.35 -376.7 179.3 -361.5 178.9 -362.35 Q176.45 -357.85 178.2 -352.8 178.65 -351.5 178.75 -350.1 L179.35 -338.9 178.35 -338.95 Q180.45 -292.35 179.45 -245.9 L179.15 -232.7 178.1 -231.95 178.8 -192.55 177.6 -192.65 Q176.3 -175.7 177.35 -159.1 L174.25 -151.9 174.9 -144.75 Q175.05 -142.45 173.55 -140.7 L173.55 -126.3 172.75 -126.3 173.55 -123.95 173.45 -114.55 172.15 -112.75 172.5 -104.65 171.3 -103.3 171.6 -101.2 171.0 -100.2 171.7 -97.0 171.85 -95.95 Q171.95 -94.95 171.3 -94.3 L171.0 -93.95 170.35 -89.75 170.8 -89.1 170.75 -85.2 169.7 -86.4 169.7 -78.3 168.9 -78.3 169.7 -76.75 169.35 -70.85 169.15 -70.6 169.05 -70.4 168.65 -71.9 168.15 -62.35 167.7 -63.6 165.85 -51.15 Q164.85 -29.6 160.45 -8.25 159.05 -1.35 158.15 5.7 L157.45 5.7 Q161.55 18.3 156.95 32.1 L153.75 42.1 150.5 52.05 147.05 47.65 124.5 104.9 123.75 105.2 127.45 111.25 Q123.85 122.65 116.95 131.45 L116.15 131.9 112.25 127.3 112.25 128.85 111.45 128.85 111.45 129.65 105.3 137.65 105.3 139.2 104.55 139.2 104.55 140.05 Q97.1 151.5 92.1 164.35 L90.75 168.0 95.3 172.1 Q94.15 178.1 90.85 183.15 L88.5 186.5 88.5 188.05 87.7 188.05 87.7 188.85 86.9 188.85 86.9 189.6 85.75 190.0 84.85 188.95 83.8 188.0 Q82.2 186.6 80.0 186.5 L80.0 187.25 Q69.95 201.6 64.6 218.45 L63.15 223.2 68.0 226.8 Q67.6 232.15 65.25 236.9 63.4 240.6 60.9 244.05 L55.05 241.05 Q45.3 255.95 42.4 273.6 L41.7 278.5 47.85 281.7 47.05 290.4 42.5 298.45 36.9 297.3 Q29.5 312.65 28.8 329.6 L28.65 334.45 34.35 336.05 Q36.1 342.7 34.0 349.35 L32.5 353.65 26.35 353.65 Q21.35 369.8 23.7 386.45 L24.4 391.15 30.9 391.6 Q32.2 399.4 30.65 407.0 L30.0 409.55 28.8 409.5 27.45 409.4 Q25.05 409.4 23.3 411.2 21.85 427.15 25.0 442.75 L25.95 447.15 32.5 447.2 Q35.55 453.1 35.45 459.65 35.4 462.7 33.85 465.3 30.8 465.15 29.75 467.85 28.45 471.3 28.75 475.2 29.95 490.35 36.35 504.05 L42.5 502.4 47.05 511.25 47.85 519.25 41.7 522.4 Q43.25 537.75 50.45 551.2 L55.45 560.05 60.5 556.85 Q66.35 562.7 67.55 571.0 L68.0 574.2 63.55 577.5 Q67.3 595.65 77.75 610.9 L80.8 615.25 85.35 610.8 Q94.7 617.85 94.15 629.9 L93.05 630.45 93.05 631.2 90.9 632.8 Q95.9 647.35 103.9 660.25 L112.25 673.65 117.3 669.1 118.35 669.6 Q121.0 673.9 123.25 679.35 126.65 687.65 124.0 695.95 L146.65 753.6 149.7 748.05 Q156.45 761.65 158.1 776.75 158.95 784.35 158.15 792.0 L157.7 794.3 165.15 839.15 164.35 839.15 166.65 851.2 165.85 851.2 167.2 856.35 167.45 856.6 167.75 856.4 168.15 858.45 Q167.8 859.15 167.6 859.95 167.4 860.65 167.5 861.4 L168.1 863.8 168.4 871.1 169.05 869.45 169.0 878.3 169.35 878.8 169.5 879.05 169.95 877.85 169.7 885.6 Q170.5 886.45 170.85 887.65 171.5 889.75 171.15 891.6 170.75 893.85 170.65 896.15 L170.75 896.4 171.4 895.6 171.2 904.0 172.0 905.1 172.5 906.1 Q173.1 908.05 172.45 909.9 L172.15 910.6 171.75 911.2 172.35 912.45 Q173.0 918.25 173.0 924.45 L172.75 928.05 Q175.05 934.5 173.55 942.35 L174.25 942.85 175.05 944.8 174.25 953.65 177.35 960.85 Q177.4 969.8 177.85 979.15 L177.95 984.15 Q177.95 1008.75 178.5 1033.4 L178.8 1032.4 Q181.15 1039.15 180.05 1046.25 178.45 1056.25 178.7 1066.55 179.6 1103.25 178.9 1140.0 L178.1 1140.0 Q179.45 1147.1 178.75 1154.4 178.45 1157.35 178.8 1160.5 179.75 1169.7 177.75 1178.75 L178.65 1177.0 178.1 1184.85 177.35 1184.85 178.0 1196.65 177.35 1200.05 -466.45 1200.05 -466.45 -399.95 177.35 -399.95 178.1 -384.75 M423.6 -398.4 L423.35 -399.95 1066.5 -399.95 1066.5 1200.05 423.35 1200.05 423.6 1197.8 422.75 1196.85 423.4 1183.45 422.65 1182.4 421.45 1161.75 422.0 1163.0 421.55 1154.0 422.2 1155.15 421.3 1139.6 422.65 1140.0 Q420.4 1121.1 421.2 1102.2 422.6 1067.95 421.15 1033.65 L422.5 1031.95 422.0 992.8 423.4 992.7 Q423.05 980.45 423.45 968.2 423.6 963.4 425.1 959.1 L425.25 958.65 425.45 958.1 426.15 955.75 426.65 955.45 426.3 955.05 Q427.4 949.6 425.75 943.95 L426.0 943.65 426.7 929.35 428.0 927.25 427.2 914.4 428.15 913.8 Q429.05 911.1 428.75 908.3 L428.6 907.15 428.0 904.85 429.55 903.45 428.8 895.25 Q430.05 893.2 429.95 890.2 L429.85 888.0 429.6 885.75 430.35 885.6 430.55 887.0 431.05 879.25 431.65 878.7 431.5 877.8 Q431.4 877.65 431.15 877.6 L431.05 871.2 432.05 872.2 431.95 864.4 432.55 863.2 432.9 864.4 433.35 853.65 433.85 852.8 Q434.95 850.8 434.6 848.4 L434.4 847.45 434.1 846.35 Q437.3 833.5 439.15 820.15 440.85 807.65 443.7 795.35 443.95 794.15 443.2 793.15 440.7 789.9 441.25 785.9 443.8 767.0 450.65 749.2 L451.55 748.85 454.1 753.2 476.65 696.05 473.2 688.85 Q476.25 677.45 483.9 668.9 L488.25 673.5 488.55 672.0 Q491.3 669.9 492.75 666.9 495.0 662.25 497.7 657.95 505.15 646.35 510.0 633.65 L505.5 628.9 506.2 626.55 Q508.75 618.2 513.8 611.25 L515.15 611.2 519.6 614.7 Q523.55 609.85 526.8 604.4 534.25 591.8 537.6 577.65 L532.75 573.8 533.7 567.25 539.95 556.85 546.05 559.75 Q550.1 553.4 552.9 546.45 557.55 534.95 559.05 522.45 L552.9 519.25 553.05 516.95 Q553.75 509.05 558.25 502.4 L563.15 503.6 564.35 503.2 Q567.8 496.8 569.55 489.8 572.45 478.2 570.55 466.3 L567.55 465.6 566.75 463.35 Q564.1 455.1 568.25 447.2 L574.4 447.2 Q576.0 442.9 576.9 438.45 579.65 424.95 577.45 411.3 L576.5 410.3 569.8 408.5 Q568.3 400.2 569.75 391.7 L575.95 391.25 Q577.25 388.7 577.6 385.35 579.35 368.95 574.4 353.25 L567.55 353.65 566.8 351.45 Q564.4 343.7 566.85 335.75 L572.1 333.7 572.05 328.9 Q571.6 312.05 564.4 296.8 L557.95 298.35 556.9 296.2 Q553.25 288.9 553.3 280.8 L559.05 277.6 558.1 272.85 Q554.6 256.0 545.7 241.2 L539.5 243.9 536.1 239.25 532.4 226.75 537.6 222.4 534.35 212.3 Q529.35 197.7 519.1 186.0 L514.4 189.75 Q508.55 181.65 505.45 171.9 L509.35 168.3 509.55 167.2 507.5 162.0 Q499.95 143.25 487.7 127.35 L483.95 131.95 Q478.6 125.8 475.5 118.3 472.4 110.8 477.05 104.05 L453.2 47.6 450.25 52.85 446.0 38.5 Q443.25 29.75 441.45 20.7 440.0 13.25 443.3 6.5 L433.7 -56.25 433.2 -55.15 432.75 -66.1 432.15 -66.75 432.1 -69.85 431.3 -68.85 431.45 -78.1 430.95 -77.15 431.15 -78.3 Q431.6 -81.05 430.55 -83.7 L430.1 -84.6 429.55 -85.6 430.0 -95.6 429.55 -94.3 428.8 -94.65 428.45 -103.65 Q427.85 -106.05 428.95 -109.05 429.75 -111.4 428.25 -113.3 L427.2 -114.35 427.35 -125.6 427.9 -126.45 427.6 -127.05 427.2 -127.15 427.2 -141.5 425.8 -143.95 426.0 -156.7 425.45 -155.2 423.35 -160.0 424.15 -167.1 423.35 -167.1 422.25 -232.55 421.75 -231.55 Q421.55 -239.95 421.6 -248.3 421.9 -281.45 421.3 -314.55 421.15 -323.25 422.15 -331.95 422.6 -336.1 422.35 -339.3 421.85 -346.1 421.5 -353.45 420.85 -366.0 423.05 -378.35 L422.1 -376.3 422.65 -384.0 423.3 -386.5 422.65 -387.1 423.6 -398.4" fill="#181818" fill-rule="evenodd" stroke="none"/>
  </g>
</svg>
