<?xml version="1.0" encoding="UTF-8" standalone="no"?>
<svg xmlns:ffdec="https://www.free-decompiler.com/flash" xmlns:xlink="http://www.w3.org/1999/xlink" ffdec:objectType="shape" height="4.0px" width="851.0px" xmlns="http://www.w3.org/2000/svg">
  <g transform="matrix(1.0, 0.0, 0.0, 1.0, 429.0, 2.0)">
    <path d="M1.4 -1.45 Q2.0 -0.85 2.0 0.0 2.0 0.85 1.4 1.4 0.85 2.0 0.0 2.0 -0.85 2.0 -1.45 1.4 -2.0 0.85 -2.0 0.0 -2.0 -0.85 -1.45 -1.45 -0.85 -2.0 0.0 -2.0 0.85 -2.0 1.4 -1.45 M8.4 -1.45 Q9.0 -0.85 9.0 0.0 9.0 0.85 8.4 1.4 7.85 2.0 7.0 2.0 6.15 2.0 5.55 1.4 5.0 0.85 5.0 0.0 5.0 -0.85 5.55 -1.45 6.15 -2.0 7.0 -2.0 7.85 -2.0 8.4 -1.45 M15.4 -1.45 Q16.0 -0.85 16.0 0.0 16.0 0.85 15.4 1.4 14.85 2.0 14.0 2.0 13.15 2.0 12.55 1.4 12.0 0.85 12.0 0.0 12.0 -0.85 12.55 -1.45 13.15 -2.0 14.0 -2.0 14.85 -2.0 15.4 -1.45 M35.0 -2.0 Q35.85 -2.0 36.4 -1.45 37.0 -0.85 37.0 0.0 37.0 0.85 36.4 1.4 35.85 2.0 35.0 2.0 34.15 2.0 33.55 1.4 33.0 0.85 33.0 0.0 33.0 -0.85 33.55 -1.45 34.15 -2.0 35.0 -2.0 M22.4 -1.45 Q23.0 -0.85 23.0 0.0 23.0 0.85 22.4 1.4 21.85 2.0 21.0 2.0 20.15 2.0 19.55 1.4 19.0 0.85 19.0 0.0 19.0 -0.85 19.55 -1.45 20.15 -2.0 21.0 -2.0 21.85 -2.0 22.4 -1.45 M29.4 -1.45 Q30.0 -0.85 30.0 0.0 30.0 0.85 29.4 1.4 28.85 2.0 28.0 2.0 27.15 2.0 26.55 1.4 26.0 0.85 26.0 0.0 26.0 -0.85 26.55 -1.45 27.15 -2.0 28.0 -2.0 28.85 -2.0 29.4 -1.45 M43.4 -1.45 Q44.0 -0.85 44.0 0.0 44.0 0.85 43.4 1.4 42.85 2.0 42.0 2.0 41.15 2.0 40.55 1.4 40.0 0.85 40.0 0.0 40.0 -0.85 40.55 -1.45 41.15 -2.0 42.0 -2.0 42.85 -2.0 43.4 -1.45 M50.4 -1.45 Q51.0 -0.85 51.0 0.0 51.0 0.85 50.4 1.4 49.85 2.0 49.0 2.0 48.15 2.0 47.55 1.4 47.0 0.85 47.0 0.0 47.0 -0.85 47.55 -1.45 48.15 -2.0 49.0 -2.0 49.85 -2.0 50.4 -1.45 M57.4 -1.45 Q58.0 -0.85 58.0 0.0 58.0 0.85 57.4 1.4 56.85 2.0 56.0 2.0 55.15 2.0 54.55 1.4 54.0 0.85 54.0 0.0 54.0 -0.85 54.55 -1.45 55.15 -2.0 56.0 -2.0 56.85 -2.0 57.4 -1.45 M77.0 -2.0 Q77.85 -2.0 78.4 -1.45 79.0 -0.85 79.0 0.0 79.0 0.85 78.4 1.4 77.85 2.0 77.0 2.0 76.15 2.0 75.55 1.4 75.0 0.85 75.0 0.0 75.0 -0.85 75.55 -1.45 76.15 -2.0 77.0 -2.0 M70.0 -2.0 Q70.85 -2.0 71.4 -1.45 72.0 -0.85 72.0 0.0 72.0 0.85 71.4 1.4 70.85 2.0 70.0 2.0 69.15 2.0 68.55 1.4 68.0 0.85 68.0 0.0 68.0 -0.85 68.55 -1.45 69.15 -2.0 70.0 -2.0 M64.4 -1.45 Q65.0 -0.85 65.0 0.0 65.0 0.85 64.4 1.4 63.85 2.0 63.0 2.0 62.15 2.0 61.55 1.4 61.0 0.85 61.0 0.0 61.0 -0.85 61.55 -1.45 62.15 -2.0 63.0 -2.0 63.85 -2.0 64.4 -1.45 M85.4 -1.45 Q86.0 -0.85 86.0 0.0 86.0 0.85 85.4 1.4 84.85 2.0 84.0 2.0 83.15 2.0 82.55 1.4 82.0 0.85 82.0 0.0 82.0 -0.85 82.55 -1.45 83.15 -2.0 84.0 -2.0 84.85 -2.0 85.4 -1.45 M92.4 -1.45 Q93.0 -0.85 93.0 0.0 93.0 0.85 92.4 1.4 91.85 2.0 91.0 2.0 90.15 2.0 89.55 1.4 89.0 0.85 89.0 0.0 89.0 -0.85 89.55 -1.45 90.15 -2.0 91.0 -2.0 91.85 -2.0 92.4 -1.45 M99.4 -1.45 Q100.0 -0.85 100.0 0.0 100.0 0.85 99.4 1.4 98.85 2.0 98.0 2.0 97.15 2.0 96.55 1.4 96.0 0.85 96.0 0.0 96.0 -0.85 96.55 -1.45 97.15 -2.0 98.0 -2.0 98.85 -2.0 99.4 -1.45 M119.0 -2.0 Q119.85 -2.0 120.4 -1.45 121.0 -0.85 121.0 0.0 121.0 0.85 120.4 1.4 119.85 2.0 119.0 2.0 118.15 2.0 117.55 1.4 117.0 0.85 117.0 0.0 117.0 -0.85 117.55 -1.45 118.15 -2.0 119.0 -2.0 M112.0 -2.0 Q112.85 -2.0 113.4 -1.45 114.0 -0.85 114.0 0.0 114.0 0.85 113.4 1.4 112.85 2.0 112.0 2.0 111.15 2.0 110.55 1.4 110.0 0.85 110.0 0.0 110.0 -0.85 110.55 -1.45 111.15 -2.0 112.0 -2.0 M106.4 -1.45 Q107.0 -0.85 107.0 0.0 107.0 0.85 106.4 1.4 105.85 2.0 105.0 2.0 104.15 2.0 103.55 1.4 103.0 0.85 103.0 0.0 103.0 -0.85 103.55 -1.45 104.15 -2.0 105.0 -2.0 105.85 -2.0 106.4 -1.45 M127.4 -1.45 Q128.0 -0.85 128.0 0.0 128.0 0.85 127.4 1.4 126.85 2.0 126.0 2.0 125.15 2.0 124.55 1.4 124.0 0.85 124.0 0.0 124.0 -0.85 124.55 -1.45 125.15 -2.0 126.0 -2.0 126.85 -2.0 127.4 -1.45 M134.4 -1.45 Q135.0 -0.85 135.0 0.0 135.0 0.85 134.4 1.4 133.85 2.0 133.0 2.0 132.15 2.0 131.55 1.4 131.0 0.85 131.0 0.0 131.0 -0.85 131.55 -1.45 132.15 -2.0 133.0 -2.0 133.85 -2.0 134.4 -1.45 M141.4 -1.45 Q142.0 -0.85 142.0 0.0 142.0 0.85 141.4 1.4 140.85 2.0 140.0 2.0 139.15 2.0 138.55 1.4 138.0 0.85 138.0 0.0 138.0 -0.85 138.55 -1.45 139.15 -2.0 140.0 -2.0 140.85 -2.0 141.4 -1.45 M161.0 -2.0 Q161.85 -2.0 162.4 -1.45 163.0 -0.85 163.0 0.0 163.0 0.85 162.4 1.4 161.85 2.0 161.0 2.0 160.15 2.0 159.55 1.4 159.0 0.85 159.0 0.0 159.0 -0.85 159.55 -1.45 160.15 -2.0 161.0 -2.0 M154.0 -2.0 Q154.85 -2.0 155.4 -1.45 156.0 -0.85 156.0 0.0 156.0 0.85 155.4 1.4 154.85 2.0 154.0 2.0 153.15 2.0 152.55 1.4 152.0 0.85 152.0 0.0 152.0 -0.85 152.55 -1.45 153.15 -2.0 154.0 -2.0 M148.4 -1.45 Q149.0 -0.85 149.0 0.0 149.0 0.85 148.4 1.4 147.85 2.0 147.0 2.0 146.15 2.0 145.55 1.4 145.0 0.85 145.0 0.0 145.0 -0.85 145.55 -1.45 146.15 -2.0 147.0 -2.0 147.85 -2.0 148.4 -1.45 M169.4 -1.45 Q170.0 -0.85 170.0 0.0 170.0 0.85 169.4 1.4 168.85 2.0 168.0 2.0 167.15 2.0 166.55 1.4 166.0 0.85 166.0 0.0 166.0 -0.85 166.55 -1.45 167.15 -2.0 168.0 -2.0 168.85 -2.0 169.4 -1.45 M176.4 -1.45 Q177.0 -0.85 177.0 0.0 177.0 0.85 176.4 1.4 175.85 2.0 175.0 2.0 174.15 2.0 173.55 1.4 173.0 0.85 173.0 0.0 173.0 -0.85 173.55 -1.45 174.15 -2.0 175.0 -2.0 175.85 -2.0 176.4 -1.45 M182.0 -2.0 Q182.85 -2.0 183.4 -1.45 184.0 -0.85 184.0 0.0 184.0 0.85 183.4 1.4 182.85 2.0 182.0 2.0 181.15 2.0 180.55 1.4 180.0 0.85 180.0 0.0 180.0 -0.85 180.55 -1.45 181.15 -2.0 182.0 -2.0 M196.0 -2.0 Q196.85 -2.0 197.4 -1.45 198.0 -0.85 198.0 0.0 198.0 0.85 197.4 1.4 196.85 2.0 196.0 2.0 195.15 2.0 194.55 1.4 194.0 0.85 194.0 0.0 194.0 -0.85 194.55 -1.45 195.15 -2.0 196.0 -2.0 M190.4 -1.45 Q191.0 -0.85 191.0 0.0 191.0 0.85 190.4 1.4 189.85 2.0 189.0 2.0 188.15 2.0 187.55 1.4 187.0 0.85 187.0 0.0 187.0 -0.85 187.55 -1.45 188.15 -2.0 189.0 -2.0 189.85 -2.0 190.4 -1.45 M204.4 -1.45 Q205.0 -0.85 205.0 0.0 205.0 0.85 204.4 1.4 203.85 2.0 203.0 2.0 202.15 2.0 201.55 1.4 201.0 0.85 201.0 0.0 201.0 -0.85 201.55 -1.45 202.15 -2.0 203.0 -2.0 203.85 -2.0 204.4 -1.45 M211.4 -1.45 Q212.0 -0.85 212.0 0.0 212.0 0.85 211.4 1.4 210.85 2.0 210.0 2.0 209.15 2.0 208.55 1.4 208.0 0.85 208.0 0.0 208.0 -0.85 208.55 -1.45 209.15 -2.0 210.0 -2.0 210.85 -2.0 211.4 -1.45 M218.4 -1.45 Q219.0 -0.85 219.0 0.0 219.0 0.85 218.4 1.4 217.85 2.0 217.0 2.0 216.15 2.0 215.55 1.4 215.0 0.85 215.0 0.0 215.0 -0.85 215.55 -1.45 216.15 -2.0 217.0 -2.0 217.85 -2.0 218.4 -1.45 M238.0 -2.0 Q238.85 -2.0 239.4 -1.45 240.0 -0.85 240.0 0.0 240.0 0.85 239.4 1.4 238.85 2.0 238.0 2.0 237.15 2.0 236.55 1.4 236.0 0.85 236.0 0.0 236.0 -0.85 236.55 -1.45 237.15 -2.0 238.0 -2.0 M225.4 -1.45 Q226.0 -0.85 226.0 0.0 226.0 0.85 225.4 1.4 224.85 2.0 224.0 2.0 223.15 2.0 222.55 1.4 222.0 0.85 222.0 0.0 222.0 -0.85 222.55 -1.45 223.15 -2.0 224.0 -2.0 224.85 -2.0 225.4 -1.45 M232.4 -1.45 Q233.0 -0.85 233.0 0.0 233.0 0.85 232.4 1.4 231.85 2.0 231.0 2.0 230.15 2.0 229.55 1.4 229.0 0.85 229.0 0.0 229.0 -0.85 229.55 -1.45 230.15 -2.0 231.0 -2.0 231.85 -2.0 232.4 -1.45 M246.4 -1.45 Q247.0 -0.85 247.0 0.0 247.0 0.85 246.4 1.4 245.85 2.0 245.0 2.0 244.15 2.0 243.55 1.4 243.0 0.85 243.0 0.0 243.0 -0.85 243.55 -1.45 244.15 -2.0 245.0 -2.0 245.85 -2.0 246.4 -1.45 M253.4 -1.45 Q254.0 -0.85 254.0 0.0 254.0 0.85 253.4 1.4 252.85 2.0 252.0 2.0 251.15 2.0 250.55 1.4 250.0 0.85 250.0 0.0 250.0 -0.85 250.55 -1.45 251.15 -2.0 252.0 -2.0 252.85 -2.0 253.4 -1.45 M260.4 -1.45 Q261.0 -0.85 261.0 0.0 261.0 0.85 260.4 1.4 259.85 2.0 259.0 2.0 258.15 2.0 257.55 1.4 257.0 0.85 257.0 0.0 257.0 -0.85 257.55 -1.45 258.15 -2.0 259.0 -2.0 259.85 -2.0 260.4 -1.45 M280.0 -2.0 Q280.85 -2.0 281.4 -1.45 282.0 -0.85 282.0 0.0 282.0 0.85 281.4 1.4 280.85 2.0 280.0 2.0 279.15 2.0 278.55 1.4 278.0 0.85 278.0 0.0 278.0 -0.85 278.55 -1.45 279.15 -2.0 280.0 -2.0 M273.0 -2.0 Q273.85 -2.0 274.4 -1.45 275.0 -0.85 275.0 0.0 275.0 0.85 274.4 1.4 273.85 2.0 273.0 2.0 272.15 2.0 271.55 1.4 271.0 0.85 271.0 0.0 271.0 -0.85 271.55 -1.45 272.15 -2.0 273.0 -2.0 M267.4 -1.45 Q268.0 -0.85 268.0 0.0 268.0 0.85 267.4 1.4 266.85 2.0 266.0 2.0 265.15 2.0 264.55 1.4 264.0 0.85 264.0 0.0 264.0 -0.85 264.55 -1.45 265.15 -2.0 266.0 -2.0 266.85 -2.0 267.4 -1.45 M288.4 -1.45 Q289.0 -0.85 289.0 0.0 289.0 0.85 288.4 1.4 287.85 2.0 287.0 2.0 286.15 2.0 285.55 1.4 285.0 0.85 285.0 0.0 285.0 -0.85 285.55 -1.45 286.15 -2.0 287.0 -2.0 287.85 -2.0 288.4 -1.45 M295.4 -1.45 Q296.0 -0.85 296.0 0.0 296.0 0.85 295.4 1.4 294.85 2.0 294.0 2.0 293.15 2.0 292.55 1.4 292.0 0.85 292.0 0.0 292.0 -0.85 292.55 -1.45 293.15 -2.0 294.0 -2.0 294.85 -2.0 295.4 -1.45 M302.4 -1.45 Q303.0 -0.85 303.0 0.0 303.0 0.85 302.4 1.4 301.85 2.0 301.0 2.0 300.15 2.0 299.55 1.4 299.0 0.85 299.0 0.0 299.0 -0.85 299.55 -1.45 300.15 -2.0 301.0 -2.0 301.85 -2.0 302.4 -1.45 M322.0 -2.0 Q322.85 -2.0 323.4 -1.45 324.0 -0.85 324.0 0.0 324.0 0.85 323.4 1.4 322.85 2.0 322.0 2.0 321.15 2.0 320.55 1.4 320.0 0.85 320.0 0.0 320.0 -0.85 320.55 -1.45 321.15 -2.0 322.0 -2.0 M315.0 -2.0 Q315.85 -2.0 316.4 -1.45 317.0 -0.85 317.0 0.0 317.0 0.85 316.4 1.4 315.85 2.0 315.0 2.0 314.15 2.0 313.55 1.4 313.0 0.85 313.0 0.0 313.0 -0.85 313.55 -1.45 314.15 -2.0 315.0 -2.0 M309.4 -1.45 Q310.0 -0.85 310.0 0.0 310.0 0.85 309.4 1.4 308.85 2.0 308.0 2.0 307.15 2.0 306.55 1.4 306.0 0.85 306.0 0.0 306.0 -0.85 306.55 -1.45 307.15 -2.0 308.0 -2.0 308.85 -2.0 309.4 -1.45 M330.4 -1.45 Q331.0 -0.85 331.0 0.0 331.0 0.85 330.4 1.4 329.85 2.0 329.0 2.0 328.15 2.0 327.55 1.4 327.0 0.85 327.0 0.0 327.0 -0.85 327.55 -1.45 328.15 -2.0 329.0 -2.0 329.85 -2.0 330.4 -1.45 M337.4 -1.45 Q338.0 -0.85 338.0 0.0 338.0 0.85 337.4 1.4 336.85 2.0 336.0 2.0 335.15 2.0 334.55 1.4 334.0 0.85 334.0 0.0 334.0 -0.85 334.55 -1.45 335.15 -2.0 336.0 -2.0 336.85 -2.0 337.4 -1.45 M343.0 -2.0 Q343.85 -2.0 344.4 -1.45 345.0 -0.85 345.0 0.0 345.0 0.85 344.4 1.4 343.85 2.0 343.0 2.0 342.15 2.0 341.55 1.4 341.0 0.85 341.0 0.0 341.0 -0.85 341.55 -1.45 342.15 -2.0 343.0 -2.0 M364.0 -2.0 Q364.85 -2.0 365.4 -1.45 366.0 -0.85 366.0 0.0 366.0 0.85 365.4 1.4 364.85 2.0 364.0 2.0 363.15 2.0 362.55 1.4 362.0 0.85 362.0 0.0 362.0 -0.85 362.55 -1.45 363.15 -2.0 364.0 -2.0 M357.0 -2.0 Q357.85 -2.0 358.4 -1.45 359.0 -0.85 359.0 0.0 359.0 0.85 358.4 1.4 357.85 2.0 357.0 2.0 356.15 2.0 355.55 1.4 355.0 0.85 355.0 0.0 355.0 -0.85 355.55 -1.45 356.15 -2.0 357.0 -2.0 M351.4 -1.45 Q352.0 -0.85 352.0 0.0 352.0 0.85 351.4 1.4 350.85 2.0 350.0 2.0 349.15 2.0 348.55 1.4 348.0 0.85 348.0 0.0 348.0 -0.85 348.55 -1.45 349.15 -2.0 350.0 -2.0 350.85 -2.0 351.4 -1.45 M372.4 -1.45 Q373.0 -0.85 373.0 0.0 373.0 0.85 372.4 1.4 371.85 2.0 371.0 2.0 370.15 2.0 369.55 1.4 369.0 0.85 369.0 0.0 369.0 -0.85 369.55 -1.45 370.15 -2.0 371.0 -2.0 371.85 -2.0 372.4 -1.45 M379.4 -1.45 Q380.0 -0.85 380.0 0.0 380.0 0.85 379.4 1.4 378.85 2.0 378.0 2.0 377.15 2.0 376.55 1.4 376.0 0.85 376.0 0.0 376.0 -0.85 376.55 -1.45 377.15 -2.0 378.0 -2.0 378.85 -2.0 379.4 -1.45 M399.0 -2.0 Q399.85 -2.0 400.4 -1.45 401.0 -0.85 401.0 0.0 401.0 0.85 400.4 1.4 399.85 2.0 399.0 2.0 398.15 2.0 397.55 1.4 397.0 0.85 397.0 0.0 397.0 -0.85 397.55 -1.45 398.15 -2.0 399.0 -2.0 M386.4 -1.45 Q387.0 -0.85 387.0 0.0 387.0 0.85 386.4 1.4 385.85 2.0 385.0 2.0 384.15 2.0 383.55 1.4 383.0 0.85 383.0 0.0 383.0 -0.85 383.55 -1.45 384.15 -2.0 385.0 -2.0 385.85 -2.0 386.4 -1.45 M393.4 -1.45 Q394.0 -0.85 394.0 0.0 394.0 0.85 393.4 1.4 392.85 2.0 392.0 2.0 391.15 2.0 390.55 1.4 390.0 0.85 390.0 0.0 390.0 -0.85 390.55 -1.45 391.15 -2.0 392.0 -2.0 392.85 -2.0 393.4 -1.45 M420.0 -2.0 Q420.85 -2.0 421.4 -1.45 422.0 -0.85 422.0 0.0 422.0 0.85 421.4 1.4 420.85 2.0 420.0 2.0 419.15 2.0 418.55 1.4 418.0 0.85 418.0 0.0 418.0 -0.85 418.55 -1.45 419.15 -2.0 420.0 -2.0 M413.0 -2.0 Q413.85 -2.0 414.4 -1.45 415.0 -0.85 415.0 0.0 415.0 0.85 414.4 1.4 413.85 2.0 413.0 2.0 412.15 2.0 411.55 1.4 411.0 0.85 411.0 0.0 411.0 -0.85 411.55 -1.45 412.15 -2.0 413.0 -2.0 M407.4 -1.45 Q408.0 -0.85 408.0 0.0 408.0 0.85 407.4 1.4 406.85 2.0 406.0 2.0 405.15 2.0 404.55 1.4 404.0 0.85 404.0 0.0 404.0 -0.85 404.55 -1.45 405.15 -2.0 406.0 -2.0 406.85 -2.0 407.4 -1.45 M-406.0 -2.0 Q-405.15 -2.0 -404.6 -1.45 -404.0 -0.85 -404.0 0.0 -404.0 0.85 -404.6 1.4 -405.15 2.0 -406.0 2.0 -406.85 2.0 -407.45 1.4 -408.0 0.85 -408.0 0.0 -408.0 -0.85 -407.45 -1.45 -406.85 -2.0 -406.0 -2.0 M-413.0 -2.0 Q-412.15 -2.0 -411.6 -1.45 -411.0 -0.85 -411.0 0.0 -411.0 0.85 -411.6 1.4 -412.15 2.0 -413.0 2.0 -413.85 2.0 -414.45 1.4 -415.0 0.85 -415.0 0.0 -415.0 -0.85 -414.45 -1.45 -413.85 -2.0 -413.0 -2.0 M-420.0 -2.0 Q-419.15 -2.0 -418.6 -1.45 -418.0 -0.85 -418.0 0.0 -418.0 0.85 -418.6 1.4 -419.15 2.0 -420.0 2.0 -420.85 2.0 -421.45 1.4 -422.0 0.85 -422.0 0.0 -422.0 -0.85 -421.45 -1.45 -420.85 -2.0 -420.0 -2.0 M-427.0 -2.0 Q-426.15 -2.0 -425.6 -1.45 -425.0 -0.85 -425.0 0.0 -425.0 0.85 -425.6 1.4 -426.15 2.0 -427.0 2.0 -427.85 2.0 -428.45 1.4 -429.0 0.85 -429.0 0.0 -429.0 -0.85 -428.45 -1.45 -427.85 -2.0 -427.0 -2.0 M-397.6 -1.45 Q-397.0 -0.85 -397.0 0.0 -397.0 0.85 -397.6 1.4 -398.15 2.0 -399.0 2.0 -399.85 2.0 -400.45 1.4 -401.0 0.85 -401.0 0.0 -401.0 -0.85 -400.45 -1.45 -399.85 -2.0 -399.0 -2.0 -398.15 -2.0 -397.6 -1.45 M-390.6 -1.45 Q-390.0 -0.85 -390.0 0.0 -390.0 0.85 -390.6 1.4 -391.15 2.0 -392.0 2.0 -392.85 2.0 -393.45 1.4 -394.0 0.85 -394.0 0.0 -394.0 -0.85 -393.45 -1.45 -392.85 -2.0 -392.0 -2.0 -391.15 -2.0 -390.6 -1.45 M-385.0 -2.0 Q-384.15 -2.0 -383.6 -1.45 -383.0 -0.85 -383.0 0.0 -383.0 0.85 -383.6 1.4 -384.15 2.0 -385.0 2.0 -385.85 2.0 -386.45 1.4 -387.0 0.85 -387.0 0.0 -387.0 -0.85 -386.45 -1.45 -385.85 -2.0 -385.0 -2.0 M-371.0 -2.0 Q-370.15 -2.0 -369.6 -1.45 -369.0 -0.85 -369.0 0.0 -369.0 0.85 -369.6 1.4 -370.15 2.0 -371.0 2.0 -371.85 2.0 -372.45 1.4 -373.0 0.85 -373.0 0.0 -373.0 -0.85 -372.45 -1.45 -371.85 -2.0 -371.0 -2.0 M-376.6 -1.45 Q-376.0 -0.85 -376.0 0.0 -376.0 0.85 -376.6 1.4 -377.15 2.0 -378.0 2.0 -378.85 2.0 -379.45 1.4 -380.0 0.85 -380.0 0.0 -380.0 -0.85 -379.45 -1.45 -378.85 -2.0 -378.0 -2.0 -377.15 -2.0 -376.6 -1.45 M-362.6 -1.45 Q-362.0 -0.85 -362.0 0.0 -362.0 0.85 -362.6 1.4 -363.15 2.0 -364.0 2.0 -364.85 2.0 -365.45 1.4 -366.0 0.85 -366.0 0.0 -366.0 -0.85 -365.45 -1.45 -364.85 -2.0 -364.0 -2.0 -363.15 -2.0 -362.6 -1.45 M-355.6 -1.45 Q-355.0 -0.85 -355.0 0.0 -355.0 0.85 -355.6 1.4 -356.15 2.0 -357.0 2.0 -357.85 2.0 -358.45 1.4 -359.0 0.85 -359.0 0.0 -359.0 -0.85 -358.45 -1.45 -357.85 -2.0 -357.0 -2.0 -356.15 -2.0 -355.6 -1.45 M-348.6 -1.45 Q-348.0 -0.85 -348.0 0.0 -348.0 0.85 -348.6 1.4 -349.15 2.0 -350.0 2.0 -350.85 2.0 -351.45 1.4 -352.0 0.85 -352.0 0.0 -352.0 -0.85 -351.45 -1.45 -350.85 -2.0 -350.0 -2.0 -349.15 -2.0 -348.6 -1.45 M-329.0 -2.0 Q-328.15 -2.0 -327.6 -1.45 -327.0 -0.85 -327.0 0.0 -327.0 0.85 -327.6 1.4 -328.15 2.0 -329.0 2.0 -329.85 2.0 -330.45 1.4 -331.0 0.85 -331.0 0.0 -331.0 -0.85 -330.45 -1.45 -329.85 -2.0 -329.0 -2.0 M-341.6 -1.45 Q-341.0 -0.85 -341.0 0.0 -341.0 0.85 -341.6 1.4 -342.15 2.0 -343.0 2.0 -343.85 2.0 -344.45 1.4 -345.0 0.85 -345.0 0.0 -345.0 -0.85 -344.45 -1.45 -343.85 -2.0 -343.0 -2.0 -342.15 -2.0 -341.6 -1.45 M-334.6 -1.45 Q-334.0 -0.85 -334.0 0.0 -334.0 0.85 -334.6 1.4 -335.15 2.0 -336.0 2.0 -336.85 2.0 -337.45 1.4 -338.0 0.85 -338.0 0.0 -338.0 -0.85 -337.45 -1.45 -336.85 -2.0 -336.0 -2.0 -335.15 -2.0 -334.6 -1.45 M-320.6 -1.45 Q-320.0 -0.85 -320.0 0.0 -320.0 0.85 -320.6 1.4 -321.15 2.0 -322.0 2.0 -322.85 2.0 -323.45 1.4 -324.0 0.85 -324.0 0.0 -324.0 -0.85 -323.45 -1.45 -322.85 -2.0 -322.0 -2.0 -321.15 -2.0 -320.6 -1.45 M-313.6 -1.45 Q-313.0 -0.85 -313.0 0.0 -313.0 0.85 -313.6 1.4 -314.15 2.0 -315.0 2.0 -315.85 2.0 -316.45 1.4 -317.0 0.85 -317.0 0.0 -317.0 -0.85 -316.45 -1.45 -315.85 -2.0 -315.0 -2.0 -314.15 -2.0 -313.6 -1.45 M-306.6 -1.45 Q-306.0 -0.85 -306.0 0.0 -306.0 0.85 -306.6 1.4 -307.15 2.0 -308.0 2.0 -308.85 2.0 -309.45 1.4 -310.0 0.85 -310.0 0.0 -310.0 -0.85 -309.45 -1.45 -308.85 -2.0 -308.0 -2.0 -307.15 -2.0 -306.6 -1.45 M-287.0 -2.0 Q-286.15 -2.0 -285.6 -1.45 -285.0 -0.85 -285.0 0.0 -285.0 0.85 -285.6 1.4 -286.15 2.0 -287.0 2.0 -287.85 2.0 -288.45 1.4 -289.0 0.85 -289.0 0.0 -289.0 -0.85 -288.45 -1.45 -287.85 -2.0 -287.0 -2.0 M-294.0 -2.0 Q-293.15 -2.0 -292.6 -1.45 -292.0 -0.85 -292.0 0.0 -292.0 0.85 -292.6 1.4 -293.15 2.0 -294.0 2.0 -294.85 2.0 -295.45 1.4 -296.0 0.85 -296.0 0.0 -296.0 -0.85 -295.45 -1.45 -294.85 -2.0 -294.0 -2.0 M-299.6 -1.45 Q-299.0 -0.85 -299.0 0.0 -299.0 0.85 -299.6 1.4 -300.15 2.0 -301.0 2.0 -301.85 2.0 -302.45 1.4 -303.0 0.85 -303.0 0.0 -303.0 -0.85 -302.45 -1.45 -301.85 -2.0 -301.0 -2.0 -300.15 -2.0 -299.6 -1.45 M-278.6 -1.45 Q-278.0 -0.85 -278.0 0.0 -278.0 0.85 -278.6 1.4 -279.15 2.0 -280.0 2.0 -280.85 2.0 -281.45 1.4 -282.0 0.85 -282.0 0.0 -282.0 -0.85 -281.45 -1.45 -280.85 -2.0 -280.0 -2.0 -279.15 -2.0 -278.6 -1.45 M-271.6 -1.45 Q-271.0 -0.85 -271.0 0.0 -271.0 0.85 -271.6 1.4 -272.15 2.0 -273.0 2.0 -273.85 2.0 -274.45 1.4 -275.0 0.85 -275.0 0.0 -275.0 -0.85 -274.45 -1.45 -273.85 -2.0 -273.0 -2.0 -272.15 -2.0 -271.6 -1.45 M-264.6 -1.45 Q-264.0 -0.85 -264.0 0.0 -264.0 0.85 -264.6 1.4 -265.15 2.0 -266.0 2.0 -266.85 2.0 -267.45 1.4 -268.0 0.85 -268.0 0.0 -268.0 -0.85 -267.45 -1.45 -266.85 -2.0 -266.0 -2.0 -265.15 -2.0 -264.6 -1.45 M-245.0 -2.0 Q-244.15 -2.0 -243.6 -1.45 -243.0 -0.85 -243.0 0.0 -243.0 0.85 -243.6 1.4 -244.15 2.0 -245.0 2.0 -245.85 2.0 -246.45 1.4 -247.0 0.85 -247.0 0.0 -247.0 -0.85 -246.45 -1.45 -245.85 -2.0 -245.0 -2.0 M-252.0 -2.0 Q-251.15 -2.0 -250.6 -1.45 -250.0 -0.85 -250.0 0.0 -250.0 0.85 -250.6 1.4 -251.15 2.0 -252.0 2.0 -252.85 2.0 -253.45 1.4 -254.0 0.85 -254.0 0.0 -254.0 -0.85 -253.45 -1.45 -252.85 -2.0 -252.0 -2.0 M-257.6 -1.45 Q-257.0 -0.85 -257.0 0.0 -257.0 0.85 -257.6 1.4 -258.15 2.0 -259.0 2.0 -259.85 2.0 -260.45 1.4 -261.0 0.85 -261.0 0.0 -261.0 -0.85 -260.45 -1.45 -259.85 -2.0 -259.0 -2.0 -258.15 -2.0 -257.6 -1.45 M-236.6 -1.45 Q-236.0 -0.85 -236.0 0.0 -236.0 0.85 -236.6 1.4 -237.15 2.0 -238.0 2.0 -238.85 2.0 -239.45 1.4 -240.0 0.85 -240.0 0.0 -240.0 -0.85 -239.45 -1.45 -238.85 -2.0 -238.0 -2.0 -237.15 -2.0 -236.6 -1.45 M-229.6 -1.45 Q-229.0 -0.85 -229.0 0.0 -229.0 0.85 -229.6 1.4 -230.15 2.0 -231.0 2.0 -231.85 2.0 -232.45 1.4 -233.0 0.85 -233.0 0.0 -233.0 -0.85 -232.45 -1.45 -231.85 -2.0 -231.0 -2.0 -230.15 -2.0 -229.6 -1.45 M-224.0 -2.0 Q-223.15 -2.0 -222.6 -1.45 -222.0 -0.85 -222.0 0.0 -222.0 0.85 -222.6 1.4 -223.15 2.0 -224.0 2.0 -224.85 2.0 -225.45 1.4 -226.0 0.85 -226.0 0.0 -226.0 -0.85 -225.45 -1.45 -224.85 -2.0 -224.0 -2.0 M-203.0 -2.0 Q-202.15 -2.0 -201.6 -1.45 -201.0 -0.85 -201.0 0.0 -201.0 0.85 -201.6 1.4 -202.15 2.0 -203.0 2.0 -203.85 2.0 -204.45 1.4 -205.0 0.85 -205.0 0.0 -205.0 -0.85 -204.45 -1.45 -203.85 -2.0 -203.0 -2.0 M-210.0 -2.0 Q-209.15 -2.0 -208.6 -1.45 -208.0 -0.85 -208.0 0.0 -208.0 0.85 -208.6 1.4 -209.15 2.0 -210.0 2.0 -210.85 2.0 -211.45 1.4 -212.0 0.85 -212.0 0.0 -212.0 -0.85 -211.45 -1.45 -210.85 -2.0 -210.0 -2.0 M-215.6 -1.45 Q-215.0 -0.85 -215.0 0.0 -215.0 0.85 -215.6 1.4 -216.15 2.0 -217.0 2.0 -217.85 2.0 -218.45 1.4 -219.0 0.85 -219.0 0.0 -219.0 -0.85 -218.45 -1.45 -217.85 -2.0 -217.0 -2.0 -216.15 -2.0 -215.6 -1.45 M-194.6 -1.45 Q-194.0 -0.85 -194.0 0.0 -194.0 0.85 -194.6 1.4 -195.15 2.0 -196.0 2.0 -196.85 2.0 -197.45 1.4 -198.0 0.85 -198.0 0.0 -198.0 -0.85 -197.45 -1.45 -196.85 -2.0 -196.0 -2.0 -195.15 -2.0 -194.6 -1.45 M-187.6 -1.45 Q-187.0 -0.85 -187.0 0.0 -187.0 0.85 -187.6 1.4 -188.15 2.0 -189.0 2.0 -189.85 2.0 -190.45 1.4 -191.0 0.85 -191.0 0.0 -191.0 -0.85 -190.45 -1.45 -189.85 -2.0 -189.0 -2.0 -188.15 -2.0 -187.6 -1.45 M-168.0 -2.0 Q-167.15 -2.0 -166.6 -1.45 -166.0 -0.85 -166.0 0.0 -166.0 0.85 -166.6 1.4 -167.15 2.0 -168.0 2.0 -168.85 2.0 -169.45 1.4 -170.0 0.85 -170.0 0.0 -170.0 -0.85 -169.45 -1.45 -168.85 -2.0 -168.0 -2.0 M-180.6 -1.45 Q-180.0 -0.85 -180.0 0.0 -180.0 0.85 -180.6 1.4 -181.15 2.0 -182.0 2.0 -182.85 2.0 -183.45 1.4 -184.0 0.85 -184.0 0.0 -184.0 -0.85 -183.45 -1.45 -182.85 -2.0 -182.0 -2.0 -181.15 -2.0 -180.6 -1.45 M-173.6 -1.45 Q-173.0 -0.85 -173.0 0.0 -173.0 0.85 -173.6 1.4 -174.15 2.0 -175.0 2.0 -175.85 2.0 -176.45 1.4 -177.0 0.85 -177.0 0.0 -177.0 -0.85 -176.45 -1.45 -175.85 -2.0 -175.0 -2.0 -174.15 -2.0 -173.6 -1.45 M-159.6 -1.45 Q-159.0 -0.85 -159.0 0.0 -159.0 0.85 -159.6 1.4 -160.15 2.0 -161.0 2.0 -161.85 2.0 -162.45 1.4 -163.0 0.85 -163.0 0.0 -163.0 -0.85 -162.45 -1.45 -161.85 -2.0 -161.0 -2.0 -160.15 -2.0 -159.6 -1.45 M-152.6 -1.45 Q-152.0 -0.85 -152.0 0.0 -152.0 0.85 -152.6 1.4 -153.15 2.0 -154.0 2.0 -154.85 2.0 -155.45 1.4 -156.0 0.85 -156.0 0.0 -156.0 -0.85 -155.45 -1.45 -154.85 -2.0 -154.0 -2.0 -153.15 -2.0 -152.6 -1.45 M-145.6 -1.45 Q-145.0 -0.85 -145.0 0.0 -145.0 0.85 -145.6 1.4 -146.15 2.0 -147.0 2.0 -147.85 2.0 -148.45 1.4 -149.0 0.85 -149.0 0.0 -149.0 -0.85 -148.45 -1.45 -147.85 -2.0 -147.0 -2.0 -146.15 -2.0 -145.6 -1.45 M-126.0 -2.0 Q-125.15 -2.0 -124.6 -1.45 -124.0 -0.85 -124.0 0.0 -124.0 0.85 -124.6 1.4 -125.15 2.0 -126.0 2.0 -126.85 2.0 -127.45 1.4 -128.0 0.85 -128.0 0.0 -128.0 -0.85 -127.45 -1.45 -126.85 -2.0 -126.0 -2.0 M-138.6 -1.45 Q-138.0 -0.85 -138.0 0.0 -138.0 0.85 -138.6 1.4 -139.15 2.0 -140.0 2.0 -140.85 2.0 -141.45 1.4 -142.0 0.85 -142.0 0.0 -142.0 -0.85 -141.45 -1.45 -140.85 -2.0 -140.0 -2.0 -139.15 -2.0 -138.6 -1.45 M-131.6 -1.45 Q-131.0 -0.85 -131.0 0.0 -131.0 0.85 -131.6 1.4 -132.15 2.0 -133.0 2.0 -133.85 2.0 -134.45 1.4 -135.0 0.85 -135.0 0.0 -135.0 -0.85 -134.45 -1.45 -133.85 -2.0 -133.0 -2.0 -132.15 -2.0 -131.6 -1.45 M-117.6 -1.45 Q-117.0 -0.85 -117.0 0.0 -117.0 0.85 -117.6 1.4 -118.15 2.0 -119.0 2.0 -119.85 2.0 -120.45 1.4 -121.0 0.85 -121.0 0.0 -121.0 -0.85 -120.45 -1.45 -119.85 -2.0 -119.0 -2.0 -118.15 -2.0 -117.6 -1.45 M-110.6 -1.45 Q-110.0 -0.85 -110.0 0.0 -110.0 0.85 -110.6 1.4 -111.15 2.0 -112.0 2.0 -112.85 2.0 -113.45 1.4 -114.0 0.85 -114.0 0.0 -114.0 -0.85 -113.45 -1.45 -112.85 -2.0 -112.0 -2.0 -111.15 -2.0 -110.6 -1.45 M-103.6 -1.45 Q-103.0 -0.85 -103.0 0.0 -103.0 0.85 -103.6 1.4 -104.15 2.0 -105.0 2.0 -105.85 2.0 -106.45 1.4 -107.0 0.85 -107.0 0.0 -107.0 -0.85 -106.45 -1.45 -105.85 -2.0 -105.0 -2.0 -104.15 -2.0 -103.6 -1.45 M-84.0 -2.0 Q-83.15 -2.0 -82.6 -1.45 -82.0 -0.85 -82.0 0.0 -82.0 0.85 -82.6 1.4 -83.15 2.0 -84.0 2.0 -84.85 2.0 -85.45 1.4 -86.0 0.85 -86.0 0.0 -86.0 -0.85 -85.45 -1.45 -84.85 -2.0 -84.0 -2.0 M-91.0 -2.0 Q-90.15 -2.0 -89.6 -1.45 -89.0 -0.85 -89.0 0.0 -89.0 0.85 -89.6 1.4 -90.15 2.0 -91.0 2.0 -91.85 2.0 -92.45 1.4 -93.0 0.85 -93.0 0.0 -93.0 -0.85 -92.45 -1.45 -91.85 -2.0 -91.0 -2.0 M-96.6 -1.45 Q-96.0 -0.85 -96.0 0.0 -96.0 0.85 -96.6 1.4 -97.15 2.0 -98.0 2.0 -98.85 2.0 -99.45 1.4 -100.0 0.85 -100.0 0.0 -100.0 -0.85 -99.45 -1.45 -98.85 -2.0 -98.0 -2.0 -97.15 -2.0 -96.6 -1.45 M-75.6 -1.45 Q-75.0 -0.85 -75.0 0.0 -75.0 0.85 -75.6 1.4 -76.15 2.0 -77.0 2.0 -77.85 2.0 -78.45 1.4 -79.0 0.85 -79.0 0.0 -79.0 -0.85 -78.45 -1.45 -77.85 -2.0 -77.0 -2.0 -76.15 -2.0 -75.6 -1.45 M-68.6 -1.45 Q-68.0 -0.85 -68.0 0.0 -68.0 0.85 -68.6 1.4 -69.15 2.0 -70.0 2.0 -70.85 2.0 -71.45 1.4 -72.0 0.85 -72.0 0.0 -72.0 -0.85 -71.45 -1.45 -70.85 -2.0 -70.0 -2.0 -69.15 -2.0 -68.6 -1.45 M-61.6 -1.45 Q-61.0 -0.85 -61.0 0.0 -61.0 0.85 -61.6 1.4 -62.15 2.0 -63.0 2.0 -63.85 2.0 -64.45 1.4 -65.0 0.85 -65.0 0.0 -65.0 -0.85 -64.45 -1.45 -63.85 -2.0 -63.0 -2.0 -62.15 -2.0 -61.6 -1.45 M-42.0 -2.0 Q-41.15 -2.0 -40.6 -1.45 -40.0 -0.85 -40.0 0.0 -40.0 0.85 -40.6 1.4 -41.15 2.0 -42.0 2.0 -42.85 2.0 -43.45 1.4 -44.0 0.85 -44.0 0.0 -44.0 -0.85 -43.45 -1.45 -42.85 -2.0 -42.0 -2.0 M-49.0 -2.0 Q-48.15 -2.0 -47.6 -1.45 -47.0 -0.85 -47.0 0.0 -47.0 0.85 -47.6 1.4 -48.15 2.0 -49.0 2.0 -49.85 2.0 -50.45 1.4 -51.0 0.85 -51.0 0.0 -51.0 -0.85 -50.45 -1.45 -49.85 -2.0 -49.0 -2.0 M-54.6 -1.45 Q-54.0 -0.85 -54.0 0.0 -54.0 0.85 -54.6 1.4 -55.15 2.0 -56.0 2.0 -56.85 2.0 -57.45 1.4 -58.0 0.85 -58.0 0.0 -58.0 -0.85 -57.45 -1.45 -56.85 -2.0 -56.0 -2.0 -55.15 -2.0 -54.6 -1.45 M-33.6 -1.45 Q-33.0 -0.85 -33.0 0.0 -33.0 0.85 -33.6 1.4 -34.15 2.0 -35.0 2.0 -35.85 2.0 -36.45 1.4 -37.0 0.85 -37.0 0.0 -37.0 -0.85 -36.45 -1.45 -35.85 -2.0 -35.0 -2.0 -34.15 -2.0 -33.6 -1.45 M-26.6 -1.45 Q-26.0 -0.85 -26.0 0.0 -26.0 0.85 -26.6 1.4 -27.15 2.0 -28.0 2.0 -28.85 2.0 -29.45 1.4 -30.0 0.85 -30.0 0.0 -30.0 -0.85 -29.45 -1.45 -28.85 -2.0 -28.0 -2.0 -27.15 -2.0 -26.6 -1.45 M-21.0 -2.0 Q-20.15 -2.0 -19.6 -1.45 -19.0 -0.85 -19.0 0.0 -19.0 0.85 -19.6 1.4 -20.15 2.0 -21.0 2.0 -21.85 2.0 -22.45 1.4 -23.0 0.85 -23.0 0.0 -23.0 -0.85 -22.45 -1.45 -21.85 -2.0 -21.0 -2.0 M-7.0 -2.0 Q-6.15 -2.0 -5.6 -1.45 -5.0 -0.85 -5.0 0.0 -5.0 0.85 -5.6 1.4 -6.15 2.0 -7.0 2.0 -7.85 2.0 -8.45 1.4 -9.0 0.85 -9.0 0.0 -9.0 -0.85 -8.45 -1.45 -7.85 -2.0 -7.0 -2.0 M-12.6 -1.45 Q-12.0 -0.85 -12.0 0.0 -12.0 0.85 -12.6 1.4 -13.15 2.0 -14.0 2.0 -14.85 2.0 -15.45 1.4 -16.0 0.85 -16.0 0.0 -16.0 -0.85 -15.45 -1.45 -14.85 -2.0 -14.0 -2.0 -13.15 -2.0 -12.6 -1.45" fill="#000000" fill-rule="evenodd" stroke="none"/>
  </g>
</svg>
