<?xml version="1.0" encoding="UTF-8" standalone="no"?>
<svg xmlns:ffdec="https://www.free-decompiler.com/flash" xmlns:xlink="http://www.w3.org/1999/xlink" ffdec:objectType="shape" height="53.65px" width="207.15px" xmlns="http://www.w3.org/2000/svg">
  <g transform="matrix(1.0, 0.0, 0.0, 1.0, 103.05, 26.85)">
    <path d="M14.45 -13.45 L16.65 -12.3 18.65 -10.85 19.5 -9.95 21.0 -7.95 22.1 -5.75 22.85 -3.35 23.0 -2.05 23.0 0.55 22.55 3.05 21.6 5.4 21.6 5.45 20.25 7.5 18.6 9.35 16.65 10.85 14.4 11.95 12.0 12.7 9.4 12.95 -9.3 12.85 -11.85 12.4 -14.15 11.45 -16.3 10.15 -18.1 8.5 -19.6 6.5 -20.2 5.45 -21.15 3.1 -21.65 0.55 -21.65 -2.05 -21.15 -4.55 -20.2 -6.9 -18.9 -9.0 -17.2 -10.85 -15.25 -12.3 -13.05 -13.45 -10.6 -14.15 -9.3 -14.35 10.7 -14.35 11.95 -14.15 12.0 -14.15 14.45 -13.45 M9.65 -3.45 L-8.35 -3.45 -9.05 -3.3 -9.3 -3.2 -9.9 -2.75 -10.1 -2.6 -10.4 -2.15 -10.6 -1.75 -10.8 -1.0 -10.8 -0.45 -10.5 0.5 -10.25 0.9 -9.7 1.45 -9.3 1.7 -8.85 1.9 -8.35 2.0 9.8 2.0 10.65 1.7 11.05 1.45 11.75 0.7 12.05 0.0 12.15 -0.7 12.05 -1.5 11.75 -2.2 11.25 -2.75 10.85 -3.05 10.4 -3.3 9.95 -3.45 9.65 -3.45 M37.65 -14.6 L40.85 -14.9 42.6 -14.85 45.7 -14.25 47.15 -13.75 49.9 -12.35 52.3 -10.55 54.35 -8.3 56.0 -5.75 57.15 -2.9 57.75 0.15 57.9 12.7 57.75 12.7 46.55 12.75 46.45 12.65 46.35 1.2 46.15 0.2 45.8 -0.75 45.5 -1.2 44.9 -2.0 43.75 -3.0 42.8 -3.45 41.95 -3.7 40.9 -3.8 39.85 -3.7 38.9 -3.4 37.95 -2.9 37.25 -2.35 36.3 -1.2 35.85 -0.3 35.5 0.75 35.45 1.25 35.5 12.75 35.45 12.8 24.25 12.85 24.2 12.75 24.25 0.3 24.8 -2.7 25.95 -5.65 27.55 -8.2 29.6 -10.45 32.0 -12.3 34.7 -13.7 37.65 -14.6 M59.75 -5.7 L60.85 -7.9 62.3 -9.85 63.2 -10.7 65.15 -12.2 67.55 -13.45 70.0 -14.15 72.6 -14.4 91.5 -14.35 92.8 -14.15 95.25 -13.45 97.7 -12.2 99.6 -10.7 100.5 -9.85 101.95 -7.9 103.1 -5.7 103.8 -3.3 104.05 -0.75 104.1 15.9 103.8 17.5 103.2 19.0 102.4 20.3 101.35 21.45 100.1 22.35 99.15 22.9 97.6 23.45 95.95 23.75 72.25 23.8 70.8 23.65 69.45 23.25 68.1 22.6 66.75 21.55 65.7 20.5 64.85 19.2 64.3 17.75 63.95 16.2 63.9 15.1 64.1 15.05 92.35 15.1 92.3 12.75 92.25 12.75 92.0 12.8 90.45 12.95 71.35 12.85 68.85 12.4 67.4 11.9 65.2 10.75 64.2 10.05 62.4 8.4 60.9 6.45 59.75 4.25 59.05 1.8 58.8 -0.7 59.05 -3.3 59.75 -5.7 M70.1 -1.05 L70.15 -0.2 70.3 0.35 70.65 0.95 71.2 1.5 71.65 1.75 72.05 1.95 72.1 1.95 72.6 2.0 90.1 2.0 90.6 1.95 91.05 1.8 91.45 1.5 91.65 1.35 91.75 1.3 92.15 0.65 92.45 -0.4 92.45 -1.0 92.35 -1.55 91.85 -2.55 91.45 -2.95 90.75 -3.35 90.55 -3.45 90.3 -3.45 72.6 -3.5 71.85 -3.4 71.6 -3.3 71.15 -3.0 70.8 -2.7 70.5 -2.25 70.2 -1.65 70.1 -1.05 M-102.5 -4.5 L-101.6 -6.85 -100.3 -8.9 -98.6 -10.7 -96.45 -12.3 -94.25 -13.45 -91.8 -14.15 -89.25 -14.4 -70.15 -14.3 -67.65 -13.85 -65.3 -12.9 -64.0 -12.2 -62.05 -10.7 -60.4 -8.9 -59.1 -6.8 -58.2 -4.5 -57.75 -2.0 -57.75 0.55 -58.2 3.1 -59.15 5.4 -60.45 7.45 -62.1 9.25 -64.1 10.75 -65.15 11.4 -67.7 12.4 -70.2 12.85 -89.75 12.9 -89.95 12.9 -90.65 12.85 -91.45 12.75 -91.5 26.35 -91.6 26.7 -91.9 26.8 -93.45 26.8 -95.3 26.45 -97.05 25.75 -98.1 25.15 -99.6 24.05 -100.3 23.4 -101.45 21.9 -102.35 20.25 -102.9 18.4 -103.05 17.4 -103.0 -2.05 -102.5 -4.5 M-91.3 -0.15 L-91.15 0.4 -90.9 0.9 -90.55 1.35 -90.15 1.65 -89.5 1.95 -89.25 2.0 -71.2 2.0 -70.85 1.95 -70.25 1.65 -69.8 1.35 -69.35 0.75 -69.1 0.3 -68.95 -0.2 -68.9 -0.75 -69.0 -1.55 -69.2 -2.0 -69.45 -2.45 -69.8 -2.85 -70.45 -3.25 -70.5 -3.3 -70.7 -3.35 -71.2 -3.45 -89.2 -3.45 -89.65 -3.3 -90.1 -3.1 -90.35 -2.95 -90.75 -2.5 -91.05 -2.05 -91.25 -1.55 -91.35 -0.7 -91.3 -0.15 M-45.3 -26.6 L-45.25 -13.85 -42.1 -14.6 -39.7 -14.75 -36.55 -14.45 -33.55 -13.55 -30.8 -12.15 -28.45 -10.35 -26.4 -8.1 -24.75 -5.55 -23.65 -2.7 -23.05 0.35 -23.0 12.95 -34.2 12.95 -34.25 12.9 -34.25 1.35 -34.65 -0.15 -35.1 -1.05 -35.7 -1.85 -36.4 -2.5 -37.25 -3.05 -37.7 -3.25 -38.7 -3.55 -39.2 -3.6 -40.25 -3.6 -41.35 -3.35 -42.1 -3.05 -42.95 -2.5 -43.35 -2.15 -44.35 -1.0 -44.8 -0.1 -45.0 0.4 -45.2 1.4 -45.25 12.85 -45.3 12.95 -56.5 12.95 -56.65 12.9 -56.6 -16.2 -56.35 -18.35 -55.75 -20.25 -54.8 -22.0 -53.6 -23.55 -52.1 -24.8 -50.45 -25.75 -48.7 -26.45 -47.75 -26.65 -45.6 -26.85 -45.35 -26.8 -45.3 -26.6" fill="#5ec4ff" fill-rule="evenodd" stroke="none"/>
  </g>
</svg>
