<?xml version="1.0" encoding="UTF-8" standalone="no"?>
<svg xmlns:ffdec="https://www.free-decompiler.com/flash" xmlns:xlink="http://www.w3.org/1999/xlink" ffdec:objectType="shape" height="9.95px" width="330.85px" xmlns="http://www.w3.org/2000/svg">
  <g transform="matrix(1.0, 0.0, 0.0, 1.0, -233.25, -5.55)">
    <path d="M524.25 12.55 L523.95 11.45 523.85 9.9 524.05 8.95 524.6 7.75 525.15 7.05 525.75 6.4 526.55 5.95 527.0 5.8 528.35 5.6 560.2 5.6 560.65 5.7 561.05 5.85 562.3 6.5 563.0 7.3 563.9 9.0 564.1 10.1 564.1 11.1 563.55 13.05 562.85 14.15 562.65 14.25 562.3 14.6 561.55 15.05 560.75 15.4 559.85 15.5 528.35 15.5 527.45 15.4 527.4 15.3 526.65 15.05 525.85 14.5 524.85 13.5 524.25 12.55 M380.95 6.15 L381.4 5.95 382.65 5.6 415.05 5.6 415.6 5.7 416.4 5.95 417.2 6.3 417.95 6.85 418.85 7.95 419.4 9.2 419.55 10.55 419.4 11.9 418.85 13.15 417.6 14.5 416.85 14.95 415.35 15.4 382.65 15.5 381.75 15.25 380.95 14.95 380.25 14.5 379.25 13.5 378.8 12.7 378.25 11.0 378.25 10.1 378.6 8.75 378.95 7.95 379.5 7.2 379.85 6.85 380.95 6.15 M233.25 10.6 L233.45 9.05 233.8 8.15 234.35 7.25 235.05 6.55 235.5 6.25 236.3 5.8 237.15 5.55 269.55 5.55 270.45 5.75 270.8 5.9 270.9 5.9 272.05 6.7 272.7 7.35 273.15 8.15 273.5 9.05 273.65 10.4 273.6 11.5 273.3 12.3 272.85 13.1 272.05 14.2 Q271.6 14.45 271.25 14.75 L270.15 15.25 269.55 15.45 237.05 15.45 236.6 15.35 235.4 14.8 234.7 14.3 234.05 13.45 233.6 12.55 233.35 11.6 233.25 10.6" fill="#5ec4ff" fill-rule="evenodd" stroke="none"/>
  </g>
</svg>
