<?xml version="1.0" encoding="UTF-8" standalone="no"?>
<svg xmlns:ffdec="https://www.free-decompiler.com/flash" xmlns:xlink="http://www.w3.org/1999/xlink" ffdec:objectType="shape" height="7.05px" width="21.95px" xmlns="http://www.w3.org/2000/svg">
  <g transform="matrix(1.0, 0.0, 0.0, 1.0, 11.05, 2.8)">
    <path d="M0.5 -0.95 L1.4 -0.95 1.4 0.15 0.5 0.15 0.5 4.1 -0.7 4.1 -0.7 0.15 -1.15 0.15 -1.15 -0.95 -0.7 -0.95 -0.7 -2.8 0.5 -2.8 0.5 -0.95 M3.95 -0.95 L4.5 -1.1 5.0 -1.0 5.5 -0.8 4.95 0.3 4.6 0.1 4.3 0.05 Q3.9 0.05 3.65 0.3 L3.4 0.75 3.35 1.5 3.35 4.1 2.2 4.1 2.2 -0.95 3.35 -0.95 3.35 -0.5 3.95 -0.95 M7.05 -0.85 L8.2 -1.1 Q9.45 -1.1 10.25 -0.2 10.9 0.6 10.9 1.6 10.9 2.6 10.25 3.35 L9.3 4.0 8.2 4.25 7.05 4.0 6.15 3.35 5.65 2.5 5.5 1.6 Q5.5 0.6 6.15 -0.15 6.55 -0.6 7.05 -0.85 M9.7 1.6 Q9.7 0.85 9.3 0.4 8.85 -0.05 8.2 -0.05 7.5 -0.05 7.1 0.4 6.7 0.85 6.7 1.6 6.7 2.3 7.1 2.75 7.5 3.2 8.2 3.2 8.85 3.2 9.3 2.75 9.7 2.3 9.7 1.6 M-5.9 -0.95 L-5.9 4.1 -7.1 4.1 -7.1 3.55 -7.85 4.1 -8.65 4.25 Q-9.6 4.25 -10.25 3.6 -10.65 3.25 -10.85 2.7 L-11.05 1.55 -10.85 0.45 -10.3 -0.4 Q-9.6 -1.1 -8.65 -1.1 L-7.8 -0.9 -7.1 -0.35 -7.1 -0.95 -5.9 -0.95 M-1.85 -0.1 L-2.8 0.45 -3.05 0.05 -3.35 -0.05 -3.6 0.05 -3.75 0.3 -3.6 0.6 -3.05 0.9 Q-2.3 1.25 -2.0 1.5 -1.5 1.9 -1.5 2.55 -1.5 3.25 -2.05 3.75 -2.55 4.25 -3.3 4.25 -3.95 4.25 -4.45 3.9 L-4.85 3.55 -5.1 3.0 -4.1 2.55 -3.75 3.05 -3.3 3.2 -2.85 3.05 -2.7 2.7 -2.9 2.3 -3.85 1.75 -4.6 1.2 -4.85 0.45 Q-4.85 -0.2 -4.5 -0.55 -4.0 -1.1 -3.25 -1.1 -2.7 -1.1 -2.25 -0.7 L-1.85 -0.1 M-7.0 1.6 Q-7.0 0.85 -7.4 0.4 -7.8 -0.05 -8.45 -0.05 -9.0 -0.05 -9.35 0.35 L-9.7 0.9 -9.85 1.6 -9.7 2.3 -9.35 2.85 Q-9.0 3.2 -8.45 3.2 -7.8 3.2 -7.4 2.75 -7.0 2.3 -7.0 1.6" fill="#0984ff" fill-rule="evenodd" stroke="none"/>
  </g>
</svg>
