<?xml version="1.0" encoding="UTF-8" standalone="no"?>
<svg xmlns:ffdec="https://www.free-decompiler.com/flash" xmlns:xlink="http://www.w3.org/1999/xlink" ffdec:objectType="shape" height="5.4px" width="5.4px" xmlns="http://www.w3.org/2000/svg">
  <g transform="matrix(1.0, 0.0, 0.0, 1.0, 2.7, 2.7)">
    <path d="M0.0 -2.2 Q0.9 -2.2 1.55 -1.55 2.15 -0.9 2.2 0.0 2.15 0.9 1.55 1.55 0.9 2.2 0.0 2.2 -0.95 2.2 -1.6 1.55 -2.25 0.9 -2.2 0.0 -2.25 -0.9 -1.6 -1.55 -0.95 -2.2 0.0 -2.2" fill="#0984ff" fill-rule="evenodd" stroke="none"/>
    <path d="M0.0 -2.2 Q0.9 -2.2 1.55 -1.55 2.15 -0.9 2.2 0.0 2.15 0.9 1.55 1.55 0.9 2.2 0.0 2.2 -0.95 2.2 -1.6 1.55 -2.25 0.9 -2.2 0.0 -2.25 -0.9 -1.6 -1.55 -0.95 -2.2 0.0 -2.2 Z" fill="none" stroke="#93e100" stroke-linecap="round" stroke-linejoin="round" stroke-width="1.0"/>
  </g>
</svg>
